<svg xmlns="http://www.w3.org/2000/svg" width="444.80149" height="501.63574" viewBox="0 0 444.80149 501.63574" xmlns:xlink="http://www.w3.org/1999/xlink"><path d="M317.11147,16.14925c4.36534-.11014,8.344,2.9913,10.35818,6.86575,2.01418,3.87445,2.37959,8.39197,2.27832,12.75752-.10127,4.36556-.62908,8.73796-.2444,13.08771,.81836,9.25365,5.99775,18.02767,13.70416,23.21525-2.90453,.22519-5.75508-1.12031-7.94949-3.03645-2.19441-1.91614-3.83698-4.37111-5.45278-6.79519-1.36736-2.05135-2.74227-4.11645-3.72391-6.37789-1.4381-3.31303-1.98466-6.93301-2.50153-10.50752-1.27259-8.80088-2.44606-17.61609-3.52009-26.44339" fill="#2f2e41"/><g><polygon points="243.15576 490.80761 257.88717 490.80618 264.89499 433.98438 243.1528 433.9859 243.15576 490.80761" fill="#ffb6b6"/><path d="M293.62743,490.47344h0c.45868,.77251,.70071,3.26583,.70071,4.16419h0c0,2.76134-2.23847,4.9999-4.9999,4.9999h-45.62146c-1.88377,0-3.41095-1.52709-3.41095-3.41095v-1.89937s-2.25685-5.70859,2.3896-12.74473c0,0,5.77492,5.50941,14.40414-3.11981l2.54468-4.60988,18.41998,13.47144,10.20991,1.25674c2.23372,.27492,4.21412-.04267,5.36312,1.89246h.00018Z" fill="#2f2e41"/></g><g><polygon points="306.73004 480.08035 321.05059 483.53525 341.19437 429.94369 320.05871 424.84401 306.73004 480.08035" fill="#ffb6b6"/><path d="M355.8713,491.5972h0c.26463,.85856-.08508,3.33907-.29585,4.21236h0c-.64787,2.68426-3.34907,4.33515-6.03342,3.68726l-44.34803-10.70373c-1.83119-.44197-2.95746-2.28475-2.51546-4.11602l.44563-1.84635s-.8545-6.07875,5.31308-11.82834c0,0,4.3211,6.71054,14.73404,.34678l3.55522-3.88417,14.74514,17.41712,9.63007,3.61712c2.10687,.79133,4.1065,.94724,4.76941,3.09794l.00017,.00004Z" fill="#2f2e41"/></g><g><path d="M392.16199,207.18792c-2.74482-2.22621-4.75924-4.88779-5.88554-7.51162l-27.48756-19.55596,9.68813-12.80746,26.84029,21.21652c2.79983,.56044,5.81988,1.98213,8.5647,4.20834,6.27053,5.08577,8.73013,12.44335,5.49373,16.43366-3.2364,3.99031-10.94321,3.10229-17.21373-1.98347h-.00001Z" fill="#ffb6b6"/><path d="M387.09219,178.38521l-1.2842,2.62609-6.65897,13.5921-1.96954,4.01126-19.37096-17.39415-15.57609-13.98171-36.6136-32.86927c-2.53952-2.27976-3.78044-5.37481-3.78044-8.45538,0-3.6866,1.77478-7.34436,5.20167-9.56644,2.12107-1.37799,4.63892-2.00565,7.15677-1.78918,5.94479,.5122,17.92084,1.60882,30.62557,3.12385l4.37199,12.65426-2.14269,11.37006-5.82933-1.72428,5.30986,4.45134,40.55995,33.95144Z" fill="#636a60"/></g><path d="M271.27617,164.96817c2.82275,.01672,8.74298,38.25449,4.32867,44.00848-3.62122,4.72018,62.74347,0,62.74347,0-6.23895-1.26892-3.43201-42.11993,3.27209-44.00848l-40.04335-12.26464-30.30089,12.26464Z" fill="#ffb6b6"/><path d="M335.40074,203.81787h-59s-24.60375,39.06693-24.60375,114.8192l-10.1003,121.92508,25.25076,1.4429,40.68525-165.27781,22.35874,81.14186-15.42828,86.56531h24.44978l28.9437-97.61135-5.77776-51.2724s-6.0265-70.45698-26.77814-91.7328Z" fill="#2f2e41"/><path d="M349.19439,130.33664l-2.14269,11.37006-.51947,2.72706-4.29982,22.80503-5.83168,8.57907s-41.52084-12.8719-61,3l-15.66618-50.64558,16.59335-36.07251,12.9861-7.2145,2.16435-8.6574h27.5089l4.23491,8.6574,12.26465,5.7716,9.33557,27.0255,4.37199,12.65426Z" fill="#636a60"/><g><path d="M340.84145,89.15768c-2.24809,2.72693-4.92569,4.72001-7.55845,5.82528l-19.77514,27.3303-12.72958-9.79024,21.43048-26.66977c.58281-2.79526,2.02861-5.80384,4.2767-8.53077,5.13575-6.22966,12.51276-8.63034,16.47707-5.36214,3.96431,3.26821,3.01468,10.96767-2.12106,17.19732h-.00001Z" fill="#ffb6b6"/><path d="M287.53197,92.55648s-20.94227-11.51371-27.7417,0c-5.80135,9.82361-10.84373,59.45984-12.19907,73.82039-.2379,2.52065,.3706,5.0409,1.72989,7.17693v.00002c4.02552,6.3258,12.96088,7.09988,18.01427,1.56058l64.81226-71.0442-20.149-10.0745-34.54114,35.98035,10.0745-37.41957Z" fill="#636a60"/></g><circle cx="301.90334" cy="44.39028" r="26.33293" fill="#ffb6b6"/><path d="M322.18147,30.15811c-4.10596,2.77197-6.73261,7.41736-7.4,14.33988-2.57901-2.04794-2.96109-5.77344-1.97998-10.53998-1.79355,4.87894-16.34998,29.70996-17.31,37.56-.60999,5,1.39001,10.03998,4.46002,14.02997,2.87,3.72003,6.60999,6.64001,10.44,9.38-7.20001-2.63-13.20001-8.41998-16.05005-15.53998-4.12-10.28003-1.66998-21.72003,1.57001-32.48999-.76001,1.42999-1.84998,4.03998-3.10999,5.06-1.62,1.31-3.53998,.89996-4.84003,2.52997-1.57996,1.98004-1.87994,4.75-1.38995,7.23999,.5,2.49005,1.69981,4.76999,2.87998,7.00998-16.6958-3.13916-21.65967-22.22046-14.02979-35.21997-4.88037,8.76001-5.94022,26.39999,.2698,34.26004,3.47998,4.40997,8.51996,7.84998,10.26001,13.19,1.21997,3.75,.54999,7.92999-1.13,11.5-1.67999,3.56995-4.31,6.60999-7.09003,9.40997-1.14001,1.15002-2.31,2.26001-3.52997,3.34003h0c-1.34811-1.37307-3.63598-.72355-4.13387,1.13516-.27663,1.03269-.71334,2.09715-1.26613,3.1848-4.94055,1.12143-11.61218-.43512-12.63,6.51001-.27148,1.85229-3.62,1.03002-5.47999,1.33001h0c.50096-1.39444-1.11717-2.62865-2.30027-1.73664-1.54597,1.1656-3.19224,1.84873-4.91977,2.13667-4.39996-.24005-8.70996-1.36005-12.52997-3.54004,12.17999-7.58997,22.86578-5.39975,27.62579-18.93979,.74561-2.11805,.98555-6.536,.97233-11.50577-.02999-11.26774-2.68016-22.32837-7.24379-32.63062-.55678-1.25691-.981-2.47131-1.16433-3.53381-1.33002-7.66998,.73999-18.21002,4.09998-23.16998,3.35999-4.95001,9.16998-8.15002,15.16003-8.31,2.98999-.09003,4.76996,1.21997,7.40997-.19,2.82001-1.51001,3.47998,.46997,5.39001-2.09003,3.40997-4.57001,9.21997-6.92999,14.91998-7.13,5.70001-.20001,8.88999-1.79044,14.06998,.59958,3.27002,1.51001,7.03613,9.96899,10.64014,10.02051,7.46045,.10669,8.8916,6.36475-.64014,12.80005Z" fill="#2f2e41"/><path d="M311.22147,95.51801c-.27997-.20001-.54999-.39001-.82996-.59003,.21997,.09003,.44,.17004,.65997,.23999l.16998,.35004Z" fill="#2f2e41"/><path d="M439.62633,202.5617c-4.15592-4.90609-10.22707-7.71983-16.65685-7.71983h-25.27285c-6.64086,0-12.83856,2.96673-17.00355,8.13939-4.16499,5.17266-5.74106,11.86045-4.32421,18.34883l5.5152,25.25392c-1.35375,3.46924-2.1048,7.24011-2.1048,11.18858,0,17.0112,13.79031,30.80154,30.80154,30.80154s30.80154-13.79034,30.80154-30.80154c0-3.35158-.54254-6.5748-1.53231-9.59547l4.65281-27.9159c1.05694-6.34239-.72036-12.7937-4.87653-17.69953Zm-29.04551,24.40936c-8.96198,0-17.02692,3.83042-22.65554,9.93989l-3.77409-17.28036c-.8998-4.12065,.10139-8.36836,2.74658-11.65352,2.64519-3.28516,6.58122-5.16929,10.79885-5.16929h25.27285c4.08357,0,7.93947,1.78689,10.57895,4.90272,2.63949,3.11583,3.76825,7.21315,3.09691,11.24122l-3.05811,18.34903c-5.64155-6.33549-13.85579-10.32969-23.00641-10.32969Z" fill="#3f3d56"/><path d="M155.30286,433.0115c-3.25885-3.8471-8.01954-6.05349-13.06144-6.05349h-19.81766c-5.20742,0-10.06733,2.32636-13.3333,6.38249s-4.50184,9.30035-3.39082,14.38821l4.32474,19.80282c-1.06154,2.7204-1.65047,5.67732-1.65047,8.77351,0,13.3393,10.81365,24.15297,24.15297,24.15297s24.15297-10.81367,24.15297-24.15297c0-2.62813-.42543-5.15562-1.20156-7.52427l3.6485-21.89021c.82879-4.97338-.56487-10.03215-3.82392-13.87905Zm-22.77599,19.14056c-7.02752,0-13.35163,3.00362-17.7653,7.79435l-2.95944-13.55036c-.70557-3.2312,.0795-6.56204,2.15373-9.13809s5.16065-4.05349,8.4679-4.05349h19.81766c3.20212,0,6.22572,1.40118,8.29547,3.84446s2.95487,5.65618,2.42843,8.81479l-2.39801,14.38836c-4.42381-4.96796-10.86499-8.10001-18.04044-8.10001Z" fill="#3f3d56"/><path d="M280.37668,18.81396l-1.91016-.5918c.28513-6.70154,2.0968-12.80261,5.64111-18.22217l1.91016,.5918-5.64111,18.22217Z" fill="#636a60"/><path d="M280.38733,16.46933l-1.22727,1.57885-15.06308-11.70356,1.22727-1.57885c6.64978,2.34767,11.50275,6.40915,15.06308,11.70355Z" fill="#636a60"/><path d="M367.55135,484.30278c2.06592,.12937,3.20768-2.43737,1.64468-3.93333l-.1555-.61819c.02047-.04951,.04105-.09897,.06178-.14839,2.08924-4.9818,9.16992-4.94742,11.24139,.04177,1.83859,4.42817,4.17942,8.86389,4.75579,13.54594,.25838,2.0668,.14213,4.17236-.31648,6.20047,4.30807-9.41059,6.57515-19.68661,6.57515-30.02077,0-2.59652-.14213-5.19301-.43275-7.78295-.239-2.11854-.56839-4.2241-.99471-6.31034-2.30575-11.2772-7.29852-22.01825-14.50012-30.98962-3.46197-1.89248-6.34906-4.85065-8.09295-8.39652-.62649-1.27891-1.11739-2.65462-1.34991-4.05618,.39398,.05168,1.48556-5.94866,1.18841-6.3168,.54906-.83317,1.53178-1.24733,2.13144-2.06034,2.98232-4.04341,7.0912-3.33741,9.23621,2.15727,4.58224,2.31266,4.62659,6.14806,1.81495,9.83683-1.78878,2.34682-2.03456,5.52233-3.60408,8.03478,.16151,.20671,.32944,.40695,.4909,.61366,2.96106,3.79788,5.52208,7.88002,7.68104,12.16859-.61017-4.76621,.29067-10.50822,1.82641-14.20959,1.74819-4.21732,5.02491-7.76915,7.91045-11.41501,3.46601-4.37924,10.57337-2.46806,11.18401,3.08332,.00591,.05375,.01166,.10745,.01731,.1612-.4286,.24178-.84849,.49867-1.25864,.76992-2.33949,1.54723-1.53096,5.17386,1.24107,5.60174l.06277,.00967c-.15503,1.54366-.41984,3.07444-.80734,4.57937,3.70179,14.31579-4.29011,19.5299-15.70147,19.76412-.25191,.12916-.49738,.25832-.74929,.38109,1.15617,3.25525,2.07982,6.59447,2.76441,9.97891,.61359,2.99043,1.03991,6.01317,1.27885,9.04888,.29715,3.83006,.27129,7.67959-.05168,11.50323l.01939-.13562c.82024-4.21115,3.10671-8.14462,6.4266-10.87028,4.94561-4.06264,11.93282-5.55869,17.26826-8.82425,2.56833-1.57196,5.85945,.45945,5.41121,3.43708l-.02182,.14261c-.79443,.32289-1.56947,.69755-2.31871,1.11733-.4286,.24184-.84848,.49867-1.25864,.76992-2.33949,1.54729-1.53096,5.17392,1.24107,5.6018l.06282,.00965c.0452,.00646,.08397,.01295,.12911,.01944-1.36282,3.23581-3.26168,6.23922-5.63854,8.82922-2.31463,12.49713-12.25603,13.68282-22.89022,10.04354h-.00648c-1.16259,5.06378-2.86128,10.01127-5.0444,14.72621h-18.02019c-.06463-.20022-.12274-.40692-.18089-.60717,1.6664,.10341,3.34571,.00649,4.98629-.29702-1.33701-1.64059-2.67396-3.29409-4.01097-4.93462-.03229-.0323-.05816-.0646-.08397-.09689-.67817-.8396-1.36282-1.67283-2.04099-2.51246l-.00036-.00102c-.04245-2.57755,.26652-5.14662,.87876-7.63984l.00057-.00035Z" fill="#f2f2f2"/><path d="M0,500.44574c0,.66003,.53003,1.19,1.19006,1.19H420.48004c.65997,0,1.19-.52997,1.19-1.19,0-.65997-.53003-1.19-1.19-1.19H1.19006c-.66003,0-1.19006,.53003-1.19006,1.19Z" fill="#ccc"/></svg>
