<svg width="2018" height="1024" viewBox="0 0 2018 1024" fill="none" xmlns="http://www.w3.org/2000/svg">
<g clip-path="url(#clip0_203_109)">
<path d="M435.388 1023.49C380.502 1019.85 328.149 999.16 285.521 964.228C246.81 932.476 217.685 889.894 201.97 841.874C201.417 840.122 200.864 838.74 200.726 838.74C200.587 838.74 192.384 844.5 182.43 851.597C108.095 904.503 49.2454 942.615 7.81537 964.735C4.26686 966.671 2.56173 967.316 1.77829 967.132C0.257496 966.763 -0.0190114 965.196 1.17919 963.906C1.7322 963.26 7.40061 959.205 13.7142 954.827C59.891 922.936 118.05 879.479 178.375 831.919C194.366 819.292 195.564 818.232 195.334 817.126C193.122 806.711 191.14 793.531 189.942 780.904C189.573 777.217 189.343 754.359 189.204 711.915L189.02 648.457L209.205 648.318L229.39 648.18L232.616 646.613C236.948 644.493 241.372 640.069 243.492 635.737C245.059 632.557 245.059 632.419 245.059 626.29C245.059 620.161 245.059 620.022 243.492 616.842C241.372 612.511 236.948 608.086 232.616 605.966L229.39 604.4L209.251 604.261L189.066 604.123V578.823V553.522L209.251 553.384L229.39 553.246L232.616 551.679C236.948 549.559 241.372 545.135 243.492 540.803C245.059 537.623 245.059 537.485 245.059 531.356C245.059 525.226 245.059 525.088 243.492 521.908C241.372 517.576 236.948 513.152 232.616 511.032L229.39 509.465L209.251 509.327L189.066 509.189V483.888V458.588L209.251 458.45L229.39 458.311L232.616 456.745C236.948 454.625 241.372 450.201 243.492 445.869C245.059 442.689 245.059 442.55 245.059 436.421C245.059 430.292 245.059 430.154 243.492 426.974C241.372 422.642 236.948 418.218 232.616 416.098L229.39 414.531L209.159 414.393L188.928 414.255L189.204 391.12C189.481 367.386 189.988 359.229 191.831 346.095C194.135 330.012 197.914 314.251 203.03 299.32C205.011 293.513 206.855 287.983 207.131 287.107C207.592 285.632 207.408 285.079 204.873 279.687C201.509 272.59 198.974 268.673 194.642 263.604C192.799 261.53 191.416 259.456 191.463 259.042C191.785 257.659 194.412 258.304 197.223 260.47C198.606 261.53 200.772 263.097 201.97 263.88C203.168 264.71 206.117 267.245 208.514 269.503L212.846 273.696L215.795 267.752L218.745 261.853L218.146 259.272C216.717 252.958 216.164 247.474 215.933 237.981C215.657 226.967 216.164 218.395 217.685 207.381C218.652 200.652 219.666 197.611 221.003 197.334C222.385 197.058 222.8 199.869 222.247 206.459C221.602 213.786 221.924 216.874 224.551 227.612C225.519 231.759 226.625 237.566 226.948 240.562L227.501 245.954L232.478 238.396C243.031 222.404 252.939 210.284 266.719 196.551C272.018 191.251 278.516 185.122 281.143 182.956C283.724 180.836 285.844 178.808 285.844 178.44C285.844 175.674 279.761 169.13 275.198 166.918C268.977 163.923 256.442 163.416 246.764 165.766C241.879 166.965 240.681 166.826 241.28 165.213C241.695 164.153 246.718 161.895 250.82 160.974C255.658 159.821 268.562 159.821 273.171 160.974C281.328 163.047 286.397 167.379 288.609 174.338C288.885 175.26 289.208 176.043 289.3 176.043C289.438 176.043 291.927 174.2 294.922 171.988C325.984 148.669 362.621 132.355 401.055 124.705C419.028 121.11 433.453 119.728 452.44 119.728C475.943 119.728 496.404 122.309 519.032 128.161C532.581 131.618 555.301 139.775 555.116 141.065C554.794 144.06 553.872 148.853 553.595 148.853C553.411 148.853 549.955 147.517 545.853 145.904C526.544 138.162 503.87 132.217 482.994 129.498C470.643 127.931 464.237 127.47 452.44 127.47C440.642 127.47 434.236 127.931 421.886 129.498C388.935 133.83 355.339 145.074 326.398 161.48C285.706 184.615 254.23 216.091 231.141 256.876L226.717 264.618L226.994 269.595C227.178 272.314 227.593 275.448 227.962 276.508C228.745 278.812 228.515 279.734 227.132 279.734C226.349 279.734 225.796 278.996 224.551 276.508C223.676 274.756 222.846 273.282 222.708 273.282C222.431 273.282 219.021 280.84 219.021 281.531C219.021 281.761 220.081 283.697 221.371 285.817C225.243 292.176 227.27 296.923 231.28 309.136C235.105 320.749 236.672 324.297 239.667 328.03C240.819 329.459 241.142 330.15 240.773 330.519C239.713 331.579 237.685 330.242 232.847 325.449C225.243 317.846 219.298 309.919 214.827 301.532C213.721 299.412 212.661 297.707 212.523 297.707C212.108 297.707 207.177 313.467 205.196 321.21C199.435 343.791 197.454 360.151 197.039 387.94L196.762 406.466H211.74C228.699 406.466 230.911 406.789 237.132 410.015C241.649 412.319 247.271 417.941 249.575 422.458C254.23 431.444 254.23 441.398 249.575 450.385C247.271 454.901 241.649 460.523 237.132 462.828C230.911 466.054 228.699 466.376 211.786 466.376H196.901V483.888V501.401H211.786C228.699 501.401 230.911 501.723 237.132 504.949C241.649 507.253 247.271 512.876 249.575 517.392C254.23 526.378 254.23 536.333 249.575 545.319C247.271 549.835 241.649 555.458 237.132 557.762C230.911 560.988 228.699 561.311 211.786 561.311H196.901V578.823V596.335H211.786C228.699 596.335 230.911 596.657 237.132 599.883C241.649 602.188 247.271 607.81 249.575 612.326C254.23 621.313 254.23 631.267 249.575 640.253C247.271 644.77 241.649 650.392 237.132 652.696C230.911 655.922 228.699 656.245 211.786 656.245H196.854L197.085 715.602C197.269 768.553 197.5 781.457 198.375 782.332C198.513 782.471 200.034 782.102 201.739 781.503C203.905 780.765 205.795 779.613 208.283 777.586C211.694 774.728 212.569 774.314 217.869 773.254C221.602 772.516 226.763 770.442 231.464 767.77C236.257 765.051 238.515 764.037 244.782 761.963C250.036 760.212 256.626 756.617 260.036 753.575C263.308 750.718 274.323 743.713 279.761 741.04C283.586 739.151 284.968 738.229 285.936 736.847C287.226 735.049 289.254 733.39 294.6 729.75C305.153 722.607 307.918 720.809 309.347 720.302C312.619 719.058 317.873 715.878 319.762 714.035C320.822 712.975 322.02 711.178 322.481 709.887C323.725 706.569 324.601 705.878 329.302 704.219C334.094 702.56 335.154 701.869 341.606 696.108C344.141 693.85 347.229 691.315 348.427 690.486C349.625 689.702 351.007 688.688 351.468 688.228C351.975 687.767 358.519 682.006 365.985 675.416C399.074 646.337 427.416 620.806 462.947 588.04L475.712 576.288L471.887 572.555C465.021 565.873 454.974 559.006 446.034 554.905C438.568 551.448 427.416 548.407 422.254 548.407C420.503 548.407 419.72 547.669 420.365 546.61C420.595 546.287 422.669 545.964 425.987 545.78C442.624 544.904 463.085 550.895 478.247 561.08C480.782 562.785 483.27 564.352 483.777 564.536C488.063 566.242 500.829 578.085 502.856 582.233C504.884 586.427 504.469 590.436 502.119 589.699C501.566 589.514 499.769 587.487 498.063 585.136C495.298 581.403 491.473 577.532 490.045 577.071C489.169 576.795 490.828 581.219 492.487 583.615C493.409 584.906 498.017 590.021 502.718 594.952C508.939 601.45 512.119 604.4 514.239 605.69C517.834 607.81 519.216 609.423 518.525 610.667C517.557 612.557 513.594 611.358 508.294 607.579L506.128 606.013L490.782 618.133C473.823 631.59 444.329 654.724 429.305 666.383C423.959 670.577 419.627 674.033 419.674 674.08C419.72 674.172 420.595 673.803 421.563 673.296C422.577 672.789 423.867 672.374 424.42 672.374C425.019 672.374 426.356 671.591 427.508 670.531C429.029 669.102 430.181 668.503 432.116 668.135C434.743 667.582 434.974 667.259 434.789 665.001C434.605 663.204 435.388 662.19 438.706 659.701C442.854 656.706 442.946 656.706 448.246 659.24C450.919 660.531 452.163 660.853 454.329 660.853C457.417 660.853 460.136 661.959 461.841 663.803C462.486 664.448 463.408 665.001 463.961 665.001C465.989 665.001 468.155 666.107 470.505 668.319C471.795 669.517 473.178 670.531 473.593 670.531C473.961 670.531 474.652 669.978 475.159 669.287C475.666 668.549 477.51 667.259 479.215 666.383C482.579 664.678 482.948 664.171 484.561 658.549C485.022 656.936 485.528 656.291 487.003 655.415C489.307 654.125 490.736 654.263 495.99 656.199C498.156 657.028 500.782 657.996 501.796 658.365C503.409 658.964 503.87 659.425 504.7 661.314C505.437 663.065 505.99 663.664 506.958 663.895C507.649 664.033 508.617 664.264 509.124 664.402C510.783 664.863 513.64 667.259 514.884 669.195C515.852 670.761 516.543 671.314 518.755 672.098C522.12 673.296 523.087 674.863 523.502 679.84C523.779 683.02 523.871 683.296 525.576 684.771C526.544 685.601 528.203 687.859 529.217 689.702C530.415 691.822 532.304 694.311 534.286 696.246C537.281 699.196 538.848 701.73 538.848 703.666C538.848 705.002 539.494 705.187 541.567 704.588C543.088 704.127 543.595 704.173 544.286 704.68C544.747 705.048 546.13 706.062 547.328 706.938C548.48 707.813 549.863 709.196 550.369 710.026C551.061 711.178 551.798 711.638 553.918 712.284C555.393 712.698 557.19 713.574 557.881 714.265C558.803 715.095 559.725 715.464 560.877 715.51C562.029 715.51 563.273 716.017 564.656 716.984C566.177 718.09 568.02 718.782 571.568 719.565L576.407 720.671L578.85 723.344C580.232 724.865 582.444 727.63 583.781 729.565C585.578 732.1 587.237 733.713 589.772 735.51C592.076 737.169 594.104 739.105 595.717 741.225C598.62 745.096 599.265 746.34 600.417 749.935C601.247 752.562 601.339 752.7 604.058 753.898C607.975 755.741 614.012 762.009 614.888 765.143C615.395 767.124 615.717 767.493 617.699 768.461C619.128 769.198 620.418 770.35 621.386 771.779C622.215 773.023 623.69 774.867 624.658 775.927C625.626 777.033 626.409 778.046 626.409 778.231C626.409 778.461 626.593 778.876 626.778 779.199C627.054 779.613 627.746 779.199 629.312 777.632C631.34 775.604 631.571 775.512 633.414 775.742C636.64 776.157 639.359 778.922 640.004 782.378C640.373 784.59 641.663 785.973 644.613 787.448C648.668 789.521 651.986 792.056 655.12 795.42C658.207 798.784 660.788 800.49 662.678 800.49C663.784 800.49 670.696 805.835 672.77 808.278C674.107 809.891 677.01 811.55 678.485 811.55C679.821 811.55 680.881 812.149 685.305 815.559C689.084 818.417 689.176 818.463 692.126 818.463C694.384 818.463 695.628 818.739 697.379 819.615C698.624 820.26 699.776 820.767 699.868 820.767C700.467 820.767 703.831 804.361 705.168 794.959C707.103 781.457 707.564 774.36 707.841 754.82L708.117 735.649L704.707 734.865C702.817 734.404 700.052 733.759 698.532 733.39C697.011 733.022 693.923 732.561 691.711 732.423C685.49 732.008 685.628 730.441 691.941 730.441C703.048 730.441 722.634 732.976 732.173 735.695C735.261 736.524 738.994 737.492 740.468 737.815C741.989 738.091 746.782 739.151 751.068 740.119C767.013 743.759 776.599 745.096 793.65 746.11C808.443 746.985 815.079 749.566 826.324 758.645C829.734 761.456 830.426 762.839 828.997 764.037C827.614 765.189 810.609 767.539 800.01 768.046C788.166 768.599 776.553 766.341 762.589 760.765C760.054 759.751 748.948 754.497 737.934 749.105C726.92 743.667 717.426 739.151 716.873 738.967L715.813 738.69V749.889C715.813 771.779 714.523 789.521 711.85 805.098C702.126 861.782 674.291 913.489 632.308 952.891C591.2 991.464 537.834 1016.12 481.934 1022.34C467.602 1023.95 449.076 1024.41 435.388 1023.49ZM475.021 1015.06C498.801 1012.39 519.815 1007.5 540.415 999.806C547.927 996.994 559.079 992.248 564.149 989.713L566.499 988.515V980.081C566.499 967.823 564.702 930.033 563.918 924.826L563.642 923.075H451.979H340.316L340.039 924.826C339.256 929.941 337.459 967.777 337.459 979.851V988.054L340.316 989.483C366.676 1002.8 401.839 1012.62 432.393 1015.24C435.573 1015.47 438.891 1015.8 439.766 1015.89C443.684 1016.35 468.984 1015.75 475.021 1015.06ZM586.822 977.178C603.275 967.085 620.418 953.629 633.322 940.633C639.036 934.872 648.53 924.135 648.53 923.443C648.53 923.213 631.202 923.075 610.049 923.075H571.522L571.753 924.595C572.352 928.282 573.596 954.136 574.149 973.215L574.472 984.367L577.513 982.662C579.172 981.74 583.366 979.252 586.822 977.178ZM330.546 953.26C331.053 940.31 331.79 927.775 332.159 924.826L332.389 923.075H294.369C273.447 923.075 256.35 923.213 256.35 923.443C256.35 924.135 265.843 934.872 271.558 940.633C285.337 954.504 302.48 967.823 320.868 978.837L329.394 983.952L329.716 974.828C329.901 969.804 330.269 960.127 330.546 953.26ZM332.85 914.918C332.85 914.687 333.265 910.217 333.772 904.871C337.505 866.713 343.219 831.873 351.146 799.107C352.805 792.148 356.492 778.277 357.045 776.848C357.367 776.111 355.339 776.065 316.951 776.157L276.489 776.295L271.742 785.512C254.138 819.661 243.446 849.339 233.999 890.539C233.722 891.783 239.99 901.922 247.087 911.646L249.667 915.194L291.282 915.24C314.14 915.24 332.85 915.102 332.85 914.918ZM562.997 913.305C558.25 862.289 550.922 821.735 538.434 777.447L538.111 776.295H451.979H365.847L365.524 777.447C353.035 821.735 345.708 862.289 340.961 913.305L340.777 915.24H451.979H563.181L562.997 913.305ZM657.793 911.646C663.461 903.857 672.033 890.309 675.72 883.304L676.872 881.138L675.535 875.976C670.604 856.805 664.89 839.247 657.839 821.689C651.571 806.066 647.654 797.54 646.364 796.526C645.903 796.204 644.198 795.19 642.539 794.314C638.437 792.148 636.962 790.489 636.087 787.033C634.981 782.655 633.598 782.517 631.202 786.618C630.05 788.554 629.036 788.784 626.501 787.494C624.888 786.71 624.013 785.881 623.183 784.314C622.538 783.162 620.925 780.996 619.635 779.567C618.298 778.093 617.192 776.71 617.192 776.48C617.192 776.249 603.044 776.065 581.891 776.065C548.434 776.065 546.591 776.111 546.913 776.894C547.466 778.277 551.153 792.194 552.812 799.107C560.739 831.873 566.453 866.713 570.186 904.871C570.693 910.217 571.108 914.687 571.108 914.918C571.108 915.102 590.048 915.24 613.183 915.24L655.212 915.194L657.793 911.646ZM114.409 891.507C126.714 883.396 142.382 872.796 149.203 868.004C159.249 860.999 198.606 833.348 199.113 832.979C199.251 832.841 197.315 824.822 197.085 824.5C196.993 824.408 190.587 829.431 182.753 835.606C154.641 857.865 127.728 878.695 103.579 896.76C96.7587 901.876 91.0442 906.3 90.952 906.576C90.7216 907.222 88.8782 908.42 114.409 891.507ZM230.773 870.4C233.492 859.478 233.906 858.003 238.238 844.5C244.829 823.901 252.801 804.545 262.525 785.466L267.318 776.065H249.575H231.787L227.777 777.678C225.565 778.553 222.109 779.613 220.127 779.982C218.146 780.397 216.026 780.811 215.473 780.904C214.92 781.042 213.537 781.964 212.385 782.931C207.085 787.494 201.463 791.273 199.896 791.273C199.066 791.273 199.02 790.766 200.126 797.725C202.984 816.389 208.376 835.975 215.611 854.409C218.745 862.335 227.593 880.999 228.054 880.585C228.146 880.446 229.39 875.838 230.773 870.4ZM689.361 854.086C692.172 846.989 696.919 833.164 697.564 830.214C697.84 828.97 697.656 828.739 695.859 827.541C694.153 826.481 693.508 826.343 691.803 826.574C689.084 826.942 686.596 825.79 681.941 821.965C679.913 820.306 677.932 818.923 677.517 818.923C676.088 818.923 671.157 816.066 669.683 814.407C668.853 813.485 667.563 812.333 666.779 811.826C665.996 811.366 664.521 810.26 663.553 809.338C662.539 808.462 661.618 807.955 661.526 808.232C661.433 808.508 661.986 810.121 662.724 811.873C668.669 825.514 676.319 848.233 681.757 868.234L682.31 870.308L684.337 865.93C685.49 863.533 687.748 858.188 689.361 854.086ZM275.705 761.917C277.825 758.414 280.867 753.622 282.48 751.225C284.093 748.829 285.337 746.801 285.199 746.709C284.553 746.018 269.161 755.603 262.248 760.995C259.161 763.438 252.801 767.078 250.451 767.77C249.713 768 253.953 768.184 260.543 768.184L271.88 768.23L275.705 761.917ZM362.39 759.613C373.082 727.446 385.34 702.053 399.488 682.836L400.733 681.13L399.673 679.978C398.29 678.504 396.401 678.135 394.65 679.011C392.898 679.932 390.133 679.932 388.013 679.057C387.092 678.688 386.262 678.365 386.124 678.365C385.986 678.365 385.248 679.61 384.419 681.177C382.115 685.462 380.179 686.43 375.847 685.509C374.971 685.324 374.326 685.37 374.326 685.601C374.326 685.831 373.312 686.707 372.068 687.49C370.225 688.688 369.349 688.965 367.229 688.965H364.695L362.851 691.453C361.008 693.896 358.565 695.417 356.215 695.417C354.141 695.463 351.33 697.26 346.261 701.822C339.993 707.537 336.675 709.749 331.928 711.316L328.288 712.514L326.214 715.878C325.062 717.768 323.403 719.795 322.619 720.395C321.145 721.501 316.582 724.127 312.711 726.017C310.038 727.353 303.448 735.372 293.816 749.105C289.254 755.603 281.696 767.309 281.696 767.862C281.696 768.092 299.208 768.23 320.592 768.23H359.487L362.39 759.613ZM532.627 759.566C523.733 733.114 512.857 710.164 501.013 692.652C496.773 686.338 490.598 678.596 487.141 675.278L484.699 672.881L482.579 673.803C481.381 674.31 480.183 675.278 479.814 675.923C478.57 678.273 474.975 679.057 471.703 677.674C470.781 677.259 468.938 675.923 467.602 674.679C466.265 673.388 464.744 672.374 464.283 672.374C462.947 672.374 460.32 671.176 458.753 669.84C457.832 669.056 456.265 668.457 453.822 667.996C451.656 667.582 449.076 666.706 447.14 665.6L443.914 663.895L442.9 664.863C442.301 665.37 441.379 666.061 440.826 666.337C439.997 666.752 439.766 667.259 439.766 668.734C439.766 669.794 439.398 671.222 438.983 671.96C438.153 673.342 435.481 674.679 433.499 674.679C432.762 674.679 431.748 675.324 430.642 676.476C429.397 677.766 428.384 678.365 427.001 678.596C425.987 678.734 424.42 679.379 423.591 680.024C422.485 680.808 421.471 681.13 419.904 681.13C418.521 681.13 417.554 681.407 417.139 681.868C415.941 683.296 412.945 684.449 411.01 684.264L409.12 684.034L406.539 687.536C400.18 696.154 394.88 705.002 389.073 716.616C382.253 730.211 376.677 743.667 371.331 759.566L368.381 768.23H451.979H535.576L532.627 759.566ZM610.279 767.908C610.279 767.677 608.943 766.157 607.284 764.405C605.118 762.147 603.551 760.949 601.385 759.981C597.606 758.276 596.731 757.308 595.578 753.529C594.288 749.428 590.878 744.958 586.684 741.824C582.767 738.921 581.984 738.091 579.311 734.266C575.393 728.69 574.333 727.86 570.324 726.939C566.407 726.063 564.103 725.233 562.351 723.989C561.706 723.574 560.278 723.067 559.172 722.929C557.789 722.745 556.729 722.238 555.715 721.27C554.886 720.487 553.826 719.842 553.365 719.842C551.429 719.795 548.204 717.86 545.715 715.187C543.272 712.56 543.042 712.422 541.475 712.698C540.323 712.929 539.263 712.745 537.788 712.099C535.899 711.27 535.622 710.947 534.977 708.735C534.562 707.399 534.24 706.016 534.24 705.694C534.24 705.325 532.627 703.435 530.599 701.5C528.203 699.15 526.498 696.984 525.576 695.14C524.793 693.573 523.364 691.361 522.396 690.209C519.585 686.845 518.018 683.988 517.742 681.776C517.557 679.794 517.465 679.702 514.838 678.55C512.857 677.628 511.751 676.752 510.414 674.955C509.078 673.158 507.926 672.282 505.667 671.176C502.257 669.563 501.658 668.964 500.829 666.522C500.276 664.863 500.045 664.724 495.529 663.25C492.994 662.374 490.736 661.775 490.598 661.913C490.506 662.051 490.183 663.019 489.953 664.079L489.492 666.015L494.285 670.992C512.35 689.656 528.203 719.381 541.567 759.613L544.471 768.23H577.375C595.486 768.23 610.279 768.092 610.279 767.908ZM379.58 675.416C382.253 671.453 386.861 669.702 388.843 671.914C389.857 673.02 390.732 673.066 392.898 672.144C395.433 671.084 397.461 671.268 398.751 672.605C399.35 673.25 399.995 673.757 400.226 673.757C400.456 673.757 401.194 674.172 401.885 674.633C404.65 676.614 403.728 677.167 425.065 660.485C447.278 643.203 497.557 603.662 500.091 601.542C500.183 601.496 498.663 599.883 496.635 597.994C494.653 596.15 490.321 591.68 487.003 588.086C483.731 584.537 480.92 581.588 480.736 581.588C480.597 581.588 477.049 584.768 472.901 588.639C449.168 610.667 413.636 642.926 387.691 665.923C380.732 672.098 374.971 677.305 374.879 677.49C374.741 677.812 376.446 678.319 377.322 678.135C377.598 678.135 378.612 676.891 379.58 675.416Z" fill="black"/>
<path d="M850.15 750.304C845.588 749.152 841.993 747.585 833.79 743.114C820.517 735.925 817.798 735.004 806.139 733.944C793.005 732.745 786.922 730.81 782.175 726.34C780.101 724.358 779.825 723.943 780.332 723.344C780.839 722.699 781.069 722.745 782.221 723.713C783.465 724.773 787.337 726.247 790.931 727.031C791.807 727.261 799.088 727.446 807.061 727.446C819.135 727.446 822.177 727.584 825.264 728.275C827.292 728.736 831.532 729.473 834.712 729.98C844.528 731.455 852.731 734.266 858.86 738.276C862.777 740.856 864.252 742.654 864.574 745.465C864.851 747.953 863.883 749.612 861.671 750.534C859.551 751.41 854.113 751.318 850.15 750.304Z" fill="black"/>
<path d="M900.52 741.179C899.875 741.087 897.156 739.842 894.529 738.46C873.146 727.123 860.427 722.975 844.62 722.146C836.463 721.731 833.145 721.132 828.49 719.196C824.158 717.399 824.435 716.247 828.951 717.399C831.209 717.998 836.14 718.182 855.45 718.459C876.971 718.735 879.644 718.874 884.298 719.749C900.612 722.929 910.382 729.75 908.447 736.801C908.216 737.768 907.525 739.013 906.926 739.566C905.912 740.534 903.239 741.593 902.225 741.455C901.995 741.409 901.212 741.271 900.52 741.179Z" fill="black"/>
<path d="M702.449 728.598C687.517 727.215 680.835 726.063 672.632 723.298C665.858 721.04 659.037 717.353 647.239 709.611C635.35 701.777 629.681 698.827 622.492 696.799C616.962 695.233 615.81 694.587 615.81 693.113C615.81 691.269 617.146 690.67 620.649 690.947C627.515 691.5 635.211 695.002 647.332 703.159C652.862 706.892 655.811 708.551 657.701 709.058C659.452 709.519 664.198 709.887 672.263 710.164C688.255 710.763 692.126 711.454 709.131 716.938C725.122 722.054 732.358 723.298 743.787 722.929C765.032 722.238 778.304 714.726 780.793 701.961C782.498 693.435 779.133 683.711 772.313 676.983C768.949 673.757 769.686 671.914 773.142 674.771C777.659 678.504 782.774 686.569 784.249 692.421C785.171 696.016 785.124 702.837 784.203 706.062C781.806 714.266 775.631 720.164 765.815 723.667C761.529 725.188 753.372 726.985 746.229 727.953C739.639 728.828 710.053 729.289 702.449 728.598Z" fill="black"/>
<path d="M907.295 720.118C905.544 719.795 899 718.136 892.778 716.477C859.551 707.491 837.615 706.477 818.121 713.113C813.789 714.588 812.591 714.634 812.591 713.298C812.591 712.744 817.568 710.579 822.96 708.781C825.495 707.952 828.306 706.892 829.227 706.431C832.085 705.002 843.928 701.915 850.196 700.947C872.363 697.583 894.022 698.827 915.313 704.726C923.01 706.846 926.328 709.749 925.775 714.035C925.498 716.477 924.254 717.998 921.581 719.381C919.692 720.302 918.493 720.533 914.899 720.625C912.502 720.671 909.092 720.441 907.295 720.118Z" fill="black"/>
<path d="M718.256 711.27C716.827 710.671 717.795 709.196 721.389 706.477C725.86 703.021 727.565 700.809 728.302 697.352C728.947 694.126 728.394 691.638 726.367 688.688C724.569 686.062 722.449 684.449 714.707 679.978C709.039 676.706 704.246 673.849 695.951 668.872C693.14 667.213 689.821 663.895 690.144 663.019C690.743 661.176 695.029 662.881 708.901 670.485C725.076 679.287 729.454 682.329 732.265 686.338C734.201 689.241 734.846 691.684 734.616 695.417C734.293 699.61 732.588 703.021 729.178 706.154C725.491 709.565 720.099 712.053 718.256 711.27Z" fill="black"/>
<path d="M907.295 692.882C904.76 692.329 898.354 690.578 893.009 689.011C873.238 683.296 873.423 683.343 852.915 686.753C845.034 688.089 843.191 688.227 834.481 688.274C824.158 688.274 821.347 687.905 813.052 685.416C807.015 683.619 804.065 682.236 798.212 678.411C792.775 674.909 791.761 673.803 792.775 672.605C793.604 671.591 793.973 671.683 798.996 674.218C806.738 678.135 815.402 679.656 827.108 679.103C836.647 678.688 841.302 678.043 846.693 676.292C853.007 674.218 861.717 672.144 868.353 671.13C874.897 670.116 892.502 669.978 897.847 670.9C899.737 671.222 903.7 671.775 906.65 672.144C916.973 673.388 922.779 676.706 925.775 683.158C927.111 686.061 927.157 687.214 925.913 689.702C925.222 691.223 924.438 691.96 922.595 692.836C920.567 693.85 919.645 694.034 916.097 693.988C913.424 693.988 910.198 693.573 907.295 692.882Z" fill="black"/>
<path d="M655.12 690.532C650.557 689.564 645.903 687.859 635.672 683.481C623.045 678.043 622.722 677.905 611.063 674.448C605.579 672.789 599.127 670.715 596.777 669.794C586.085 665.554 573.181 657.858 562.951 649.563C555.946 643.848 544.517 632.235 538.894 625.138C536.314 621.866 533.272 618.087 532.12 616.75C529.078 613.202 529.493 611.635 533.042 613.34C534.931 614.262 550.231 625.599 561.43 634.355C571.522 642.281 573.181 643.295 581.154 646.291C591.753 650.254 598.067 654.125 610.971 664.586C618.897 670.992 621.893 672.974 626.271 674.725C628.252 675.508 633.091 677.536 637.008 679.287C649.037 684.541 655.719 686.615 663.738 687.582C666.134 687.859 668.254 688.32 668.438 688.642C669.083 689.656 668.807 690.348 667.609 690.808C665.95 691.454 658.53 691.315 655.12 690.532Z" fill="black"/>
<path d="M738.717 674.863C738.072 674.632 737.98 674.448 738.441 673.941C738.809 673.48 740.008 673.296 742.496 673.296C744.432 673.25 747.335 673.066 748.994 672.881C758.303 671.637 763.741 666.291 763.741 658.503C763.741 651.221 760.423 645.507 752.22 638.64C749.409 636.29 749.409 635.553 752.174 636.382C756.414 637.627 764.248 644.816 766.46 649.516C771.437 660.024 767.428 669.425 756.137 673.757C753.787 674.679 752.358 674.817 746.459 674.955C742.681 675.047 739.178 674.955 738.717 674.863Z" fill="black"/>
<path d="M826.877 664.909C826.877 663.895 834.988 658.964 840.011 656.89C842.546 655.876 845.449 654.586 846.463 654.079C850.611 651.913 868.768 646.705 878.261 644.954C891.211 642.558 903.332 642.189 907.525 644.124C910.106 645.277 912.917 648.318 913.286 650.438C914.207 655.231 911.258 658.18 903.608 660.208C898.539 661.544 887.755 661.36 878.261 659.747C862.685 657.12 853.698 657.166 842.961 659.885C838.859 660.899 831.486 663.48 827.246 665.369C827.015 665.462 826.877 665.231 826.877 664.909Z" fill="black"/>
<path d="M711.942 658.918C711.85 658.319 711.527 656.613 711.251 655.093C710.237 649.563 705.306 641.129 700.283 636.428C695.121 631.497 687.471 625.737 682.54 622.833C680.374 621.635 679.591 620.299 681.019 620.299C682.494 620.299 691.342 625.322 699.177 630.53C704.292 633.986 710.237 640.115 711.988 643.802C713.924 647.857 714.615 651.176 714.246 654.448C714.016 656.89 712.956 659.932 712.357 659.932C712.219 659.932 712.08 659.471 711.942 658.918Z" fill="black"/>
<path d="M839.366 637.488C839.412 636.751 847.938 630.53 854.205 626.612C863.054 621.082 870.796 617.349 876.418 615.829C880.52 614.723 881.902 614.584 888.861 614.584C899.645 614.538 902.456 615.644 902.456 619.93C902.456 623.018 898.354 626.612 892.778 628.41C890.658 629.101 888.308 629.239 877.801 629.285C866.833 629.331 864.805 629.47 860.565 630.345C854.436 631.682 846.786 634.263 843.007 636.244C839.965 637.857 839.32 638.088 839.366 637.488Z" fill="black"/>
<path d="M573.32 626.474C568.573 622.234 562.582 618.363 552.213 612.971C533.641 603.247 527.281 597.994 508.294 576.979C490.828 557.624 482.441 549.881 472.302 543.844C462.809 538.222 451.38 534.443 442.301 533.936C439.536 533.798 434.835 533.475 431.932 533.199C427.001 532.784 415.895 533.291 414.789 533.936C414.604 534.074 414.742 534.489 415.111 534.858C416.217 535.964 416.171 537.992 415.019 539.328C414.097 540.296 412.623 540.342 409.627 539.42C408.337 539.006 405.572 538.729 403.129 538.729C394.281 538.729 387.599 541.586 372.16 551.863C360.593 559.651 353.081 563.523 343.68 566.61C335.016 569.467 329.624 570.712 319.486 572.186C308.84 573.707 303.218 575.09 298.517 577.394C295.015 579.099 290.222 582.74 288.793 584.721C287.088 587.164 285.613 590.805 285.383 593.109C285.199 595.044 284.968 595.69 284.323 595.782C283.678 595.92 282.987 594.86 281.189 591.127C277.963 584.307 276.581 578.73 276.304 570.988C276.074 565.182 276.166 564.26 277.733 556.564C279.069 550.02 279.484 546.656 279.853 539.512C280.821 520.111 281.328 517.622 287.134 504.396C289.346 499.327 289.991 496.469 289.991 491.538C289.991 488.359 290.13 487.575 290.913 486.746C292.111 485.501 292.757 485.455 294.093 486.699C294.646 487.252 295.199 487.575 295.291 487.529C295.383 487.437 296.397 485.04 297.549 482.183C301.466 472.598 302.434 465.823 300.545 460.293C299.393 456.837 299.531 455.454 301.19 454.21C302.388 453.334 302.573 453.334 303.725 453.933C306.628 455.546 308.379 462.689 307.504 469.326C306.72 475.086 305.245 478.773 297.135 495.64C292.618 504.995 288.885 513.429 287.872 516.608C286.259 521.586 286.12 522.277 286.12 527.669C286.074 533.614 286.627 536.701 288.01 538.038C289.899 539.973 292.157 537.531 293.448 532.185C294.692 526.931 297.549 519.973 300.545 514.995C303.494 510.018 307.872 504.119 308.794 503.797C309.67 503.52 309.439 504.626 308.287 506.193C305.983 509.281 302.342 516.148 300.545 520.94C297.734 528.406 296.996 537.669 298.932 541.402C300.499 544.397 305.199 544.397 311.19 541.31C314.831 539.42 316.813 538.959 318.057 539.651C319.347 540.296 319.301 542.231 318.057 542.877C317.55 543.199 317.181 543.476 317.274 543.614C317.412 543.706 319.854 542.6 322.758 541.125C325.661 539.651 329.486 537.992 331.237 537.439C333.91 536.609 346.952 533.245 353.588 531.77C354.51 531.54 356.63 530.526 358.381 529.466C361.146 527.807 361.699 527.623 362.667 528.083C363.589 528.498 363.773 528.867 363.635 530.111C363.496 531.448 363.174 531.724 360.224 533.199C358.473 534.074 355.155 535.641 352.897 536.655C350.224 537.853 347.735 539.42 345.708 541.125L342.666 543.752L342.436 546.886C341.837 555.181 335.293 559.698 326.26 558.131C323.587 557.67 322.481 557.762 316.628 558.822C309.485 560.112 307.365 560.896 306.259 562.739C305.43 564.122 305.706 566.149 306.812 566.564C307.181 566.702 308.61 566.61 309.946 566.334C311.236 566.103 315.338 565.689 319.025 565.458C331.099 564.629 336.306 563.523 342.067 560.619C348.288 557.393 351.238 554.582 357.183 545.918C364.648 535.18 374.188 527.853 386.539 523.521C391.792 521.678 395.064 521.033 403.083 520.111C413.59 518.867 418.936 517.53 427.969 513.843C430.549 512.783 435.112 511.447 438.338 510.802C451.38 508.129 466.035 502.138 482.625 492.737C492.257 487.299 497.003 483.796 504.423 476.607C511.566 469.74 515.483 466.284 517.788 464.855C520 463.473 519.124 464.809 515.483 468.542C510.091 474.026 498.34 490.893 493.962 499.511C489.031 509.189 487.095 516.516 487.095 525.364C487.141 534.535 489.538 541.678 494.837 548.084C497.556 551.356 498.478 551.909 500.322 551.218C502.441 550.388 503.824 547.209 505.898 538.36C506.497 535.918 506.866 535.042 507.373 535.134C507.926 535.227 508.064 536.609 508.202 542.646C508.294 548.683 508.525 550.803 509.492 554.444C513.179 568.5 521.198 578.869 532.996 584.629C535.53 585.874 535.715 585.92 537.604 585.274C539.77 584.491 539.447 584.998 544.747 573.753C548.849 565.089 551.015 562.509 553.273 563.707C554.471 564.306 554.241 565.55 552.259 569.514C549.309 575.32 548.849 577.578 549.125 584.537C549.402 591.68 550.139 594.63 552.904 600.344C556.038 606.704 559.356 610.621 563.918 613.202C568.988 616.151 573.181 619.285 576.223 622.465C579.679 626.105 580.14 626.981 579.172 628.41C578.804 629.009 578.066 629.516 577.559 629.516C577.099 629.516 575.163 628.133 573.32 626.474ZM333.956 553.292C336.353 552.001 337.505 550.342 337.781 547.854C338.104 545.043 337.459 543.89 335.707 544.167C334.417 544.351 334.371 544.443 334.555 546.287C334.693 547.393 334.555 548.729 334.233 549.282C333.495 550.711 331.053 552.094 329.256 552.094C327.596 552.094 325.016 550.941 325.016 550.25C325.016 549.421 323.818 549.789 322.711 550.941C321.652 552.094 321.652 552.094 322.527 552.785C323.357 553.43 325.108 554.075 327.09 554.536C328.749 554.951 332.113 554.306 333.956 553.292Z" fill="black"/>
<path d="M819.734 612.418C818.213 612.188 815.632 611.773 814.02 611.543C810.655 611.082 809.319 610.16 810.102 608.87C810.379 608.455 811.301 607.902 812.176 607.672C813.052 607.441 816.739 606.289 820.425 605.045C825.034 603.524 828.536 602.695 831.716 602.326C841.578 601.22 844.574 600.252 849.044 596.796C852.131 594.399 852.869 594.077 853.284 595.137C853.929 596.796 846.509 604.861 841.025 608.455C836.186 611.681 833.283 612.603 827.568 612.741C824.803 612.787 821.255 612.649 819.734 612.418Z" fill="black"/>
<path d="M682.31 601.22C682.033 600.713 681.941 597.625 682.079 593.662C682.31 585.827 681.757 582.417 679.222 576.288C677.056 570.988 674.061 566.933 669.821 563.569C665.304 560.02 661.065 557.992 654.567 556.287C647.654 554.444 645.857 553.292 648.161 552.047C650.281 550.895 660.005 552.831 665.904 555.55C670.328 557.578 673.001 559.467 677.01 563.338C680.927 567.117 683.001 570.343 685.075 575.689C686.457 579.33 686.503 579.836 686.549 585.966C686.549 591.818 686.411 592.786 685.213 596.427C684.522 598.639 683.646 600.805 683.324 601.22C682.817 601.957 682.724 601.957 682.31 601.22Z" fill="black"/>
<path d="M803.42 579.376C802.591 577.809 803.881 575.136 806.923 571.864C810.932 567.67 814.757 565.642 820.656 564.767C825.863 563.983 827.108 563.338 830.656 559.467C832.822 557.071 833.467 556.656 834.573 556.794C835.679 556.932 835.864 557.163 836.002 558.591C836.094 559.928 835.772 560.711 834.297 562.739C830.794 567.394 824.343 571.403 813.881 575.412C811.531 576.288 808.674 577.763 807.568 578.638C805.263 580.389 804.065 580.62 803.42 579.376Z" fill="black"/>
<path d="M793.788 577.348C793.466 577.025 793.235 576.519 793.235 576.196C793.235 574.998 795.862 569.79 798.028 566.749C802.314 560.619 807.153 557.439 814.665 555.78C820.471 554.536 824.066 553.292 828.721 550.895C832.638 548.914 833.928 548.683 834.435 550.02C834.573 550.389 833.652 551.909 832.407 553.384C829.873 556.426 826.048 558.73 820.794 560.343C817.153 561.449 810.932 563.937 809.595 564.859C809.088 565.182 805.863 568.269 802.406 571.68C796.277 577.763 795.033 578.592 793.788 577.348Z" fill="black"/>
<path d="M757.105 538.36C752.174 537.623 748.764 536.886 748.671 536.563C748.303 535.503 750.607 534.95 757.013 534.535C763.511 534.121 771.115 532.876 775.493 531.494C776.783 531.079 780.378 529.42 783.558 527.807C791.668 523.659 796.231 522.922 797.475 525.595C798.212 527.208 796.461 530.802 793.788 533.245C789.41 537.3 782.958 539.144 772.267 539.42C766.506 539.559 764.018 539.42 757.105 538.36Z" fill="black"/>
<path d="M663.876 535.411C663.645 535.088 663.046 533.798 662.586 532.508C661.157 528.59 658.668 523.89 656.318 520.71C649.636 511.677 637.055 503.336 622.722 498.451C616.685 496.377 614.888 495.41 614.888 494.165C614.888 492.829 622.861 493.981 630.418 496.377C635.303 497.944 644.613 502.599 650.373 506.332C659.913 512.599 665.12 520.664 665.858 530.618C666.088 533.522 666.042 534.766 665.581 535.273C664.89 536.102 664.429 536.148 663.876 535.411Z" fill="black"/>
<path d="M504.746 518.682C504.239 518.083 504.285 517.161 505.16 513.014C507.649 501.032 513.041 488.312 520.322 477.436C527.051 467.344 532.12 461.676 544.839 450.016C555.347 440.384 564.61 429.739 568.481 423.011C569.541 421.121 570.647 420.66 570.647 422.043C570.647 423.103 567.651 429.278 565.209 433.287C564.149 434.993 562.167 438.633 560.831 441.352C554.287 454.578 543.088 470.155 529.171 485.271C515.299 500.387 512.626 504.119 509.815 512.23C508.755 515.272 507.741 518.083 507.511 518.452C507.05 519.42 505.483 519.558 504.746 518.682Z" fill="black"/>
<path d="M371.792 508.774C370.916 507.345 373.635 505.272 382.898 500.387C386.4 498.497 392.622 494.764 396.677 492.045C401.148 489.05 404.143 487.345 404.235 487.667C404.512 488.497 397.876 494.534 393.451 497.483C391.332 498.912 386.723 501.539 383.221 503.29C379.718 505.041 376.078 507.115 375.156 507.852C373.405 509.281 372.299 509.557 371.792 508.774Z" fill="black"/>
<path d="M396.677 508.313C395.064 506.562 396.032 505.364 401.148 502.691C412.3 496.976 419.305 491.262 427.37 481.308C435.02 471.768 440.181 467.298 445.435 465.454C449.629 463.98 450.827 464.072 450.827 465.869C450.827 466.791 450.274 467.851 448.983 469.233C445.297 473.197 444.375 476.883 446.357 479.787C448.799 483.381 452.117 483.197 459.168 478.957C464.33 475.87 468.615 473.888 473.731 472.137C477.971 470.708 479.584 470.846 480.413 472.598C481.289 474.533 480.551 475.731 477.464 477.529C475.851 478.45 472.394 481.031 469.721 483.243C458.569 492.506 445.896 499.142 432.808 502.46C425.112 504.442 425.158 504.442 423.499 502.599L421.978 500.986L416.033 502.967C412.715 504.073 407.553 505.917 404.466 507.115C401.378 508.267 398.567 509.235 398.198 509.235C397.829 509.235 397.138 508.82 396.677 508.313Z" fill="black"/>
<path d="M349.901 508.037C349.901 507.484 356.63 499.742 361.423 494.764C374.372 481.354 382.714 476.192 407.968 465.915C419.028 461.399 424.973 458.588 430.089 455.27C434.144 452.689 435.711 452.044 436.54 452.551C437.6 453.196 436.356 455.086 433.453 457.252C431.978 458.358 428.798 460.8 426.402 462.736C419.028 468.634 407.507 477.16 403.221 479.925C397.876 483.428 392.76 485.778 379.81 490.801C365.202 496.47 360.593 499.05 354.51 504.949C351.468 507.898 349.901 508.958 349.901 508.037Z" fill="black"/>
<path d="M522.074 507.484C521.705 506.885 524.7 500.848 527.235 497.115C529.677 493.474 533.318 489.649 542.719 480.893C549.77 474.349 554.333 469.095 558.296 463.104C561.568 458.127 563.872 456.883 565.393 459.233C566.868 461.491 565.255 464.625 558.48 472.736C553.964 478.174 549.909 481.769 542.581 487.022C533.318 493.612 528.433 498.636 524.332 505.687C523.133 507.806 522.534 508.267 522.074 507.484Z" fill="black"/>
<path d="M534.977 504.673C534.286 503.567 543.918 493.981 551.245 488.451C557.42 483.842 561.43 483.059 561.43 486.469C561.43 487.898 559.494 489.372 553.964 492.184C548.664 494.903 546.591 496.285 540.093 501.493C537.65 503.474 535.53 505.087 535.438 505.087C535.3 505.087 535.115 504.903 534.977 504.673Z" fill="black"/>
<path d="M746.46 500.94C744.708 500.479 740.975 499.142 738.21 497.944C732.68 495.548 725.537 493.566 722.542 493.566C719.454 493.566 717.564 491.539 719.131 489.972C719.823 489.28 726.182 489.28 729.178 489.926C735.768 491.354 747.427 493.105 750.561 493.105C757.382 493.105 762.405 490.986 766.184 486.423C768.165 484.119 769.594 483.75 771.115 485.271C773.096 487.253 771.437 492.368 767.612 495.87C764.156 499.05 756.644 501.861 751.759 501.815C750.607 501.815 748.257 501.447 746.46 500.94Z" fill="black"/>
<path d="M468.8 491.308C468.8 491.124 469.998 490.478 471.473 489.925C475.62 488.451 479.998 485.087 488.247 477.068C497.418 468.174 499.446 466.699 503.548 465.915C507.649 465.086 507.603 466.745 503.501 468.865C498.709 471.261 496.773 472.92 492.533 478.036C488.063 483.474 485.252 485.778 480.09 488.405C474.699 491.078 468.8 492.644 468.8 491.308Z" fill="black"/>
<path d="M730.099 482.46C727.933 482.275 723.187 481.63 719.5 480.985C708.486 479.049 708.854 479.095 704.062 480.432C699.591 481.722 698.485 481.722 697.978 480.432C697.333 478.635 700.697 475.455 706.827 472.091C711.067 469.74 713.878 469.786 720.468 472.275C723.141 473.289 726.874 474.441 728.809 474.856C733.279 475.777 740.468 475.777 744.294 474.902C747.473 474.118 748.718 474.441 749.225 476.1C749.639 477.436 748.718 479.418 747.243 480.294C744.109 482.137 736.828 483.059 730.099 482.46Z" fill="black"/>
<path d="M335.477 482.183C334.878 481.584 335.154 480.755 336.583 479.003C338.426 476.699 342.159 468.957 343.45 464.763C348.104 449.417 351.238 441.767 354.694 437.619C358.335 433.195 365.202 426.559 366.953 425.73C369.165 424.67 369.303 425.499 367.275 427.573C363.358 431.721 361.146 435.315 359.118 441.03C356.353 448.634 350.316 462.321 347.413 467.482C343.91 473.704 343.357 474.533 339.625 479.188C337.09 482.275 336.214 482.967 335.477 482.183Z" fill="black"/>
<path d="M626.732 475.317C626.547 475.132 626.409 473.704 626.409 472.183C626.317 461.86 619.589 450.938 608.897 443.933C600.832 438.587 597.606 437.297 580.693 432.55C578.85 432.043 578.02 431.536 578.02 431.075C578.02 430.43 578.435 430.384 580.693 430.661C584.518 431.122 594.426 433.011 598.85 434.117C603.643 435.315 610.971 438.864 614.934 441.859C623.644 448.449 629.174 458.404 629.174 467.344C629.174 471.399 627.699 476.238 626.732 475.317Z" fill="black"/>
<path d="M321.329 469.694C321.329 467.206 322.573 460.339 323.679 456.468C325.338 450.984 328.656 442.965 332.435 435.5C337.274 425.868 347.597 407.895 350.454 404.07C352.713 400.982 354.049 400.153 354.049 401.766C354.049 403.286 350.501 410.383 344.648 420.752C334.279 439.002 329.624 449.233 324.509 464.533C323.311 468.174 322.066 471.261 321.836 471.353C321.513 471.446 321.329 470.8 321.329 469.694Z" fill="black"/>
<path d="M651.479 455.086C651.064 454.118 652.355 452.321 656.088 448.634C659.959 444.809 665.904 441.583 671.895 440.062C676.227 439.002 677.932 439.048 678.669 440.292C679.084 440.984 678.946 441.306 677.84 442.136C677.056 442.643 674.752 444.717 672.632 446.652C668.116 450.754 665.95 451.952 662.125 452.321C657.931 452.735 655.627 453.473 654.475 454.671C653.322 455.915 651.848 456.099 651.479 455.086Z" fill="black"/>
<path d="M517.004 447.067C516.866 446.836 518.202 444.809 520 442.551C521.797 440.339 524.7 436.329 526.452 433.656C529.631 428.91 531.014 426.283 539.033 409.462C545.3 396.42 552.213 386.926 560.646 379.737C567.743 373.654 575.946 368.723 579.311 368.539C580.739 368.447 581.016 368.585 581.154 369.414C581.246 370.198 580.555 370.889 577.882 372.732C571.799 376.742 569.126 380.429 559.909 397.295C554.563 407.065 551.982 411.167 546.683 418.218C540.738 426.144 536.221 431.26 530.968 436.007C528.571 438.126 524.885 441.583 522.719 443.703C518.986 447.251 517.603 448.081 517.004 447.067Z" fill="black"/>
<path d="M309.762 441.859C309.716 441.767 309.67 438.818 309.577 435.269C309.347 423.794 307.78 416.973 300.545 395.452C292.71 372.225 291.236 365.451 291.236 352.317C291.236 337.616 294.231 324.666 300.821 311.486C303.264 306.463 304.923 304.112 309.439 298.859C313.126 294.527 315.292 292.637 316.49 292.637C317.688 292.637 317.274 293.789 314.416 298.121C310.822 303.559 310.038 305.218 308.886 309.274C307.135 315.726 306.49 320.703 306.49 327.892C306.49 336.464 307.273 341.579 310.73 356.925C315.937 380.106 316.49 383.931 316.444 398.632C316.398 408.494 316.26 410.936 315.2 417.757C313.402 429.186 311.329 440.891 310.96 441.444C310.73 441.905 309.9 442.136 309.762 441.859Z" fill="black"/>
<path d="M642.539 440.154C642.539 438.818 646.548 434.946 649.405 433.518C651.894 432.274 651.94 432.274 652.723 429.048C654.705 421.352 660.834 413.609 667.747 410.015C673.968 406.789 676.18 406.466 693.14 406.466H708.117L707.841 387.94C707.564 369.138 707.057 361.672 705.168 348.63C703.416 336.233 699.822 320.426 696.273 309.135L694.706 304.204L697.195 302.315C698.531 301.255 699.96 299.872 700.375 299.227C700.79 298.582 701.343 298.26 701.527 298.444C702.172 299.135 705.629 310.518 707.656 318.583L709.592 326.371L710.882 324.85C711.62 323.975 715.859 318.398 720.376 312.454C749.87 273.42 767.244 243.834 772.774 223.28C773.742 219.593 774.018 217.565 774.064 213.141C774.11 205.768 773.373 203.602 769.548 199.731C762.543 192.772 752.45 191.205 742.773 195.629C738.303 197.657 736.137 199.27 726.182 208.026C713.878 218.81 707.241 225.215 696.55 236.506C691.112 242.313 686.411 246.967 686.135 246.875C685.858 246.783 685.536 246.322 685.443 245.815C685.351 245.354 684.476 243.741 683.508 242.313C682.54 240.838 681.711 239.548 681.711 239.363C681.711 238.534 687.103 231.529 690.467 227.934C695.859 222.266 700.375 218.579 713.325 209.362C730.33 197.242 735.676 192.726 741.713 185.398C743.925 182.679 744.708 182.034 745.722 182.034C746.459 182.034 747.335 182.357 747.658 182.818C748.672 184.016 751.759 185.168 755.492 185.721C763.741 186.965 768.58 189.085 773.465 193.463C779.226 198.671 781.253 203.602 781.253 212.358C781.253 223.142 777.659 234.617 769.087 251.391C758.488 272.083 740.376 298.997 717.011 328.814C710.79 336.74 711.297 334.482 713.002 346.095C714.431 355.727 714.938 362.271 715.537 376.603L716.044 389.83L726.643 377.571C765.354 332.823 799.18 289.55 818.259 260.332C850.288 211.252 867.985 165.305 866.832 134.106C866.233 117.562 860.703 104.658 850.841 96.8237C843.283 90.8327 831.946 86.7773 818.121 85.2104C812.038 84.5191 795.494 84.9339 788.166 85.9477C762.174 89.5423 733.279 99.0818 703.923 113.783C693.969 118.76 692.863 120.05 687.056 133.369C684.245 139.821 681.019 145.581 678.623 148.392C676.457 150.973 675.95 149.775 677.747 146.503C678.393 145.397 680.052 141.065 681.48 136.871C684.107 129.221 687.932 120.649 691.481 114.382L693.416 111.018L701.988 106.732C742.174 86.5007 784.065 75.7169 814.388 77.8829C846.832 80.1872 865.173 92.7222 871.579 117.055C873.561 124.751 874.022 129.636 873.745 140.005C873.423 152.31 871.579 162.771 867.155 177.656C859.044 204.846 840.656 240.792 817.983 273.743C795.908 305.817 761.114 349.413 722.403 393.47L715.813 400.936V407.618V414.301H709.868H703.923L695.259 423.84C690.467 429.048 685.996 433.794 685.259 434.301C684.476 434.9 683.37 435.177 682.264 435.131C675.72 434.854 655.673 435.177 653.599 435.592C650.557 436.191 646.41 438.172 644.889 439.831C643.553 441.26 642.539 441.398 642.539 440.154ZM667.701 429.048C671.802 428.449 675.627 427.619 677.471 426.882C679.176 426.236 681.388 425.637 682.402 425.499C683.692 425.361 684.614 424.9 685.397 424.024C686.043 423.287 688.301 420.798 690.421 418.494L694.292 414.254L684.89 414.393L675.489 414.531L672.448 416.006C668.945 417.711 665.258 420.845 663.231 423.794C661.572 426.236 659.913 429.969 660.512 429.969C660.788 429.969 664.014 429.555 667.701 429.048Z" fill="black"/>
<path d="M319.946 437.85C319.946 437.343 320.177 436.375 320.453 435.638C321.237 433.61 321.79 430.2 322.297 424.209C322.942 416.743 323.725 413.471 326.26 408.356C328.38 404.116 328.703 402.503 328.011 399.968C327.781 399 328.196 398.125 330.315 395.129C334.417 389.415 336.353 385.083 340.915 371.211C346.583 353.976 349.118 348.492 355.939 338.491C361.791 329.874 369.626 321.44 379.396 313.145C391.101 303.237 412.07 289.503 419.397 286.923C421.102 286.324 421.379 286.324 422.024 286.923C422.393 287.337 422.715 287.89 422.715 288.259C422.715 288.582 421.056 290.241 419.028 291.946C417.001 293.651 415.342 295.172 415.342 295.402C415.342 295.587 413.452 297.338 411.194 299.319C400.364 308.582 393.774 318.352 378.75 347.386C367.782 368.677 364.879 373.147 349.671 392.41C333.91 412.319 326.905 423.333 324.094 432.734C323.587 434.393 322.758 436.421 322.251 437.251C321.237 438.864 319.946 439.232 319.946 437.85Z" fill="black"/>
<path d="M299.485 434.025C299.393 433.702 299.07 432.181 298.748 430.661C297.918 426.559 293.909 415.314 291.051 408.863C288.332 402.826 282.019 391.212 277.364 383.7C275.429 380.567 273.631 378.355 271.604 376.557C266.442 372.087 265.106 370.658 265.106 369.645C265.106 368.17 267.41 368.4 270.82 370.152C275.244 372.548 285.106 382.41 289.346 388.724C297.135 400.429 301.144 413.102 301.835 428.495L302.112 434.578H300.867C300.176 434.578 299.577 434.301 299.485 434.025Z" fill="black"/>
<path d="M608.897 432.734C608.897 431.905 610.648 428.771 611.985 427.158C613.92 424.9 619.773 420.706 625.902 417.25C628.898 415.591 632.769 413.102 634.474 411.72C636.225 410.337 637.838 409.277 638.115 409.37C639.405 409.784 638.714 411.489 635.764 415.038C630.418 421.398 626.593 424.071 618.575 427.204C614.381 428.771 612.906 429.601 611.339 431.214C609.22 433.288 608.897 433.518 608.897 432.734Z" fill="black"/>
<path d="M601.247 428.034C602.215 421.905 606.961 413.978 613.367 407.849C621.201 400.291 625.579 398.263 636.824 396.835C645.027 395.821 646.318 396.005 646.594 398.263C646.824 400.014 644.843 401.12 640.234 401.766C635.488 402.457 632.031 404.162 625.948 408.909C623.275 410.983 618.943 413.84 616.27 415.222C610.141 418.402 605.164 422.965 603.136 427.158C601.569 430.476 600.832 430.799 601.247 428.034Z" fill="black"/>
<path d="M362.39 409.508C361.976 409.001 362.068 408.217 362.805 405.959C364.695 400.383 366.861 397.019 374.418 387.986C383.451 377.11 390.548 370.382 393.636 369.783C394.88 369.506 395.064 369.599 395.064 370.474C395.064 372.133 389.119 379.553 380.916 388.217C371.746 397.895 368.52 401.766 365.708 406.604C364.556 408.54 363.45 410.153 363.266 410.153C363.082 410.153 362.667 409.877 362.39 409.508Z" fill="black"/>
<path d="M558.987 408.033C558.019 407.065 558.941 406.098 562.582 404.254C565.808 402.595 567.19 401.489 570.785 397.71C579.034 389.046 585.716 379.368 590.74 368.861C595.532 358.861 598.482 354.298 603.597 349.045C607.837 344.713 609.772 346.141 606.454 351.119C603.413 355.635 603.413 355.635 596.224 369.598C589.449 382.779 586.223 387.986 581.292 393.885C579.725 395.682 578.481 397.295 578.481 397.434C578.481 397.526 579.172 397.434 580.002 397.203C580.785 396.927 585.855 396.558 591.154 396.328C596.869 396.097 601.938 395.636 603.597 395.268C606.777 394.438 607.975 394.807 607.975 396.604C607.975 398.447 607.284 399.323 604.15 401.305C595.671 406.651 588.297 408.217 575.808 407.342C567.974 406.743 566.361 406.835 560.508 408.125C559.863 408.263 559.172 408.217 558.987 408.033Z" fill="black"/>
<path d="M320.868 394.622C320.868 392.549 320.269 387.756 319.44 383.424C315.799 363.93 317.965 347.34 326.398 330.196C331.698 319.458 337.735 311.808 348.519 302.407C357.69 294.342 361.1 290.84 365.893 284.434C368.059 281.577 370.271 278.996 370.87 278.72C372.299 278.074 373.865 278.95 373.865 280.471C373.865 282.13 365.985 301.485 362.252 308.905C358.473 316.555 354.279 323.468 347.367 333.653C340.823 343.33 335.569 352.04 332.942 357.616C328.887 366.28 325.2 379.23 323.403 391.028C322.343 398.079 322.297 398.171 321.559 398.171C321.006 398.171 320.868 397.434 320.868 394.622Z" fill="black"/>
<path d="M509.354 383.378C509.354 382.41 514.7 377.663 517.419 376.189C518.94 375.405 522.58 374.115 525.53 373.331C535.53 370.659 538.664 369.23 545.438 364.391C548.756 361.995 550.369 361.488 550.369 362.824C550.369 363.93 547.743 366.972 545.116 368.999C539.54 373.193 533.595 375.543 524.332 377.203C519.493 378.078 516.543 379.322 513.041 381.995C510.552 383.885 509.354 384.346 509.354 383.378Z" fill="black"/>
<path d="M564.057 367.893C563.458 367.34 563.734 366.972 566.637 364.714C571.983 360.52 577.744 355.174 586.315 346.556C595.625 337.155 598.897 334.62 602.215 334.252C605.302 333.883 604.934 334.943 600.74 338.445C598.758 340.058 594.38 344.344 590.97 347.939C582.444 356.925 576.223 361.995 567.836 366.741C565.163 368.262 564.564 368.446 564.057 367.893Z" fill="black"/>
<path d="M273.171 358.907C273.078 358.584 272.802 356.695 272.525 354.759C271.926 350.612 270.129 344.759 266.673 335.957C264 328.998 262.202 322.684 260.036 312.454C257.917 302.545 257.041 299.273 253.815 289.411C250.22 278.443 249.253 273.973 249.253 267.982C249.207 261.115 251.004 257.152 253.585 258.535C254.092 258.811 254.506 259.18 254.552 259.364C254.552 259.549 254.598 261.853 254.691 264.526C254.875 271.024 256.211 274.849 263.493 289.872C270.59 304.527 272.433 309.827 273.908 320.058C274.277 322.777 275.06 334.943 276.028 353.561C276.166 356.004 276.028 357.939 275.705 358.492C275.152 359.552 273.493 359.783 273.171 358.907Z" fill="black"/>
<path d="M617.008 348.907C616.685 348.4 624.934 339.551 630.557 334.344C636.594 328.814 646.963 320.518 655.212 314.712C668.208 305.541 685.628 293.882 687.702 292.96C690.559 291.623 694.568 291.623 696.319 292.914C698.393 294.481 698.301 296.324 695.997 298.813C693.232 301.762 689.821 303.928 683.139 306.785C663.922 315.08 650.419 322.869 636.087 333.791C630.28 338.261 621.155 345.911 619.312 347.893C617.883 349.367 617.423 349.598 617.008 348.907Z" fill="black"/>
<path d="M253.723 344.068C249.529 339.598 246.303 334.759 242.985 327.892C236.948 315.495 234.413 304.066 233.906 286.877C233.538 273.097 235.243 261.3 237.639 261.3C238.838 261.3 239.022 262.268 239.344 269.825C239.621 276.001 239.897 278.075 241.096 282.499C245.796 299.965 245.981 300.794 248.054 315.91C249.16 323.929 251.28 332.454 252.939 335.726C253.585 337.017 255.382 339.644 256.903 341.625C259.898 345.589 260.267 347.155 258.147 347.386C257.179 347.478 256.35 346.879 253.723 344.068Z" fill="black"/>
<path d="M400.364 335.035C399.995 334.436 403.959 326.97 407.415 321.717C413.36 312.684 422.761 302.361 430.457 296.416C437.969 290.656 448.476 284.618 456.219 281.669C464.053 278.674 465.205 279.457 458.062 282.913C453.96 284.849 452.716 285.771 449.352 289.135C447.186 291.255 442.992 296.232 440.043 300.149C432.024 310.841 428.614 313.974 417.231 320.979C411.24 324.666 407.369 328.076 404.051 332.454C401.839 335.404 400.963 336.003 400.364 335.035Z" fill="black"/>
<path d="M611.339 329.92C610.694 329.274 616.363 322.592 625.718 312.914C629.036 309.504 635.81 302.361 640.741 297.015C649.958 287.153 675.12 262.636 678.116 260.608C681.711 258.166 686.089 257.982 688.301 260.148C690.974 262.82 690.144 266.185 685.674 270.885C682.264 274.526 677.609 277.752 668.576 282.867C665.811 284.48 661.019 287.752 657.931 290.241C651.525 295.402 635.672 309.182 630.418 314.159C626.317 317.984 612.307 330.427 612.031 330.427C611.938 330.427 611.616 330.196 611.339 329.92Z" fill="black"/>
<path d="M577.882 324.113C577.191 323.468 577.652 322.5 579.633 320.058C582.905 316.048 583.366 312.822 581.246 309.32C580.14 307.523 578.527 306.693 576.914 307.108C576.269 307.246 574.241 308.675 572.444 310.288C563.872 317.892 561.199 319.366 559.494 317.615C558.158 316.279 558.711 314.758 560.969 313.468C562.029 312.868 564.564 310.887 566.637 309.089C571.799 304.527 573.596 303.191 577.052 301.393C581.338 299.089 586.223 293.559 592.03 284.25C597.514 275.448 600.786 273.051 606.777 273.374C609.588 273.512 610.418 273.743 611.8 274.756C614.151 276.554 615.072 279.319 614.796 283.605C614.519 287.614 613.045 291.07 609.312 296.324C606.547 300.241 587.099 319.643 582.997 322.592C580.601 324.297 578.619 324.897 577.882 324.113Z" fill="black"/>
<path d="M479.399 311.117C479.399 310.242 484.837 303.836 488.432 300.518C490.413 298.628 497.096 293.098 503.225 288.213C520.184 274.618 524.378 270.056 525.714 263.788C526.083 262.037 526.405 260.47 526.405 260.332C526.405 260.148 527.465 258.719 528.756 257.106C531.936 253.097 534.378 248.811 536.498 243.465C538.618 238.165 540.461 235.723 542.95 234.985C546.729 233.879 549.909 236.368 550.922 241.161C551.383 243.281 551.337 244.341 550.692 247.336C549.863 251.207 547.19 257.152 544.747 260.747C542.535 263.973 536.406 270.194 531.936 273.743C526.313 278.213 510.737 288.766 505.898 291.393C499.077 295.08 485.206 305.771 481.519 310.149C480.413 311.486 479.399 311.947 479.399 311.117Z" fill="black"/>
<path d="M443.315 306.14C442.578 305.403 443.177 304.25 446.31 300.518C458.661 285.678 468.016 277.429 486.542 264.986C502.718 254.156 508.801 247.566 512.442 237.197C514.101 232.405 516.359 229.824 518.663 230.054C521.06 230.285 522.074 232.681 521.935 238.027C521.751 246.368 518.802 252.451 511.244 259.917C503.548 267.475 493.593 274.434 475.39 284.895C469.03 288.582 462.532 292.545 460.965 293.697C459.445 294.849 456.91 296.6 455.297 297.522C452.348 299.319 446.679 303.744 445.112 305.495C444.191 306.509 443.822 306.647 443.315 306.14Z" fill="black"/>
<path d="M542.719 305.771C542.213 304.527 542.95 303.006 546.729 297.2C548.803 294.066 550.876 290.609 551.383 289.503C553.135 285.632 552.167 281.346 549.356 280.148C547.19 279.273 544.747 280.609 538.618 285.955C533.41 290.517 527.189 294.481 525.299 294.481C523.963 294.481 524.516 293.789 527.005 292.499C528.433 291.762 532.166 288.674 535.991 285.033C539.632 281.623 543.226 278.443 544.056 278.028C544.885 277.568 546.683 277.107 548.065 276.968C550.462 276.738 550.646 276.646 552.812 273.973C556.821 269.042 560.6 263.097 564.149 256.046C567.144 250.101 567.928 248.903 569.633 247.705C576.499 242.912 583.136 250.516 580.601 260.286C577.836 271.07 568.757 284.158 556.545 294.988C553.549 297.614 549.448 301.301 547.466 303.144C545.438 304.942 543.595 306.463 543.365 306.463C543.134 306.463 542.858 306.14 542.719 305.771Z" fill="black"/>
<path d="M634.243 296.14C634.243 295.034 642.216 283.697 649.544 274.342C659.36 261.853 664.521 255.954 672.125 248.534C676.641 244.11 677.102 243.788 678.853 243.788C680.374 243.788 680.927 244.064 681.895 245.216C683.231 246.829 683.37 247.889 682.448 249.686C682.079 250.424 675.074 257.429 666.871 265.355C658.668 273.282 648.299 283.466 643.737 288.029C636.778 295.08 634.243 297.2 634.243 296.14Z" fill="black"/>
<path d="M621.57 289.411C621.432 289.181 621.524 288.167 621.755 287.245C622.63 284.066 622.354 278.72 621.109 274.803C619.635 270.148 619.681 269.641 621.478 267.429C624.52 263.65 639.82 246.553 647.147 238.718C660.558 224.432 661.111 223.971 665.443 223.971C673.508 223.971 674.245 233.833 666.964 244.848C662.77 251.207 657.424 256.599 641.617 270.424C632.538 278.351 628.759 282.222 625.902 286.508C623.736 289.734 622.354 290.656 621.57 289.411Z" fill="black"/>
<path d="M702.679 288.351C701.942 286.508 700.882 285.586 698.67 284.665C697.702 284.25 696.919 283.651 696.919 283.282C696.919 281.9 712.311 270.194 721.896 264.249C734.846 256.231 749.225 250.654 750.192 253.235C750.607 254.249 749.547 255.263 746.828 256.461C743.556 257.936 741.16 259.641 734.892 264.941C731.989 267.429 726.044 272.084 721.666 275.217C712.265 282.084 709.868 284.112 707.472 287.43C705.214 290.425 703.693 290.748 702.679 288.351Z" fill="black"/>
<path d="M577.283 282.729C577.006 282.038 578.988 278.213 579.864 277.66C582.076 276.323 586.269 262.175 586.315 256.046C586.361 252.728 587.145 250.931 590.325 246.691C596.546 238.58 602.261 229.363 613.69 209.178C620.326 197.38 622.953 193.648 625.764 191.758C629.773 189.131 633.875 190.191 635.718 194.339C637.008 197.288 636.594 200.699 634.243 206.643C630.557 215.814 619.174 236.045 610.556 248.857C602.675 260.516 598.021 265.908 587.928 274.895C583.873 278.489 580.14 281.9 579.679 282.453C578.665 283.605 577.651 283.697 577.283 282.729Z" fill="black"/>
<path d="M431.379 272.867C428.245 266.323 424.789 261.807 419.443 257.337C410.226 249.548 402.991 246.691 391.147 246.138C385.571 245.862 385.156 245.815 385.156 244.94C385.156 244.064 385.525 244.018 391.147 243.88C404.65 243.603 415.203 247.521 423.775 256C427.554 259.733 430.273 263.512 432.992 268.812C435.941 274.572 436.679 278.397 434.743 278.351C434.282 278.305 433.13 276.508 431.379 272.867Z" fill="black"/>
<path d="M443.914 264.987C443.407 264.48 442.9 263.558 442.716 262.867C442.255 260.977 442.854 255.355 443.96 251.852C445.066 248.166 448.615 241.253 451.426 237.29C454.145 233.372 454.974 233.787 453.039 238.073C452.117 240.055 452.025 240.93 452.163 244.94C452.762 259.456 452.578 260.655 449.398 264.295C447.693 266.185 445.435 266.507 443.914 264.987Z" fill="black"/>
<path d="M436.587 263.742C436.356 262.774 435.895 261.069 435.573 259.917C434.559 256.461 434.835 247.843 436.034 243.557C437.831 237.013 440.273 232.681 444.513 228.395C450.182 222.681 452.993 221.206 449.675 225.63C448.154 227.704 444.974 234.432 442.301 241.345C439.813 247.705 437.6 258.903 438.107 262.406C438.522 265.171 438.522 265.217 437.739 265.355C437.278 265.447 436.909 264.94 436.587 263.742Z" fill="black"/>
<path d="M609.496 262.36C608.39 261.945 608.897 260.839 611.754 257.751C616.777 252.175 621.063 246.553 630.096 233.649C647.239 209.178 650.511 205.537 655.12 205.537C657.24 205.537 659.175 207.289 660.051 209.961C660.834 212.312 660.42 216.459 659.129 219.132C657.885 221.667 651.203 230.7 645.811 237.105C640.787 243.05 630.234 253.465 624.934 257.659L620.372 261.3L616.823 261.023C613.598 260.747 613.183 260.839 612.399 261.714C611.524 262.636 610.648 262.867 609.496 262.36Z" fill="black"/>
<path d="M202.477 259.272C201.924 258.627 197.223 256.23 186.255 250.977C175.471 245.861 167.959 238.534 163.489 228.856C162.66 227.059 160.678 221.897 159.157 217.335C157.59 212.819 155.793 208.118 155.194 206.874C153.95 204.431 153.719 202.818 154.595 201.943C156.807 199.731 160.217 203.74 166.485 216.045C169.019 221.022 172.476 227.105 174.181 229.501C178.605 235.769 191.509 248.534 197.868 252.912C203.398 256.691 204.965 258.166 204.597 259.18C204.228 260.102 203.168 260.148 202.477 259.272Z" fill="black"/>
<path d="M692.817 254.848C692.034 253.834 690.974 253.004 690.513 253.004C690.052 253.004 689.407 252.682 689.084 252.267C688.577 251.714 688.577 251.484 689.13 250.977C689.499 250.654 693.6 247.106 698.301 243.05C708.209 234.525 711.389 231.575 720.191 223.003C734.339 209.178 741.022 204.754 751.713 201.989C756.644 200.745 758.718 200.837 760.331 202.357C762.497 204.385 761.207 208.072 758.027 209.04C755.769 209.731 744.754 215.261 740.745 217.658C735.998 220.607 729.04 225.63 724.8 229.225C716.366 236.368 705.076 246.783 700.744 251.392C698.025 254.295 695.444 256.691 695.029 256.691C694.614 256.691 693.647 255.862 692.817 254.848Z" fill="black"/>
<path d="M559.402 247.935C559.033 243.373 557.697 239.041 555.9 236.368C555.162 235.262 554.517 233.972 554.517 233.511C554.517 233.096 555.761 230.377 557.282 227.52C562.536 217.565 568.665 203.325 573.504 189.638C577.79 177.564 581.2 171.803 585.117 170.006C587.606 168.9 589.265 168.9 591.753 170.098C595.809 172.08 597.883 177.426 596.915 183.509C595.532 192.68 584.887 215.446 573.504 233.879C564.656 248.12 562.029 251.622 560.139 251.622C559.909 251.622 559.586 249.963 559.402 247.935Z" fill="black"/>
<path d="M722.403 248.166C722.127 247.336 722.495 246.875 727.565 241.576C734.938 233.879 744.846 226.045 755.63 219.501C761.852 215.676 763.096 215.215 764.11 216.229C765.723 217.842 763.419 221.99 758.073 227.059C753.879 231.022 750.054 233.603 741.114 238.304C732.219 243.004 728.164 245.355 725.445 247.29C723.002 249.087 722.818 249.133 722.403 248.166Z" fill="black"/>
<path d="M526.774 247.382C526.682 247.106 527.189 245.078 527.88 242.912C531.936 230.654 536.406 211.482 540.692 187.795C541.982 180.698 543.272 174.292 543.549 173.555C543.825 172.863 544.701 171.85 545.484 171.389C549.863 168.716 554.517 173.094 554.517 179.822C554.517 186.274 549.263 203.141 543.641 214.754C541.706 218.672 539.217 224.478 538.019 227.658C535.023 235.815 528.894 247.935 527.788 247.935C527.327 247.935 526.866 247.705 526.774 247.382Z" fill="black"/>
<path d="M586.961 242.082C586.5 238.81 587.283 235.492 590.832 226.46C593.919 218.671 602.583 195.03 603.828 191.021C605.256 186.458 608.528 181.804 611.247 180.375C611.985 180.006 613.413 179.73 614.427 179.73C615.948 179.73 616.639 180.006 617.745 181.113L619.174 182.541L618.943 187.472C618.483 196.873 615.579 203.187 601.616 225.123C593.228 238.35 589.034 244.156 587.836 244.202C587.514 244.248 587.145 243.281 586.961 242.082Z" fill="black"/>
<path d="M372.206 235.124C371.93 234.939 371.146 233.188 370.455 231.206C368.059 224.616 362.068 216.045 356.445 211.252C347.735 203.786 341.145 201.298 327.412 200.191C324.647 200.007 323.495 199.731 323.311 199.224C322.942 198.302 323.679 197.887 327.043 197.242C335.615 195.491 345.984 197.749 353.865 203.141C361.837 208.533 370.409 220.469 372.713 229.363C373.773 233.465 373.543 236.045 372.206 235.124Z" fill="black"/>
<path d="M547.835 228.626C547.512 227.474 547.881 226.644 550.692 222.542C554.241 217.289 557.282 211.298 560.877 202.311C566.868 187.38 570.877 179.269 577.882 167.748C581.062 162.586 584.472 157.886 584.841 158.254C584.933 158.393 583.781 160.835 582.214 163.692C574.564 177.794 567.605 192.403 563.504 203.003C558.112 216.92 553.918 225.584 551.245 228.257C549.77 229.686 548.25 229.87 547.835 228.626Z" fill="black"/>
<path d="M175.609 222.266C171.784 217.197 168.052 211.206 163.489 202.957C157.775 192.588 150.493 177.518 148.926 172.863C147.221 167.61 139.295 132.401 139.203 129.498C139.11 126.963 139.802 125.581 141.737 124.428C145.009 122.401 149.295 123.875 151.922 127.885C156.899 135.443 159.941 146.503 162.107 165.444C165.24 192.726 164.964 190.744 167.545 200.007C168.651 204.063 170.079 207.427 173.582 214.293C176.07 219.224 178.513 223.833 178.974 224.524C179.987 225.953 180.034 226.275 179.25 226.275C178.928 226.275 177.268 224.478 175.609 222.266Z" fill="black"/>
<path d="M672.77 222.865C671.71 220.699 670.42 218.856 669.268 217.842C668.208 216.966 667.424 215.86 667.424 215.307C667.424 214.8 668.715 212.727 670.282 210.745C671.849 208.763 676.78 202.588 681.204 197.012C685.674 191.435 693.416 181.297 698.485 174.43C703.555 167.61 708.901 160.421 710.421 158.531C714.753 153.139 722.265 145.996 726.827 142.954C731.298 139.959 732.726 139.314 733.371 139.959C734.109 140.696 733.325 141.848 730.975 143.6C725.629 147.517 718.302 158.347 708.44 176.965C703.002 187.196 697.472 196.735 692.955 203.74C689.176 209.639 682.678 218.718 680.927 220.607C680.236 221.344 678.853 222.957 677.886 224.109C675.397 227.151 674.752 226.967 672.77 222.865Z" fill="black"/>
<path d="M404.005 225.169C403.221 223.142 407.092 214.662 410.641 210.515C414.927 205.445 419.121 202.404 426.54 198.855C432.9 195.814 433.868 195.537 434.881 196.597C435.987 197.657 435.573 199.592 433.637 202.45C431.517 205.63 427.6 208.395 420.18 212.035C411.378 216.367 407.968 218.994 406.125 222.865C405.341 224.478 404.604 225.815 404.466 225.815C404.373 225.815 404.143 225.492 404.005 225.169Z" fill="black"/>
<path d="M398.521 211.989C398.198 211.482 401.424 204.938 403.774 201.39C406.908 196.597 411.056 192.772 417.876 188.302C421.425 185.951 425.204 183.14 426.31 182.126C429.029 179.407 431.425 179.684 432.209 182.725C433.084 186.182 429.582 189.776 421.102 194.2C409.166 200.468 406.954 202.173 402.622 208.533C400.134 212.22 399.166 213.049 398.521 211.989Z" fill="black"/>
<path d="M662.954 209.362C661.94 206.321 660.419 203.694 659.175 202.818C658.392 202.265 657.747 201.436 657.747 201.021C657.747 200.606 658.991 198.809 660.512 197.104C666.964 189.776 678.024 175.122 683.784 166.365C685.904 163.186 689.499 157.102 691.849 152.77C696.319 144.567 699.545 139.498 702.587 135.857C704.661 133.277 706.135 133 707.334 134.797C708.301 136.272 707.933 137.194 705.075 140.696C700.882 145.812 695.905 155.213 688.577 171.619C681.48 187.472 676.687 195.998 670.927 203.003C665.166 210.008 663.599 211.206 662.954 209.362Z" fill="black"/>
<path d="M641.893 196.044C641.294 190.882 638.391 186.458 635.211 185.905C632.216 185.352 632.262 185.122 635.856 179.822C642.17 170.467 646.318 162.679 652.908 147.839C659.636 132.632 664.613 124.521 671.065 118.115C676.365 112.861 683.784 108.299 687.01 108.299C689.453 108.299 689.176 109.727 686.135 112.677C680.651 118.069 675.858 127.147 670.512 142.217C662.263 165.444 651.525 188.578 645.765 195.814C642.907 199.316 642.308 199.362 641.893 196.044Z" fill="black"/>
<path d="M719.27 185.168C720.836 180.006 725.076 173.831 732.45 166.043C739.086 159.038 741.943 155.397 743.74 151.434C745.169 148.3 746.506 147.24 748.211 147.886C752.404 149.498 748.441 158.669 740.837 164.891C729.454 174.292 723.74 180.053 721.804 184.2C721.159 185.583 720.606 186.182 719.915 186.182C719.177 186.182 719.039 185.997 719.27 185.168Z" fill="black"/>
<path d="M626.593 183.97C626.317 183.785 625.764 183.002 625.349 182.219C624.52 180.559 623.045 179.5 620.879 178.947C617.976 178.209 618.068 177.702 622.584 169.545C624.888 165.398 629.405 156.918 632.631 150.697C639.728 137.056 641.525 133.876 644.428 129.959C647.009 126.41 652.309 121.203 653.323 121.203C654.521 121.203 654.521 121.894 653.369 123.599C651.525 126.272 646.364 136.917 643.967 142.908C642.723 146.042 639.635 154.752 637.101 162.218C632.492 175.859 629.036 184.016 627.792 184.2C627.423 184.292 626.87 184.2 626.593 183.97Z" fill="black"/>
<path d="M209.804 178.255C209.804 168.716 208.145 160.513 204.458 151.434C194.504 127.055 184.55 96.8699 181.001 80.4177C178.513 68.9426 176.762 53.0434 177.914 52.3522C178.559 51.9835 179.388 53.5043 179.388 54.979C179.388 55.6242 179.987 59.3109 180.771 63.2281C181.923 69.2191 182.476 71.0164 184.504 75.118C187.453 81.2011 188.974 83.6436 196.394 94.0127C203.629 104.013 205.749 107.608 208.007 113.368C211.463 122.17 212.108 128.254 212.108 152.171C212.108 173.14 211.509 182.956 210.265 182.956C209.989 182.956 209.804 181.02 209.804 178.255Z" fill="black"/>
<path d="M370.916 180.375C370.501 180.007 370.179 179.223 370.179 178.67C370.179 176.965 373.912 170.974 378.658 164.983C386.815 154.66 389.119 150.558 390.318 144.153C391.239 139.129 391.193 139.176 392.207 139.176C392.714 139.176 393.313 139.452 393.544 139.775C394.419 140.835 395.249 145.443 395.249 149.314C395.249 155.812 393.129 161.296 388.244 167.333C384.972 171.435 376.677 178.532 373.082 180.375C371.746 181.02 371.561 181.02 370.916 180.375Z" fill="black"/>
<path d="M194.182 178.255C193.905 177.426 193.398 174.753 193.029 172.356C192.016 165.997 190.449 161.066 185.379 148.162C180.172 134.844 178.881 130.696 177.591 122.908C176.439 116.087 175.241 104.289 175.241 99.9114C175.241 98.1602 174.918 96.0403 174.549 95.0725C174.181 94.1969 173.858 92.7222 173.858 91.8927C173.858 90.5562 174.043 90.3258 174.918 90.3258C177.361 90.3258 179.434 94.5195 180.356 101.202C181.047 106.548 182.015 108.99 185.656 114.797C191.416 123.968 194.228 131.019 195.795 140.328C196.716 145.627 197.592 177.518 196.901 178.854C196.117 180.237 194.735 179.96 194.182 178.255Z" fill="black"/>
<path d="M174.642 176.135C170.817 171.343 166.761 161.619 164.641 152.079C164.088 149.683 162.844 142.54 161.83 136.226C159.019 118.437 157.959 114.29 152.936 101.524C149.802 93.4596 149.618 87.9294 152.383 84.8879C153.719 83.4592 154.18 83.2749 156.023 83.2749C158.835 83.2749 161.415 84.98 163.535 88.2981C168.098 95.4412 170.218 107.101 171.093 129.959C171.738 146.088 172.337 154.199 173.443 161.757C174.365 167.932 176.024 173.877 177.315 175.767C177.683 176.274 178.006 177.057 178.006 177.518C178.006 178.993 176.439 178.347 174.642 176.135Z" fill="black"/>
<path d="M601.8 175.951C601.016 172.126 596.178 167.241 592.491 166.55C591.569 166.365 590.832 165.905 590.694 165.398C590.325 164.292 595.486 153.646 604.058 137.701C614.058 119.175 619.727 111.34 627.792 104.935C631.893 101.663 634.013 100.603 634.981 101.432C635.349 101.709 635.626 102.216 635.626 102.492C635.626 102.769 634.105 105.395 632.216 108.253C628.437 113.967 623.321 123.737 620.602 130.189C618.114 136.272 616.593 140.973 613.229 152.77C611.57 158.577 609.68 164.706 609.035 166.365C606.27 173.324 603.782 177.426 602.307 177.426C602.169 177.426 601.984 176.734 601.8 175.951Z" fill="black"/>
<path d="M557.282 173.278C555.9 170.651 554.932 169.361 553.734 168.67C552.535 167.978 552.213 167.518 552.443 166.918C554.84 160.789 558.112 146.134 559.126 137.102C559.356 134.567 559.771 128.438 560.001 123.461C560.462 113.875 560.923 111.801 562.858 110.419C564.564 109.221 567.19 109.451 568.803 110.972C570.969 112.907 571.292 115.765 570.693 127.378C569.817 144.521 567.974 155.536 563.688 169.038C561.937 174.43 560.739 176.965 559.817 176.965C559.448 176.965 558.296 175.306 557.282 173.278Z" fill="black"/>
<path d="M224.69 168.07C223.814 167.011 223.584 165.213 223.169 157.84C222.063 137.102 217.961 115.534 212.708 102.769C210.68 97.7915 209.343 95.3951 203.813 86.8694C198.237 78.2516 196.532 75.1178 194.366 69.5877C190.126 58.896 187.684 46.4993 187.684 35.7155C187.684 28.7567 188.928 28.5263 190.172 35.2546C192.338 46.7297 194.504 50.5086 207.777 65.6705C218.053 77.4221 225.381 91.2935 228.008 103.921C229.39 110.603 229.344 116.824 227.777 136.41C226.994 146.411 226.21 157.701 226.072 161.434C225.934 165.167 225.657 168.347 225.473 168.439C225.289 168.577 224.92 168.393 224.69 168.07Z" fill="black"/>
<path d="M233.63 166.734C232.386 165.766 231.925 163.785 231.925 159.545C231.971 155.029 232.478 151.803 233.261 151.019C234.091 150.19 234.506 151.25 234.874 154.66C235.059 156.273 235.566 158.9 236.072 160.513C237.271 164.246 237.271 166.181 236.119 166.826C234.966 167.425 234.552 167.425 233.63 166.734Z" fill="black"/>
<path d="M360.501 163.739C360.501 163.047 363.128 159.499 365.294 157.195C366.308 156.135 368.75 154.015 370.639 152.54C375.156 149.084 376.723 147.471 379.442 143.461C381.838 139.959 382.391 139.544 383.681 140.189C384.281 140.466 384.465 141.157 384.465 142.862C384.465 149.821 378.382 156.826 368.013 161.849C364.28 163.646 360.501 164.614 360.501 163.739Z" fill="black"/>
<path d="M575.716 148.992C575.716 145.397 579.91 124.014 582.444 114.751C584.149 108.575 585.025 107.147 587.514 106.64C589.449 106.271 591.846 108.253 591.846 110.28C591.846 111.064 590.048 115.949 587.836 121.156C585.624 126.364 582.352 135.028 580.509 140.328C578.205 147.102 577.006 150.051 576.453 150.144C575.9 150.282 575.716 149.959 575.716 148.992Z" fill="black"/>
<path d="M313.402 134.797C312.988 134.383 314.416 125.258 315.614 120.742C317.412 113.829 320.315 108.391 324.232 104.428C326.997 101.617 328.518 100.557 333.219 98.1602C337.09 96.1785 339.302 94.7038 340.085 93.69C341.56 91.8005 343.219 91.6623 344.003 93.3674C344.51 94.4273 344.371 94.8882 343.219 97.0542C340.731 101.617 336.306 107.101 331.698 111.294C321.237 120.788 316.951 126.134 314.877 132.309C314.048 134.751 313.771 135.166 313.402 134.797Z" fill="black"/>
<path d="M234.69 117.562C234.69 108.668 230.266 91.8006 225.243 81.3394C222.57 75.8093 219.574 71.1086 213.076 62.2143C203.859 49.6332 200.91 39.5407 204.182 32.121C206.025 27.9734 210.173 25.4849 212.892 26.9135C216.947 28.9873 219.021 35.0705 219.021 44.61C219.021 49.9558 220.219 53.4121 226.164 65.2098C235.013 82.768 236.257 87.7452 236.303 105.073C236.303 116.318 235.934 121.663 235.105 121.663C234.874 121.663 234.69 119.82 234.69 117.562Z" fill="black"/>
<path d="M309.716 120.05C309.347 119.636 310.637 112.17 311.928 107.423C314.37 98.4828 318.38 91.0631 323.771 85.5791C325.338 84.0122 329.117 80.8784 332.159 78.6203C335.2 76.3622 338.703 73.5971 339.947 72.491C342.297 70.3712 343.45 70.0486 344.371 71.2007C345.569 72.6293 342.758 80.095 339.394 84.3348C337.366 86.9616 336.491 87.7451 330.315 92.3535C322.066 98.5749 317.412 104.059 313.218 112.631C311.836 115.396 310.73 117.977 310.73 118.391C310.73 119.313 310.084 120.373 309.716 120.05Z" fill="black"/>
<path d="M257.686 119.037C257.64 118.852 257.64 116.179 257.686 113.138C257.778 110.096 257.456 104.289 257.041 100.234C255.843 88.9433 256.534 82.5836 259.668 76.0396C260.82 73.6432 262.341 71.7998 267.594 66.5922C271.189 62.9976 274.599 59.403 275.29 58.5274C276.489 56.9145 277.549 56.9145 277.549 58.6196C277.549 59.1265 275.705 63.0898 273.447 67.4217C268.286 77.376 266.995 81.0167 264.875 91.9388C262.479 104.289 258.884 118.668 258.101 119.175C257.917 119.313 257.686 119.267 257.686 119.037Z" fill="black"/>
<path d="M266.166 112.124C265.567 110.695 265.889 103.46 266.719 99.681C267.733 94.9804 269.714 89.7268 275.06 77.5604C280.775 64.5185 281.604 61.8917 285.521 45.3934C285.936 43.5961 286.305 43.0431 287.088 42.9509C288.286 42.7665 288.517 43.7804 288.563 49.2645C288.609 51.3844 288.793 54.8868 289.07 57.0989C289.715 62.8133 289.623 68.9887 288.839 72.1224C287.733 76.5926 283.862 83.6436 279.069 90.0954C271.097 100.787 268.47 105.534 267.917 110.096C267.64 112.677 266.765 113.645 266.166 112.124Z" fill="black"/>
<path d="M177.545 85.8556C177.545 85.3947 174.319 78.6203 170.402 70.7398C161.876 53.6424 160.862 50.6469 160.77 42.8586C160.724 38.1119 160.862 37.3285 161.876 35.2547C163.397 32.167 165.655 30.9688 168.005 31.9366C171.462 33.4113 172.706 37.5589 173.397 50.3243C174.135 64.3341 175.103 71.6615 176.854 77.4221C178.144 81.6158 178.789 86.639 178.052 86.639C177.775 86.639 177.545 86.2703 177.545 85.8556Z" fill="black"/>
<path d="M238.1 76.6387C237.409 74.3806 234.966 67.9287 232.616 62.2142C226.303 46.9602 224.643 41.384 223.86 33.1809C223.537 29.7246 224.229 24.2405 225.381 21.0146C228.515 12.2124 238.469 10.7838 242.294 18.6643C243.492 21.0607 243.538 21.5215 243.308 25.4848C243.169 27.8351 242.524 31.7062 241.879 34.1487C237.962 48.7114 237.04 61.8916 239.068 73.505C239.437 75.8092 239.897 78.3438 240.036 79.1734C240.497 82.1689 239.298 80.5559 238.1 76.6387Z" fill="black"/>
<path d="M197.361 38.5728C192.661 28.6185 191.14 22.2589 191.463 14.1019C191.739 8.11089 192.845 4.65455 195.149 2.44248C197.269 0.460846 198.375 0 200.818 0C203.675 0 205.472 1.01386 206.624 3.31809C207.454 4.93105 207.592 5.80666 207.408 8.9865C207.223 12.4889 207.039 13.1341 203.675 20.0468C201.739 24.1023 199.942 28.342 199.62 29.4941C198.928 32.1671 198.928 37.5129 199.666 40.5545C199.988 41.8448 200.126 43.043 199.942 43.1813C199.804 43.3195 198.652 41.2457 197.361 38.5728Z" fill="black"/>
</g>
<g opacity="0.75">
<path d="M1126.88 412V612" stroke="black" stroke-width="16" stroke-linecap="round"/>
<path d="M1026.88 512H1226.88" stroke="black" stroke-width="16" stroke-linecap="round"/>
</g>
<path d="M1494.37 109.702C1507.81 104.64 1540.87 97.1488 1586.82 112.903C1638.02 108.964 1653.77 101.087 1699.72 93.2103C1745.67 85.3334 1819.19 86.6462 1874.33 124.718C1929.47 162.79 1981.98 164.103 1992.48 275.692C2002.98 387.282 1983.29 426.667 1971.48 451.61C1959.66 476.554 1819.19 513.313 1794.24 522.503C1769.3 531.692 1669.53 552.697 1644.58 546.133C1619.64 539.569 1459.48 512 1437.16 494.933C1414.84 477.867 1349.2 337.395 1354.45 313.764C1359.7 290.133 1392.52 179.856 1417.47 158.851C1442.41 137.846 1471.5 118.319 1494.37 109.702Z" fill="white"/>
<path d="M1646.55 6.05206C1631.91 6.38814 1616.48 11.2351 1605.37 20.8134C1585.62 37.8407 1565.89 55.5323 1566.58 78.693C1567.26 101.854 1580.17 114.822 1580.17 114.822C1580.17 114.822 1589.03 121.607 1580.17 128.417C1571.32 135.231 1466.44 202.001 1471.89 339.595C1471.89 339.595 1474.62 375.404 1470.53 413.549C1467.59 440.953 1477.22 474.178 1482.91 490.806C1483.05 490.966 1485.7 497.8 1479.7 493.815C1451.27 476.047 1428.06 449.342 1408.61 416.172C1390.77 383.766 1380.6 346.319 1380.6 306.481C1380.6 221.859 1426.54 148.152 1494.22 110.211C1401.37 135.814 1332.91 222.775 1332.91 326.047C1332.91 333.942 1333.3 341.766 1334.08 349.452C1334.84 367.259 1336.8 395.674 1341.8 407.043C1349.29 424.072 1348.6 460.831 1348.6 466.962C1348.6 473.091 1350.64 674.693 1469.85 674.012C1469.85 674.012 1526.66 675.425 1527.05 652.259C1527.39 631.824 1521.56 629.676 1516.17 617.832C1511.06 606.597 1507.33 605.909 1510.05 569.811C1510.05 569.811 1510.19 562.504 1512.92 562.331C1515.64 562.158 1548.86 661.092 1591.77 712.861C1634.68 764.629 1677.61 770.061 1710.3 770.061C1710.3 770.061 1771.58 770.074 1771.58 739.422C1771.58 708.768 1743.66 721.014 1743.66 623.613C1743.66 526.207 1790.65 531.015 1796.1 554.853C1801.55 578.694 1806.32 597.751 1796.78 661.78C1787.25 725.808 1813.15 733.305 1836.99 733.305C1860.83 733.305 1986.17 737.361 2007.96 379.077C2007.96 379.077 2010.67 321.197 1991.6 271.473C1991.6 271.473 1999.78 366.836 1940.52 417.923C1881.26 469.01 1847.19 461.527 1847.19 461.527C1847.19 461.527 1818.61 459.458 1807.03 473.763C1795.46 488.067 1797.47 498.299 1772.95 490.808C1748.43 483.315 1748.32 477.205 1725.85 479.93C1703.37 482.656 1689.84 485.355 1680.98 466.965C1672.12 448.575 1662.22 436.72 1643.84 433.315C1625.44 429.909 1544.64 391.465 1546.82 283.076C1548.86 182.264 1594.5 147.503 1594.5 147.503C1594.5 147.503 1602.01 139.34 1609.5 142.746C1617 146.151 1629.24 146.849 1643.54 133.908C1657.85 120.966 1667.38 110.715 1693.27 101.859C1693.27 101.859 1710.99 99.1258 1710.31 81.4158C1709.63 63.7059 1695.29 24.9173 1676.9 13.3382C1668.85 8.2681 1657.93 5.78687 1646.55 6.05206ZM1708.36 493.568C1712.47 493.416 1718.41 496.138 1724.68 498.523C1733.79 501.986 1754.64 500.35 1762.8 499.783C1770.95 499.218 1776.42 502.679 1769.89 510.417C1760.89 521.087 1750.12 520.693 1736.53 521.633C1722.94 522.573 1708.36 509.251 1708.36 509.251C1707.59 507.938 1700.97 500.888 1704.04 495.897C1705 494.34 1706.49 493.639 1708.36 493.568ZM1638.77 276.241C1654.51 256.927 1663.29 254.443 1676.91 254.443C1690.53 254.443 1709.44 263.178 1715.06 284.415C1721.18 307.573 1724.3 311.123 1702.22 336.969C1686.38 355.514 1657.84 396.123 1629.23 370.239C1600.62 344.355 1611.25 310.004 1638.77 276.241ZM1894.62 312.304C1885.39 289.159 1877.76 284.155 1864.77 280.069C1851.78 275.981 1831.13 278.646 1819.39 297.217C1806.6 317.469 1802.17 319.383 1815.48 350.665C1825.02 373.106 1840.46 420.945 1875.52 404.837C1910.57 388.726 1910.74 352.771 1894.62 312.304ZM1743.72 464.318C1751 452.907 1767.99 449.032 1777.84 448.727C1790.73 448.331 1790.55 437.214 1790.55 437.214C1790.55 437.214 1791.46 425.866 1744.92 421.342C1698.43 416.82 1697.16 428.817 1697.16 428.817C1697.16 428.817 1694.96 439.716 1707.56 442.439C1717.16 444.516 1733.07 451.531 1738.24 463.98C1739.26 466.999 1742.13 467.059 1743.72 464.318ZM1963.24 184.916C1955.42 187.471 1943.16 186.788 1930.37 172.342C1917.59 157.895 1909.24 146.684 1884.5 135.016C1884.5 135.016 1867.2 130.347 1869.84 112.821C1872.48 95.295 1890.99 58.2944 1910.55 48.8211C1930.11 39.3504 1963.06 45.0796 1980.81 64.1916C1998.55 83.3037 2016.22 103.093 2012.98 126.033C2009.74 148.974 1995.44 160.403 1995.44 160.403L1995.69 160.442C1988.88 169.299 1963.24 184.916 1963.24 184.916Z" fill="black"/>
<path d="M1354.88 838.005H1389.55C1389.55 838.005 1398.54 836.377 1402.08 845.493C1406.25 856.237 1423.41 925.092 1423.41 925.092L1447.99 888.714C1447.99 888.714 1437.96 837.766 1455.54 838.005C1476.73 838.288 1488.54 838.005 1488.54 838.005C1488.54 838.005 1496.98 837.196 1502.26 851.275C1508.48 867.853 1523.62 926.213 1523.62 926.213L1558.61 846.459C1558.61 846.459 1563.43 838.007 1571.14 838.007C1579.33 838.007 1584.51 843.747 1582.7 850.316C1579.94 860.32 1522.01 1012.63 1522.01 1012.63C1522.01 1012.63 1518.16 1021.78 1509.97 1021.78C1501.78 1021.78 1498.41 1016.96 1494.07 1005.88C1489.74 994.805 1462.29 920.631 1462.29 920.631L1420.86 1014.55C1420.86 1014.55 1417.73 1021.77 1411.23 1021.77C1403.52 1021.77 1400.63 1018.4 1396.78 1011.18C1392.93 1003.96 1344.28 864.758 1344.28 864.758C1344.28 864.758 1334.64 838.005 1354.88 838.005ZM1610.99 838.005H1645.67C1645.67 838.005 1654.65 836.377 1658.19 845.493C1662.36 856.237 1679.52 925.092 1679.52 925.092L1704.1 888.714C1704.1 888.714 1694.08 837.766 1711.65 838.005C1732.84 838.288 1744.64 838.005 1744.64 838.005C1744.64 838.005 1753.09 837.196 1758.37 851.275C1764.59 867.853 1779.73 926.213 1779.73 926.213L1814.72 846.459C1814.72 846.459 1819.54 838.007 1827.25 838.007C1835.44 838.007 1840.62 843.747 1838.8 850.316C1836.05 860.32 1778.12 1012.63 1778.12 1012.63C1778.12 1012.63 1774.27 1021.78 1766.08 1021.78C1757.89 1021.78 1754.52 1016.96 1750.18 1005.88C1745.85 994.805 1718.4 920.631 1718.4 920.631L1676.97 1014.55C1676.97 1014.55 1673.84 1021.77 1667.34 1021.77C1659.63 1021.77 1656.74 1018.4 1652.89 1011.18C1649.04 1003.96 1600.39 864.758 1600.39 864.758C1600.39 864.758 1590.76 838.005 1610.99 838.005ZM1867.3 1021.77C1867.3 1021.77 1855.38 1022.78 1855.38 1004.05C1855.38 985.322 1855.38 849.429 1855.38 849.429C1855.38 849.429 1855.38 837.85 1872.4 837.85C1889.43 837.85 1988.88 837.85 1988.88 837.85C1988.88 837.85 2002.99 837.167 2002.99 850.794C2002.99 864.421 1989.9 863.056 1989.9 863.056H1920.42C1920.42 863.056 1912.25 863.056 1912.25 870.886C1912.25 878.718 1912.25 909.028 1912.25 909.028H1965.72C1965.72 909.028 1980.17 909.028 1980.17 920.269C1980.17 931.504 1968.1 932.189 1968.1 932.189H1911.91V1006.54C1911.91 1006.54 1912.74 1021.78 1902.87 1021.78C1896.05 1021.77 1867.3 1021.42 1867.3 1021.77Z" fill="black"/>
<defs>
<clipPath id="clip0_203_109">
<rect width="926.761" height="1024" fill="white" transform="translate(0.119263)"/>
</clipPath>
</defs>
</svg>
