<svg xmlns="http://www.w3.org/2000/svg" width="584" height="877"><path d="M203.714 715c-5 0-9.643 3.214-11.428 7.857l-23.572 59.286-2.143 6.786-1.785-6.786-18.215-57.5c0-.357 0-.357-.357-.357-1.785-5-6.428-8.215-11.785-8.215h-29.286c-6.786.358-11.786 5.715-11.786 12.5.357 2.143.714 4.286 1.429 6.429l3.928 12.143-14.285 36.071L82.286 790l-1.786-6.786-18.214-57.857-.357-.357c-1.786-5-6.429-8.571-11.786-8.571H20.857c-6.428.357-11.786 5.714-11.786 12.5 0 2.142.715 4.285 1.429 6.428L54.429 866.43c1.428 5.357 6.428 9.285 11.785 9.285s10.357-3.571 11.786-8.571l30.714-77.5 2.143-6.786 1.786 6.786 26.071 77.143c1.429 5.357 6.429 9.285 11.786 9.285 5.357 0 10.357-3.571 11.786-8.928l52.5-134.286c.714-1.786 1.071-3.571 1.071-5.357.357-6.786-5.357-12.5-12.143-12.5M422.643 715c-5 0-9.643 3.214-11.786 7.857l-23.214 59.286-2.143 6.786-1.786-6.786-18.214-57.857v-.357c-1.786-5-6.429-8.215-11.786-8.215H324.43c-6.429.357-11.786 5.715-11.786 12.5 0 2.143.714 4.286 1.428 6.429L318 746.786l-14.286 36.071-2.5 6.786-1.785-6.786L281.214 725l-.357-.357c-1.786-5-6.428-8.214-11.428-8.214h-29.643c-6.786.357-11.786 5.714-11.786 12.5.357 2.142.714 4.285 1.429 6.428l43.928 131.072c1.429 5.357 6.429 9.285 11.786 9.285 5.357 0 10-3.571 11.786-8.571l30.714-77.5 2.143-6.786 1.785 6.786 25.715 77.143c1.785 6.785 8.571 10.714 15 8.928 4.285-1.071 7.5-4.285 8.928-8.571l52.143-132.857c.714-1.786 1.072-3.572 1.072-5.357.714-8.215-5-13.929-11.786-13.929M564.786 715.357h-102.5c-6.072 0-10.715 4.643-10.715 10.714V862.5c.358 6.071 5.358 11.071 11.429 11.071h29.286c6.428 0 11.428-5.357 11.428-11.428V798.57H545.5c6.071-.357 10.714-5.714 10.357-12.142-.357-5.715-5-10.358-10.714-10.358h-41.429v-36.428h62.143c6.786 0 11.786-5.714 11.786-12.143-.714-6.786-6.072-12.143-12.857-12.143M405.5 281.071c18.571 21.072 20.714 83.215 67.5 58.215 28.214-15 27.857-77.857-9.643-100.357C433 221.07 416.214 245.357 405.143 275c-.714 1.786-.714 4.286.357 6.071M332.643 271.071C313 287.5 299.429 331.786 263.357 316.786c-29.286-15-31.786-72.5 18.214-99.286 35-16.071 52.858 15.714 52.858 49.643 0 1.428-.715 2.857-1.786 3.928M381.214 384.643c19.286-2.143 15-20 .357-24.643-15.357-4.286-31.071-6.071-47.142-6.071-25 .714-24.286 19.642-11.429 22.857 9.643 3.214 16.071 4.643 24.643 15.357 7.857 15 4.286-4.286 33.571-7.5M472.643 63.214c24.286-40.357 66.786-32.5 87.857-12.5 23.214 21.786 27.143 47.143 18.214 65-12.143 23.929-43.214 52.857-63.571 25-8.929-12.5-27.857-27.143-38.214-31.428-16.429-6.786-19.286-21.072-4.286-46.072"/><path d="M569.429 241.786c-2.143-7.143-5.715-6.786-5.715-.715C565.857 315 521.571 393.93 427.286 394.643c-24.286 0-16.786 38.571-61.072 19.286-31.785-21.429-50 20.714-72.5-24.643-5-13.215-12.5-18.215-22.143-20.715-92.857-23.214-122.5-151.428-40.357-255 16.072 9.643 22.143 11.072 39.643-4.642 9.643-8.572 20.714-15.358 32.5-20.715 19.643-7.5 30.357-16.071 13.214-53.571-22.142-48.929-66.785-35.357-87.5-18.214-23.214 19.285-39.285 50-9.642 86.071-83.572 56.429-97.858 125.357-95.715 185.714 1.786 63.929-14.285 58.572 6.072 123.572 1.785 5.714-2.143 5.714-5.357 3.571C37.286 359.643-9.857 190 125.857 96.071c2.857-2.857 1.786-6.428-9.286.358C-.929 158.57-11.643 278.57 8 359.643c9.643 39.286-5 46.428 10.357 97.857C53.357 565 83 573.571 125.5 576.429c76.786 0 24.643-42.143 27.5-95.358 0-3.214 3.929-4.642 6.071 1.786 42.143 94.643 71.786 180.714 182.858 172.5 64.285-8.214 28.571-40.357 24.642-58.214-47.142-156.429 67.143-193.572 35-40.714-21.428 87.5 46.072 78.571 93.929 47.142 48.214-31.785 109.643-244.642 73.929-361.785M383 426.786c-10.714 28.214-65.714 18.571-67.5-8.572 0-1.071 1.429-.714 2.143-.714 20.714 5 42.143 7.857 63.571 8.214.715.357 2.143 0 1.786 1.072M136.929 616.786c0 11.428-8.929 20.357-20.358 20.714-11.428.357-20.357-8.929-20.714-20.357 0-11.429 8.929-20.357 20.357-20.714 11.429 0 20.715 8.928 20.715 20.357m-20.358-24.643c-13.571 0-24.642 11.071-24.642 24.643 0 13.571 11.071 24.643 24.642 24.643 13.572 0 24.643-11.072 24.643-24.643-.357-13.572-11.428-24.643-24.643-24.643"/><path d="M123.357 620.714c-.357 3.215-3.214 5.357-6.428 5-4.643-.357-7.858-4.285-7.858-8.571v-.357c-.714-4.286 2.143-8.215 6.429-8.929h1.071c3.215 0 5.715 1.786 6.429 5h3.571c-.357-5-5-8.928-10-8.571-6.071-.357-11.428 4.643-11.428 11.071v1.429c-.357 6.428 4.286 11.785 10.714 12.5h1.072c5 0 9.285-3.572 10-8.572h-3.572ZM569.071 675.357c0 11.429-8.928 20.714-20.357 20.714-11.428 0-20.714-8.928-20.714-20.357 0-11.428 8.929-20.714 20.357-20.714 11.429 0 20.357 8.929 20.714 20.357m-20.714-24.643c-13.571 0-24.643 11.072-24.643 24.643 0 13.572 11.072 24.643 24.643 24.643C561.93 700 573 688.929 573 675.357c0-13.571-11.071-24.643-24.643-24.643"/><path d="M544.071 677.143H548l6.071 10H558l-6.786-10.357c3.215 0 6.072-2.5 6.072-6.072v-.357c0-4.643-2.857-6.786-8.215-6.786h-8.928v23.215h3.571l.357-9.643Zm0-3.214v-7.143h4.643c2.5 0 5 .714 5 3.571 0 3.572-2.5 3.929-5.714 3.929l-3.929-.357Z"/></svg>
