<svg xmlns="http://www.w3.org/2000/svg" id="Layer_1" width="135" height="135" viewBox="0 0 108 108"><defs><style>.cls-1{fill:#fff}.cls-2{fill:#d3aa41}</style></defs><path d="M0 0h108v108H0z" class="cls-2"/><path d="M9.45 9.45h89.1v89.1H9.45z" class="cls-1"/><path d="M103.6 103.6H4.4V4.4h99.2v99.2Zm-98.45-.75h97.7V5.15H5.15v97.7Z" class="cls-1"/><path d="m23 27.5-.18-1.04c-.11.18-.24.34-.41.49-.17.15-.35.27-.56.38s-.43.19-.66.25c-.24.06-.48.09-.72.09-.44 0-.86-.07-1.26-.21s-.76-.37-1.07-.68c-.44-.43-.74-.94-.89-1.54s-.23-1.28-.23-2.06c0-.34.01-.68.04-1 .03-.33.08-.64.16-.94.08-.3.19-.59.34-.86.15-.27.34-.52.57-.75.31-.31.66-.54 1.07-.7s.82-.23 1.26-.23c.49 0 .95.08 1.38.25a2.987 2.987 0 0 1 1.62 1.47c.14.27.21.59.23.94h-1.13c-.02-.2-.06-.38-.12-.52s-.15-.29-.27-.43c-.19-.24-.44-.41-.73-.52-.29-.11-.61-.16-.97-.16-.29 0-.57.06-.85.17-.27.11-.51.28-.73.49-.18.19-.32.39-.42.62-.1.23-.18.47-.22.71-.05.25-.08.5-.09.75-.01.25-.02.49-.02.72s0 .46.02.71c.01.25.04.51.1.76.05.26.13.5.24.74s.25.45.43.63c.21.21.45.37.71.47.26.1.54.15.83.15.31 0 .6-.05.87-.15.27-.1.51-.25.7-.44.28-.28.48-.62.58-1.01.11-.39.16-.78.16-1.18h-2.32v-1.01h3.29v4.66h-.76ZM30.8 24.42c0 .49-.06.95-.18 1.38-.12.43-.35.81-.7 1.15-.23.22-.5.39-.81.52s-.66.19-1.05.19-.74-.07-1.05-.19-.58-.3-.81-.52c-.34-.33-.57-.71-.7-1.15-.12-.43-.18-.89-.18-1.38s.06-.95.18-1.38c.12-.43.35-.81.7-1.15.23-.22.5-.39.81-.52.31-.13.66-.19 1.05-.19s.74.07 1.05.19c.31.13.58.3.81.52.34.33.57.71.7 1.15.12.43.18.89.18 1.38Zm-1.06 0c0-.37-.04-.72-.12-1.06s-.23-.63-.45-.85c-.13-.13-.29-.24-.47-.32-.18-.08-.4-.12-.64-.12s-.46.04-.64.12-.34.19-.47.32c-.22.23-.37.51-.45.85-.08.34-.12.7-.12 1.06s.04.72.12 1.06c.08.34.23.63.45.85.13.13.29.24.47.32s.4.12.64.12.46-.04.64-.12c.18-.08.34-.19.47-.32.22-.23.37-.51.45-.85s.12-.7.12-1.06ZM34.58 27.5s-.11.03-.18.04c-.12.02-.3.04-.55.04-.45 0-.78-.13-.99-.39-.2-.26-.3-.63-.3-1.12v-7.36h1.04v7.3c0 .21.04.37.12.48.08.11.23.16.44.16h.34s.06 0 .09-.01v.88ZM40.15 27.5l-.07-.8c-.18.31-.44.55-.79.71s-.7.25-1.05.25c-.38 0-.72-.06-1.01-.18s-.53-.28-.74-.49c-.29-.3-.51-.67-.66-1.12-.15-.45-.22-.93-.22-1.44s.08-1.03.24-1.49c.16-.46.39-.84.7-1.14.2-.19.44-.34.73-.45a2.664 2.664 0 0 1 1.49-.11c.17.04.34.1.51.17.16.07.31.16.44.27.13.11.24.23.32.37V18.7h1.04v8.8h-.91Zm-.06-3.08c0-.39-.05-.76-.15-1.1-.1-.34-.28-.63-.54-.86a1.84 1.84 0 0 0-.42-.29c-.16-.08-.35-.12-.58-.12-.34 0-.63.07-.85.21-.23.14-.41.32-.54.55-.13.23-.22.48-.27.76-.05.28-.08.56-.08.85s.03.57.08.85.14.53.27.76c.13.23.31.41.54.55.23.14.51.21.85.21.23 0 .42-.04.58-.12.16-.08.3-.17.42-.29.26-.23.44-.51.54-.86.1-.34.15-.71.15-1.1ZM20.2 33.68v7.63h-1.1v-7.63h-2.57v-1.01h6.24v1.01H20.2ZM26.41 36.15c-.09-.02-.18-.03-.29-.04-.1 0-.2-.01-.29-.01-.24 0-.47.05-.66.14-.2.09-.37.21-.51.35-.12.12-.22.26-.3.42-.08.16-.13.33-.17.51s-.06.36-.07.54c-.01.18-.02.35-.02.51v2.74h-1.02v-6.17h.91l.08 1.08c.16-.38.41-.66.75-.85.34-.18.7-.27 1.09-.27.16 0 .32.01.49.04v1.01ZM32.81 41.25c-.11.06-.22.1-.33.12-.11.02-.22.03-.35.03-.28 0-.49-.09-.65-.27a.958.958 0 0 1-.24-.66h-.02c-.18.31-.44.55-.8.74-.35.18-.75.27-1.19.27-.36 0-.67-.05-.93-.16a2.04 2.04 0 0 1-.66-.43c-.17-.18-.31-.38-.4-.61-.09-.23-.13-.46-.13-.7 0-.19.03-.4.1-.62.07-.22.19-.42.36-.6.17-.18.4-.34.68-.47.28-.13.63-.21 1.05-.23l1.88-.11v-.45c0-.15-.02-.32-.05-.49s-.12-.32-.26-.45c-.11-.1-.24-.18-.4-.23-.16-.06-.36-.08-.62-.08-.28 0-.52.03-.69.1-.18.07-.32.16-.43.26-.2.2-.3.45-.3.74h-1.01c0-.28.06-.53.15-.74.09-.21.22-.39.38-.56.21-.22.48-.38.82-.49.34-.11.7-.16 1.08-.16.6 0 1.08.11 1.43.33.35.22.6.51.74.85.12.28.18.6.18.95v2.99c0 .16.03.27.09.33s.14.08.25.08h.08s.06 0 .09-.01l.1-.02v.77Zm-1.63-2.91-1.66.1c-.15 0-.31.03-.48.08s-.31.11-.44.19c-.13.09-.24.2-.32.34s-.12.3-.12.5c0 .28.09.52.28.74.19.22.5.32.94.32.24 0 .47-.04.69-.12.22-.08.42-.21.58-.38.19-.19.32-.4.4-.65.08-.24.12-.5.12-.76v-.37ZM38.41 41.31V37.4c0-.46-.1-.82-.31-1.08-.21-.26-.56-.39-1.04-.39-.3 0-.56.09-.79.26-.23.18-.41.4-.55.69-.11.23-.17.49-.19.78-.02.29-.03.56-.03.79v2.86h-1.04v-6.17h.9l.08.93c.08-.18.19-.34.33-.47.14-.13.29-.25.46-.33s.35-.16.54-.21c.19-.05.37-.07.54-.07.71 0 1.24.2 1.6.6.36.4.54.96.54 1.67v4.06h-1.04ZM46.16 39.52c0 .27-.05.51-.13.71s-.21.39-.35.54c-.24.24-.53.42-.88.53-.35.11-.73.16-1.13.16s-.76-.05-1.1-.15c-.34-.1-.64-.28-.9-.54-.19-.19-.33-.4-.44-.65-.11-.25-.16-.5-.16-.76h1.04c0 .21.06.4.15.55.09.16.21.29.35.41.14.11.31.18.51.22.2.04.4.06.6.06.21 0 .41-.02.6-.07.19-.04.37-.14.53-.27.09-.07.16-.16.22-.28.06-.12.08-.25.08-.39 0-.24-.08-.43-.24-.59-.16-.15-.4-.25-.72-.29-.07 0-.15-.02-.27-.04-.11-.02-.24-.03-.37-.05-.13-.02-.26-.03-.4-.05s-.25-.03-.36-.05c-.46-.07-.83-.25-1.1-.53-.27-.28-.41-.66-.41-1.13 0-.24.05-.46.15-.68.1-.22.22-.39.36-.53.2-.21.46-.38.77-.5s.66-.18 1.05-.18c.41 0 .79.07 1.13.19.34.13.62.33.83.59.14.16.25.34.32.52.08.19.12.41.12.66h-1.04c0-.16-.05-.31-.12-.44-.07-.13-.15-.24-.24-.32-.24-.22-.58-.33-1.01-.33-.12 0-.24 0-.34.01s-.23.04-.38.11c-.19.08-.35.2-.46.35s-.16.31-.16.48c0 .26.07.45.22.57s.35.2.61.24c.17.02.38.05.62.08s.53.07.86.13c.44.07.81.26 1.12.56.3.3.46.68.46 1.15ZM53.4 38.23c0 .54-.08 1.03-.24 1.49-.16.46-.39.84-.7 1.14-.2.19-.44.34-.73.45a2.664 2.664 0 0 1-1.49.11c-.18-.04-.34-.1-.51-.17s-.31-.16-.44-.27a1.4 1.4 0 0 1-.32-.37v3.35h-1.04v-8.8h.91l.07.8c.18-.31.44-.55.79-.71.35-.17.7-.25 1.05-.25.38 0 .72.06 1.01.18.29.12.53.28.74.49.29.3.51.67.66 1.12.15.45.23.93.23 1.44Zm-1.06.01c0-.28-.03-.57-.08-.85a2.37 2.37 0 0 0-.27-.76c-.13-.23-.31-.41-.54-.55-.23-.14-.51-.21-.85-.21-.23 0-.42.04-.58.12-.16.08-.3.17-.42.29-.26.23-.44.51-.54.86-.1.34-.15.71-.15 1.1s.05.76.15 1.1c.1.34.28.63.54.86.12.11.26.21.42.29.16.08.35.12.58.12.34 0 .63-.07.85-.21.23-.14.41-.32.54-.55.13-.23.22-.48.27-.76s.08-.56.08-.85ZM60.36 41.25c-.11.06-.22.1-.33.12-.11.02-.22.03-.35.03-.28 0-.49-.09-.65-.27a.958.958 0 0 1-.24-.66h-.02c-.18.31-.44.55-.8.74-.35.18-.75.27-1.19.27-.36 0-.67-.05-.93-.16a2.04 2.04 0 0 1-.66-.43c-.17-.18-.31-.38-.4-.61-.09-.23-.13-.46-.13-.7 0-.19.03-.4.1-.62.07-.22.19-.42.36-.6.17-.18.4-.34.68-.47.28-.13.63-.21 1.05-.23l1.88-.11v-.45c0-.15-.02-.32-.05-.49s-.12-.32-.26-.45c-.11-.1-.24-.18-.4-.23-.16-.06-.36-.08-.62-.08-.28 0-.52.03-.69.1-.18.07-.32.16-.43.26-.2.2-.3.45-.3.74h-1.01c0-.28.06-.53.15-.74.09-.21.22-.39.38-.56.21-.22.48-.38.82-.49.34-.11.7-.16 1.08-.16.6 0 1.08.11 1.43.33.35.22.6.51.74.85.12.28.18.6.18.95v2.99c0 .16.03.27.09.33s.14.08.25.08h.08s.06 0 .09-.01l.1-.02v.77Zm-1.63-2.91-1.66.1c-.15 0-.31.03-.48.08s-.31.11-.44.19c-.13.09-.24.2-.32.34s-.12.3-.12.5c0 .28.09.52.28.74.19.22.5.32.94.32.24 0 .47-.04.69-.12.22-.08.42-.21.58-.38.19-.19.32-.4.4-.65.08-.24.12-.5.12-.76v-.37ZM65.33 36.15c-.09-.02-.18-.03-.29-.04-.1 0-.2-.01-.29-.01-.24 0-.47.05-.66.14-.2.09-.37.21-.51.35-.12.12-.22.26-.3.42-.08.16-.13.33-.17.51s-.06.36-.07.54c-.01.18-.02.35-.02.51v2.74H62v-6.17h.91l.08 1.08c.16-.38.41-.66.75-.85.34-.18.7-.27 1.09-.27.16 0 .32.01.49.04v1.01ZM71.53 37.9v.33c0 .11 0 .22-.01.34h-4.36c0 .28.05.57.16.85s.25.51.44.7c.29.29.67.44 1.13.44.5 0 .89-.13 1.15-.4.09-.09.16-.18.22-.28.06-.1.11-.23.15-.39h1.01c-.04.31-.15.6-.32.86-.17.27-.38.49-.63.66-.22.15-.46.26-.73.34s-.55.12-.84.12c-.44 0-.83-.08-1.18-.25-.35-.17-.64-.39-.87-.68-.26-.3-.45-.65-.58-1.04s-.19-.81-.19-1.25c0-.37.04-.73.11-1.05s.19-.64.37-.92c.22-.37.53-.68.93-.93.4-.24.86-.37 1.4-.37.4 0 .75.07 1.07.21s.58.34.81.58c.24.27.43.59.57.95.14.37.21.76.21 1.17Zm-1.06-.22c0-.24-.03-.46-.1-.68-.07-.22-.16-.41-.28-.57-.13-.17-.3-.31-.5-.41-.2-.1-.44-.15-.72-.15a1.582 1.582 0 0 0-1.26.57c-.14.17-.25.36-.32.58-.07.22-.11.44-.12.66h3.29ZM77.22 41.31V37.4c0-.46-.1-.82-.31-1.08-.21-.26-.56-.39-1.04-.39-.3 0-.56.09-.79.26-.23.18-.41.4-.55.69-.11.23-.17.49-.19.78-.02.29-.03.56-.03.79v2.86h-1.04v-6.17h.9l.08.93c.08-.18.19-.34.33-.47.14-.13.29-.25.46-.33s.35-.16.54-.21c.19-.05.37-.07.54-.07.71 0 1.24.2 1.6.6.36.4.54.96.54 1.67v4.06h-1.04ZM85.19 39.24c-.02.33-.1.63-.22.88s-.29.48-.5.68c-.22.21-.48.38-.77.49s-.63.18-1.01.18c-.56 0-1.02-.11-1.38-.33s-.65-.5-.87-.82a2.96 2.96 0 0 1-.38-.88c-.09-.34-.13-.74-.13-1.21s.04-.86.13-1.21c.09-.34.21-.63.38-.88.22-.33.51-.6.87-.82.36-.22.82-.33 1.37-.33.37 0 .7.06.99.17s.55.28.76.49c.21.2.38.43.51.69.13.26.2.55.23.9h-1.05c-.02-.21-.08-.4-.15-.56-.08-.16-.17-.29-.29-.41-.12-.11-.27-.21-.44-.27s-.36-.1-.56-.1c-.24 0-.44.04-.61.12-.17.08-.33.17-.46.29-.24.21-.41.49-.49.84-.09.35-.13.72-.13 1.1s.04.75.13 1.1c.08.35.25.63.49.84.14.11.29.21.46.29s.37.12.61.12c.21 0 .41-.04.59-.11s.34-.17.46-.3c.11-.11.21-.24.27-.39.07-.15.12-.32.14-.52h1.05ZM88.74 42.58c-.15.4-.34.72-.6.96-.25.24-.61.36-1.07.36-.26 0-.47-.02-.63-.05s-.26-.06-.3-.07v-.9c.07.02.14.03.22.05.07.02.14.03.23.04.08 0 .18.01.29.01.22 0 .41-.04.56-.13s.28-.25.37-.49l.39-1.04-2.46-6.17h1.17l1.82 4.86 1.73-4.86h1.08l-2.78 7.43ZM17.07 84.24c0-2.82 1.22-4.91 4.24-4.91 2.72 0 3.9 1.49 3.9 3.63v.19h-2.22v-.3c0-1.18-.47-1.82-1.66-1.82-1.32 0-1.94.81-1.94 2.97v.61c0 2.29.58 3.02 1.95 3.02 1.1 0 1.74-.48 1.74-1.78v-.41h2.13v.3c0 2.13-1.12 3.58-3.83 3.58-3.3 0-4.3-2.13-4.3-4.86v-.23Zm12.99-2.46c2.27 0 3.05 1.24 3.05 2.48v4.9h-1.92v-1h-.05c-.34.65-1.02 1.16-2.01 1.16-1.35 0-2.4-.8-2.4-2.11s.71-2.39 2.96-2.39h1.45v-.44c0-.69-.19-1.17-1.12-1.17-.82 0-1.17.34-1.17.94v.03h-1.83v-.19c0-1.02.77-2.2 3.03-2.2Zm1.08 4.46v-.13h-1.28c-.81 0-1.13.39-1.13.9v.09c0 .58.33.86.9.86.91 0 1.51-.61 1.51-1.73Zm3.77-4.33h1.97v1.37h.05c.32-.88 1.02-1.5 2.3-1.5 1.69 0 2.35.86 2.35 2.39v4.99h-1.97v-4.52c0-.88-.29-1.26-1.21-1.26-1.07 0-1.52.74-1.52 1.45v4.33h-1.97v-7.25Zm13.02 6.21c-.33.65-1 1.18-2.01 1.18-2.25 0-2.96-1.96-2.96-3.64v-.14c0-2.21 1.09-3.74 2.96-3.74 1.12 0 1.65.42 2.01.89v-3.4h1.97v9.9h-1.97v-1.04Zm.01-1.54V84.4c-.13-.62-.58-1.13-1.44-1.13-1.18 0-1.59.74-1.59 2.17v.19c0 1.38.3 2.16 1.5 2.16.89 0 1.36-.46 1.52-1.21Zm3.74-6.54c0-.6.48-1.09 1.07-1.09s1.08.49 1.08 1.09-.49 1.08-1.08 1.08-1.07-.48-1.07-1.08Zm.08 1.87h1.97v7.25h-1.97v-7.25Zm8.42 6.21c-.33.65-1 1.18-2.01 1.18-2.25 0-2.96-1.96-2.96-3.64v-.14c0-2.21 1.09-3.74 2.96-3.74 1.12 0 1.65.42 2.01.89v-3.4h1.97v9.9h-1.97v-1.04Zm.01-1.54V84.4c-.13-.62-.58-1.13-1.43-1.13-1.18 0-1.59.74-1.59 2.17v.19c0 1.38.3 2.16 1.5 2.16.89 0 1.36-.46 1.52-1.21Zm3.39 1.57c0-.6.49-1.1 1.1-1.1s1.13.51 1.13 1.1-.51 1.12-1.13 1.12-1.1-.51-1.1-1.12ZM17.47 54.48c3.27-2.37 4.07-3.33 4.07-5.12 0-1.07-.31-1.64-1.16-1.64-1.03 0-1.2.68-1.2 1.62v.71h-1.61v-.41c0-1.28.65-2.55 2.91-2.55 1.93 0 2.85.85 2.85 2.37 0 1.74-.84 2.69-4.52 5.06v.07h3.06c.49 0 .62-.12.62-.61v-.42h.91v2.28h-5.94v-1.36ZM31.71 51.42v.25c0 2.17-.43 4.32-3.48 4.32s-3.48-2.13-3.48-4.32v-.25c0-2.18.43-4.34 3.47-4.34s3.49 2.16 3.49 4.34Zm-5.05-.6v1.43c0 1.94.17 3.12 1.57 3.12s1.57-1.19 1.57-3.12v-1.43c0-1.94-.17-3.11-1.57-3.11s-1.57 1.17-1.57 3.11ZM32.83 54.48c3.27-2.37 4.07-3.33 4.07-5.12 0-1.07-.31-1.64-1.16-1.64-1.03 0-1.2.68-1.2 1.62v.71h-1.61v-.41c0-1.28.65-2.55 2.91-2.55 1.93 0 2.85.85 2.85 2.37 0 1.74-.84 2.69-4.52 5.06v.07h3.06c.49 0 .62-.12.62-.61v-.42h.91v2.28h-5.94v-1.36ZM39.9 53.65v-.38h1.61v.42c0 1.15.28 1.7 1.36 1.7s1.46-.6 1.46-1.76c0-1.31-.36-1.8-1.66-1.8h-.56v-.82l2.36-2.43v-.08h-2.7c-.5 0-.62.13-.62.62v.49h-.88v-2.35h5.38v1.27l-2.46 2.42v.14c2.04-.07 2.9.85 2.9 2.27 0 1.52-.73 2.63-3.27 2.63-2.31 0-2.93-1.14-2.93-2.34Z"/></svg>