<svg xmlns="http://www.w3.org/2000/svg" viewBox="0 0 4496 1134"><path fill="#fff" d="m794 173 2.563 1.824C818.16 191.2 834.199 213.812 844 239c2.367.028 2.367.028 5-1a57 57 0 0 0 4.25-6.812c4.066-7.18 8.616-13.715 13.75-20.188l2.215-2.8c7.568-9.404 15.37-18.598 24.785-26.2l2.824-2.332c28.599-23.143 63.966-32.397 100.364-28.918 29.288 3.158 54.331 14.927 75.812 35.25l2.496 2.3c10.75 10.247 18.646 22.603 25.504 35.7l.991 1.883c9.923 19.163 15.96 39.988 20.009 61.117l.464 2.4c4.79 25.688 4.845 52.262 4.812 78.304-.002 3.768.007 7.535.014 11.303q.018 10.989.012 21.979-.002 8.93.005 17.859l.001 2.588.004 5.208q.014 24.255.003 48.51c-.006 14.782.006 29.565.025 44.347q.03 22.853.024 45.704c-.002 8.532 0 17.063.014 25.595q.019 10.863.002 21.726-.011 5.536.005 11.073c.012 4.001.002 8.001-.01 12.002l.022 3.53c-.052 7.686-.71 12.783-5.897 18.747-3.305 2.81-5.696 3.25-9.89 3.265l-2.718.018-2.975.003-3.14.015q-5.15.021-10.3.027l-7.149.017q-7.497.015-14.995.02c-6.408.006-12.816.03-19.225.058-4.922.019-9.844.024-14.767.026q-3.544.004-7.088.024c-3.304.017-6.607.015-9.91.008l-2.964.028c-4.948-.03-8.39-.12-12.379-3.384-5.141-5.375-6.122-9.131-6.13-16.375l-.011-3.248.003-3.55-.009-3.786q-.01-5.198-.01-10.397c-.001-3.739-.01-7.478-.016-11.217q-.017-9.723-.026-19.446c-.01-10.259-.031-20.518-.053-30.777l-.023-10.539-.005-2.66q-.031-14.993-.058-29.985l-.005-2.769q-.038-22.165-.061-44.329-.028-22.785-.085-45.57-.036-14.034-.04-28.07a6449 6449 0 0 0-.036-19.277c-.012-3.698-.02-7.397-.013-11.095.025-18.107-.046-36.006-6.172-53.285l-.778-2.244C984.983 294.18 975.63 281.384 961 274c-18.117-7.273-37.985-7.407-56.012.285-17.061 8.543-27.478 24.244-33.727 41.79-7.053 21.213-7.714 43.072-7.65 65.231.007 3.578-.004 7.156-.012 10.734q-.018 9.26-.01 18.52c.007 8.932-.005 17.865-.023 26.798q-.043 21.763-.055 43.527l-.001 2.622-.021 39.563-.002 2.632q-.013 21.72-.058 43.438-.026 13.37-.016 26.74a5927 5927 0 0 1-.017 18.289q-.014 5.273-.001 10.544c.01 3.81-.002 7.621-.016 11.432l.02 3.36c-.055 7.523-.822 12.531-5.899 18.37-3.305 2.81-5.696 3.25-9.89 3.265l-2.718.018-2.975.003-3.14.015q-5.15.021-10.3.027l-7.149.017q-7.497.015-14.995.02c-6.408.006-12.816.03-19.225.058-4.922.019-9.844.024-14.767.026q-3.544.004-7.088.024c-3.304.017-6.607.015-9.91.008l-2.964.028c-4.948-.03-8.39-.12-12.379-3.384-5.141-5.375-6.122-9.131-6.13-16.375l-.011-3.248.003-3.55-.009-3.786q-.01-5.198-.01-10.397c-.001-3.739-.01-7.478-.016-11.217q-.017-9.723-.026-19.446c-.01-10.259-.031-20.518-.053-30.777l-.023-10.539-.005-2.66a98752 98752 0 0 1-.063-32.754q-.038-22.165-.061-44.329-.028-22.785-.085-45.57-.036-14.034-.04-28.07a6449 6449 0 0 0-.036-19.277c-.012-3.698-.02-7.397-.013-11.095.025-18.107-.046-36.006-6.172-53.285l-.778-2.244C720.983 294.18 711.63 281.384 697 274c-18.117-7.273-37.985-7.407-56.012.285-17.061 8.543-27.478 24.244-33.727 41.79-7.053 21.213-7.714 43.072-7.65 65.231.007 3.578-.004 7.156-.012 10.734q-.018 9.26-.01 18.52c.007 8.932-.005 17.865-.023 26.798q-.043 21.763-.055 43.527l-.001 2.622-.021 39.563-.002 2.632q-.013 21.72-.058 43.438-.026 13.37-.016 26.74a5927 5927 0 0 1-.017 18.289q-.014 5.273-.001 10.544c.01 3.81-.002 7.621-.016 11.432l.02 3.36c-.055 7.523-.822 12.531-5.899 18.37-3.305 2.81-5.696 3.25-9.89 3.265l-2.718.018-2.975.003-3.14.015q-5.15.021-10.3.027l-7.149.017q-7.497.015-14.995.02c-6.408.006-12.816.03-19.225.058-4.922.019-9.844.024-14.767.026q-3.544.004-7.088.024c-3.304.017-6.607.015-9.91.008l-2.964.028c-4.948-.03-8.39-.12-12.379-3.384-5.874-6.141-6.151-10.764-6.131-18.964l-.007-2.425q-.006-4.04-.002-8.077l-.01-5.837q-.011-8.033-.01-16.064-.005-8.658-.016-17.316-.02-18.935-.024-37.871-.005-11.82-.012-23.639a161322 161322 0 0 1-.028-82.405v-2.13q-.007-34.206-.043-68.411-.038-36.165-.04-72.328.001-19.714-.025-39.428-.023-16.783-.012-33.567.008-8.565-.011-17.13a3296 3296 0 0 1 0-15.68q.004-2.837-.01-5.675c-.01-2.57-.003-5.14.01-7.711-.009-.735-.016-1.47-.024-2.227.063-6.212 1.234-11.954 5.77-16.49 5.367-3.322 9.837-3.92 16.084-3.9l2.544-.015c2.769-.014 5.537-.013 8.306-.01l5.787-.014q6.06-.01 12.122-.002c5.173.006 10.345-.01 15.518-.034 3.983-.015 7.966-.016 11.95-.013q2.86 0 5.72-.015c2.67-.013 5.337-.006 8.006.006l2.376-.023c5.568.053 9.515 1.304 14.007 4.786 4.857 5.311 5.878 10.983 7.143 17.922l1.472 7.453.766 4.002c.871 4.52 1.81 9.024 2.758 13.529l.978 4.67.484 2.308c.766 3.659 1.53 7.318 2.284 10.979l.773 3.729C595 233 595 233 595 236h4l.476-1.606c1.955-6.25 4.592-11.925 7.649-17.707l1.479-2.798c14.693-27.264 39.337-49 69.033-58.428C716.45 144.086 760.835 149.328 794 173M356.055 726.809C369.703 732.153 381.654 740.9 393 750q3.245 2.568 6.5 5.125l1.718 1.352c13.461 10.567 27.023 20.876 41.223 30.433 3.75 2.525 7.44 5.122 11.116 7.753 7.906 5.657 15.972 10.932 24.266 16a807 807 0 0 1 6.935 4.321C551.376 856.767 622.572 889.816 697 915l2.18.74c91.755 31.117 187.329 50.688 328.148 66.158l2.174.186c38.5 3.162 76.973 4.255 115.592 4.177 5.698-.012 11.396-.005 17.093.007 28.659.049 57.205-.54 85.813-2.268l3.915-.236a1233 1233 0 0 0 21.898-1.577l3.23-.254C1377.58 973.975 1477.658 956.776 1591 923l2.367-.733c55.164-17.104 108.894-38.65 160.028-65.576 27.6-14.42 27.6-14.42 39.605-11.691 7.002 2.201 11.2 5.47 14.879 11.816 3.4 6.624 3.876 11.938 2.121 19.184-3.79 10.274-9.63 18.954-17 27l-3.18 3.54c-5.637 6.217-11.349 12.104-17.82 17.46q-1.555 1.344-3.105 2.695a494 494 0 0 1-22.857 18.731c-2.256 1.743-4.5 3.5-6.745 5.258-12.147 9.444-24.676 18.145-37.567 26.54q-3.634 2.37-7.25 4.768c-52.361 34.527-109.707 61.405-168.476 83.008l-2.206.813c-80.99 29.768-165.85 49.481-363.482 67.75-1.177.03-1.177.03-2.378.063-16.647.432-33.283.584-49.934.374l-2.075-.026c-59.985-.81-119.715-6.463-178.925-15.974l-2.591-.415c-83.356-13.442-164.795-37.037-345.845-122.078-3.269-1.921-6.569-3.778-9.876-5.632C547.676 977.905 527.61 964.125 508 950l-2.333-1.68c-10.584-7.65-20.885-15.567-30.943-23.896-2.436-2.012-4.894-3.997-7.349-5.986-9.668-7.929-19.121-16.084-28.288-24.587a603 603 0 0 0-5.73-5.237c-7.945-7.183-15.562-14.665-23.122-22.249a3068 3068 0 0 0-6.186-6.18q-2.004-2.004-4.006-4.01l-1.831-1.824c-3.708-3.728-7.225-7.576-10.658-11.558-2.249-2.594-4.59-5.093-6.929-7.606-4.291-4.645-8.356-9.425-12.32-14.355-2.057-2.528-4.16-5-6.29-7.467-16.618-19.31-36.543-43.69-36.015-70.365 1.001-6.08 3.145-10.07 8-14 6.563-4.664 14.467-4.2 22.055-2.191M3945.262-.14l2.556-.018 2.78-.003 2.949-.015q4.827-.021 9.656-.027l6.719-.017q7.046-.015 14.092-.02c6.01-.006 12.02-.03 18.03-.058 4.627-.019 9.255-.024 13.882-.026q3.322-.004 6.646-.024c3.104-.017 6.208-.015 9.312-.008l2.755-.028c6.715.043 12.778.801 17.736 5.759 3.788 6.12 3.91 11.105 3.88 18.156l.01 3.266c.008 3.636.002 7.273-.004 10.909l.011 7.87q.013 8.575.007 17.15c-.006 8.5 0 17.002.009 25.502q.02 24.096.014 48.193a75251 75251 0 0 0 .01 50.598q.013 37.426.008 74.853v2.852l-.003 14.309v2.87l-.002 5.747q-.007 44.723.021 89.444a136008 136008 0 0 1 .026 113.806q0 19.917.016 39.834.019 22.643.002 45.287-.011 12.678.008 25.358c.01 6.302.003 12.605-.01 18.907q-.004 3.835.008 7.67c.01 3.462.002 6.924-.011 10.387l.022 3.04c-.049 6.219-.897 10.502-4.9 15.49-4.751 4.288-8.348 4.988-14.642 4.872l-2.693.022c-2.92.016-5.84-.011-8.76-.04q-3.057-.001-6.115.003-6.396-.001-12.792-.058c-5.46-.045-10.919-.046-16.379-.033-4.206.007-8.412-.006-12.619-.026q-3.02-.012-6.039-.007c-2.814.001-5.628-.024-8.443-.057l-2.508.015c-5.274-.096-8.368-1.005-12.507-4.564-5.17-6.882-6.536-15.625-8.113-23.883q-.39-1.963-.786-3.925c-.682-3.407-1.346-6.818-2.007-10.229-.68-3.495-1.377-6.987-2.073-10.479A4758 4758 0 0 1 3931 588l-4-1-1 3.625c-8.447 24.95-30.1 47.59-52 61.375l-3.316 2.102c-21.81 13.09-44.173 19.127-69.559 19.148l-2.249.002c-10.929-.016-21.253-.461-31.876-3.252l-2.055-.504C3723.38 659.22 3691.65 628.762 3670 593c-20.4-35.01-31.355-74.247-37.25-114.125l-.458-3.058c-2.943-21.342-3.672-42.799-3.604-64.317l.005-3.685c.136-54.3 7.613-109.396 31.307-158.815l.968-2.06c9.717-20.628 22.356-38.451 38.032-54.94l1.875-2.07c24.297-25.925 59.618-39.927 94.738-41.133 37.14-.617 68.156 10.787 95.387 36.203 12.043 11.724 21.827 26.016 29.754 40.782 1.9 3.818 1.9 3.818 5.379 5.917L3928 232l-.011-3.45a48746 48746 0 0 1-.209-91.069l-.003-2.007q-.025-15.086-.079-30.173-.06-17.505-.074-35.011c-.006-6.18-.018-12.361-.047-18.542a3062 3062 0 0 1-.03-17.448q0-3.204-.024-6.407c-.02-2.915-.015-5.829-.004-8.743l-.035-2.565c.054-5.329.979-8.357 4.516-12.585 4.273-3.098 8.046-4.12 13.262-4.14m-151.95 281.327c-16.688 21.398-24.37 48.35-28.312 74.813l-.458 3.045c-6.097 43.009-5.067 89.758 5.458 131.955l.585 2.379c5.237 20.746 14.327 39.238 29.415 54.621l1.855 1.93C3814.525 562.085 3831.97 566 3849 566c20.105-1.44 35.093-10.206 48.625-24.75 35.87-42.691 35.899-111.785 31.625-164.375A319 319 0 0 0 3928 366l-.39-3.047c-4.274-32.128-12.972-69.38-39.2-91.098-29.947-22.639-70.197-19.66-95.097 9.332m-275.075-88.265c36.018 34.618 51.46 84.234 52.857 133.41.038 3.536.048 7.07.045 10.605l.01 4.067q.01 5.532.01 11.062.005 5.988.016 11.974.02 13.055.024 26.111.005 8.157.012 16.312.019 22.6.026 45.2v2.915l.003 11.719q.008 23.597.045 47.194.035 24.25.037 48.5-.001 13.606.025 27.213.023 11.572.012 23.146-.008 5.904.011 11.808.019 5.404 0 10.808c-.003 1.92.008 3.84.02 5.762-.06 10.533-.06 10.533-3.391 15.272-5.262 4.75-8.67 5.155-15.577 5.177l-2.691.02c-2.947.02-5.894.031-8.841.041l-3.048.013q-7.986.03-15.97.044c-5.5.011-10.999.046-16.498.085-4.228.026-8.455.035-12.683.038q-3.04.008-6.08.035c-2.84.025-5.678.024-8.517.017l-2.532.039c-5.322-.048-8.347-.97-12.563-4.509-4.369-5.921-5.506-12.426-6.98-19.54l-.783-3.632c-.82-3.816-1.622-7.634-2.425-11.453l-1.654-7.727c-3.654-17.072-3.654-17.072-5.158-24.648h-3l-1.434 3.227c-11.25 24.872-27.88 47.477-51.566 61.773l-3.406 2.074c-10.237 5.964-21.214 9.756-32.594 12.926l-2.115.59c-21.413 5.572-49.463 4.695-70.885-.59l-2.12-.504c-22.056-5.401-42.467-15.757-58.88-31.496a338 338 0 0 0-3.562-2.875c-26.463-22.691-39.342-61.87-42.277-95.442-1.957-32.584 1.822-64.003 15.839-93.683l.949-2.026c7.405-15.532 18.17-28.649 30.051-40.974l2.008-2.164c36.143-37.958 96.027-55.043 146.858-56.943 3.01-.056 6.018-.084 9.029-.096l3.36-.017q3.504-.014 7.01-.02c3.5-.01 7-.04 10.499-.072 14.335-.066 28.096.938 42.236 3.312.398-29.249-.099-62.518-20.875-85.625-12.724-12.061-29.969-15.912-47.02-15.723-17.29.528-33.44 5.677-45.945 18.036L3326 266l-2.066 2.125c-8.664 9.765-13.841 22.76-17.622 35.125-1.84 5.92-3.78 9.52-8.312 13.75-9.264 4.632-25.325-.25-35.094-1.957l-5.412-.92q-5.629-.96-11.255-1.94c-4.796-.835-9.596-1.65-14.397-2.46q-5.571-.946-11.139-1.908-2.655-.456-5.31-.905c-2.47-.419-4.939-.85-7.407-1.284l-2.191-.364c-5.693-1.024-10.182-2.475-14.108-6.824-3.679-5.315-3.343-10.105-2.687-16.438 5.226-25.466 17.731-50.634 35-70l2.313-2.64c2.2-2.483 4.432-4.929 6.687-7.36l1.664-1.828C3264.851 168.35 3312.57 153.727 3355 150l3.355-.336c55.677-4.741 117.638 3.65 159.883 43.258m-191.441 252.867c-17.777 19.695-21.727 45.574-20.972 71.08 1.01 18.077 8.28 34.836 21.519 47.346 13.356 11.348 29.23 14.552 46.347 13.574 11.962-1.417 22.778-5.376 32.309-12.789l2.234-1.703c24.232-19.887 30.655-55.14 33.752-84.54 1.876-20.49 1.189-41.204 1.014-61.757-37.367-15.383-89.357.524-116.203 28.79M1528.833 191.21c2.426 2.226 4.796 4.506 7.167 6.79l2.137 1.945c24.493 22.954 37.42 58.476 43.176 90.68l.446 2.483c3.296 20.203 3.541 40.504 3.517 60.919-.002 3.972.007 7.944.014 11.917q.018 11.619.012 23.238a19707 19707 0 0 0 .01 27.097q.014 25.623.003 51.245c-.006 15.624.006 31.248.025 46.873q.03 24.114.024 48.228c-.002 9.013 0 18.026.014 27.04q.019 11.487.002 22.975-.011 5.857.005 11.716.015 5.363-.007 10.724c-.004 1.905.007 3.81.019 5.716-.067 10.453-.067 10.453-3.397 15.204-5.236 4.725-8.612 5.155-15.485 5.177l-2.662.02c-2.914.02-5.829.031-8.744.041l-3.014.013q-7.897.03-15.796.044c-5.438.011-10.877.046-16.315.085-4.181.026-8.363.035-12.544.038q-3.008.008-6.014.035c-2.808.025-5.615.024-8.423.017l-2.504.039c-5.31-.048-8.264-1.03-12.499-4.509-3.39-3.545-4.743-6.552-5.922-11.285l-.484-1.925c-2.543-10.347-4.66-20.8-6.844-31.228l-1.39-6.587q-1.687-7.987-3.36-15.975h-3l-1.469 3.043c-6.306 12.926-13.14 24.968-22.531 35.957l-2.012 2.453c-20.77 24.417-51.676 37.23-82.988 40.547-5.4.285-10.781.341-16.187.312l-2.188-.005c-11.433-.049-22.467-.68-33.625-3.307l-2.231-.504c-21.82-5.055-40.738-15.014-57.769-29.496l-2.297-1.89c-28.17-23.897-42.538-62.178-45.52-98.154-3.058-49.369 8.998-94.252 41.874-131.67 5.474-6.088 11.445-11.31 17.943-16.286l2.832-2.238c44.088-34.173 101.595-45.022 156.23-44.95h2.145c16.095.02 32.024.766 47.793 4.188-.953-42.993-.953-42.993-19-81l-2.25-3.188c-12.18-12.457-29.347-16.794-46.25-17.187-20.241.49-38.104 6.95-52.336 21.734-8.297 10.125-13.287 22.666-17.226 35.016-1.89 5.766-4.003 9.831-8.5 14-9.686 4.579-22.599.474-32.731-1.332l-5.276-.92a3598 3598 0 0 1-11.001-1.94c-4.682-.832-9.366-1.648-14.05-2.46q-5.438-.946-10.875-1.908-2.59-.456-5.18-.905c-2.417-.42-4.832-.851-7.248-1.284l-2.127-.364c-7.451-1.36-13.95-3.2-18.95-9.262-5.879-17.636 5.35-39.562 13-55 5.59-10.476 12.08-20.138 20-29l2.547-2.945C1250.15 197.96 1262.365 188.46 1276 180l1.853-1.164c68.975-42.778 188.583-43.482 250.98 12.374M1391 417l-2 .52c-22.88 6.051-44.214 19.054-56.512 39.804L1331 460l-1.395 2.457c-11.207 20.958-13.407 48.813-6.605 71.543 5.503 16.45 14.706 28.738 30 37 15.32 6.655 34.112 7.734 50 2.254 9.49-3.967 16.71-8.99 24-16.254l1.863-1.793C1445.782 537.588 1451.9 510.42 1455 487l.35-2.55c2.884-22.281 1.835-45.038 1.65-67.45-10.375-3.242-20.638-3.241-31.437-3.25l-2.312-.002c-11.037.015-21.536.355-32.251 3.252M340.833 191.21c2.426 2.226 4.796 4.506 7.167 6.79l2.137 1.945c24.493 22.954 37.42 58.476 43.176 90.68l.446 2.483c3.296 20.203 3.541 40.504 3.517 60.919-.002 3.972.007 7.944.014 11.917q.018 11.619.012 23.238a19707 19707 0 0 0 .01 27.097q.014 25.623.003 51.245c-.006 15.624.006 31.248.025 46.873q.03 24.114.024 48.228-.005 13.52.014 27.04.019 11.487.002 22.975c-.006 3.905-.007 7.81.005 11.716q.015 5.363-.007 10.724c-.004 1.905.007 3.81.019 5.716-.067 10.453-.067 10.453-3.397 15.204-5.236 4.725-8.612 5.155-15.485 5.177l-2.662.02c-2.914.02-5.829.031-8.744.041l-3.014.013q-7.897.03-15.796.044c-5.438.011-10.877.046-16.315.085-4.181.026-8.363.035-12.544.038q-3.008.008-6.014.035c-2.808.025-5.615.024-8.423.017l-2.504.039c-5.31-.048-8.264-1.03-12.499-4.509-3.39-3.545-4.743-6.552-5.922-11.285l-.484-1.925c-2.543-10.347-4.66-20.8-6.844-31.228l-1.39-6.587Q273.672 597.988 272 590h-3l-1.469 3.043C261.225 605.969 254.391 618.011 245 629l-2.012 2.453C222.218 655.87 191.312 668.683 160 672c-5.4.285-10.781.341-16.187.312l-2.188-.005c-11.433-.049-22.467-.68-33.625-3.307l-2.231-.504C83.949 663.441 65.03 653.482 48 639l-2.297-1.89c-28.17-23.897-42.538-62.178-45.52-98.154-3.058-49.369 8.998-94.252 41.874-131.67C47.53 401.197 53.502 395.975 60 391l2.832-2.238c44.088-34.173 101.595-45.022 156.23-44.95h2.145c16.095.02 32.024.766 47.793 4.188-.953-42.993-.953-42.993-19-81l-2.25-3.188c-12.18-12.457-29.347-16.794-46.25-17.187-20.241.49-38.104 6.95-52.336 21.734-8.297 10.125-13.287 22.666-17.226 35.016-1.89 5.766-4.003 9.831-8.5 14-9.686 4.579-22.599.474-32.731-1.332l-5.276-.92a3598 3598 0 0 1-11.001-1.94c-4.682-.832-9.366-1.648-14.05-2.46q-5.438-.946-10.875-1.908-2.59-.456-5.18-.905c-2.417-.42-4.832-.851-7.248-1.284l-2.127-.364C27.5 304.902 21 303.062 16 297c-5.879-17.636 5.35-39.562 13-55 5.59-10.476 12.08-20.138 20-29l2.547-2.945C62.15 197.96 74.365 188.46 88 180l1.853-1.164c68.975-42.778 188.583-43.482 250.98 12.374M203 417l-2 .52c-22.88 6.051-44.214 19.054-56.512 39.804L143 460l-1.395 2.457C130.398 483.415 128.198 511.27 135 534c5.503 16.45 14.706 28.738 30 37 15.32 6.655 34.112 7.734 50 2.254 9.49-3.967 16.71-8.99 24-16.254l1.863-1.793C257.782 537.588 263.9 510.42 267 487l.35-2.55c2.884-22.281 1.835-45.038 1.65-67.45-10.375-3.242-20.638-3.241-31.437-3.25l-2.312-.002c-11.037.015-21.536.355-32.251 3.252m2645-253 3.012 1.465c16.529 8.512 31.761 22.064 42.863 36.973l1.56 2.093c5.209 7.14 9.525 14.621 13.565 22.469l1.03 1.953c21.202 40.56 24.111 86.75 24.145 131.587q.007 5.793.022 11.587c.02 9.29.03 18.579.039 27.869l.011 10.511a66846 66846 0 0 1 .05 60.537c.008 15.212.033 30.425.066 45.637q.049 23.468.054 46.934c.002 8.773.01 17.547.036 26.321q.034 11.192.02 22.384c-.004 3.805-.002 7.61.017 11.414.021 4.126.01 8.251-.002 12.377l.033 3.634c-.053 6.893-.795 11.401-4.521 17.255-5.028 4.783-9.93 4.572-16.5 4.518l-3.166.02c-3.445.018-6.889.007-10.334-.007l-7.195.012a3079 3079 0 0 1-15.07-.022c-6.437-.022-12.872-.01-19.309.015-4.951.014-9.903.01-14.855 0q-3.56-.005-7.119.01c-3.318.01-6.634-.006-9.952-.028l-2.966.024c-5.663-.07-9.159-.59-13.534-4.542-4.928-5.547-4.563-10.786-4.506-17.976l-.018-3.685c-.013-3.369-.008-6.737.005-10.105.009-3.636-.005-7.273-.017-10.909q-.023-9.454-.011-18.907c.01-9.134-.003-18.267-.022-27.401q-.047-22.273-.05-44.545v-2.692l-.001-2.696q-.004-18.865-.022-37.731l-.002-2.676q-.022-22.165-.061-44.33-.024-13.646-.02-27.293.003-9.376-.012-18.752-.01-5.392-.001-10.786c.056-31.95-.058-66.75-23.262-91.516-14.478-13.347-31.393-16.665-50.406-16.309-17.273.706-32.749 7.604-44.594 20.309-17.676 21.153-23.164 50.384-23.138 77.197l-.009 3.646q-.009 4.977-.01 9.955c-.001 3.587-.01 7.173-.016 10.76q-.018 9.314-.026 18.627c-.01 9.816-.031 19.63-.053 29.446l-.023 10.084-.005 2.545a91105 91105 0 0 0-.063 31.288q-.038 21.225-.061 42.45-.028 21.807-.085 43.614-.037 13.443-.04 26.887a5847 5847 0 0 1-.036 18.416 1980 1980 0 0 0-.013 10.623c.006 3.84-.011 7.68-.03 11.52l.017 3.385c-.065 7.547-.817 12.576-5.909 18.432-3.305 2.81-5.696 3.25-9.89 3.265l-2.718.018-2.975.003-3.14.015q-5.15.021-10.3.027l-7.149.017q-7.497.015-14.995.02c-6.408.006-12.816.03-19.225.058-4.922.019-9.844.024-14.767.026q-3.544.004-7.088.024c-3.304.017-6.607.015-9.91.008l-2.964.028c-4.948-.03-8.39-.12-12.379-3.384-5.874-6.141-6.151-10.764-6.131-18.964l-.007-2.425q-.006-4.04-.002-8.077l-.01-5.837q-.011-8.033-.01-16.064-.005-8.658-.016-17.316-.02-18.935-.024-37.871-.005-11.82-.012-23.639a161322 161322 0 0 1-.028-82.405v-2.13q-.007-34.206-.043-68.411-.038-36.165-.04-72.328.001-19.714-.025-39.428-.023-16.783-.012-33.567c.004-5.71.003-11.42-.011-17.13a3296 3296 0 0 1 0-15.68q.004-2.837-.01-5.675c-.01-2.57-.003-5.14.01-7.711-.009-.735-.016-1.47-.024-2.227.063-6.212 1.234-11.954 5.77-16.49 5.367-3.322 9.837-3.92 16.084-3.9l2.544-.015c2.769-.014 5.537-.013 8.306-.01l5.787-.014q6.06-.01 12.122-.002c5.173.006 10.345-.01 15.518-.034 3.983-.015 7.966-.016 11.95-.013q2.86 0 5.72-.015c2.67-.013 5.337-.006 8.006.006l2.376-.023c5.568.053 9.515 1.304 14.007 4.786 4.857 5.311 5.878 10.983 7.142 17.922l1.473 7.453.766 4.002c.871 4.52 1.81 9.024 2.758 13.529l.978 4.67.484 2.308q1.151 5.488 2.284 10.979l.773 3.729C2659 233 2659 233 2659 236h4l.513-1.68a89.3 89.3 0 0 1 6.55-15.507l1.188-2.216c16.074-29.304 42.19-51.834 74.436-61.41 33.67-9.538 70.922-6.658 102.313 8.813m-545-8 2.144.51c31.012 7.627 58.096 24.652 81.856 45.49l2.79 2.414A131 131 0 0 1 2404 219l2.488 2.828c50.991 58.233 68.413 138.171 63.762 213.797-3.57 51.81-18.847 103.773-49.25 146.375l-2.207 3.102c-12.486 17.052-26.909 33.106-43.793 45.898l-1.56 1.185c-35.195 26.528-76.048 40.341-120.128 40.128l-2.379-.006c-12.517-.049-24.657-.687-36.933-3.307l-2.493-.52c-34.162-7.332-65.766-23.637-91.355-47.48-1.98-1.84-4.016-3.577-6.09-5.312-49.212-43.074-72.782-114.948-77.237-178.176A538 538 0 0 1 2036 420l-.129-3.95c-1.136-74.938 21.992-150.627 74.399-205.51 50.177-51.556 123.003-71.338 192.73-54.54m-97 117-2.066 2.043c-27.922 29.124-32.954 77.306-34.497 115.582l-.13 2.887c-.596 14.363-.418 28.7.38 43.05l.126 2.248c2.347 40.354 9.688 85.486 39.812 115.003 14.564 12.434 32.221 16.397 50.952 15.394 18.428-1.575 33.009-11.463 44.857-24.984 26.64-33.658 31.585-80.758 32.566-122.223l.066-2.405c1.146-46.904-1.69-107.201-35.066-143.595l-2.23-2.543c-12.107-13.055-27.86-19.59-45.598-20.498-19.054-.425-35.954 6.202-49.172 20.041m2235.367-74.895c21.973 20.806 42.342 55.7 44.836 86.395.114 6.057-.57 9.283-4.46 14.036-7.178 6.032-23.359 6.042-32.653 7.6l-5.105.862q-5.315.894-10.632 1.783c-4.512.753-9.022 1.52-13.531 2.29q-5.258.892-10.52 1.767-2.493.418-4.985.846c-23.654 4.051-23.654 4.051-30.88.628-4.733-4.49-6.013-9.123-7.25-15.375-3.371-15.333-10.947-26.992-23.695-36.343-17.02-10.884-37.008-12.905-56.555-9.344-12.094 2.77-24.246 8.648-31.937 18.75-6.11 11.144-7.85 22.736-5.352 35.246 4.432 13.351 14.488 21.502 26.602 27.817a100.3 100.3 0 0 0 17.445 6.601l2.66.749c9.08 2.509 18.226 4.759 27.372 7.013l2.418.596a7244 7244 0 0 0 22.501 5.511C4386.81 365.056 4425.52 375.16 4456 403l2.418 2.168c21.466 20.25 32.171 48.2 36.582 76.832l.313 2.005c2.546 19.129 2.347 41.257-2.313 59.995l-.602 2.423c-5.877 22.772-15.916 43.753-31.398 61.577l-2.145 2.477A381 381 0 0 1 4452 618l-2.23 2.43c-31.084 32.593-80.404 51.348-124.895 52.775-5.646.123-11.29.129-16.937.107l-3.017-.005c-14.482-.045-28.689-.371-42.921-3.307l-2.663-.536c-6.173-1.278-12.262-2.782-18.337-4.464l-2.257-.62c-21.163-5.982-41.094-16.354-58.743-29.38l-2.95-2.156c-14.679-11.41-27.188-25.121-37.05-40.844l-1.248-1.979c-12.674-20.439-19.871-43.68-24.19-67.208l-.534-2.824c-1.086-6.397-2.066-13.786.865-19.831 4.6-6.274 12.935-7.538 20.153-8.876l2.304-.444c2.49-.478 4.982-.946 7.474-1.412l5.253-.996q5.494-1.04 10.992-2.065c4.665-.871 9.325-1.76 13.986-2.653q5.421-1.034 10.849-2.046 2.576-.485 5.15-.98c23.98-4.603 23.98-4.603 32.508-1.311 5.911 6.365 7.235 15.532 8.813 23.813 3.854 18.769 10.91 35.05 24.625 48.812l1.86 1.93c13.959 13.422 34.414 17.4 53.14 17.07 17.848-.725 35.64-6.276 48.148-19.582 9.15-11.949 11.706-24.917 10.387-39.738-1.936-13.316-8.2-24.105-18.535-32.68-17.467-12.577-39.746-16.345-60.296-21.107-47.331-10.988-94.647-22.568-131.704-55.893l-2.012-1.793c-23.07-21.78-34.854-55.077-36.112-86.283-.944-39.238 6.501-76.393 33.624-106.236l2.344-2.426c2.213-2.255 2.213-2.255 4.222-4.856 2.921-3.634 6.346-6.446 9.934-9.406l2.742-2.285c67.56-54.237 186.907-56.112 266.625 9.39M1679.05 160.612l3.998-.016c3.652-.014 7.303-.01 10.955-.003 3.942.005 7.884-.008 11.826-.018a7969 7969 0 0 1 23.156-.013q9.411.006 18.822-.002l2.707-.003 5.444-.004c17.013-.014 34.026-.009 51.04.003 15.562.01 31.125-.003 46.687-.027q23.974-.037 47.95-.027c8.971.003 17.943 0 26.915-.017q11.455-.022 22.911.002c3.896.009 7.792.011 11.687-.004q5.353-.02 10.705.01a530 530 0 0 0 5.693-.023c6.957.06 11.557.744 17.454 4.53 4.26 4.684 4.58 8.558 4.518 14.585l.02 2.55c.018 2.772.007 5.542-.007 8.314l.012 5.814q.008 6.091-.022 12.183c-.022 5.18-.01 10.36.015 15.54.014 4.004.01 8.008 0 12.012q-.005 2.862.01 5.725c.054 14.435-1.402 25.04-10.421 36.777l-1.715 2.303a900 900 0 0 1-3.593 4.787c-2.974 3.944-5.891 7.93-8.817 11.91l-3.527 4.777c-5.55 7.532-11.008 15.13-16.473 22.723a2972 2972 0 0 1-21.767 29.892c-6.142 8.323-12.19 16.712-18.233 25.108a2936 2936 0 0 1-21.77 29.894A1661 1661 0 0 0 1883.5 426c-4.46 6.197-8.963 12.36-13.5 18.5-6.736 9.117-13.379 18.3-20 27.5-6.639 9.224-13.302 18.427-20.063 27.562-6.45 8.718-12.724 17.55-18.937 26.438l2.346-.21c10.68-.867 21.319-1.033 32.029-1.04l2.85-.002c49.624.056 97.713 9.808 143.525 29.002l2.58 1.068c6.779 2.936 12.317 6.3 15.67 13.182 1.292 3.825 1.155 7.712 1.161 11.703l.015 2.337q.021 3.82.027 7.64l.017 5.32q.015 5.576.02 11.152c.006 4.757.03 9.513.058 14.27.019 3.664.024 7.327.026 10.99q.004 2.63.024 5.26c.017 2.456.015 4.91.008 7.367l.028 2.182c-.038 4.66-.964 7.807-3.384 11.779-2.872 2.817-5.032 3.488-9.02 3.598-8.47-.225-16.105-3.312-23.979-6.182-4.56-1.66-9.145-3.253-13.728-4.854l-2.72-.954c-39.403-13.772-80.709-19.83-122.366-19.858l-2.764-.002c-53.995.063-107.072 10.982-157.923 28.877-7.415 2.577-13.382 3.723-20.938 1.25-3.229-2.363-4.078-4.159-5.562-7.875-.415-2.867-.42-5.691-.404-8.585l-.02-2.55a963 963 0 0 1-.01-8.314l-.015-5.814q-.014-6.091.003-12.183c.011-5.18-.009-10.36-.038-15.54a2004 2004 0 0 1-.012-12.012q0-2.863-.019-5.725c-.081-14.547 1.41-25.093 10.515-36.902l3.5-4.695 1.777-2.365c2.646-3.555 5.184-7.183 7.723-10.815 4.66-6.63 9.39-13.207 14.145-19.77a1557 1557 0 0 0 12.34-17.342c3.589-5.097 7.23-10.155 10.89-15.2A1262 1262 0 0 0 1723 455a1388 1388 0 0 1 15.246-21.422A1276 1276 0 0 0 1749 418.5c4.661-6.63 9.39-13.207 14.145-19.77 3.655-5.05 7.269-10.13 10.855-15.23 4.661-6.63 9.39-13.207 14.145-19.77 3.655-5.05 7.269-10.13 10.855-15.23 4.661-6.63 9.39-13.207 14.145-19.77 3.655-5.05 7.269-10.13 10.855-15.23a1515 1515 0 0 1 12.5-17.5 1883 1883 0 0 0 14.543-20.344l1.398-1.984 1.21-1.716c1.815-2.63 3.578-5.295 5.349-7.956l-3.01-.004q-36.255-.055-72.51-.18c-11.69-.04-23.378-.072-35.066-.087q-15.281-.019-30.563-.084c-5.394-.022-10.788-.038-16.183-.037q-7.617 0-15.234-.05-2.795-.012-5.589-.004c-2.546.007-5.092-.011-7.638-.035l-2.226.023c-5.502-.09-8.544-1.517-12.981-4.542-3.935-4.491-4.585-8.308-4.533-14.097-.01-.79-.018-1.58-.027-2.393a638 638 0 0 1-.006-7.787q-.008-2.72-.02-5.44-.014-5.692.01-11.385c.017-4.854-.007-9.706-.042-14.56-.022-3.743-.02-7.485-.012-11.229q0-2.682-.02-5.366a469 469 0 0 1 .019-7.516l-.036-2.219c.087-4.748 1.275-7.693 3.912-11.473 6.381-5.58 13.78-4.962 21.805-4.923"/><path fill="#fff" d="m1897 701 3.287.602c27.462 5.1 62.525 11.66 79.713 36.273 18.428 33.91 5.9 85.24-4 119.783-9.335 31.182-23.264 61.362-43 87.342l-2.492 3.355c-4.755 6.351-9.804 12.345-15.207 18.16a217 217 0 0 0-5.801 6.548c-5.991 6.879-12.523 13.248-19.457 19.171-2.29 1.979-4.505 4.029-6.73 6.078-10.008 8.984-20.375 16.504-32.313 22.688l-2.238 1.16c-5.642 2.511-11.697 2.594-17.762 1.84-3.375-1.562-3.375-1.562-6-4l-1.617-1.473c-4.498-4.551-6.227-9.146-6.383-15.527 1.644-16.071 11.891-30.664 20.172-44.043 8.401-13.599 15.717-27.65 22.828-41.957l1.456-2.893c7.191-14.32 13.076-29.051 18.544-44.107l1.036-2.846c6-16.68 11.325-33.672 11.526-51.529l.045-2.574c-.12-7.238-2.222-12.552-7.232-17.801-23.675-17.35-65.614-13.162-93.312-11.5l-2.196.131c-25.081 1.535-49.661 5.004-74.33 9.745l-2.355.452q-2.163.417-4.324.844c-12.511 2.431-30.082 5.509-41.94-.473-5.194-3.924-8.007-8.999-9.043-15.386-.243-6.847 1.83-12.125 6.023-17.493 33.142-35.404 89.889-52.548 136.102-60.57l2.772-.505c29.962-5.263 64.353-5.288 94.228.505"/></svg>
