<svg xmlns="http://www.w3.org/2000/svg" viewBox="0 0 161 20"><g clip-path="url(#a)"><path fill="#fff" fill-rule="evenodd" d="M12.432 10.252 16.448.525h4.484l-4.015 9.727zM9.035 5.283l-2.477 6.299-2.457-6.299H0l4.57 10.819L2.926 20h4.016l6.086-14.717zm4.57 5.912a2.54 2.54 0 0 0-2.543 2.55c0 1.372 1.048 2.465 2.457 2.465a2.55 2.55 0 0 0 2.543-2.55c0-1.394-1.046-2.465-2.457-2.465" clip-rule="evenodd"/><path fill="#fff" opacity="0.7" d="M98.328 2.168c0-1.159-.962-2.168-2.205-2.168a2.16 2.16 0 0 0-2.183 2.168c0 1.18.984 2.167 2.183 2.167 1.2 0 2.205-1.009 2.205-2.167M38.693 16.054h3.914V9.249c0-2.618-1.433-4.228-3.724-4.228-1.262 0-2.29.537-2.91 1.546V5.323h-3.915v10.73h3.914v-5.709c0-1.095.535-1.76 1.392-1.76s1.326.6 1.326 1.63v5.837zM73.635 2.038v3.285h-1.433v3.155h1.433v3.82c0 2.555 1.497 4.035 3.959 4.035 1.113 0 1.99-.216 2.44-.387v-3.304a4 4 0 0 1-1.134.193c-.899 0-1.37-.407-1.37-1.46V8.478h2.503V5.323H77.53V2.038zM88.72 5.323v1.136c-.664-.923-1.819-1.438-3.103-1.438-2.911 0-5.028 2.511-5.028 5.666s2.097 5.666 5.028 5.666c1.284 0 2.417-.515 3.103-1.438v1.136h3.851V5.323zm.108 5.366c0 1.203-.962 2.168-2.205 2.168s-2.205-.965-2.205-2.168c0-1.202.962-2.168 2.205-2.168s2.205.966 2.205 2.168M44.705 2.038v3.285H43.27v3.155h1.434v3.82c0 2.555 1.497 4.035 3.958 4.035 1.114 0 1.99-.216 2.44-.387v-3.304a4 4 0 0 1-1.133.193c-.899 0-1.37-.407-1.37-1.46V8.478h2.503V5.323H48.6V2.038zm109.897 0v3.285h-1.434v3.155h1.434v3.82c0 2.555 1.497 4.035 3.958 4.035 1.114 0 1.991-.216 2.44-.387v-3.304c-.342.107-.75.193-1.133.193-.899 0-1.37-.407-1.37-1.46V8.478H161V5.323h-2.503V2.038zm-48.251 14.016h3.914V9.249c0-2.618-1.433-4.228-3.724-4.228-1.262 0-2.29.537-2.911 1.546V5.323h-3.914v10.73h3.914v-5.709c0-1.095.535-1.76 1.392-1.76s1.326.6 1.326 1.63v5.837zm42.217 0h3.917V9.249c0-2.618-1.434-4.228-3.724-4.228-1.263 0-2.291.537-2.911 1.546V5.323h-3.917v10.73h3.917v-5.709c0-1.095.535-1.76 1.392-1.76s1.326.6 1.326 1.63v5.84m-50.476 0V5.323h-3.915v10.73zM71.259 5.15a1.8 1.8 0 0 0-.579-.086c-1.37 0-2.354.686-2.93 1.91V5.324h-3.851v10.73h3.873v-3.906c0-1.996.92-3.113 2.547-3.113.32 0 .664.044.942.15V5.15zm44.486 5.107c0-1.05.513-1.653 1.304-1.653s1.263.58 1.263 1.61v5.836h3.894v-5.795c0-1.05.513-1.653 1.305-1.653s1.262.58 1.262 1.61v5.836h3.895V9.245c0-2.575-1.304-4.228-3.766-4.228-1.262 0-2.588.495-3.338 1.717-.578-1.05-1.648-1.717-2.974-1.717s-2.291.644-2.845 1.568V5.318h-3.895V16.05h3.895v-5.795zM27.33 12.426c-.471.622-1.006.88-1.775.88-1.028 0-1.861-.667-1.927-1.632h7.382c.022-.193.044-.473.044-.816 0-3.52-2.268-5.837-5.563-5.837s-5.67 2.425-5.67 5.688 2.224 5.644 5.714 5.644c2.354 0 4.107-.902 5.135-2.64l-3.338-1.29zm-3.68-2.983c.085-.88.835-1.46 1.82-1.46.983 0 1.711.58 1.797 1.46zm35.519 2.983c-.471.622-1.006.88-1.775.88-1.029 0-1.861-.667-1.927-1.632h7.382c.022-.193.044-.473.044-.816 0-3.52-2.269-5.837-5.563-5.837s-5.67 2.425-5.67 5.688 2.224 5.644 5.714 5.644c2.354 0 4.107-.902 5.135-2.64l-3.338-1.29zm-3.68-2.983c.085-.88.835-1.46 1.819-1.46s1.712.58 1.797 1.46zm81.716 2.983c-.471.622-1.006.88-1.775.88-1.028 0-1.861-.667-1.927-1.632h7.382c.022-.193.044-.473.044-.816 0-3.52-2.268-5.837-5.563-5.837s-5.67 2.425-5.67 5.688 2.225 5.644 5.714 5.644c2.354 0 4.108-.902 5.136-2.64l-3.339-1.29zm-3.68-2.983c.086-.88.835-1.46 1.819-1.46s1.712.58 1.798 1.46z"/></g><defs><clipPath id="a"><path fill="#fff" d="M0 0h161v20H0z"/></clipPath></defs></svg>
