<svg xmlns="http://www.w3.org/2000/svg" fill="none" viewBox="0 0 829 185"><g fill="#fff" clip-path="url(#a)"><path d="M105.846 132.263V53.344l68.167 39.364zM257.924 29.535C254.851 18.206 246.21 9.373 234.69 6.301 214.335.733 131.961.733 131.961.733S49.778.733 29.425 6.3C18.095 9.373 9.262 18.206 5.998 29.535.622 49.89.622 92.708.622 92.708s0 42.819 5.376 63.366c3.264 11.136 12.098 20.161 23.427 23.233 20.353 5.568 102.536 5.568 102.536 5.568s82.374 0 102.729-5.568c11.52-3.072 20.161-12.097 23.234-23.233 5.567-20.547 5.567-63.366 5.567-63.366s0-42.82-5.567-63.173m61.515 144.012v-50.404l-30.435-110.89h26.403l10.945 49.156c2.496 11.33 5.088 27.554 6.24 33.412h.192c1.152-5.665 3.648-21.89 6.24-33.22l11.331-49.348h26.401l-30.818 110.89v50.404zm94.851-72.774c0-22.659-2.112-29.187-9.6-29.187-7.681 0-9.985 6.528-9.985 29.187v27.075c0 23.425 2.304 29.377 9.601 29.377 7.872 0 9.984-5.952 9.984-29.377zm26.883 9.025v9.408c0 41.86-9.218 56.068-36.676 56.068-28.227 0-36.675-14.592-36.675-56.068v-9.408c0-42.82 10.944-56.453 37.252-56.453 26.305 0 36.099 14.208 36.099 56.453m11.129 34.37v-88.52h26.499v85.736c0 10.369 2.304 14.977 7.776 14.977 4.129 0 8.16-1.824 11.04-9.504V55.648h26.498v117.707H501.65l-1.536-15.842h-.096c-3.264 11.234-9.696 18.146-23.041 18.146-17.667 0-24.675-11.328-24.675-31.491"/><path d="M542.734 173.355V34.911h-26.209V12.253h78.918V34.91h-26.21v138.444z"/><path d="M588.143 144.168v-88.52h26.499v85.736c0 10.369 2.304 14.977 7.776 14.977 4.129 0 8.16-1.824 11.04-9.504V55.648h26.498v117.707h-22.465l-1.536-15.842h-.096c-3.264 11.234-9.696 18.146-23.041 18.146-17.667 0-24.675-11.328-24.675-31.491m132.962-38.787c0-27.267-2.304-33.219-9.696-33.219-4.993 0-9.795 4.416-11.713 12.866v64.997c2.302 4.512 6.336 6.432 10.56 6.432 7.969 0 10.849-8.448 10.849-33.987zm27.076 0v15.745c0 38.02-8.065 53.956-25.924 53.956-10.848 0-19.009-4.8-23.233-12.864h-.096l-1.728 11.136h-23.043V6.3h25.539v33.796c0 8.833.19 17.665-.578 28.226h.288c4.418-8.833 12.003-14.977 23.907-14.977 17.091 0 24.868 11.136 24.868 52.036m36.569-6.144v8.929h17.472v-8.929c0-21.697-.863-27.843-8.832-27.843s-8.64 6.338-8.64 27.843m43.875 23.715H784.75v6.432c0 20.738.479 27.842 9.025 27.842 8.447 0 10.368-6.529 10.559-19.969l23.332 1.056c1.727 25.633-11.521 36.963-33.988 36.963-27.267 0-35.331-17.858-35.331-50.308v-20.547c0-34.179 9.026-50.884 36.099-50.884 27.267 0 34.179 14.21 34.179 49.732z"/></g><defs><clipPath id="a"><path fill="#fff" d="M0 0h829v185H0z"/></clipPath></defs></svg>
