<svg xmlns="http://www.w3.org/2000/svg" width="1365.333" height="1365.333" version="1.0" viewBox="0 0 1024 1024"><path d="M243.8 2.7c-2.8 3.4-7.7 13.1-9.3 18.7-1.8 6-1.5 12.9 1 22.1 3.8 14.4 4.5 19.9 3.7 30l-.8 10-3-6c-1.7-3.3-3.9-8.3-4.8-11.2-1.7-5.1-1.7-5.2.8-11 2.2-5.4 2.3-6 1-9.3-2.3-5.6-8.3-14-9.9-14-.8 0-1.5.1-1.5.2 0 .2.7 2.5 1.5 5.2 1 3.4 1.5 9 1.4 18-.1 9.7-.3 12.1-1 9.1-.4-2.2-.8-8.4-.8-13.8-.1-11.6-1.6-16.1-5.7-17.1-2.2-.6-3.3-.2-5.3 1.9-2.4 2.3-2.6 3.2-2.6 10.8.1 8.1.2 8.4 7.9 25.2C224.2 88.2 227 93.1 227 90c0-.8-.6-5.2-1.4-9.6-1.4-8-1.2-12.4.5-12.4.5 0 .9 1 .9 2.2 0 2.8 4.2 20.4 6.5 27.3.9 2.7 3.3 8.6 5.2 13 8.4 19.1 13.9 39.1 18.8 69 1.3 7.9 2.3.9 3-22.5.8-28.6.2-32.7-6.6-47.1l-5.1-10.6 1.9-3.7 1.9-3.8 6.2 12.4c4.5 8.9 6.8 14.8 8.1 21.3 2.2 10.2 4.2 31.9 3.6 38.2-.3 3.1 0 4.3 1.2 4.7.9.4 1.7.5 1.9.3.2-.1.8-6.5 1.4-14.1.6-7.6 1.6-15 2.1-16.5 2.1-5.3 25.4-38 26.4-36.9.2.2.5 4.6.9 9.8.3 5.2.5 9.6.6 9.7 0 .2.4.3 1 .3.5 0 1.4-1.9 2.1-4.3.6-2.3 1.6-5.3 2.1-6.7l1-2.5.9 2.3c1.1 2.9 2.4 2.2 5-3.1 2.4-4.7 6.8-9.6 8.6-9.7.6 0-1.3 5.6-4.3 12.7-6 13.9-9 23.7-9.8 32.5-1.7 17.4-1.6 16.9-3.7 16.3-1.1-.4-2.5-.2-3.2.3-.7.5-3.7 1.7-6.7 2.5-3 .9-6.4 2.3-7.5 3.2-1.8 1.5-1.9 1.6-.1 1.1 8.2-2.7 10.9-2.9 12.2-1.2 1.2 1.6 1.3 1.6 1.7-.1.3-1 .4-.6.4.9-.1 2.6-.2 2.6-2 1-1.5-1.3-1.8-1.3-1.5-.2.2.8 1 2.1 1.8 2.8 1.3 1.1 1.3 1.2-.4 1-2.4-.4-3.4 2.9-4.2 14.2l-.5 8.5 3.3-5.2c1.8-2.9 3.7-5.3 4.2-5.3.4 0 .6 1.9.2 4.2-.3 2.4-.8 6.8-1.2 9.8l-.6 5.5 3-4.5c1.7-2.5 6.4-8.8 10.4-14.1 4-5.3 7.8-10.5 8.4-11.5 1.1-1.9 1.2-1.9 3.2 0 4.1 3.6 2.1 6.8-13.3 22.1-15.3 15.1-23.8 25.3-34.5 41.1l-6.8 10.2-.7-7.7c-.4-4.2-1.3-10.7-2.1-14.4-.8-3.8-1.4-10.9-1.4-15.8 0-14-3.4-10.4-6.6 7.1-1.9 10.4-1.8 29.1.2 39.1 1.6 8 1.6 8.1-.6 12.9l-2.3 4.8-5.3-4.4c-6-4.8-8.4-6.2-12.5-7.4-3.4-1-3.7 0-.8 2.6 3.5 3.1 6 7.2 9.5 15.2l3.3 7.5-3.3 9.1C241 322.8 236 355.6 236 396.7v15.1l19.8.4c18.8.3 20 .4 24.6 2.8 12.5 6.5 15.6 23.1 6.3 33.6-5.6 6.5-7 6.8-29.7 7.4l-20.5.5v50l20.5.5c16.6.4 21.1.8 23.5 2.2 17.7 9.8 14.2 36.2-5.5 40.7-2.5.6-12.3 1.1-21.7 1.1H236v50h18.8c10.3 0 20.3.5 22.3 1 5.2 1.4 11.5 7.3 13.4 12.5 4 10.3.1 21.7-9.2 27.2-4.8 2.8-4.9 2.8-25 3.1l-20.3.3v55.2c0 61.2.8 79.6 4.5 101.3 1.4 8.1 2.4 14.8 2.2 14.9-.1.1-4.5 3.5-9.7 7.6-60.2 47.5-112.6 86.8-157 117.9-23 16.1-25.1 17.7-16.5 13 42.9-23.7 95.5-57.9 165.8-107.8 12-8.5 21.9-15.3 22.1-15.1.1.2 1.9 5.3 4 11.4 5.3 15.4 18.9 42.8 28.4 57 10.9 16.3 19.5 26.9 33.2 40.6 39.7 39.9 88.7 64.7 146.3 74.1 18.1 3 57.2 3.2 75.2.4C634.6 1000.2 714.8 933.2 746 839c9.2-27.6 12.7-49.1 13.7-83.2l.6-21.8 19.6 10.1c30.8 15.8 40.8 19.4 58 20.5 12.6.9 33.1-2.8 33.1-5.8 0-3.3-9.6-13-15-15.2-.8-.3-.2-.4 1.3-.1 5.9 1.2 13.4 4.7 19.2 9 3.3 2.5 6.5 4.5 7.2 4.5 3.6 0-.7-10-7.3-17-2.6-2.7-4.4-5-4-5 .3 0 4.8 2.4 9.8 5.2 8.1 4.6 10 5.3 15.8 5.6 5.2.3 7 0 8.3-1.3 4-4 .5-9.9-8-13.6-2.4-1-4.3-2-4.3-2.2 0-.1 3.7.1 8.2.5 12.5 1.2 18.7 3.3 33.2 11.1 7.1 3.9 12.9 3.7 16.8-.5 2.6-2.8 2.9-3.7 2.3-7.3-.8-5.4-2.7-8.1-8.3-11.6-2.5-1.6-4.4-2.9-4.1-2.9.2 0 2.9.7 5.9 1.5 10 2.7 16.4 1.3 18.8-4 3-6.6.3-11.8-8.1-15.5-4.4-1.9-19.9-5-25.4-5-1.7 0-3.5-.5-3.9-1.2-.5-.8 2.3-1 11.2-.5 18.5 1 27.4-2.4 27.4-10.6 0-7.4-7.1-12.7-17.3-12.7-3.2 0-9-1.3-15-3.4l-9.8-3.3 9.8-.5c15.7-.9 21.3-4.5 21.3-13.8 0-5.8-3-9.5-8.5-10.6-6.7-1.2-24.5.2-31 2.5-3.2 1.2-6.3 2-6.9 1.8-.5-.2 1.8-1.3 5.2-2.5 7.6-2.8 17.4-9.3 20.4-13.5 1.3-1.8 3.5-4.3 5-5.5 3.5-3 3.6-6.5.3-9.7-4.6-4.7-15.7-2.9-31.7 5.1-4.9 2.4-8.8 4.2-8.8 3.8 0-.3 1.3-1.6 2.9-3 3.1-2.6 5.4-7.4 6.6-13.9l.7-4-2.5 2.7c-3.5 3.8-10 6.8-16 7.4l-5.2.6 3-1.9c1.7-1.1 4.5-3.7 6.4-5.8 3.6-4.1 7.7-12.2 6.7-13.3-.3-.3-2.7-.1-5.3.5-5.1 1.2-9.9 1-18-.8l-5.2-1.2 4.7-2.2c2.6-1.2 5.3-2.9 6.1-3.8 1.1-1.5 1-1.8-1.5-2.7-8-3-11.1-4-13.4-4.2-2.4-.3-2.4-.4.9-2.2 2.5-1.3 4.7-1.7 7.9-1.3l4.5.5-2.9-1.9c-1.7-1-5.4-2.5-8.4-3.2l-5.5-1.4 4.5-2.3c6.3-3.2 8-4.9 8-8.2v-3l-5.2.7-5.2.7 3-2.7 2.9-2.6-2.7.5c-1.4.3-3.4.8-4.5 1.2-1 .3-.2-.4 1.7-1.5l3.5-2-4.3-.1c-2.3 0-7.5.9-11.4 2-7.3 2-15.7 2.5-19.3 1.1-1.6-.7-1.5-.9 1.2-1.4 3.4-.7 10.3-6.1 10.3-8.2 0-1.4-4.3-2.5-10.4-2.5-4.1-.1-4.1-.1-1.6-1.5 1.4-.8 4.3-1.5 6.5-1.5l4-.1-4.9-2.6-5-2.5 3.1-1.3c4.1-1.7 4.8-3.2 2.1-4.1-1.3-.4-3.5-1.6-5-2.7l-2.7-2-4.6 2.8c-2.6 1.5-4.8 2.5-5 2.3-.9-.9 5.1-7.1 8.8-9 3.7-2 3.9-2.3 1.9-2.6-1.3-.2-5.3.6-9 1.7s-8.7 2.3-11.2 2.7l-4.5.7 3.3-3.7c1.7-2 3.2-4.6 3.2-5.6 0-1.8-.5-2-5.4-1.4-3 .4-8 .3-11.3-.1l-5.8-.8 7-2.1c3.9-1.2 7.9-2.7 9-3.3 1.9-1.1 1.9-1.2-.8-2.2-1.6-.6-3.6-1.1-4.5-1.1-1.2 0-.8-.8 1.5-3.3 6.3-6.6 6.3-10.2.1-7.2-1.9.9-2.6 1-1.7.3 2.2-1.8 4.1-5.6 3.1-6.2-.5-.3-3.3.1-6.3.9s-7.6 1.4-10.4 1.4c-4.8-.1-4.9-.1-2-1.1 3.5-1.2 5.9-3.2 8.7-7l1.9-2.8-7.3.2c-12.2.3-20.8-1.8-14.8-3.7 2.9-.9 8-5.4 8-7.1 0-1-1.3-1.4-4.4-1.4-2.4 0-9.8-1.1-16.6-2.5-6.8-1.4-15.2-2.5-18.8-2.5h-6.5l2.1-2.3c2.9-3 5.2-8.9 5.2-13.1 0-3-.4-3.5-2.9-4.1-4.4-.9-9.9.3-17.4 4.1-3.8 1.9-7.1 3.4-7.5 3.4-.3 0 .6-1.2 1.9-2.8 4-4.3 9.5-11.7 8.2-10.9-2.8 1.8-.9-.9 6.4-8.9l7.6-8.4H760v-8.3l.1-8.2 17.7-20.6c46.3-53.7 81-99.7 100.6-133.2 9.6-16.3 22.3-43.4 27.1-57.8 6.8-20.5 8.8-30.9 8.8-46.9 0-12-.3-14.4-2.7-21.7-2.9-8.8-8.9-18-14.7-22.4-25.6-19.5-77-16.4-133.2 8-31.7 13.8-31.6 13.7-40.1 28.6-2.5 4.4-4.6 7.8-4.6 7.5 0-.9 4-11.2 5.5-14 .8-1.5 3-4.9 5-7.5 4.1-5.4 4.1-8.1-.2-7-9.4 2.3-23.4 18.8-33.9 40-6.9 14.1-12.3 23.8-12.4 22.4-.1-3.3 15.5-38.9 19.9-45.4 3.8-5.5 2.3-6.9-4-3.8-5.7 2.8-9.6 6.2-12.9 11.4-1.8 2.7-3.4 4.9-3.6 4.9-.2 0 .5-2.3 1.7-5.1 1.1-2.9 1.8-5.4 1.5-5.6-1-1-9.7 11.5-12.2 17.4-4.1 9.6-4 6.8.1-3.8 4.1-10.7 8.7-20 12.2-24.6 2.7-3.6 2.8-7.6.1-8.1-2.9-.5-7.5 3.5-12.8 11.1-2.8 3.8-5 6.7-5 6.3 0-.4 2.5-5.5 5.5-11.3 5.4-10.4 5.9-12.3 2.8-12.3-2.2 0-16.4 14-24.9 24.7-8.7 10.8-11 12.7-6.1 5 4.9-7.6 7.9-13.6 7.5-14.9-1.1-3.3-18.1 18.4-26.7 34.3-2.3 4.1-4.1 7.1-4.1 6.7 0-1.6 4.4-10.7 9.4-19.1 6.8-11.4 9.2-19.2 7.6-24.2-1.4-4.4-3-4.5-3.1-.3-.2 2.8-.2 2.9-.6.8-1.5-8.2-7.1-6.3-10.3 3.5l-1.3 4-1.4-4.8c-1.5-5.1-2.7-6.1-9.1-7.1-3.7-.5-4.6-.3-6.7 1.8-2.1 2.1-2.5 3.5-2.5 8 0 8-2.7 26.2-5.6 37.4l-2.4 9.7 2.2 1.9c1.8 1.5 1.9 1.8.5 1.3-1.5-.6-1.7-.3-1.2 1.3.6 1.8.5 1.8-2.4.4-5.7-2.8-8 .4-9.6 13.6-.9 8.3-5.3 28.7-7.5 35.5-2.4 7.4-6.3 25.5-5.7 26.2.9.8 3.5-3.9 10.2-18.2 3.5-7.5 6.7-14 7.1-14.4.3-.3.3 1.6-.1 4.4l-.7 5 4.2-8c6.1-11.7 10.7-22.5 15.7-36 2.4-6.6 4.1-10.2 3.7-8.1-.3 2.2-1.1 8.3-1.8 13.5-1.1 8.4-1.9 10.9-6.9 20.6-3.1 6-7.2 13.4-9.2 16.3-1.9 3-3.5 5.7-3.5 6.1 0 .3 1.3 1.1 2.8 1.7 1.6.6 3.9 2.8 5.1 5 1.9 3.2 2 3.6.5 2.3-2.5-2.1-8.3-4.9-10.3-4.9-3.3 0-6.4 3.5-10.1 11.4-3.7 8-7.1 12.1-16.1 18.9-5.4 4.1-5.7 3.3-.6-2.1 2.4-2.7 5.2-6.3 6.2-8.1 3.5-6.9 1.1-23.1-3.6-24.6-2.3-.8-6.9 1.9-6.9 3.9 0 2.5-7.8 17-11.4 21.2-1.9 2.2-9.9 8.5-17.7 13.8-13.6 9.3-14.3 9.7-17.1 8.5-1.8-.7-5.1-.9-8.8-.6-3.3.4-6 .5-6 .3s.7-2.1 1.6-4.2c1.3-3.2 1.5-6.1 1-16.9-.4-8.1-.3-14.3.3-16.5 1.6-5.2-.2-5.6-4.3-.9-4.1 4.9-7.6 11.5-7.6 14.7 0 1.1-.5 2.4-1.1 2.8-.9.5-1-.7-.5-4.7.6-5.1 6.2-17.6 10.7-24.1 3-4.1 2.4-5.3-1.6-2.9-3.7 2.2-4.1 2.1-2.5-1 1.4-2.6.6-2.4-4.3 1-5.2 3.5-10.7 6.4-10.7 5.5 0-.4.8-2.1 1.9-3.8 2.2-3.7 4.5-10.5 3.8-11.2-.3-.3-3.3.6-6.6 1.9l-6.1 2.5 3.3-4c7.5-9.1 9.7-12.6 10.7-17.1 1.7-8 1.5-8.7-2.2-7.7-1.8.4-4.6 1.1-6.3 1.5l-3 .7 2.1-2.4c3-3.4 7.1-10 7.9-12.6.6-2.1.5-2.2-3.7-1.6-2.4.3-6.9 1.8-10.1 3.4-3.1 1.6-5.4 2.3-5 1.7.4-.7 1.5-2.3 2.4-3.7 1-1.4 2-3.5 2.4-4.8.6-2.1.4-2.2-4.8-2.2-5.9 0-10 2.2-11.2 6.1-.4 1.1-.9 1.9-1.1 1.6-.5-.5 2.9-10.4 5-14.5 1.6-3.2 1.6-3.2-.8-3.2-2.9 0-9.2 5.1-10.1 8.1-.4 1.1-.9 1.8-1.2 1.6-.9-.9 3.8-15.8 7.3-23 1.9-3.9 3.4-7.7 3.4-8.4 0-.7-2.1 1-4.6 3.7-2.6 2.7-5 4.7-5.5 4.4-1.6-.9-1-4 1.2-6 1.2-1 2.7-3.1 3.5-4.5 1.2-2.4 2.3-2.8 12.6-4.5 17.3-2.9 54.7-2.7 71.8.4 17.8 3.2 34.3 7.6 48.3 12.8 6.7 2.5 13 4.7 13.9 5.1 1.3.4 1.8-.3 2.3-3.1.4-2 .5-4.2.2-4.9-.6-1.6-21.1-8.9-35.7-12.7-26.6-6.8-54.4-9.6-81.3-7.9-13.2.7-35.4 3.7-40.9 5.5-1.4.4-1.8 0-1.8-2 0-2.2-.5-2.6-2.7-2.6-3.1 0-10.7 3.2-11.7 4.9-1.7 2.7-2.5.8-1.1-2.5.8-2 1.5-5 1.5-6.6 0-2.5-.3-2.9-1.7-2.3-1 .4-4.3 1.7-7.3 2.8-3 1.1-6.9 3.1-8.7 4.3l-3.1 2.4.5-5.8c.6-6.3-1.9-17.2-3.9-17.2-.6 0-3.3 2.2-5.9 4.8-2.7 2.7-5.1 4.7-5.4 4.4-1-1-.5-16.2.7-18.7.6-1.4 2.6-3.5 4.5-4.6 3.2-2 4.6-5.9 2.1-5.9-.7 0-3.7 1.1-6.5 2.5-2.9 1.3-5.3 2.2-5.3 2 0-.2 1.4-2.6 3-5.2 4.7-7.3 3.8-9.5-2.5-6.3-4.7 2.4-5.9 1.7-2.3-1.3 1.5-1.2 3-3.6 3.4-5.2l.7-3-2.2 2.7c-1.1 1.4-5 4.5-8.6 6.7-3.5 2.2-9.9 6.9-14.2 10.4l-7.8 6.4V78.3c0-6.8-.2-12.3-.5-12.3-1.8 0-12 9.8-14.2 13.7-3.4 5.9-3.5 5-.2-7.8 2.8-11.1 2.7-13.1-.8-23.9-1.9-5.6-2.3-6.1-2.8-4-.4 1.4-1.3 2.4-2.1 2.3-.9-.2-2.2 2.2-3.8 7.5-2.4 7.5-4.1 11-4.1 8.3 0-.7-.4-.9-1-.6-.5.3-1-.1-1-.9 0-.9-.3-1.6-.6-1.6-.4 0-3.7 2.7-7.5 6.1l-6.9 6.1v-9.7l-7.3 13.2c-3.9 7.2-7.6 12.9-8.1 12.6-.4-.3-.5-2.3-.2-4.3 1.3-8.3 1.8-47.9.6-51.5-.6-1.9-1.5-3.5-1.9-3.5-.4 0-2.4 6-4.4 13.2-2.7 9.7-3.5 11.9-3.2 8 .3-2.9 1.7-9.6 3-14.9 1.4-5.4 2.5-10.8 2.5-12 0-3.4-3.4-6.3-7.4-6.3-4.6 0-8.3 3.2-10 8.8-.8 2.6-2.1 6.3-2.9 8.3-.9 1.9-2.1 6.7-2.8 10.5l-1.3 6.9-.8-6.8c-.8-6.4-1.8-9.4-5.4-16-2.5-4.5-7.6-3.5-11.8 2.3l-1.8 2.5.6-3.5c.4-1.9 2.4-7 4.6-11.4 4.5-8.8 4.9-11.7 2-14.6-2.5-2.5-8.1-2.7-10.2-.3zm-.8 37.5c0 2.1-.4 3.8-.9 3.8-1.2 0-2.3-6.3-1.5-8.4 1-2.6 2.4.1 2.4 4.6zm23.6 34.5c.7 1 1.4 3.1 1.4 4.8v2.9l-2.4-3.4c-3-4.5-2.1-8.4 1-4.3zm18.2 6.8c-.6 1.4-1.5 2.5-2 2.5s-.1-1.1.8-2.5 1.8-2.5 2-2.5c.2 0-.2 1.1-.8 2.5zm590 4.4c21.1 6.1 31.9 17.5 35.7 37.7 1.8 9 1.9 15.6.4 26.1-4.4 31.6-22 71.8-49.7 113.8-11.3 17-37.2 51.3-55.8 74-16.2 19.8-43 51.1-44.5 52-.5.4-.9-2.1-.9-5.7 0-9.7-1.9-32.2-3.5-42.6l-1.5-9.4 13.7-18.1c35.6-47.3 53.4-80.8 53.6-101.2.1-9.4-1-12.2-7.6-18.2-5.2-4.8-9.6-6.3-18.5-6.3-4.4 0-6.2-.4-6.1-1.3.9-7.1-1.6-7.3-9-.9-6.3 5.4-20 15.9-24.6 18.7l-3 1.9 2-2.4c1.1-1.4 7-7.8 13.2-14.2 11.7-12.2 22-25.2 24.2-30.7 1.5-3.4.9-5-1.1-3.3-1 .8-1.3.3-1.3-2.1 0-4.9-2.7-4.6-6.7.7-1.8 2.5-5.1 6.9-7.2 9.8-3.6 4.9-15.3 15.8-17.8 16.7-2.6.9 8.4-15.5 17.4-25.8 2.1-2.4 3.8-5 3.8-5.7 0-2.7-4.9-1.3-10.1 2.8l-5.3 4.1 3.3-4.6c1.8-2.5 4.6-5.8 6.2-7.3 5.8-5.5 2.3-9-5.5-5.5-10.8 4.7-23.5 16.4-31.8 29-2.6 4-4.8 7.1-4.8 6.9 0-1.4 12.4-27.9 14.9-32 1.6-2.5 3.2-6 3.6-7.7.6-2.9.5-3.1-2.1-3.1-3.8 0-14.5 11.3-20.9 22.1-8.2 14-19.1 30.3-22.1 32.9-2.9 2.7-2.6 1.8 1.8-4.7 3.7-5.4 9.8-18 13.2-26.8 3.1-8.3 13.1-26.7 18.1-33.2 1.9-2.5 3.5-5.4 3.5-6.3 0-1.2 3.3-3.2 10.8-6.8C780.8 96 807.9 87.4 832 84c11.2-1.5 34.4-.5 42.8 1.9zm-558.5 4.8c-3.4 7.6-4.6 8.9-3.8 3.8.6-3.1 4.7-9.5 6.1-9.5.2 0-.9 2.6-2.3 5.7zm-31-2.7c-.3 1.2-.8 1.9-1.1 1.6-.5-.6.5-3.6 1.2-3.6.2 0 .2.9-.1 2zm-6.8 14.7c-.8 3.3-1.6 2.3-3.1-3.5-.9-3.4-.9-5.1-.1-6 1.4-1.8 4.1 6.1 3.2 9.5zM632 126.6c-4.3 8.7-4.8 7.6-.7-1.4 1.7-3.9 3.4-6.7 3.6-6.1.2.6-1.1 4-2.9 7.5zm-279.3-1c-.3.3-1.2.4-1.9.1-.8-.3-.5-.6.6-.6 1.1-.1 1.7.2 1.3.5zm-1.2 1.6c.4-.4.1.3-.6 1.5-.8 1.3-1.7 2.3-2.2 2.3-.4 0-.6.4-.3.8.2.4-.7.8-2.2.9-2.4.2-2.4.1-.7-.7 1.9-.8 1.9-.9-.3-.9-2.3-.1-2.3-.1.5-2.5 1.8-1.6 3.2-2.1 3.9-1.5.6.5 1.4.5 1.9.1zm-7.1 6.8c1.5 0 1.4 6.9-.2 7.9-1.7 1-7 .5-8.7-.9-1.1-.9-1.2-.7-.8.9.5 2.1 1.3 2.5 4.5 2.2.9-.1 1.9.2 2.2.8.4.5-.4.7-1.6.4-1.5-.3-1.9-.2-1.1.4.8.6.9 1.4.3 2.3-.8 1.3-1 1.2-1-.3 0-1-1-2.1-2.2-2.6-2.8-1-3.8-.4-1.8 1 1.2.8.9 1-1.2.6-2.5-.4-2.7-.2-2.4 3.2.3 4.3-1.4 6-6.2 6.1h-3.3l6.2-8.1c3.5-4.5 7.1-8.4 8.1-8.8.9-.3 1.7-1 1.7-1.4 0-.4.7-1.4 1.4-2.2 1.1-1.1 1.7-1.1 2.6-.2.7.7 1.2.7 1.1.2-.4-2 .1-4.1.7-2.8.2.7 1 1.3 1.7 1.3zm294.1 16.7c-1.2 3.8-3 8.5-3.9 10.5-.9 2-1.3 4.3-1 5.1.3.9-.5 1.8-2.3 2.6-3.5 1.4-7.1 7.2-11.3 18.1-5.4 13.9-9.4 22.9-15.4 34-6.7 12.6-7.2 12.2-1.2-.9 15.4-33.3 21.3-46.7 24.2-54.9 2.2-6.1 4.9-11.3 7.9-15.2 2.6-3.3 4.8-6 5-6 .2 0-.7 3-2 6.7zM333 152c0 .5-.2 1-.4 1-.3 0-.8-.5-1.1-1-.3-.6-.1-1 .4-1 .6 0 1.1.4 1.1 1zm.3 3.7c-.7.2-2.1.2-3 0-1-.3-.4-.5 1.2-.5 1.7 0 2.4.2 1.8.5zm-10 2c-.7.2-1.9.2-2.5 0-.7-.3-.2-.5 1.2-.5s1.9.2 1.3.5zm-1.9 2.5c-.3.4-.9.8-1.5.8-.5 0-.9-.4-.9-.8 0-.5.7-.9 1.5-.9s1.2.4.9.9zm11 3.7c-.5 3.3-.9 3.9-2 3-1.8-1.5-1.8-2.9.2-5.7 2.1-3.1 2.6-2.3 1.8 2.7zm-24 0c.3.5-.1 1.4-.8 2-1.2 1-1.4.9-1.1-.6.2-1 .4-1.9.4-2.1.2-.5 1-.2 1.5.7zm355.1 10.2c-1.8 3.3-1.4 5.9.8 5.9 2.9 0 4 2.6 2.6 6.5-1.5 3.9-2.9 4.6-2.9 1.3 0-2.9-2.8-5.8-5.7-5.8-2.3 0-2.2-.2 1.9-5.5 2.3-3 4.4-5.5 4.6-5.5.1 0-.5 1.4-1.3 3.1zm-46.4 6.8c-1.7 3.4-3.3 6.1-3.6 6.1-.5 0 2.9-8 4.6-10.8 2.6-4.2 2-1.3-1 4.7zm29.2 2c-2.7 6.5-8 20.6-8.6 23.3-.4 1.4-1 3.4-1.3 4.5-.3 1 1.4-1.8 3.8-6.2 4.9-9.1 7.9-13.7 8.4-13.2.2.2-2.2 7.1-5.5 15.3-10.3 26-12.4 31.8-12.3 34.8.2 5.7 1.6 4.9 8.2-5 2.8-4.1 5.3-7.4 5.6-7.4.8 0-2.3 5.3-8 13.5-3.1 4.4-5.6 8.7-5.6 9.7 0 2.8-4.2.3-6-3.5-1.2-2.7-2.1-3.3-5.3-3.5-2.1-.2-4.5.2-5.4.9-.8.7-3.5 5.5-6 10.6-2.5 5-6 10.9-7.9 13l-3.4 3.8 2.5-4.5c1.3-2.5 3-7 3.7-10 1-4.5 2.5-7 7.9-13.3 12-14.2 31.8-52.5 32.7-63.4.4-4.7.6-5.1 2.2-4 1.7 1 1.8 1.4.3 4.6zm161.2 10c7.7 3.6 12.5 10.9 12.5 19.1 0 17.8-21.3 57.3-54.4 100.8-10.5 13.8-12.5 15.5-12.6 10.2 0-2.2-5.9-23.3-7-25-.7-1.2-1.5-.9-4.4 1.9-3 3-3.3 3.7-2.5 6 2.1 5.4 7 25.9 9 37.5 1.6 9 2.2 18.3 2.6 36.3l.5 24.3h-14.4c-16.3 0-22 1.2-28.7 6-2.3 1.7-5.4 4.9-6.9 7.2-2.7 4.2-10 11.8-11.2 11.8-.4 0 .3-2.1 1.6-4.8 1.2-2.6 2.5-6.2 2.8-8l.6-3.2-3.8 1.5c-2 .9-4.7 2.5-5.9 3.6l-2.1 2.1.7-3.4c.4-1.8 1.1-4.4 1.5-5.6.7-2.2.6-2.3-1.4-1.2-2 1.1-2.1 1-1-.9.8-1.6.8-2.1-.2-2.1-.6 0 .1-1.3 1.6-2.9 2.5-2.6 6.4-4.7 12.1-6.6l2-.6-2-1.2c-3.3-2-19.1-1.2-25.5 1.2-3 1.2-5.6 1.7-5.8 1.2-.5-1.5-8.4 1.7-11.4 4.6l-2.8 2.7v-3c0-1.6.7-4 1.6-5.2.9-1.3 1.3-2.6 1-2.9-.3-.3.4-1.9 1.6-3.6l2.2-3-7.2.6c-3.9.4-8.2 1.1-9.6 1.7-1.4.5-2.6.8-2.6.7 0-.1 1.4-2.9 3-6.1 2.3-4.5 3-7.2 3-11.8 0-8.8 4.5-18.6 12.9-28.2 3.7-4.2 7.8-8.4 9.2-9.3 11.5-7.7 16.9-13.6 16.9-18.4 0-3.6-2.7-6.9-5.6-6.9-3.3 0-3-1.2.9-3.4 1.7-1.1 6.4-4.5 10.2-7.6 3.9-3.1 10.2-7.9 14-10.6 6.4-4.4 6.8-4.6 5.1-1.9-1.9 2.9-1.8 2.9 3-.8 10.9-8.3 29.2-20.1 37.8-24.3l9.1-4.5-14 13.8c-7.7 7.6-16.9 16.4-20.5 19.6-5.2 4.6-5.9 5.5-3.5 4.6 3.6-1.2 3-.6-5.5 5.3-3.6 2.5-9.5 7-13.1 9.9-3.6 3-12.3 10-19.3 15.7-11.6 9.5-20.6 18.8-20.6 21.4 0 1.2 1.1.3 9.9-7.5 2.9-2.6 7.2-6 9.5-7.6 8-5.5 31.3-18.5 45.3-25.3 13.9-6.7 18.3-10.1 18.3-13.8 0-2.4-1.9-3.8-5.8-4.2l-3.3-.3 3.6-1.9c3.5-1.9 3.6-1.9 6.4.1l2.8 2.1 7.4-6c4.1-3.3 11.7-9.2 16.9-13.1 5.2-3.9 11.6-8.8 14.1-11 2.5-2.1 7.2-5.3 10.4-7.1 6.5-3.5 8.2-6.2 5.8-9.6-1.4-2-2.2-2.2-7.2-1.7l-5.7.5 8.6-8.7c8.5-8.6 11.8-13.7 10.6-16.6-.8-2.3-4.1-1.8-7.5 1-2.6 2.2-3.3 2.4-5 1.3-1.8-1.1-3.1-.7-10.1 3-4.5 2.3-8.5 4.2-8.8 4.2-1.7 0 10.2-7.6 18.3-11.6 9.9-5 11.5-6.1 11.5-7.8 0-2.1-7.8-4.9-11.7-4.3-5.8 1-15.4 6.1-22.7 12.1-7.1 5.9-13.7 10-8.1 5.1 8.1-7.1 21-20.4 23.1-23.8 2.4-3.7 2.5-3.7 9.2-3.7 4.4 0 8.1.7 10.7 1.9zm-477.8 1.3c-.2.7-.8 2.4-1.2 3.8l-.8 2.5 2.3-2.5c1.7-1.9 2-2.1 1.6-.6-2.5 7.6-5.2 37.2-3.8 42l.8 2.9 4.1-6.4c2.2-3.5 5.7-9.4 7.7-13.1 4.1-7.6 6.3-9.8 5.2-5.2-1.8 7.1-4.4 20.4-5 25.4l-.6 5.5 4.3-8.1c4.3-7.8 13.9-22.8 16-24.9 1.1-1.1 1.1-1.3-2.9 9.2-1.3 3.5-2.2 6.3-2 6.3.2 0 1.6-2.1 3.1-4.7 5.3-9 24.5-27.1 24.5-23.1 0 3.8-2.7 9.1-10.4 20.6-5.8 8.7-9.2 15.1-10.9 20.2-2.6 7.6-4.9 20.3-3.7 19.5.4-.3 2.4-2.9 4.5-6 2.1-3 4.1-5.1 4.5-4.5.9 1.4 4.2-2.4 14-16 4.6-6.3 8.5-11.7 8.7-11.9 1.8-2.4.4 6.8-3.3 21.4-.6 2.4.6 1.4 6.1-5.3 3.7-4.5 7-8.1 7.2-7.8.3.3-.9 4.7-2.6 9.8-1.7 5.1-3 10.2-2.9 11.3.1 1.1-1.5 7.2-3.4 13.5-2 6.3-3.8 12.6-4.1 14l-.6 2.5 1.7-2.5c2.4-3.5 25.2-33.3 26.4-34.5.6-.6-.4 1.7-2 5-3.1 6-6.6 17.4-5.7 18.4.3.2 2.4-1.3 4.6-3.5l4.1-3.9-4.6 7.2c-2.5 3.9-4.6 7.6-4.6 8.2 0 .6 3-2 6.7-5.9 3.7-3.9 10.3-9.8 14.7-13 4.5-3.2 9.9-7.7 12.1-9.9 3.5-3.7 8.5-5.6 8.5-3.3 0 1.6-14.2 22.5-19.3 28.6-2.9 3.4-6.2 7.5-7.4 9.1l-2.3 3 .6-3.1c.3-1.8.1-3.4-.4-3.8-.6-.4-3.9 1.9-7.4 5-3.5 3.1-8.1 6.8-10.2 8.2-2.2 1.3-7.9 6.3-12.6 11.1-9.4 9.3-17.1 21.4-20.8 32.6-5.4 16.3-5.9 55.4-.6 57.2.5.2 1.6-2.5 2.3-5.9 2.1-10.4 9.9-32.8 13.9-40 3.1-5.7 19.7-30.4 22.3-33.2.5-.5.4.8-.2 2.8-.6 2.1-.9 4-.6 4.2.2.2 1.7-1.5 3.4-3.9 4.2-5.7 20.9-23.3 21.6-22.7.3.3-1.4 3.6-3.9 7.4-2.4 3.8-4.4 7.3-4.4 7.9 0 .5-3.6 4.8-8.1 9.5-15 16-24.9 33.4-31.9 56.1-1.7 5.5-4.2 12.2-5.6 15-2.5 5.3-3 8.1-1.5 8.1s-.6 6-2.9 8.5c-1.1 1.2-2 3-2 4.1 0 1-.9 6.1-2.1 11.2-3.1 13.2-1.2 13.6 5.1 1.1 3.8-7.6 7.8-13.7 20.5-31.4 5.9-8.3 13.1-19.3 16-24.5 5.3-9.6 20-33.7 21.7-35.5.6-.6-2.2 5.5-6.2 13.5s-6.5 13.8-5.8 13c.8-.8 4.8-5.5 8.8-10.3 4-4.8 7.5-8.6 7.7-8.3.2.2-.7 2.6-2 5.3-2.8 5.6-9.1 24.2-8.4 24.9.2.3 3-2.4 6.2-5.8 5.7-6.1 5.9-5.3.5 2.7-4.2 6.3-4.5 6.9-2.9 6 .8-.5 2.8-1.7 4.4-2.8 1.7-1.1 0 .8-3.7 4.2-7.3 6.7-20.8 26-20.8 29.7 0 1.2.3 3 .7 4 .5 1.3 1.1.8 2.7-2.4 1.2-2.2 5.3-7.6 9.2-11.9 3.9-4.3 8.8-10.5 11-13.8 2.1-3.3 5.1-7.5 6.7-9.4 2-2.4 2.5-3.6 1.7-4.1-.7-.4-.8-1-.4-1.2.5-.3 3-1.7 5.6-3.2l4.8-2.8-4.6 8.7c-2.6 4.7-4.3 8.9-4 9.3.4.3 4.3-3 8.7-7.4 4.5-4.3 7.6-6.9 7-5.7-.6 1.2-2.5 3.1-4.2 4.3-1.6 1.2-2.8 2.5-2.5 2.8.3.2 1.2-.1 2.1-.8.8-.7 1.5-1 1.5-.7 0 .3-4.2 6.8-9.2 14.4-5.8 8.6-12.2 16.7-17.1 21.6-4.3 4.3-7.7 8-7.5 8.2 1.3 1.3 8.9-2.5 19.1-9.5 12-8.1 13.2-7.9 5.2 1-7 7.7-15.5 20.1-15.5 22.4 0 1.2 25.8-18.1 31.8-23.7 1.7-1.7 3.2-2.8 3.2-2.3 0 2-18 29.2-24.6 37.1-4.2 4.9-8.9 10.7-10.6 12.8l-3 3.8 5.3-2.2c3-1.1 10.6-3.9 16.9-6.1 15-5.3 27.4-10.7 35.2-15.4 15.6-9.3 15.6-9.1-.3 3.2-15.1 11.7-23.7 17.3-38.8 24.9-8 4.1-12.8 7-12.1 7.5.8.5-.2 1.5-2.7 3.1-10.3 6.3-29.1 23-33.8 30.2-2.8 4.3-.6 5.5 3.6 2 7.6-6.4 22.6-14.4 36.5-19.4 9-3.3 22.3-11.2 30.7-18.2 4.4-3.7 11.2-7.3 17.7-9.4.8-.2-5.5 6.4-14 14.7l-15.5 15.2 7.8-4.1 7.9-4.1-3.7 4.2c-4.8 5.7-14.1 13.7-19.9 17.1-2.6 1.5-4.6 3.3-4.3 4 .7 2.2 4.7 1.9 13.3-1.2 4.7-1.7 9.4-3.1 10.5-3.1 2 0 6.1 3.5 5.2 4.4-1.2 1.1-2.4.6-1.7-.7.4-.6-.2-.4-1.3.5-1.1 1-2.7 1.8-3.6 1.8-.9 0-3.1 1.4-4.9 3-6.8 6.2-10.4 8.1-19.9 10-15.7 3.2-22.4 7.2-36.4 21.5-14.8 15.1-18.7 17.3-39.2 21.1-10.2 1.9-12.6 1.5-12.1-1.8.2-1.9 1.5-2.6 6.3-4 3.3-.9 9.3-1.7 13.3-1.7 4.4-.1 8.5-.7 10.2-1.6 3.1-1.6 6-6.1 6-9.3 0-2.7 4.7-6.6 12-9.9 6.4-2.9 9.9-5.7 8.7-7-1.2-1.1-27.9 6.8-36.6 10.8-9.1 4.2-11 4.7-9.1 2.4 2.6-3.2-.4-3.7-6.1-1-3 1.3-6.9 2.5-8.6 2.5-4.1 0-4.8-2.4-3.9-11.6.8-7.8 3.3-14.9 8.1-22.8 4-6.7 4.3-7.6 1.5-5.1-3.7 3.3-8.3 11.6-12.2 21.8-4.1 10.9-4.9 12.2-7.1 11.4-5.8-2.2 0-26.1 10.8-44.2 3.6-6 7-12.8 7.6-15 1.7-6.1.8-17.9-1.5-20.4-4.2-4.6-7.8-1.1-5.6 5.4 1.4 4.2.6 10.8-2.2 19.2-1.9 5.6-2.3 6-4 5-1.6-1-2.2-.9-3.4.7-.8 1.1-1.4 3.4-1.4 5.2 0 1.7-1.1 7.6-2.5 13-4.6 17.7-6.5 28.5-6.5 36.4 0 4.2-.7 9.9-1.5 12.6-2.2 7.1-3 20.9-1.6 27.4 1.2 5.6 5.5 13 7.5 13 .6 0 1.9-2.3 2.9-5 2.4-6.7 9.5-13.5 16.2-15.6 2.8-.8 11.3-2.4 19-3.5 18.7-2.8 27.1-6 41.5-15.8 6.3-4.3 14.8-9.6 18.9-11.7 7.9-4.1 8.2-4.2 28.6-3.3 2.2.1 9.2-.2 15.7-.6 14.4-1 40 1.7 45.1 4.8 2.6 1.6 2.8 2 1.5 2.8-3.9 2.2-16.2 2.2-26.7 0-10-2-23.2-2.8-26.5-1.5-3.1 1.2-1.5 2.1 4.4 2.8 8.1.9 15.5 3.6 26.3 9.6 8.7 4.8 24.2 16.3 24.2 17.9 0 .9-22.9 22.1-60.5 56-44.6 40.3-60.2 53.7-63.1 54.4-1.4.4-5.9 3.6-9.8 7.1-4.8 4.3-8.9 7-12.2 8.1-3.9 1.3-5.3 2.4-6.8 5.3-2.4 4.7-4.2 6.3-11.1 9.7-7 3.5-21.8 13.5-25 17-1.3 1.4-5.8 4.4-10 6.6-4.2 2.2-11.2 6.7-15.5 10-4.4 3.2-10 6.6-12.5 7.5-2.5.9-9.7 4.1-16.1 7.1-6.4 2.9-13.4 5.6-15.5 6-2.1.3-5.6 1.9-7.7 3.5-2 1.6-5.2 3.5-7.1 4.3-3.2 1.4-3.4 1.3-4-.8-.3-1.2-.6-29.3-.6-62.3v-60.2l16.8-.4c15.8-.3 17-.5 21.8-3 11.2-5.8 17-16.4 16.2-29.2-.6-8.8-3-13.8-9.8-19.9-7.4-6.6-11.5-7.7-29.7-7.7H245v-33.8l16.3-.4c13.7-.3 16.9-.7 20.8-2.4 6.7-3.1 11.4-7.8 14.9-14.6 2.5-5.1 3-7.3 3-13.3 0-6-.5-8.2-3.1-13.3-3.5-7-7.1-10.5-14.9-14-4.9-2.3-7-2.6-21.2-3l-15.8-.5V464h16.3c14.9 0 16.6-.2 21.3-2.4 10.8-5 17.4-15.1 17.4-26.7 0-12.6-5.8-22.2-16.8-27.6-5.4-2.7-6.5-2.8-22.1-3.2l-16.4-.3.6-24.7c.6-24.5 1.8-35 6.1-53.6 2.3-9.7 7.8-27.5 8.5-27.5.3.1 2.6 3.3 5 7.2 4.1 6.6 22.3 26.8 24.1 26.8.5 0-.5-2.4-2-5.3-1.6-2.8-3.8-9-5-13.7-3-11.7-7.5-23-11.6-29.1-3.3-5-3.3-5.1-1.7-8.2 1.5-2.9 1.7-3 2.7-1.3 2.2 3.7 4.4 6.1 5.1 5.4.4-.3.1-4.1-.6-8.3-1.3-7.7-1.3-7.7 1.6-13.3 4.7-9 18.8-29.6 26.7-39.1 7.2-8.6 24.2-26.1 25.4-26.1.3 0 .4.6.1 1.2zm138.3.2c0 .2-.8 1-1.7 1.7-1.6 1.3-1.7 1.2-.4-.4 1.3-1.6 2.1-2.1 2.1-1.3zm216.7 2.3c-.3 1.6-2.4 7.1-4.7 12.3-2.3 5.2-5.8 14.2-7.7 20-3.8 11.3-4.5 12.5-14 24.3-3.5 4.3-6.3 7.9-6.3 8.2 0 .2 2.6.3 5.9.1 6.9-.3 9.1-1.7 20-12 7-6.7 7.3-6.9 4.4-2.6-1.7 2.5-6.7 8.4-11.2 13.2-4.4 4.9-8.1 8.9-8.1 9 0 .2.7 2.1 1.5 4.3.8 2.2 1.4 4.8 1.5 5.7 0 1.5-.3 1.4-2.4-.5-5.8-5.2-8.5-6.7-12.4-6.7-4.7 0-9.1 3.1-23.9 17-9.4 8.7-19.4 16.6-17.8 13.9.5-.8 3.5-4.7 6.7-8.7 3.2-4.1 6.6-8.8 7.4-10.5.9-1.8 6.9-8.6 13.4-15.2 6.4-6.6 13.5-14.5 15.7-17.5 6-8.2 27.2-45.9 28.4-50.5.6-2.2 1.3-4.6 1.5-5.3.7-2.5 2.6-1.2 2.1 1.5zm20 9.7c.9 2.1 1.3 4.1.8 5.3-.6 1.6-.9 1.4-2.1-1.4-.7-1.7-2.1-3.6-3-4.1-.9-.5-1.4-1.4-1-2.1 1.3-2.1 3.6-1.1 5.3 2.3zm30.8 5.1c-3.2 7.2-5.4 10.6-16.6 25.5-5.1 6.9-10.9 15-12.8 18.1-2 3.1-8.8 12.6-15.3 21.2-6.4 8.5-12.2 16.5-12.8 17.7-2.2 4.2.1 3.3 5.8-2.1 3.1-2.9 9.7-9.2 14.7-13.9 11.9-11.3 8-6.6-7 8.4-6.7 6.7-13.8 14.7-16 17.8-2.2 3.3-4.6 5.8-5.6 5.8-3 0-13 5.9-20.2 11.8-9.6 8-16.5 12.9-14.7 10.6.8-1 5.3-6.3 10-11.8 11.4-13.2 14.2-17 17.9-24.1 3.4-6.6 13.1-17 35.3-37.8 15.4-14.3 19.2-20 18.7-27.9-.2-3.2.1-4.2 1.1-4 1.8.4 7-4.8 13.6-13.6 3-3.9 5.7-7.2 5.9-7.2.2 0-.7 2.5-2 5.5zm2 33c-6.4 5.9-6.9 6.5-5.2 7.7 2.7 2 1.3 4.5-2.2 4-3.4-.5-9.6 2.5-15.4 7.5-2.3 2-.7.3 3.6-3.8 4.2-4.1 7.7-8.2 7.7-9.2s.8-2.1 1.7-2.4c.9-.4 4.9-3 8.7-5.9 3.9-2.9 7.3-5 7.6-4.7.3.3-2.6 3.4-6.5 6.8zm-286.6-3.1c-1.2 2.6-2 3.1-3.2 1.9-.4-.3.3-1.7 1.5-3 2.6-2.8 3.3-2.4 1.7 1.1zM740 412.7c0 .5-2.7 3.7-5.9 7.3-4.8 5.2-6.2 6.3-7.2 5.2-1.6-1.5-6.7-1.5-14.3-.1-3.2.6-6 .8-6.3.5-.9-.8 3-6.4 6.1-8.7 1.6-1.2 4.8-2.8 7-3.5 4.4-1.4 20.6-1.9 20.6-.7zm-221.8 53.6c-5.7 5.7-16.9 12-20.4 11.5-1.8-.3-.4-1.3 6-4.7 4.5-2.4 10.6-6.1 13.5-8.2 2.8-2.1 5.4-3.8 5.7-3.9.2 0-1.9 2.4-4.8 5.3zM477 502.4c0 .2-.7.7-1.6 1-.8.3-1.2.2-.9-.4.6-1 2.5-1.4 2.5-.6zm-2 28.7c-1.4.6-5.3 2.1-8.7 3.3-5.9 2.2-6.2 2.2-5.2.4.6-1.1.8-2.6.5-3.4-.4-1.1 1-1.4 7.7-1.3 6.6 0 7.7.2 5.7 1zm-90.2 12.7c.5 3.5-3.1 6.2-8.5 6.2-5.9 0-8.4-1.3-6.5-3.2 1.1-1.1 1.5-1 2.3.4 2.4 4.2 9.9.7 9.9-4.5 0-2.5 2.4-1.6 2.8 1.1zm181.2 5.5c0 .5-8.7 6.7-9.4 6.7-2.1 0 .1-2.3 4.2-4.4 5.1-2.7 5.2-2.8 5.2-2.3zm-41.2 6.2c4.1 1.4 8.6 2.5 10 2.5 1.5 0 3.8 1.2 5.4 2.7l2.9 2.8-3.3 1.1c-2.9 1-3.7.9-6.6-1.3-1.9-1.4-6.4-4.3-10-6.4-3.7-2.1-6.5-3.9-6.2-3.9.3 0 3.8 1.1 7.8 2.5zM579 566c-1.9 1.7-5.4 3.7-7.7 4.6-4.1 1.6-4.4 1.6-6.3-.1-1.1-1-2-2.1-2-2.6 0-.4 3.3-1.3 7.3-1.9 3.9-.7 8.1-1.6 9.2-2.1 3.2-1.3 3.2-1-.5 2.1zm-28.8 5.7 3.8 3.7-2.8 1.2-2.7 1.2 4.6 1.2c3.6.9 6.1 2.7 11.5 8.1 5.7 5.7 6.5 6.9 4.6 6.9-4.1 0-2.3 1.8 3.1 3 2.8.7 8 2.9 11.5 5l6.3 3.8-3.6.6c-4.5.9-8.9 2.5-8.3 3.1.6.6 20.8 4.5 23.4 4.5 1.1 0 4.2 1.6 6.8 3.6 4.3 3.4 4.5 3.8 2.8 5-1 .7-2.7 1.2-3.7 1-1-.1-3.1.3-4.6 1.1-2.6 1.3-3.1 1-12.8-6.3-11.3-8.4-15.1-9.5-9.8-2.8 1.7 2.3 5.2 6.9 7.6 10.3 10.6 14.7 28.7 28.8 45.6 35.6 3.9 1.5 9.2 3.9 11.9 5.2 5.3 2.7 21.6 13 21.6 13.7 0 .2-2 .1-4.4-.1-3.9-.5-9.5 1.1-8.3 2.3.3.3 3.3 1.2 6.6 2 7.3 1.6 11.9 3.9 22.1 10.7 8.6 5.6 6.4 5.4-6-.8-4.7-2.3-10.2-4.8-12.3-5.4-6.9-2.3-6.2-.4 1.3 3.4 4.1 2.1 12.4 6.9 18.4 10.8 17.3 11.1 24.6 13.7 47.1 17.2 5.5.9 10.8 1.8 11.8 2.1 3.7 1.1 1.4 1.9-5 1.7-7.6-.3-7.3 0 4.2 3.7l8 2.6.3 19.9c.3 21.5-1.1 37.6-4.9 55.3l-2.1 10-2.7-1.4c-1.4-.8-3.9-1.4-5.5-1.4s-4.4-1.2-6.5-2.9c-2-1.5-5.2-3.3-7.2-4-1.9-.6-5.1-2.8-7-4.7-1.9-2-5.4-4.6-7.9-5.7-2.5-1.1-5.8-3.5-7.4-5.4-1.6-1.9-5.3-4.8-8.3-6.5-4.1-2.3-5.8-4-7-7-2.3-5.9-7.8-7.8-10.6-3.8-1.4 2-1.6 1.8-5.7-3.4-2.3-3.1-5-5.8-6-6.1-1-.3-2.1-1.6-2.4-2.8-.7-2.7-7.9-10.4-10.6-11.2-1.1-.4-3.2-3.3-5-7.1-2.3-4.7-4.5-7.5-8.3-10.5-2.9-2.3-5.9-5.1-6.7-6.4-4.5-6.6-7.2-8.7-13.5-10.6-3.5-1.1-6.7-2.4-7-2.9-.4-.6-1.7-1-3.1-1-1.3 0-2.4-.4-2.4-.9s-1.3-1.4-3-1.9c-1.6-.6-4.7-2.7-6.7-4.7-3-3-4.3-3.5-6.5-3.1-2.3.5-2.8.2-2.8-1.5 0-1.1-2-4.1-4.4-6.7-2.4-2.6-5.1-6.1-6-7.9-.9-1.8-2.3-3.6-3.2-4.1-1-.6-1.7-2.5-1.9-5.1-.4-4.7-1.9-7.1-4.5-7.1-1 0-3-1.6-4.5-3.5-1.6-2.1-3.9-3.8-5.6-4.2-1.7-.3-3.4-1.6-4.2-3.1-.8-1.7-3.1-3.1-7.6-4.8-7.6-2.7-10.6-1.9-11.7 3-.7 3.4-3.1 6.6-4.9 6.6-.7 0-2 .9-3 2-2.3 2.6-3.4 2.5-7.5-.5-1.9-1.4-4-2.5-4.8-2.5-.8 0-2.5-.9-3.9-2s-4.1-2-6-2c-1.8 0-5.2-.9-7.4-2.1l-4.1-2-3.4 2.3c-3.4 2.3-3.6 2.7-3.8 6.3-.1 1.3-.9 2.1-2.6 2.3-1.4.2-3.4 1.2-4.5 2.1-2.1 1.8-10.2 4.7-11 4-.2-.3 3-3.2 7.3-6.4 4.2-3.3 23.6-18.5 43.1-33.8 27.5-21.6 35.6-27.5 36.6-26.7.8.6 2.2 1 3.2.8 1.2-.2 3.2 1.1 5.1 3.2l3.1 3.5.1-2.6c0-3.6-5.9-11.3-14.3-18.5-7.1-6.1-11.2-11.5-10.4-13.7.2-.7 2.3.7 5.2 3.5 6.8 6.7 10.3 6.3 5.2-.6-1.3-1.7-3.6-4.8-5.1-6.9l-2.8-3.7h3.3c2.5 0 4.3.9 7.1 3.7zm-3.2 27.1c0 .8-41.5 33.8-82.8 65.9-11.3 8.8-11.8 8.9-18.2 4.6-3.2-2-3.9-2.2-6.9-1-2.7.9-3.5.9-3.8-.1-.9-2.5-5.2-1.3-8 2.3-1.9 2.4-3.6 3.5-5.3 3.5-1.5 0-3.1.5-3.8 1.2-.6.6-1.4.9-1.7.6-.3-.3 9.1-9.2 21-19.8 21.9-19.4 56.9-51.3 77-69.8l11-10.2 10.8 10.9c5.9 6 10.7 11.4 10.7 11.9zm58.7 2.3c-3.8 2-6.7 2-6.7 0 0-.5 1.5-1.2 3.3-1.4 6.8-.8 7.2-.6 3.4 1.4zm19.8 12.4c-2.2 1.9-4.5 3.5-5.1 3.5-.7 0-1.5.7-1.8 1.7-.6 1.4-1.1 1.2-3.6-1.2-1.6-1.6-2.8-3-2.7-3.2.3-.3 8.8-2 13.4-2.7.7-.1 1.6-.5 1.9-.9.4-.4 1-.7 1.3-.7.3.1-1.2 1.6-3.4 3.5zm-83.3 43.1c3.3 1.1 4.8 2.2 5.2 3.9.3 1.3 1.6 2.7 2.8 3.1 1.2.4 3.9 2.4 6.1 4.5 2.1 2.2 4.4 3.9 5.2 3.9.8 0 1.8 1.2 2.1 2.7.9 3.7 8 14.6 12.5 19.4 2 2.1 4 5.3 4.5 7.1.8 2.9 1.5 3.3 4.6 3.6 2.6.2 4.4 1.3 6.7 3.8 1.7 1.8 3.9 3.4 4.8 3.4.9 0 2.4.6 3.2 1.4 1.8 1.6 8.4 4.2 15 5.9 3.1.8 5.2 2.2 7.5 5.1 3.1 3.9 6.8 7.8 12.4 12.8 1.7 1.5 4.2 5.2 5.6 8.3 1.9 3.8 3.6 6 5.9 7.1 4.5 2.3 9.7 7.4 9.7 9.6 0 1.7-1.8 1.8-29.9 1.8-22.8 0-30-.3-30.3-1.2-.3-.7-1.5-1.3-2.8-1.3-2.1 0-2.7-1.2-5.9-10.8-1.9-5.9-4-10.7-4.6-10.7-.5 0-2.3-3.3-3.9-7.3-9.9-24.8-24.9-50.3-37.4-63.7-6.2-6.7-6.9-7.8-6.5-10.8.6-3.7 1.2-3.8 7.5-1.6zm-48.5 2.4c2.1 1.1 4.7 2 5.8 2 1.1 0 3.5.9 5.3 2 1.8 1.1 3.8 2 4.6 2 .7 0 2.7 1.3 4.4 3 3.7 3.5 7.6 3.9 10.7 1 1.2-1.2 2.9-1.8 3.7-1.5 2.4 1 13.9 15 20.3 24.9 7.2 11.1 18.7 33.8 17.6 34.9-.5.5.5 4.1 2.1 8 1.6 4 4.5 11.6 6.3 16.9l3.4 9.8-36.2.5c-19.9.2-46.7.7-59.4 1-16.4.4-23.3.2-23.3-.5 0-1.2-32.1-.8-39.9.5-5.1.9-5.3 2.7 2.1-17.5 6.7-18.3 17.8-41 27.2-55.7 6.6-10.3 8.5-12.6 12-14.3 2.3-1.1 4.9-2 5.7-2 .8 0 2.3-.7 3.3-1.5 1.1-.8 2.7-1.5 3.6-1.5.9 0 2.5-.9 3.5-2s2.8-2 4-2c2.7 0 4.5-1.8 4.5-4.6 0-1.3 1-3 2.2-3.8 2.7-1.9 2.1-2 6.5.4zm-59.6 13.1c1.4.7 3 .7 5.5-.1 2.9-1 3.9-.9 5.9.4 3.2 2.1 3.1 3.6-.4 7.2-9.7 9.9-25.8 42.5-36.1 72.9l-3.7 11-37.8.3-37.9.2 2.1-2.2c2.1-2.4 9.3-13.4 9.3-14.4 0-.3-.5-.2-1.1.2-1.7 1 6.1-9.7 14.5-20.1 4-5 9.2-10.5 11.7-12.4 2.4-1.8 5.3-4.7 6.3-6.3 1.1-1.7 4-3.9 7-5.2 2.8-1.3 8.3-5 12.1-8.3 4.4-3.8 8.6-6.5 11.2-7.2 2.4-.7 4.7-2.1 5.7-3.6 1.1-1.7 2.6-2.5 4.5-2.5 1.6 0 4-.9 5.4-2 1.8-1.4 3.4-1.9 5.1-1.4 1.9.5 3.1 0 5.1-2.1 1.4-1.6 2.5-3.4 2.5-4.1 0-1.7.5-1.7 3.1-.3zm-105.6 74.8c-3.1 4.4-6 8.1-6.5 8.1-.4 0-1.7 1.4-2.8 3.1-2.8 4.5-7.7 5.9-20.7 5.9-11.7 0-12.3-.7-3-3.5 2.8-.8 7.1-2.9 9.6-4.7 14-9.9 17.8-12.4 22.8-14.9 3-1.6 5.7-2.7 5.8-2.5.2.2-2.1 4-5.2 8.5zm-18.6 26.7c.2.2-1.3 3.5-3.3 7.5-2 4-3.5 7.7-3.3 8.3.6 1.7-1.9 7.4-4.9 10.9-1.4 1.7-2.2 3.3-1.6 3.5 1.2.4-3.3 12.1-5.3 13.7-1.2.9-3.3 6.6-9.5 26-1.1 3.3-1.9 6.9-1.8 8 .2 2.4-4.2 19.6-5.3 20.9-.9 1-5.8-9.1-12.1-24.8-6.8-16.9-13.3-41.9-15.3-58.8-.6-5.1-.5-5.7 1.4-6.3 1.1-.3 4.5-2.6 7.4-5 3-2.4 6.7-4.5 8.3-4.8 3-.5 44.6.3 45.3.9zm92.4.1c-.4 1-1.2 2.7-1.9 3.8-2.6 4.3-12.3 49.1-12.9 59.4-.2 3.1-1.4 13.5-2.8 23.1-1.5 9.6-3.3 24.4-4.2 32.9-.8 8.5-1.8 15.7-2.1 16-.3.3-18.7.7-40.9.9l-40.3.3-7.8-11.5-7.7-11.6 1.2-6.6c1.7-9.6 9.9-37.5 11.5-39.3.7-.9 2.4-4.3 3.6-7.6 1.2-3.3 3.1-8.2 4.1-10.9 1-2.7 1.6-5.3 1.3-5.7-.8-1.4 8.6-22.2 11.2-24.7 2.4-2.3 3.2-3.8 1.4-2.7-2.3 1.4.1-3.5 6.8-13.9l2.4-3.6h38.9c36.6 0 38.8.1 38.2 1.7zm152.4-.7H581l1.1 2.7c.6 1.6 2.2 7.2 3.6 12.5 1.4 5.4 2.9 9.5 3.3 9.3.4-.3 1.3 1.5 1.9 4 1.3 5.3 1.4 5.8.2 5-.5-.3-.5 1.1.1 3.2 3 10.8-3.4 42.2-13.9 67.8-4.9 12.2-12.8 27.8-15 30.1-1.2 1.2-14 1.4-87.9 1.4H388v-3.3c0-11.1 7.9-65.4 11-75.7 1.1-3.6 3.6-13.3 5.5-21.5 1.9-8.3 4.7-19.5 6.2-25l2.8-10 18.5-.6c10.2-.4 36-.5 57.4-.3s50.8.4 65.3.4zm113.1 3c3.4 5.1 4.8 5.5 7.7 2.4 2.9-3.1 5.5-2.6 5.5 1 0 1.7 1.2 3.4 3.6 5.3 1.9 1.5 4.7 5 6.1 7.8l2.6 4.9-3.6-2.7c-2-1.5-4.6-2.7-5.9-2.7-1.3 0-3.8-1.5-5.7-3.5-2.5-2.6-4.2-3.5-6.7-3.5-1.8 0-3.6.5-3.9 1.1-.4.5-1.9 1.5-3.3 2-2.1.8-3.5.5-7.3-1.6-2.6-1.4-5.4-2.2-6.3-1.9-.9.3-3 .1-4.6-.6-2.5-1-3.3-.9-5.9.9-1.8 1.3-4.4 2.1-6.9 2.1-3.8 0-4.1.3-5.2 3.6-1.2 3.5-1.1 3.7 2.4 7 2 1.9 4.4 3.4 5.4 3.4.9 0 2.3.9 3 2 1 1.6 2.3 2 6.5 2 5.7 0 8.7 2 10.1 6.6.9 2.8 4 5.6 7.8 6.9 3.2 1 4 2 5.5 7 .7 2.6 1.5 3.1 6.2 4 2.9.5 5.8 1.7 6.4 2.6.7.9 2.3 1.9 3.5 2.3 2.2.7 2.3.9.6 2.7-1.1 1.3-3 1.9-5.7 1.9s-5.6 1-8.9 3.1c-4.7 2.8-5.1 2.9-7.4 1.4-2.2-1.4-2.7-1.4-6.4.5-4 2-10.1 2.2-18.6.5-3-.6-4.7-5.1-3.5-9.3.9-3.1.8-3.3-1.7-3.8-4.3-.9-6.5-3-5.9-5.5.4-1.6.3-1.9-.6-1-2.1 2.1-4.7 1.3-4.7-1.4 0-2.5-.7-2.9-4.6-2.6-1.5.2-3.5-1.4-6.5-4.9-2.3-2.8-5.4-5.6-6.8-6.3-3.3-1.6-5.8-10.4-3.6-12.6 1.4-1.4 10-3.1 18-3.5 4.5-.2 8.5-2.1 8.5-3.9-.1-2.6-3.7-6-5.8-5.5-2.2.6-4.4-1.4-9.6-8.5l-2.7-3.7 28.2.2 28.3.3 2.4 3.5zm45.6 30c1.8 1.7 4.9 3.7 6.9 4.5 5.7 2.4 9.7 6.3 9.7 9.6s-1.3 3.6-5.6 1.4c-3.3-1.7-7.4-2-7.4-.5 0 .5-.8 1-1.8 1-2.2 0-7.5-13.4-6.6-16.8.4-1.2.8-2.2 1-2.2.2 0 1.9 1.4 3.8 3zM702 818.1c0 .5-1.2.9-2.7.9-2.7-.1-2.7-.1-.9-1.5 1.9-1.4 3.6-1.2 3.6.6zm-457.6 2.7c.2.4.7 2.3 1.1 4.3l.7 3.6-21.9 15.5c-42.8 30.5-110.7 76.3-107.3 72.6.3-.3 14.2-10.9 31-23.4 29.3-22 69.6-53.1 86.5-66.8 8.2-6.6 9.1-7.1 9.9-5.8zm133.1 108.9c-.4 6.5-1 19.8-1.4 29.6l-.6 17.7-4-2.1c-19.4-10.2-51.7-36.7-64.5-52.9l-3.2-4h74.4l-.7 11.7zm176.8-10c-.4 1-1.7 3.3-2.9 5.2-1.3 1.9-2.1 3.8-1.8 4.3.3.4-.1.8-.9.8s-1.7.7-2.1 1.5c-.4 1.2.3 1.5 3.7 1.4 4-.1 4-.2 1.2-.9l-3-.8 2.8-.1c1.6 0 2.6-.5 2.2-1.1-.4-.6 1-1 3.5-1s3.9.4 3.5 1c-.4.6 1.7 1 5.7.9 4.7-.1 5.7-.3 3.8-.9-2.1-.7-1.7-.8 2-.8 3.7-.1 4.1.1 2.2.9-3.2 1.2-1.8 2.9 2.3 2.7 1.9-.1 3.3-.3 3-.6-.2-.3.3-1.1 1.3-1.8 1.3-1 1.4-1.2.2-1.1-.8.2-2.1.6-2.7 1-.8.5-1.3.4-1.3-.2 0-.6.5-1.1 1.1-1.1.5 0 .7-.6.3-1.3-.5-.7 0-.6 1.1.3 1.7 1.4 1.8 1.3 1.2-.2-.4-1.2-.2-1.5.8-1.2.7.3 1.2 1.4 1 2.5-.3 1.4.2 1.9 1.8 2 2.1.1 2 .2-.3.9-2.5.8-2.5.8-.2.9 1.6.1 2.1.5 1.6 1.3-.6 1-.4 1 .7 0 .7-.6 3.6-1.3 6.3-1.3 4.4-.1 4.7-.2 2.1-.9-1.6-.4-2.2-.8-1.2-.9.9 0 1.7-.6 1.7-1.1 0-.6.5-1 1.1-1 .5 0 .7.4.4 1-.3.5.3 1 1.4 1 1 0 2.1.6 2.3 1.2.3.9.9.8 2.2-.5 1.7-1.6 1.7-1.7-.1-1.8-1.1 0-1.3-.3-.5-.6 1.5-.6 4.4 1.6 3.6 2.8-.3.5 0 .9.5.9.6 0 1.1.7 1.1 1.5s-.6 1.5-1.2 1.5c-.9 0-.8.4.2 1 1.3.9 1.3 1 0 1s-1.3.1 0 1c1.3.8 1.3 1 .1 1s-1.1.3.2 1.2c1.4 1.1 1.8 4.3 2.3 21.5l.7 20.1-6.8 3.1c-17.8 8.1-38.2 14.6-58 18.6-50.6 10.1-104.1 3.4-152.7-19.2l-7.8-3.6v-7.1c0-8.2 1.6-38.7 2.6-49.4l.6-7.2h83.9c79.4 0 83.8.1 83.2 1.7zm5.1 6.6c-.2.7-1.9 1.4-3.7 1.5l-3.2.1 3.5-1.3c1.9-.8 3.6-1.4 3.7-1.5.1 0 0 .5-.3 1.2zm7.4-.1c.8 1 .1 1.3-2.9 1.4-2.1.1-3.6-.2-3.3-.8.3-.5 1.4-.6 2.5-.3 1.1.4 1.9.2 1.9-.4 0-1.4.5-1.4 1.8.1zm19.4.3c1.4 0 2.1 1.5.7 1.6-.8.1.4.5 2.6.9l4 .7-4.9.2c-2.7 0-4.6-.2-4.3-.5.3-.4.2-1.6-.4-2.7-.9-1.5-.8-1.8.3-1.1.7.5 1.6.9 2 .9zm-13.7.5c.3.5-.1 1-.9 1-.9 0-1.6-.5-1.6-1 0-.6.4-1 .9-1 .6 0 1.3.4 1.6 1zm23 0c-.3.5-1.2 1-1.8 1-.7 0-.6-.4.3-1 1.9-1.2 2.3-1.2 1.5 0zm54.5 0c0 .5-.8 1-1.7 1-1.5 0-1.6-.2-.3-1 1.9-1.2 2-1.2 2 0zm-18.6 1.5c.3.8.2 1.4-.2 1.4-2.3-.4-4.2.3-3.9 1.3.1.7-.4 1.2-1.1 1-.8-.1-1.1.2-.8.7.8 1.2-2.9 2.1-4.5 1-1-.6-.7-.9 1.1-1l2.5-.1-2.5-.8c-1.4-.4-1.9-.8-1.2-.9.7-.1 1.1-.5.8-.9-.2-.4.5-.9 1.7-.9 1.7-.2 1.9 0 .7.7-1.3.8-1.2 1 .3 1 .9 0 1.7-.5 1.7-1 0-.6.9-1 2-1s2-.5 2-1c0-1.5.7-1.2 1.4.5zm11.7-.6c-1.1.7-.9 1 1 1.4 2.3.4 2.2.4-.3.6-2.7.1-3.5-.8-2.1-2.2.3-.4 1.1-.7 1.7-.7.6 0 .5.4-.3.9zm23.6-.3c-.3.3-1.2.4-1.9.1-.8-.3-.5-.6.6-.6 1.1-.1 1.7.2 1.3.5zm-27.3 1.2c.2.4-.5.9-1.7.9-1.7.2-1.9 0-.7-.7 1.8-1.2 1.8-1.2 2.4-.2zm-74.7.8c-.3.3-1.2.4-1.9.1-.8-.3-.5-.6.6-.6 1.1-.1 1.7.2 1.3.5zm85.9.8c1.1 1.1 1.1 1.6.1 1.9-.7.3-.5.6.6.6.9.1 1.7-.4 1.7-.9 0-.6.7-1 1.5-1s1.5-.5 1.5-1.2c0-.6.3-.8.7-.4.5.4-.1 1.4-1.1 2.2-1.9 1.3-1.8 1.4 1.3 1.4 1.9 0 3 .4 2.6 1-.4.6.7.9 2.7.9 2.2-.1 2.6-.3 1.1-.6-2.3-.4-4-3.3-2-3.3.8 0 .6-.4-.3-1-1.1-.7-.6-1 2-.9 2.9 0 3.1.2 1.5.9-1.9.8-1.9.9.3.9 1.2.1 2.2-.4 2.2-.9 0-.6.8-1 1.8-1 1.4 0 1.5.2.2 1-1.2.8-1 1 1 1.1l2.5.1-2.5.8c-2.1.7-1.7.8 2 .8 3.4.1 4-.2 2.5-.8-1.7-.7-1.4-.9 1.3-.9 2.2-.1 3.1-.5 2.6-1.3-.5-.7-.3-.8.6-.3 1 .6.9 1.1-.5 2.2-1.1.7-1.5 1.3-1 1.3.4 0 0 .9-1 2s-2.7 1.8-3.9 1.6c-1.2-.2-1.5-.1-.8.1.6.3 1.2.8 1.2 1.3 0 1-5.2 4.5-6.3 4.2-.5-.1-.6.2-.3.7.7 1-7.5 8.3-18.4 16.3-7.6 5.6-23 15.5-25.6 16.5-1.3.5-1.5-2.3-1.3-19 .1-10.7-.2-20-.5-20.6-.4-.6-.2-1.1.3-1.1.6 0 1.1.6 1.1 1.4 0 .8 1.3 2.1 2.8 2.9 2.3 1.1 2.9 1.1 2.9.1 0-.7-.5-1-1-.7-.6.4-.8 0-.4-1 .4-1.1-.1-1.7-1.6-2-1.8-.3-1.7-.5.6-.6 1.6 0 2.6-.5 2.2-1.1-.3-.6.1-1 .9-1 .9 0 1.6-.5 1.6-1 0-.6 1-1 2.3-1 2 .1 2 .2.5 1.1-2.5 1.4-2.2 2.9.5 2.8 2.1 0 2.1-.1.2-.9-1.5-.6-.9-.9 2.5-.8 3.7 0 4.1.1 2 .8-2.4.8-2.4.8.7.9 2.6.1 3-.2 2.6-1.9-.5-1.8 0-2 3.8-2 3.2 0 4-.3 2.9-1s-1.2-1-.2-1c.7 0 2 .6 2.8 1.4zm26.1-.8c-.3.3-1.2.4-1.9.1-.8-.3-.5-.6.6-.6 1.1-.1 1.7.2 1.3.5zm-86.4 2.1c-.7.2-1.9.2-2.5 0-.7-.3-.2-.5 1.2-.5s1.9.2 1.3.5zm49 0c-.7.2-2.1.2-3 0-1-.3-.4-.5 1.2-.5 1.7 0 2.4.2 1.8.5z"/><path d="M340 138.7c0 .7-.8 1.4-1.7 1.4-1 .1-.4.5 1.2.8 3.1.8 6 .1 3.5-.7-.8-.3-1.8-1-2.2-1.6-.5-.8-.8-.7-.8.1zM327.5 150c.3.5.8 1 1.1 1 .2 0 .4-.5.4-1 0-.6-.5-1-1.1-1-.5 0-.7.4-.4 1zM324.8 154.7c.7.3 1.6.2 1.9-.1.4-.3-.2-.6-1.3-.5-1.1 0-1.4.3-.6.6zM298.3 261.6c-1 2.7 2.5 24.3 5.2 32.4 1.4 4 3.5 12.6 4.7 18.9 1.1 6.4 3.8 16.1 5.9 21.6 2 5.5 4 12.1 4.4 14.8 1.2 8 2.2 6.2 2.9-5.1.9-16.9.6-27.1-1.1-34.7-1.9-8.6-3.6-12.6-10-23.8-2.8-4.8-6.3-12.5-7.8-17.2-1.6-4.7-3-8.5-3.2-8.5-.2 0-.6.7-1 1.6zM283.3 262.5c-.4 1.1-.8 11-.8 22 .1 22.6 1 27.5 7.1 39.7 4 8 12.2 20.6 14.8 22.7 3.1 2.6 2.9.2-.4-4.8-4.3-6.7-5.6-11.5-8-29.1-1.1-8.2-3.6-20.1-5.5-26.4-1.8-6.4-3.7-14.2-4-17.3-.9-7.3-2-9.7-3.2-6.8zM360.2 294.3c-3.4 2.3-11.4 12.2-13.9 17.2-3.4 6.4-7.4 20.5-8.5 29.4-1.9 16.7.4 28.7 10.7 55.1 5.8 14.9 7.6 22.4 7.8 33.4.1 6.5.6 10.1 1.4 10.3 1.3.5 1.8-1.7 3.4-15.9 1.8-16.1.7-37.8-3.1-59.3-5.6-32.1-6-37.1-4-47.6 1.1-5.5 5.1-14.8 9-20.6 2.6-3.9 1.3-4.9-2.8-2zM313.8 369.5c6 5 12.3 15.3 21.6 35.7 12.1 26.5 12.3 26.8 13.2 24.5 1.4-3.8-.4-17.1-3.6-26.2-5.3-14.8-14.8-26-28.5-33.5-5.6-3-5.8-3.1-2.7-.5zM397.2 402.2c-3.5 5.1-17.1 28.7-20.8 36.1-4.1 8-7.4 18.5-8.1 25.4-.3 3.5-.4 6.3-.1 6.3.3 0 1.8-3.9 3.3-8.8 3.2-10.5 8.2-21.5 12.6-28 8.4-12.4 17.9-30.6 17.9-34.3 0-2.1-2.1-.6-4.8 3.3zM423.5 418c.3.5.8 1 1.1 1 .2 0 .4-.5.4-1 0-.6-.5-1-1.1-1-.5 0-.7.4-.4 1zM418 420.9c0 1.4-.1 1.4-1 .1-.8-1.2-2.5 0-9 6.5-8.9 8.9-13.5 16.6-17 28.5-1.2 4.1-3.8 11-5.8 15.3-1.9 4.2-3.2 8-2.9 8.3 2.3 2.3 15.7-18.5 20.8-32.2 4.2-11.3 8.8-20.2 11.4-22.4 1.2-1 1.1-.1-.5 3.5-2.1 4.9-2.1 7.4 0 3.5.6-1.2 2.6-3.8 4.4-5.8 4.5-5.1 5-6.8 2-6.8-1.5 0-2.4.6-2.4 1.5zM445.5 488c-1 1.1-7.4 4.8-14.2 8.1-11.3 5.4-14.6 7.9-13 9.6 2.3 2.2 32.7-15.7 32.7-19.2 0-1.3-3.9-.2-5.5 1.5zM449.5 510.5c-2.5 1.2-2.6 1.4-.5.9 2.8-.7 6-2.3 4.5-2.3-.5 0-2.3.6-4 1.4zM445 510.8c0 .5-.6.9-1.2 1-9.7 1.1-12.5 2-13.1 4.4-.4 1.2-.1 1.8.6 1.5.7-.2 4.2-1.4 8-2.7 3.7-1.3 6.7-3 6.7-3.7 0-.7-.2-1.3-.5-1.3s-.5.4-.5.8zM594 745.9v7.2l2.3-1.7c1.8-1.4 4.1-5.2 6.5-10.6.2-.4-1.1-.1-2.8.5-2.8 1.1-3.3 1-4.6-.7-1.3-1.8-1.4-1.2-1.4 5.3zM555.8 930.7c.6.2 1.8.2 2.5 0 .6-.3.1-.5-1.3-.5-1.4 0-1.9.2-1.2.5zM555.8 932.7c.6.2 1.8.2 2.5 0 .6-.3.1-.5-1.3-.5-1.4 0-1.9.2-1.2.5zM560.8 932.7c.7.3 1.6.2 1.9-.1.4-.3-.2-.6-1.3-.5-1.1 0-1.4.3-.6.6zM568 932.7c3.1.3 4 .7 3 1.4-1.2.7-1 .9.9.9 2 0 2.1-.2 1.1-1.5-.8-1-2.7-1.4-5.4-1.3l-4.1.1 4.5.4zM597.7 933.4c-.5 1.3.1 1.6 3.1 1.5 2.8-.1 3.1-.3 1.2-.6-1.4-.3-2.8-.9-3.1-1.5-.4-.5-.9-.3-1.2.6zM575.9 934.1c-1 .6-.5.9 1.5.9 1.6 0 3.6.8 4.5 1.9 1.4 1.6 1.8 1.6 2.9.5 1.1-1.2.9-1.4-.7-1.4-1.1 0-2.2-.4-2.5-.9-.9-1.4-4.2-1.9-5.7-1zM544.8 934.7c.7.3 1.6.2 1.9-.1.4-.3-.2-.6-1.3-.5-1.1 0-1.4.3-.6.6zM553.8 934.7c1.7.2 3.2.8 3.2 1.4 0 .5 1.2.9 2.8.8l2.7-.1-2.5-.7-2.5-.8 2.5-.5c1.4-.3-.2-.5-3.5-.5s-4.5.2-2.7.4z"/><path d="M564.6 935.5c.4.8 1 1.5 1.6 1.5.5 0 .7-.4.3-.9-.3-.5.3-1.2 1.2-1.4 1.1-.3.8-.5-.9-.6-2-.1-2.6.3-2.2 1.4zM587.9 935.4c1 1.1.8 1.7-.6 2.5-1 .6-1.3 1.1-.7 1.1.6 0 1.7-.7 2.4-1.5s.9-1.5.4-1.5-.2-.5.6-1c1.2-.8 1-1-.9-1s-2.1.3-1.2 1.4zM592.8 934.7c.6.2 1.8.2 2.5 0 .6-.3.1-.5-1.3-.5-1.4 0-1.9.2-1.2.5zM544.8 936.7c.7.3 1.6.2 1.9-.1.4-.3-.2-.6-1.3-.5-1.1 0-1.4.3-.6.6zM551.8 936.7c.6.2 1.8.2 2.5 0 .6-.3.1-.5-1.3-.5-1.4 0-1.9.2-1.2.5zM591.8 936.7c.7.3 1.6.2 1.9-.1.4-.3-.2-.6-1.3-.5-1.1 0-1.4.3-.6.6zM603 936.9c0 .5-.8 1.2-1.7 1.4-1.4.4-1.2.5.5.6 1.3.1 2.2-.5 2.2-1.4 0-.8-.2-1.5-.5-1.5s-.5.4-.5.9zM543.3 938.7c.9.2 2.5.2 3.5 0 .9-.3.1-.5-1.8-.5-1.9 0-2.7.2-1.7.5zM551 938.7c1.4.3 3.1 1 3.9 1.6 1.1.9 1.3.9.8 0-.4-.6-.2-1.3.5-1.5.7-.3-.8-.5-3.2-.5-2.5 0-3.4.2-2 .4zM565.8 938.7c.7.3 1.6.2 1.9-.1.4-.3-.2-.6-1.3-.5-1.1 0-1.4.3-.6.6zM594.3 938.7c.9.2 2.5.2 3.5 0 .9-.3.1-.5-1.8-.5-1.9 0-2.7.2-1.7.5zM587.8 940.7c.7.3 1.6.2 1.9-.1.4-.3-.2-.6-1.3-.5-1.1 0-1.4.3-.6.6zM598.8 940.7c.6.2 1.8.2 2.5 0 .6-.3.1-.5-1.3-.5-1.4 0-1.9.2-1.2.5zM598.6 942.8c-.2.4.4.9 1.5.9 1 .1 1.9-.2 1.9-.8 0-1.1-2.7-1.2-3.4-.1zM645.8 932.7c.6.2 1.8.2 2.5 0 .6-.3.1-.5-1.3-.5-1.4 0-1.9.2-1.2.5zM663.8 932.7c.6.2 1.8.2 2.5 0 .6-.3.1-.5-1.3-.5-1.4 0-1.9.2-1.2.5zM629.1 936.2c-.1 2.1.4 2.8 1.7 2.8 1.1 0 1.3-.3.6-.8-.7-.4-1.4-1.6-1.7-2.7-.4-1.5-.5-1.4-.6.7zM644 935c1.3.8.8 1.4-1.1 1.2-.3-.1-.6.5-.6 1.2s1.4 1.3 3.1 1.3c2.8.1 2.8.1.7-.6-2.5-.7-2.4-.7 1-2.4l3.4-1.7h-4c-2.9 0-3.6.3-2.5 1zM655.4 934.9c1.6.6 1.5.9-1.4 2.3l-3.3 1.6h3.7c3.1 0 3.6-.3 3.6-2.4 0-1.8-.5-2.4-2.2-2.3-2.1 0-2.1.1-.4.8zM668 935c0 .5-.7 1-1.5 1-2.2 0-1.8 2.3.5 3.8 1.1.7 2 .9 1.9.5-.5-2.8.4-5.2 1.9-5.6 1.3-.4 1.1-.5-.5-.6-1.3 0-2.3.3-2.3.9zM673.8 934.7c.7.3 1.6.2 1.9-.1.4-.3-.2-.6-1.3-.5-1.1 0-1.4.3-.6.6zM631.8 936.7c.6.2 1.8.2 2.5 0 .6-.3.1-.5-1.3-.5-1.4 0-1.9.2-1.2.5zM636 936.9c0 .5.9.7 2 .4 1.1-.3 2-.7 2-.9 0-.2-.9-.4-2-.4s-2 .4-2 .9z"/><path d="M649.8 936.7c.6.2 1.8.2 2.5 0 .6-.3.1-.5-1.3-.5-1.4 0-1.9.2-1.2.5zM661.8 936.7c.7.3 1.6.2 1.9-.1.4-.3-.2-.6-1.3-.5-1.1 0-1.4.3-.6.6zM637.6 939.6c-.5 1.4-.4 1.5.9.4 1.7-1.4 1.9-2 .6-2-.5 0-1.2.7-1.5 1.6zM645.8 940.7c.7.3 1.6.2 1.9-.1.4-.3-.2-.6-1.3-.5-1.1 0-1.4.3-.6.6zM657.3 941.5c0 .8.4 1.5.9 1.5.4 0 .8-.4.8-.9 0-.6-.4-1.2-.8-1.5-.5-.3-.9.1-.9.9zM622.9 943.3c.7.7 1.4.8 2.1.1.6-.6.2-1-1.2-1.1-1.6-.2-1.8.1-.9 1zM627.5 943c-.3.5.1 1 .9 1 .9 0 1.6-.5 1.6-1 0-.6-.4-1-.9-1-.6 0-1.3.4-1.6 1zM634 943c0 .5.7.7 1.5.4.8-.4 1.5-.8 1.5-1 0-.2-.7-.4-1.5-.4s-1.5.4-1.5 1zM644 943c-1 .6-.6.9 1.8.8 1.7-.1 2.9-.5 2.6-1-.7-1.1-2.5-1-4.4.2zM650.5 943c-.3.5.1 1 1 1s1.3-.5 1-1c-.3-.6-.8-1-1-1-.2 0-.7.4-1 1zM199 86.7c-2.9 3.6-2.3 8.3 2.3 18.3 4.2 9.2 4.9 12 8.2 33.4 1.5 9.4 3.7 19.8 5.1 23.5 2.6 7 8 16.1 9.5 16.1 1.1 0 1.2.9-.6-8.5-.9-4.3-2-16.5-2.5-27-1.4-26.5-3.6-40.8-7.9-50.7-3.4-8-10-10.3-14.1-5.1zM222.9 96.5c-.3.2.3 7.3 1.2 15.7 1.7 15.3 3.7 25.2 6.6 31.8.9 1.9 4.1 11.1 7.3 20.5 6.4 18.8 8.6 22 7.6 10.9-.4-3.8-.8-12.5-1.1-19.4-.8-20.4-1.9-24.1-14.5-47.9-6.6-12.5-6.5-12.3-7.1-11.6zM189.2 126.3c-2.8 3-2.8 5.2.4 12.1 1.4 3.1 3.6 11.4 4.9 18.6 1.3 7.1 2.7 14 3.1 15.2 1.5 5.2 18.4 40.7 21.6 45.8 6.9 10.6 10.6 11.6 4.9 1.2-6.5-11.7-10.8-29.3-13.1-53.7-1.9-20.6-5.1-30.2-12.3-37.9-4-4.2-6.5-4.5-9.5-1.3zM278.7 154.7c-.6 1.1 2.1 11.5 3.3 12.7.7.7 1.4.6 2.1-.1.8-.8.6-2.7-.8-6.9-1.8-5.4-3.5-7.5-4.6-5.7z"/><path d="M205.7 202.7c-.8 1.2 5.6 22.1 8.4 27.9 4.7 9.5 19.1 21.6 31.7 26.8 6.7 2.7 8 2.1 3.1-1.6-13.2-9.9-28.8-28.6-35.3-42.3-4.2-8.8-6.9-12.4-7.9-10.8z"/></svg>