<svg xmlns="http://www.w3.org/2000/svg" width="5461.333" height="5461.333" version="1.0" viewBox="0 0 4096 4096"><path d="M1059.5 6.7c1.3 3.8 4.2 12 6.5 18.3 2.3 6.3 4.5 12.6 5 14 1.3 4.2 34 94.3 35 96.8.6 1.3 1.9 5.2 3.1 8.5 1.1 3.4 2.4 7.1 2.9 8.2.9 2.2 6.5 17.5 13.1 36 4 11.2 9.7 21.6 21 38.2 1.6 2.3 2.9 4.4 2.9 4.7 0 1.2 11.1 16.6 28.5 39.5 3.6 4.8 17.8 22.6 20.9 26.2 1.7 1.9 4 4.6 5.1 6 6 7.3 26.2 30.9 35 40.9 5.6 6.3 11.3 12.8 12.6 14.3 1.3 1.6 3.8 4.3 5.4 6.1 1.7 1.7 6.8 7.4 11.5 12.6 42.9 47.6 81.6 85 88 85 1.6 0 1.1-4.1-1.3-11-2.9-8.1-4.6-11.9-16.6-36-5.3-10.7-11.2-23.3-13-28-1.9-4.7-4-9.9-4.7-11.5-1.1-2.6-5.2-14.3-11.4-32.5-3.5-10.3-9.2-29.5-12.6-42.9-2-7.3-5.5-20.4-8-29-2.5-8.6-5.1-17.9-5.9-20.7-3.3-12-21.2-64.8-27-79.4-13.9-35.2-19.6-48.3-31.1-71.5-12.4-25.1-15-29.7-36.3-62.7-10.8-16.8-14.2-24.2-14.4-31.3l-.2-5.5h-116.4l2.4 6.7zM1229 2.7c4.6 5.2 8.1 8.5 11.7 10.9 6.7 4.6 9.3 2.8 9.6-6.8l.2-6.3-12-.3-11.9-.3 2.4 2.8zM1303.5 1c-.6 1 .1 131 .9 152 .6 17.4 2.2 44 3.1 54.5.2 2.7.7 7.9 1 11.5.3 3.6.8 8.1 1.1 10 .3 1.9.7 5.1.9 7 .2 1.9.7 5.2 1 7.2.3 2.1.7 5.5 1 7.5 1.9 13.3 7.8 38.8 13.4 57.3 7 23.2 32.5 80.9 47.6 107.5 1.2 2.2 3.9 7.1 5.9 10.8 19.4 35.9 57.2 96 81.4 129.2 17.5 24.1 26.6 34.2 36.6 40.7 6.3 4 10 4.8 11 2.2 2.6-6.9-4-20.9-27.7-58.4-9.9-15.8-21.7-41.1-28.5-61.5-5.2-15.2-14.1-50.9-16.5-66-.3-1.7-1.2-7.1-2.1-12-2.2-12.2-2.4-13.4-3.1-17.9-.3-2.1-.7-4.8-1-6-.2-1.2-.7-3.9-1-6.1-.3-2.2-1.2-8.3-2-13.5-.8-5.2-1.7-11.3-2-13.4-.3-2.1-.7-4.8-1-6-.2-1.2-.7-4.4-1-7.1-.4-2.8-.8-6.4-1-8-.4-3.3-1.4-9.8-1.9-13.6-.4-2.2-.7-4.8-2.2-15.7-.6-4.8-1.3-9.5-1.8-11.7-.3-2-1.6-10.4-2.1-14-.9-6.2-1.7-11.2-2-12.5-.2-.8-.7-3.1-1-5-5.3-33-18.4-96.1-27.1-130.5-1.4-5.5-2.7-10.9-3-12-.4-2.1-2.5-9.6-11.3-41.5-4.4-15.5-14.2-53.2-16.5-63.3L1352 0h-24c-14.5 0-24.1.4-24.5 1zM1451.4.8c.3.5 1.4 6.2 2.5 12.8 2.6 14.7 6.6 35.4 10.6 54.4 5 23.4 11.3 48.2 17.1 66.5 8 25.4 18.1 60.9 20.9 73.6.2.9 1.5 6.5 3 12.5s2.9 12 3.1 13.4c.3 1.4.7 3.3 1 4.2.3.9.6 2.5.8 3.5.5 2 4.1 18.5 5.7 25.3 1.5 6.2 1.3 5.3 5.4 26.5 7.1 37.1 11.1 55.1 18 81.5 2 7.4 3.7 14.2 3.9 15 .9 3.6 5.8 21.2 8.1 29 3.1 10.6 20 61.2 28.9 86.5 3.6 10.4 9.3 27.8 12.6 38.5 3.3 10.7 6.5 20.8 7 22.5 1.3 4.2 3.7 13.2 6.6 24.8 2.2 9.2 2.6 11.1 3.9 18.9.3 1.8.8 4 1 4.8.2.8.7 3.5 1 6 .3 2.5.8 5.2 1 6 .2.8.6 3.1.9 5 1.5 10.1 6.2 22 8.6 22 1.1 0 4.8-9.8 5.6-14.7.3-2 .7-4.4.9-5.5.3-1.1.7-4.6 1.1-7.7.3-3.1.8-6.4 1-7.4.2-1 .6-5.3.9-9.5.4-4.2.8-9.3 1-11.2.2-1.9.6-7.6 1-12.5.3-5 .8-11.3 1-14.1.2-2.8.7-11.3 1-19 .4-7.6.8-17.5 1-21.9 2-39.3 2.7-131.5 1.2-158.5-1.1-19.8-2.1-32.6-3.2-42-.2-1.9-.6-6-.9-9-.7-7.1-1.4-12.2-2.6-19-.5-3-1.2-7.1-1.5-9-.6-3.9-1.6-9.7-2-12-.3-1.4-3.1-14.1-4-18.1-9.1-40.5-19.9-72.5-35.6-105.6-2.8-5.9-6-12.6-7-14.8-3.7-7.9-17.7-33.9-30-55.7-9.6-17.1-10.5-18.6-17.5-31-2.4-4.2-9.1-17.2-14.9-29-5.8-11.7-11.1-22.4-11.8-23.8l-1.3-2.5-27.8-.3c-15.2-.1-27.5.1-27.2.6zM2201.5 1.2c-3.4 11-4.8 16-7 24.8-1.5 5.8-2.9 11.6-3.1 13-.3 1.4-1.2 5.1-2 8.4-.8 3.2-1.4 6-1.2 6.1.2.2 3.7-4.7 7.8-10.8 4.1-6.1 12.8-18.2 19.2-26.9L2227 0h-12.6c-9.1 0-12.6.3-12.9 1.2zM2359 3.6c-.7 1.9-1 3.8-.7 4 .7.7 5.5-1.9 9.2-5l3-2.5-5.2-.1c-5 0-5.2.1-6.3 3.6zM2522.3 13.2c-5.9 7.3-11.4 14.2-12.3 15.2-.8 1-2.7 3.3-4.1 5-1.4 1.7-10.1 12.9-19.3 24.8-9.2 12-16.9 21.8-17.2 21.8-.2 0-.1-.6.1-1.3.2-.6 1.6-7.5 3.1-15.2 3.9-20.6 3.4-36.5-1.3-40.8-1.6-1.3-2.3-1.4-5.6-.2-10.3 3.6-35.6 21.9-58.2 42.3-4.5 4.1-36.3 30.9-40.5 34.2-2.5 1.9-5.7 4.6-7.3 5.9-1.5 1.4-10 8-19 14.8-19.5 14.8-16.5 12.6-26.7 19.5-24.3 16.3-83.3 70.3-122.6 112.4-7.2 7.6-22.7 25.2-25.5 28.9-1.3 1.6-2.6 3.2-3 3.5-1.2 1-16.8 20.9-25.8 32.9-9.1 12.2-30.4 43.1-34 49.3-1 1.8-5.6 9.3-10.1 16.7-4.5 7.4-8.5 14.2-8.8 15-.3.9-1.6 3.3-2.9 5.3-3.1 5.1-20 38.5-24.2 47.8-1.8 4.1-4.2 9.4-5.2 11.8-9.1 20.1-21.3 55.5-26.2 76.2-3.3 13.6-4.9 20.6-5.4 23.5-.2 1.6-.8 4.6-1.3 6.5-.5 1.9-1.8 8.9-2.9 15.5-1.2 6.6-2.3 12.9-2.5 14-.4 2.1-1.6 10.4-2.1 14.5-.2 1.4-.8 5.6-1.4 9.5-.5 3.8-1.3 9-1.5 11.5-.3 2.5-1.2 10.6-2.1 18-2.3 19.7-2.4 20.8-3 28.5-.3 3.8-.8 9-1 11.5-.7 6.7-1.4 15.3-2 26-.3 5.2-.8 12.2-1 15.5-2.6 41.4-2.6 127.1-.1 156.5.2 1.9.7 7.5 1 12.5.4 4.9.9 10.1 1.1 11.5.2 1.4.7 5.4 1 9 .4 3.6.9 7.2 1 8 .1.8 1 6.2 2 12 4.1 25.4 10.1 42.9 17.6 51.4 3.7 4.3 6.4 5.3 8.5 3.2 1.6-1.6 8.3-15.5 8.9-18.5.2-.9 1-3.6 1.8-6.1 2.4-7.1 3.5-11.6 6.7-26.4 3.8-17.3 8.9-37.8 14.1-56.1 2.2-7.7 4.7-16.4 5.5-19.3 1.4-5.3 6.1-20.7 12.9-42.2 9.7-31.1 37.3-110.4 42.5-122.5.5-1.1 4.3-10.8 8.5-21.5s8.3-20.9 9-22.5c6.6-15.8 9.8-23 15.7-35.4 3.7-7.9 6.8-14.5 6.8-14.7 0-.2 8.1-14.4 10-17.4.5-.8 2.5-4.2 4.4-7.5 2-3.3 8.2-13.3 13.8-22.2 5.7-8.9 13-20.4 16.2-25.5 8.3-13 64.7-97.9 74.2-111.7 4.4-6.2 8.6-12.4 9.4-13.7 1.4-2.2 12.3-18 24.3-35.4 16.5-23.8 39.4-54.6 42.3-57.1 1.3-1 1.7-1 2.4 0 1.1 1.9.5 5.1-4 23.6-5.5 22.7-5.6 23.4-5.9 29.7-.2 5.1 0 5.8 1.6 5.8 1.1 0 3-1.2 4.3-2.8 1.3-1.5 3.9-4.5 5.9-6.8 5.1-5.8 6.3-7.3 15.9-20.3 4.7-6.4 8.8-11.8 9.2-12.1.3-.3 2.3-2.8 4.5-5.5 3.4-4.3 20-24 21.5-25.5.3-.3 3.9-4.3 8-9s8.1-9.2 9-10.1c.8-.9 3.1-3.4 5-5.5 5.5-6.2 22.3-24.7 24.5-27 1.1-1.2 7.2-7.7 13.5-14.5 15.4-16.5 74.1-75.4 80.9-81 5.5-4.5 9-6.8 10.5-6.9 4-.1-9.4 26.2-29.6 58-23.4 37-40.8 67.7-40.8 72.1 0 4.7-29.4 39.7-64.6 76.9-11 11.5-12.8 13.6-29 31.5-7.2 8.1-23.3 27-34 40-10.8 13.3-36.3 46.9-40.6 53.6-.9 1.4-2.3 3.2-3 4-.7.8-5.1 7-9.8 13.9-4.6 6.9-9.8 14.5-11.5 17-4.8 6.9-19.7 30.8-30 48-9 15.1-10.4 17.6-19.5 34.5-2.4 4.4-4.6 8.4-5 9-1 1.4-21.1 41.4-24.8 49.5-1.6 3.6-4.8 10.4-7.1 15.2-21 45.2-44.2 106.8-63.6 168.8-4.8 15.1-17.1 51.9-20 59.5-1.3 3.3-4.6 12.3-7.5 20-2.9 7.7-5.8 15.3-6.5 17-.8 1.6-2.9 6.8-4.8 11.5-2 4.7-5.8 13.5-8.7 19.5-12.5 26.4-20.1 48.7-20.3 59.6-.1 7.5.9 9.5 5.7 10.7 5.3 1.4 6.2 5.5 4 18.2-.8 4.9-7 21.2-11.2 29.5-4.5 9.2-10.6 18.4-17.5 26.7-10.1 12.3-15.1 23.2-16.2 35.5-.3 3.7-.8 7.9-1 9.3-.3 1.4-.7 4.3-1 6.5-.4 2.2-1.7 9.9-3.1 17.2-1.4 7.3-2.7 14.5-3 16-.3 1.5-1.2 5.9-2 9.8-.8 3.8-1.8 8.3-2.1 10-.2 1.6-1.5 7.5-2.8 13-1.3 5.5-2.6 11.1-2.9 12.5-.3 1.4-1.2 5.2-2 8.6-.8 3.4-1.7 7.3-2 8.7-.2 1.5-1.2 6.2-2 10.4-.9 4.3-1.8 8.9-2.1 10.3-2 9.8-3.8 24.1-4.1 32.8-.8 23 6.8 21.6 24-4.2 4.2-6.3 7.6-11.6 7.6-11.9 0-.3 2-4 4.5-8.2 2.5-4.2 8.4-15.2 13.2-24.3 15.1-29.4 21-40.6 23.8-45.7 4.6-8.4 13.6-23.7 16.9-28.9 1.7-2.8 4-6.6 5.1-8.5 1.1-2 3.4-5.8 5-8.5 5-8.3 46.4-70.2 57-85.4 14.9-21.3 24.3-34.6 25.3-35.8.5-.5 2.2-3 3.8-5.4 1.6-2.5 3.4-5.2 4.1-6 .7-.8 10.7-14.8 22.2-31s21.3-30 21.8-30.5c.9-1 7.6-10.6 17.5-25 3-4.4 8.3-12.1 11.8-17 8-11.6 50.9-76.2 58.6-88.3 3.2-5.1 7.7-12.1 9.9-15.5 11.1-17.1 41.5-67.9 41.5-69.2 0-.2 1.3-2.6 2.9-5.3 1.5-2.6 3.9-6.8 5.3-9.3 1.4-2.4 9.6-16.6 18.3-31.4 8.7-14.9 17.1-29.3 18.7-32 1.6-2.8 4.7-7.9 6.8-11.4 2.2-3.4 4-6.5 4-6.7 0-.3 1.2-2.3 2.7-4.7 1.5-2.3 3.3-5.1 3.9-6.2.9-1.6 35.2-58.3 38.4-63.5 4.4-7.1 26.6-43.1 27.9-45.2 11.1-18.8 49.3-77.2 51.1-78.3 1.5-.9 1.2 1.6-.5 4.9-.8 1.5-1.5 3.2-1.5 3.7 0 .9-12.5 28.3-22.3 48.9-3 6.3-15 30.8-26.7 54.5-11.7 23.6-22.5 45.7-24 49-1.5 3.3-4.9 10.5-7.5 16-7 14.9-19.3 43.8-20 47.1-.6 2.7-.3 2.6 4.2-2.2 2.6-2.8 7.1-7.7 9.8-10.9 2.8-3.1 5.5-6.3 6-6.9.6-.6 3.5-4 6.5-7.6 3-3.6 5.7-6.7 6-7 .3-.3 2.5-3 5-6s4.7-5.7 5-6c.3-.3 3-3.4 6-7s5.7-6.7 6-7c.3-.3 6.1-7.3 12.9-15.5 12.8-15.4 34.1-40.6 35.1-41.5.3-.3 4.6-5 9.5-10.5 15-16.9 28.5-30 29.4-28.6.9 1.4-3.4 15.2-7.5 23.9-1.3 2.9-2.4 5.5-2.4 5.7 0 .3-2.3 5.4-5.1 11.3-11.3 23.6-23 52.8-37 91.8-25.2 70.5-41 125.4-36.1 125.4 3.2 0 19.6-15.7 65.4-62.8 23.5-24.2 29.2-27.3 21.3-11.7-4.8 9.6-7.4 13.7-33 52.5-24.3 36.8-29.5 45.5-29.5 49.2 0 2.2 9.6-3 30.8-16.8 6.2-4.1 11.6-7.4 12.1-7.4.4 0 1.6-.9 2.5-1.9 2-2.2 5.6-3.4 5.6-1.9 0 1-21.4 22.7-40.5 40.9-14.2 13.6-26.5 26.9-39.5 42.4-4.1 5-7.7 9.2-8 9.5-1.8 1.6-25.5 32.1-36.7 47-45.2 60.6-80.8 118-88.8 142.7-3.2 10-1.9 25.4 3.6 42 2 6.3 3.9 8 7.3 6.7 2.3-.9 10.4-13.3 14.9-23 5.1-10.9 30.8-46.3 53.2-73.3 4.6-5.5 15.2-17.9 18.9-22.1 2.3-2.5 7.3-8.2 11.2-12.5 3.9-4.4 8.6-9.8 10.5-12 1.9-2.2 3.9-4.5 4.5-5.1 1.5-1.7 8.4-9.9 15.4-18.4 3.4-4.1 7-8.5 8-9.6 8.1-9.7 33.9-43.1 41.5-53.9 2.7-3.9 5.2-7.2 5.5-7.5.3-.3 6.7-9.7 14.2-21 7.5-11.3 16.4-24.3 19.7-29 3.4-4.7 6.9-9.6 7.8-11 3.4-4.8 14.6-19.4 19.6-25.4 11.4-13.7 18.4-25 19.1-30.8.3-2.6-.3-3.8-4-7.4-4.3-4.2-5.1-5.8-3.6-8 .4-.6 12-7.5 25.7-15.4 13.8-7.9 32.9-18.9 42.5-24.5 24.7-14.4 22.6-13.7 18.6-6.3-1.8 3.5-5.7 10.8-8.6 16.3-2.9 5.5-7 13.1-9 17-2 3.8-6.8 12.8-10.5 20-3.7 7.1-7.6 14.3-8.5 16-8.8 15.1-23.5 46.1-29.4 61.9-4 10.5-5 15.2-3.6 16.1 1.5.9 16.6-9.5 24.1-16.5.8-.8 2.6-2.4 4-3.5 6.5-5.5 16.2-14.5 34.4-32 21.6-20.8 21.7-20.8 35.6-33.6 19.3-17.7 33.2-28.9 35.9-28.9 2.9 0-7.8 14.7-17.2 23.6-2.9 2.8-10 8.8-15.8 13.4-17.1 13.5-26.2 23.2-24.5 26 1.7 2.7 10.3-.7 19.8-8 6.5-4.9 10.7-6.6 10.7-4.4 0 2.4-18.5 31.8-60.8 96.4-5.2 8-11.6 17.6-14.1 21.5-2.5 3.8-7.1 10.6-10.1 15-3.1 4.4-9.8 14.1-15 21.5-5.2 7.4-9.9 14-10.5 14.7-.5.7-3.9 5.3-7.5 10.3-5.8 8-22.1 29.8-30.5 40.5-6.3 8-28.9 36-29.5 36.5-.3.3-3.2 3.6-6.4 7.5-12.5 14.9-25 28.5-50 53.9-8.1 8.3-20.3 20.9-27 28.1-6.6 7.1-13 13.9-14.2 15.1-1.1 1.2-3.8 4.3-6 7-2.1 2.7-4.7 5.8-5.6 6.8-2.3 2.6-2.3 3.3.4 4.7 4.6 2.4 17.2-.3 33.8-7.3 14.5-6.1 48.8-24.4 67-35.7.8-.6 4.2-2.6 7.5-4.7 7.5-4.7 48.8-31.7 49.5-32.4 1.5-1.5 52.7-35 53.6-35 .3 0 2.4-1.3 4.7-2.9 6-4 22.5-12.7 27.1-14.1 3.2-1 4-1 5.3.3 1.4 1.4 1.2 2.2-2 7.9-4.5 7.9-20.3 27.4-39.2 48.3-4.7 5.2-8.6 9.7-17.6 20.2-4.6 5.4-9 10.4-9.7 11.1-.7.8-2.5 3-4 5-1.5 2.1-3.5 4.6-4.5 5.7-1 1.1-3.7 4.5-6 7.5s-4.5 5.7-4.8 6c-1 .9-24.3 32.1-33.6 45.1-24.8 34.5-49.4 75.1-52.7 86.6-.3 1.3-.9 3.2-1.2 4.3-1 3.6 2.2 2.6 13.8-4.6 11.3-6.9 55.1-37.4 55.6-38.6.2-.4 1-.8 1.7-.8s1.5-.3 1.7-.8c.2-.4 6.2-5 13.3-10.2 7.2-5.2 13.7-10 14.5-10.7.8-.6 8.5-6.3 17-12.6 8.5-6.4 16-11.9 16.5-12.4.6-.4 4.6-3.5 9-6.8 35.8-26.8 110.4-85.8 115-90.9.6-.6 2.8-2.6 5-4.5s7.7-6.9 12.3-11.3c8.1-7.6 16.4-14.3 21-16.7 4.2-2.2 3.6 1.4-1.7 12.1-2.9 5.7-5.6 11-6.1 11.8-.5.8-6 10-12.3 20.5-13.3 22.3-21 34.8-21.7 35.5-.3.3-3.9 5.9-8 12.5-14.6 23.5-79.4 119.9-94.7 141a889 889 0 0 0-8.4 11.8c-8.3 11.9-17.1 24-18.6 25.5-.7.8-1.8 2.2-2.3 3.2-.6 1.1-5.4 7.7-10.7 14.7-14.6 19.4-13.8 18.3-29.4 36.9-5.2 6.1-11.2 13.2-13.4 15.9-2.2 2.6-4.5 5.3-5 5.9-3 3.2-54.1 65.6-66.9 81.6-8.1 10.2-15.5 19.4-16.4 20.5-2.9 3.5-7.2 9.3-7.2 9.8 0 .2 10.5-3.9 23.3-9.3 12.8-5.3 25-10.3 27.2-11 2.2-.7 5.4-1.8 7-2.5 1.7-.7 6.2-2.4 10-3.8 3.9-1.4 13.8-5 22-8 8.3-3.1 31-11.2 50.5-18.1 19.5-7 36.3-13.1 37.2-13.6 1-.6 2.2-1 2.8-1 1.5 0 68.5-24.3 80-29 2.5-1 14.6-5.8 27-10.6s24.3-9.5 26.5-10.4c2.2-1 8.7-3.7 14.5-6 5.8-2.4 13.9-5.7 18-7.5 4.1-1.8 10.9-4.7 15-6.5 9.4-4 14.5-6.3 24-10.7 4.1-1.9 10.7-4.9 14.5-6.6 29.5-13.4 69.3-34.5 103-54.7 10.5-6.2 20.4-12.1 22-13 1.7-1 10.7-6.2 20-11.7 29.2-17.2 44.1-25 45.3-23.8.7.7-7.2 8.5-15.3 15-2.8 2.2-5.2 4.2-5.5 4.5-1.8 1.9-80.2 63.1-93.5 73-3.3 2.5-6.2 4.7-6.5 5.1-.3.3-7.9 6.1-17 12.9-9.1 6.9-16.7 12.7-17 13-.5.6-41.1 30.1-58.1 42.2-5.8 4.1-21.3 14.7-34.5 23.4-23 15.3-34 22.3-57.9 36.8-6 3.7-11.7 7.1-12.5 7.7-.8.5-2.2 1.2-3 1.6-.8.3-3.9 2.1-6.8 4-2.9 1.8-5.4 3.3-5.6 3.3-.3 0-3.9 2-8 4.5-4.2 2.5-7.8 4.5-8.1 4.5-.2 0-2.6 1.3-5.2 2.8-2.6 1.6-9.3 5.2-14.8 8.2-5.5 2.9-12.2 6.5-15 8-2.7 1.5-12.6 6.7-22 11.5-9.3 4.8-25.3 13-35.5 18.3-42.6 21.9-82.7 44.9-88.8 50.9-.8.7-2.1 1.7-3 2.2-.9.5-2.5 2.3-3.4 3.9-1.6 2.6-1.6 3.1-.3 3.6 2 .7 1.9 4.1-.1 7.4-1.9 3.2-11.2 10.8-20.9 17-21.2 13.7-28.3 18.4-41 27.5-7.7 5.5-15.3 11.1-17 12.4-1.6 1.3-3.4 2.7-4 3.1-11.2 8.4-26.7 20.6-41.5 32.6-18.2 14.9-20 16.3-25 20.6-1.4 1.2-4.7 4-7.4 6.3s-5.4 4.7-6 5.2c-.6.6-4.5 4-8.8 7.7-7.6 6.6-13.7 12-16.8 14.8-.9.8-3.6 3.3-6 5.4-23.9 21-75.9 72.5-92.5 91.6-18.8 21.7-30 37.7-34.4 49.3-6.2 16.8 1.7 22.8 19 14.4 6.3-3.1 19.3-12.1 23.6-16.3 2.9-2.8 32.7-24.7 43.8-32.1 18.4-12.3 49.2-30.9 71-42.9 3.9-2.1 9.3-5 12-6.6 2.8-1.5 17.4-9 32.5-16.6 51.8-26.1 88.6-42.1 146-63.7 11.3-4.3 27.7-10.9 36.5-14.8 14.3-6.3 50.5-24.2 62.5-30.9 2.5-1.4 7.2-4 10.5-5.8 10.6-5.9 12.8-7.1 24-13.8 26.1-15.5 65.7-40.7 66.3-42.4.2-.4.8-.8 1.3-.8s3.7-2 7.2-4.5c3.4-2.4 8-5.7 10.1-7.2 6.4-4.5 37.1-27.6 37.6-28.3.8-.9 25.4-20.3 28-22 1.2-.8 3.5-2.4 4.9-3.6 13.7-10.7 54-33 83.1-45.9 11-4.9 39.5-15.7 44.3-16.9l2.8-.7-3 4.3c-3.6 5.2-5.1 6.9-19.3 22.3-13.4 14.5-106.3 107.2-156.9 156.6-20 19.6-44.7 43.9-54.9 53.9l-18.5 18.2 14-7.3c7.7-4 18.1-9.4 23-11.9 5-2.6 11.9-6.3 15.5-8.2 3.6-1.9 14.6-7.7 24.5-12.8 30.2-15.5 44.8-23.1 49.3-25.7 5.2-3 6.3-2.5 2.9 1.4-1.4 1.5-3.4 3.7-4.4 4.9-2.2 2.6-13.4 15.3-14.8 16.8-.5.6-5.9 6.7-11.9 13.6-22 25.1-57.8 59.4-89.1 85.3-6.6 5.5-13.1 10.9-14.5 12-13.2 11.2-51.9 38.6-63.9 45.3-15.3 8.5-32.4 22.8-35 29.2-2.7 6.5 4.3 14.1 14.5 15.9 8 1.4 19.3.6 33.4-2.3 4.1-.9 8.2-1.7 9-1.9.8-.1 3.5-.9 6-1.6 2.5-.7 4.7-1.3 5-1.4 13.2-3.7 16.9-4.9 42.5-13.7 54-18.7 82-27 91.7-27 6.9 0 14 2.7 23.7 9.3 14.5 9.6 24.5 22 22 27.1-2.1 4.1-11.2 7.2-14.7 5-2-1.3-2.3-5.1-.7-9 2.6-6.1 1.4-5.7-12 4.4-10.6 7.9-21 13.1-28 13.9-6.3.8-15.2 5-25.8 12.2-4.5 3-8.4 5.8-8.7 6.2-.3.3-3.2 2.8-6.5 5.6-3.3 2.7-6.7 5.7-7.6 6.5-13.2 12.5-33.3 28.5-48.4 38.7-21.9 14.7-48 25.8-79.5 33.8-5.8 1.5-11.2 2.9-12 3.1-.8.2-12.1 2.6-25 5.4-83.4 17.7-129.2 34.9-177.6 66.6-9.5 6.2-34.6 24.4-36.4 26.4-.3.3-2.7 2.3-5.5 4.5-2.7 2.1-5.2 4.2-5.5 4.5-.3.3-5 4.4-10.5 9.1-14.6 12.6-13.9 12-28.4 25.7-7.4 7-32.6 31.8-56 55.2-48.2 48.1-57.5 56.9-78.1 74.4-4.7 4-22.5 18.1-25 19.9-42.2 29.4-70.2 42.2-125.2 57.3-4.9 1.3-9.8 2.5-11 2.8-1.3.2-4.3.9-6.8 1.6-2.5.7-5.2 1.4-6 1.5-.8.2-4.9 1.1-9 2-4.1.9-8.2 1.8-9 2-12.6 2.7-52.9 10.6-61.4 12-1.7.3-9.4 1.6-17.1 3-12.3 2.1-16.4 2.7-27.5 4.1-15.9 2.1-35.2 2.3-41.5.6-10.6-3-14.7-9-13.9-20.6 1-16.1 8.2-22.5 35.7-31.6 16.5-5.5 17.2-5.7 24.8-7.4 12.4-2.8 28.5-5.9 37.4-7 2.8-.4 7.9-1.1 11.5-1.6 3.6-.5 9.4-1.1 13-1.5 3.6-.3 8.1-.8 10-1 5.6-.7 20.3-1.5 36.5-2 15.5-.5 29.1-1.3 33.5-2 1.4-.2 5.4-.7 9-1 3.6-.4 7.4-.9 8.5-1.1 1.1-.2 4-.7 6.5-1 2.5-.3 4.8-.8 5.1-1 .3-.2 2.1-.6 4-.9 6.5-1.2 18.4-5.7 24.1-9.1 7-4.3 19.5-15.8 24.5-22.7 2.1-2.9 4.1-5.7 4.5-6.2 4.6-5.8 11.6-19.8 14.7-29 1.9-5.9 2.6-9.7 3.6-20.3 1.7-17.8 22-38.7 59.8-61.4 12.8-7.6 22-12.4 55.2-28.3 38.8-18.7 63.4-37.4 63.7-48.4.2-5.4-1.6-6.4-10.7-5.8-4.4.3-9.3.9-11 1.2-1.6.4-3.9.8-5 1-10.4 1.5-61.7 14.5-88.5 22.4-53.1 15.7-78.6 23.6-111.5 34.8-21.7 7.4-52.7 18.4-57 20.3-1.1.5-8.5 3.6-16.5 6.8-8 3.3-18.5 7.9-23.5 10.2-18.8 8.8-41.8 18.7-54 23.3-8 3-19.1 5.8-19.9 4.9-1.6-1.5-.2-5.3 4-10.7 12.2-16.1 11.3-23.8-2.8-24.2-9.3-.2-23.1 3.6-41.3 11.5-28.8 12.4-54.2 20.8-72.5 23.8-2.5.4-7.6.6-11.3.6-19.4-.4-28.5-8.7-32.2-29.2-1.3-7.1-1.4-46.4-.1-53 .2-1.4.7-6.1 1-10.5.4-4.4.8-9.1 1-10.5.3-1.4.7-5.2 1.1-8.5.3-3.3.8-6.7 1-7.5.2-.8.6-3.1.9-5 3.8-24.7 13.5-60.8 22.3-83 .4-.8.7-1.7.8-2 1.7-5 12-28.1 17.5-39 8.2-16.5 12.9-25.2 21.9-40.2 21.6-36.4 30.2-52 31.5-57.1.5-2.2.3-2.7-1.2-2.7-3.7 0-20.7 15.7-31.7 29.5-7.1 8.8-22.5 31.8-30.1 45-5.7 9.9-28.6 54.8-31.3 61.5-.8 1.9-2.9 6.6-4.6 10.5-1.8 3.8-4.9 11-7 16-2 4.9-4.3 10.3-5 12-.7 1.6-2.5 6.1-3.9 10-1.5 3.8-3 7.9-3.5 9-.6 1.1-4.2 10.5-8.1 21-9.6 25.4-18.1 45.9-24.1 58-11 22.2-18.4 27.1-31.5 20.9-17.2-8.1-22.3-41-14.3-92.9 2-13.1 5.2-29.6 7.1-37 .5-2.2 1.1-4.7 1.3-5.5.3-1.3 1.5-5.8 6-23 .2-.8 1.6-5.6 3-10.5 1.5-5 2.8-9.5 2.9-10 2.1-10.4 27.2-77.6 36.6-98 1-2.2 3.7-8 5.9-12.8 2.3-4.9 4.1-9.1 4.1-9.3 0-.6 18.3-37 22.5-44.9 5.8-10.6 11.9-21.5 21.3-37.5 10.4-17.8 10.7-18.3 20-35 8.3-14.8 29.4-56.3 33.1-65 1.2-3 2.9-6.9 3.6-8.5 2.5-5.7 5.5-13.5 5.9-15.7 4.7-22.1 4.8-22.9 6.3-38.3 1-10.5 1-51.5 0-63-1-11.4-1.2-12.4-3.3-27.5-1.3-8.5-4.8-23.1-7.4-30.2-3.9-10.8-8.8-17.4-17.8-24.6-13.8-10.9-26.5-11.9-35.6-2.9-5.5 5.6-7.7 12.3-8.2 25.2-.3 10.6.6 16.8 5.1 32.5 1.5 4.9 2.8 9.9 3 11.2.3 1.3.7 3.4 1 4.7 2.7 13.8 2.3 37.5-1.1 62.1-1.5 11-1.6 11.8-3.3 19-.5 2.5-1.2 5.6-1.4 7-1.6 8.6-11.4 45.1-13.4 50-.3.8-.7 1.7-.8 2-1.5 5.5-9.3 27.8-12 34.5-5.8 14.4-10.3 20.5-15.1 20.5-1.3 0-4.5-1.1-7.2-2.4-2.6-1.3-6.6-3.3-8.9-4.5-8.1-4.1-14-2.1-21.1 7.2-4.6 6-8.6 15-10.7 24-2.1 9.2-2.4 11.2-3 22.5-.4 5.7-.8 11.1-1 12-.1.9-.6 4.2-1 7.2s-.9 6.4-1.1 7.5c-.4 1.9-2.1 11.9-2.9 16-.3 2-6.3 30.8-7 33.5-.2.8-.8 3.7-1.5 6.5-.6 2.7-3.8 15.8-7.1 29-3.4 13.2-6.2 24.7-6.4 25.5-.2.8-.8 3.5-1.5 6s-1.4 5.2-1.6 6c-.2.8-.8 3.5-1.5 6-.6 2.5-1.2 5.2-1.4 6-.2.8-1.7 7.1-3.4 14-9.7 38.5-21.4 93.5-26.6 123.9-.3 1.9-.7 3.7-.9 4-.2.3-.7 3.1-1.1 6.1-.3 3-.8 6.2-1 7-.2.8-.6 3.7-1 6.5-.3 2.7-.8 5.7-1 6.5-.2.8-.6 3.7-1 6.5-.3 2.7-.7 6.1-1 7.5-.2 1.4-.7 4.7-1 7.5-.3 2.7-.8 6.8-1.1 9-.7 5.3-1.2 10.4-1.9 19.5-.3 4.1-.8 9.7-1 12.5-.3 2.7-.7 14.9-1 27-.6 26.3-1.3 39.3-3 54.5-1.7 15.4-2.8 23.6-4.1 30.5-.2 1-.6 3.7-.9 6-.3 2.2-.8 4.8-1.1 5.7-.3.9-.6 2.5-.8 3.5-.7 3.5-3.7 14.8-5.1 19.3-.8 2.5-1.6 5.6-1.9 7-.2 1.4-1 4.7-1.6 7.5-.6 2.7-1.4 5.9-1.6 7-.6 2.6-4.2 23-4.9 27.5-.5 3.5-.8 5.8-2 15.5-.3 2.7-.8 6.1-1 7.5-.3 1.4-.7 5.9-1.1 10-.3 4.1-.7 9.1-.9 11-1.4 14.3-2 32-2 60s.9 52.2 2 54c.2.3.7 3.3 1 6.5.9 7.3.8 7 3.4 17.6 5.1 21.6 15.5 47.1 28.4 69.7 6.5 11.2 4 11.2 22.3-.2 8.9-5.6 23.3-14.2 31.9-19.1 10.9-6.2 16.3-9.9 17.4-11.8 19.1-33.7 53.1-68.4 86.8-88.8 17.8-10.8 35.5-18 55.3-22.4 11.2-2.6 12.8-2.9 18-3.9 1.4-.2 8.1-1.6 15-3 10.2-2 27.5-5.3 38.5-7.1 25.5-4.5 53.5-8.9 69-11.1 2.8-.3 5.7-.8 6.7-1 .9-.1 3.8-.6 6.5-1 2.6-.3 5.7-.8 6.8-1 2.1-.4 3.4-.7 14.5-2.4l12-2c3-.5 6.9-1.2 8.5-1.4 12.8-2.2 44.5-8.7 59-12.1 3.9-.9 7.7-1.8 8.5-2 17.5-3.8 65.5-18.7 77.5-24 1.7-.7 7.5-3.1 13-5.3 5.5-2.2 13.2-5.5 17-7.3 3.9-1.8 7.2-3.3 7.5-3.4 1-.2 28.8-14.3 35.5-18 27-14.8 44.6-25.8 99-62 37.3-24.8 64.2-42.2 78.8-51 47.2-28.5 53.9-32.4 67.7-39.7 49-26 64.3-31.2 101-34.3 6.5-.6 55.4-.6 72 0 14.7.5 34.8 1.3 52 2.1 30.6 1.5 73.8.8 123-2 4.7-.3 13.7-.8 20-1.1 6.3-.4 13.3-.8 15.5-1 27-2.1 96.4-2.1 128 0 2.8.2 10.4.6 17 1 15 .8 21.1 1.2 30 1.9 3.9.3 10.2.8 14 1.1 3.9.3 8.6.8 10.5 1 1.9.2 6.4.7 10 1 3.6.3 8.1.8 10 1 1.9.2 6.2.7 9.5 1 10.2 1 13.9 1.4 33.5 4 16.8 2.2 16.9 2.2 37.5 5.7 29.1 4.9 36.9 6.5 53 10.8 21.6 5.7 35.8 12.1 47.9 21.6 4.6 3.6 5.6 5 5.6 7.4 0 5.7-10.4 11.1-29.9 15.5-5.6 1.3-13.3 2.7-17 3.1-3.6.3-6.8.8-7.2 1-1.3.8-28.3 1.8-47.4 1.8-18.8 0-45.1-1-49.6-1.9-1-.2-5.3-.6-9.6-1-12.3-1-21.4-2-27.8-3-1.6-.3-4.8-.7-7-1-6.5-.9-27.6-4.5-32.3-5.6-2.3-.5-5.9-1.2-8-1.5-2-.3-6.4-1.1-9.7-1.9-3.3-.7-8-1.6-10.5-1.9-2.5-.3-5.6-.8-7-1.1-1.3-.2-4.2-.7-6.5-1-2.2-.3-6.6-1-9.7-1.6-3.2-.5-7.9-1.2-10.5-1.5-2.7-.2-5.8-.6-6.9-.8-1.2-.3-4.8-.7-8-1.1-3.3-.3-7.2-.8-8.9-1-1.6-.2-5.7-.6-9-1-3.3-.3-7.8-.8-10-1-2.2-.3-7.4-.7-11.5-1-4.1-.4-9.5-.8-12-1-11.3-1-35.1-1.9-51.5-1.9-33.2 0-47.5 1.8-59.1 7.5-8.8 4.2-10.3 7.7-5 11.2 2.8 1.9 14.2 5.2 22.1 6.6 3.3.6 7.4 1.3 9 1.6 1.7.2 5.5.7 8.5 1.1 3 .3 5.7.7 6 .9.3.2 3.9.6 8 1 4.1.3 9.1 1 11 1.5 1.9.5 5.4 1.1 7.7 1.4 22.9 2.9 73.5 17.5 97.8 28.1 1.7.7 7.9 3.4 14 6 23.7 10.2 62.7 29.7 85.4 42.7 4.6 2.6 8.6 4.8 8.8 4.8.7 0 25.9 15.4 39.8 24.3 18.2 11.7 19.9 12.7 22.1 13.2 40.7 8.3 71.1 17.1 106.9 31 20.1 7.8 50.5 22.2 67.5 32 3.6 2.1 7.9 4.5 9.5 5.5 20.9 12 48.1 30.9 71.3 49.3 7.6 6.1 12.1 9.1 14 9.1 6 .2 21.4 11.8 43.1 32.4 32.9 31.3 56.7 45.5 62.9 37.4 3.2-4.1-1.5-17-11.6-32-3.2-4.8-13.9-19.6-23.8-32.9-9.8-13.2-23.1-31.2-29.4-39.8-6.3-8.6-12.5-16.9-13.8-18.3-1.2-1.5-3.6-4.6-5.3-7-2.6-3.6-2.8-4.2-1.2-4.3 8.6-.6 34.1.2 39.3 1.1 12.5 2.2 27.7 11.3 42.7 25.6 2.8 2.7 12.4 12 21.2 20.7l16.2 15.8-3.5 1.4c-1.9.8-10.8 4.7-19.8 8.6-9 3.9-17.9 7.8-19.8 8.6-4.4 1.9-5.2 1.6 20.3 8.2 30 7.8 39.6 11.6 55.2 22 16.6 11.1 24.5 18.2 59.5 53.1 36.3 36.2 44.3 45.2 45.6 51.6.8 4.2-.8 5.1-10.1 5.8-4.4.3-8.9.7-10 1-1.1.2-2.3.5-2.7.5-1.1.1-3.8 3.2-3.8 4.2 0 1.9 5.5 6.1 11.5 8.9 8 3.7 13.2 5.4 30.9 10.1 32.2 8.6 70 25 104.8 45.4 18.3 10.7 49.8 30.2 49.8 30.7s-1 .8-2.2.9c-1.3 0-3 .2-3.8.4-.8.1-3.3.6-5.5.9-2.3.4-5 .8-6 1-1.1.2-4 .7-6.5 1.1-7.9 1.3-29.9 6.4-38.9 9.1-25.9 7.7-40.8 15.1-37.4 18.5 1.4 1.4 33.5 9.2 54.3 13.3 1.4.2 5 1 8 1.6 3 .6 7.1 1.3 9 1.6 1.9.3 3.8.8 4.1 1 .4.2 2.4.6 4.5 1 2.2.3 6.8 1.2 10.4 1.9 3.6.8 10.6 2.2 15.5 3.1 5 .9 9.9 1.8 11 2 4 .8 31.1 5.6 34 6.1 1.7.2 8.2 1.3 14.5 2.3 6.3 1 13.5 2.2 16 2.5 2.5.3 6.1.8 8 1.1 1.9.2 6 .6 9 .8 12.4.9 37.2 13.7 60.3 31.2l4.7 3.6V0H2533.1l-10.8 13.2zm835 1556.7c-2.3 3.8-15.4 18.1-31.8 34.8-12.5 12.9-23.2 22.6-36 32.5-3.3 2.7-6.5 5.2-7.1 5.7-.6.5-5.7 4.2-11.5 8.3-57.1 40.6-117.2 66.7-131.7 57.2l-2.4-1.6 3.3-3.5c5.2-5.4 18-13.2 47.9-29.3 8.5-4.6 17-9.2 18.8-10.2 1.7-1 4.7-2.6 6.5-3.6 1.7-1 5.8-3.3 8.9-5 3.1-1.8 12.5-7.2 20.8-12.2 8.4-4.9 15.4-9 15.7-9 .2 0 .9-.5 1.6-1 .7-.6 7.1-4.7 14.2-9.1 17.2-10.7 28.4-18.3 43-28.9 15.1-11.1 39.7-27.9 40.8-28 .5 0 .1 1.3-1 2.9zm-392.1 349.4c1.1 1.9-.8 4.2-5.9 6.9-6.8 3.8-14.2 5.5-15.4 3.7-.9-1.5 1.1-5.3 4.5-8.1 4.5-3.9 15-5.4 16.8-2.5zm-16.2 240c3.8.5 7 1.7 7 2.7 0 2.4-20.5 10.6-89.5 35.9-30.6 11.1-39.6 13.4-40.3 9.9-.2-1 1.1-4.8 2.9-8.5 5.5-11.6 7.3-22.1 4.9-30.1-1.6-5.9.8-7.7 14.5-10.1 4.6-.8 94.8-.7 100.5.2zm-783.3 96.3c5.4 3.4 10.2 13.5 10.8 22.6.7 11.4-3.6 22-12 29.9-6.4 5.9-8.3 7.2-16 11-13.4 6.4-27.3 9.2-46.5 9.2-45.9.1-68.3-10-55.8-25.1 3.6-4.4 8.9-8.2 11.4-8.2 2.7 0 6.5 3.3 8.7 7.5 8 15.4 25.6 21.6 44.1 15.6 23.9-7.8 40.5-28 42-51.1.8-12.5 5.4-16.4 13.3-11.4zm1562.3 66.2c0 1.1-4.1 5.3-8.5 8.7-2.1 1.6-6.1 4.8-8.9 7-6.8 5.4-17.4 13-32.6 23.5-25.9 17.9-32.2 20.9-36.2 17.3-2.2-2-.9-5.5 4-10.6 3.6-3.8 14.5-12.7 15.6-12.7.3 0 2.4-1.3 4.8-2.9 5.1-3.5 36.3-20.3 50.2-27.2 9-4.4 11.6-5.1 11.6-3.1zm-405 36.6c9.5 2.9 36.3 11.8 42 13.9 3.2 1.2 32.9 10.6 39.5 12.6 22 6.4 46.7 11.7 56.5 12.2 10.4.5 24.3 6.4 36.5 15.5 7.5 5.6 34.3 30.9 33.5 31.6-1 .9-38 12.8-41.7 13.5-2.1.4-6.6.7-10.1.6-7.8-.1-14.9-3.4-28.9-13.5-12.8-9.2-32.3-22.3-49.8-33.3-7.7-4.8-15.1-9.5-16.5-10.4-1.4-.8-3.7-2.2-5.1-3.1-2.7-1.6-41.8-24.6-47.9-28.3-9.7-5.7-22-14-22-14.8 0-.4.6-.7 1.3-.4.6.2 6.4 2 12.7 3.9zm540 83.8c0 2.4-7.8 10.1-21.5 21.3-2.7 2.2-5.3 4.5-5.9 5.1-.6.5-4.2 3.3-8.1 6.1-27.6 20-72.4 40.3-88.1 40-5.2-.2-6.9-.7-11.5-3.8-9.6-6.4-23.4-21.5-25.3-27.6-.8-2.6 1.4-4 11.4-7.1 6.3-1.9 26.1-6.6 32.5-7.6 16.5-2.7 25.6-4.4 44.5-8.1 1.4-.3 3.7-.7 5.2-1 1.6-.3 5.6-1.2 9-2 3.5-.8 7.7-1.7 9.5-2 1.8-.3 4.3-.9 5.7-1.5 1.5-.5 2.6-.8 2.6-.5 0 .2 1.8-.2 4-1s4-1.2 4-1c0 .2 4.4-1.2 9.8-3.1 11.1-4.1 20.4-7.3 21.5-7.3.4-.1.7.5.7 1.1zm223.8 308.7c2.5.3 1.1 3.1-3.2 6-2.4 1.7-9.1 5.5-14.9 8.6-25.4 13.3-46.5 17-54.4 9.5-1.2-1.1-2.7-3.7-3.2-5.7-.9-3.1-.8-4 .7-5.6 3.8-4.3 17.8-8.8 31.2-10.2 3.6-.3 7.6-.8 9-1 1.4-.2 6.6-.7 11.5-1.1 5-.3 9.1-.7 9.2-.8.3-.2 11.8 0 14.1.3z"/><path d="M1994.5 126.7c-6.8 1.5-18.8 7.9-29.6 16-7.2 5.4-26.8 24.6-38 37.3-6.4 7.3-9.9 11.5-20.7 24.5-17.5 21-42.3 56.2-53 75.1-14.1 24.9-33.1 73.4-45.2 115.9-7.4 25.8-10 35.1-10.4 37-.2 1.1-1.5 6.5-2.9 12-6.2 24.2-12.7 55.4-16.2 77.5-2.1 13.5-2.7 18.4-4 33-.3 3.6-.8 8.1-1 10-1.4 11-1.9 27.3-2 58.5 0 30.4.4 43.7 2 58.5 1.2 11.8 1.8 16.7 2 18.1.2.9.6 4 1 7 .8 7.2 3.2 21.5 5.1 31.4.9 4.4 1.7 8.9 1.9 10 .1 1.1 1 5.4 1.9 9.5 1 4.1 1.9 8.7 2.2 10.2.3 1.5 2.3 9.8 4.5 18.5s4.5 17.6 5 19.8c6.1 24.5 24.5 81.3 41.6 128.5 8.1 22.4 35.4 94.3 37.3 98.5 6.8 14.4 35.6 101.9 39.4 119.5.3 1.4 1.2 5.2 2.1 8.5 2.9 11.5 8 36.4 8.9 44 .3 2.2.8 5 1 6.1.2 1.2 1.1 7.7 2 14.5 3.1 25.5 3.9 37.6 5.1 82.9.9 31.7 2.2 47.5 5.2 62 2.2 11.2 5 15.5 9.5 14.8 4.2-.6 9.3-11.6 11.3-24.8.4-2.5.9-5.4 1.1-6.5.8-4 5.3-34.1 5.9-39 .3-2.8.8-6.4 1-8 .2-1.7.7-5.1 1-7.8.8-7.6 1.6-14 2-17.2.2-1.7.7-5.7 1-9 .3-3.3.8-7.4 1-9 .4-3.3 1.1-9 2.1-18 1-9.2 1-9.4 1.8-20 .4-5.5.9-11.1 1.1-12.5.3-2.2 1.2-14.9 2-30 2.9-52.6 2-145.8-2-196-.2-3-.7-9.3-1-14-1.5-20.6-2.6-34.6-3.1-38.5-.2-1.7-.6-6.6-1-11-.3-4.4-.7-9.4-.9-11-.2-1.7-.8-7.5-1.4-13-.6-5.5-1.4-12.3-1.6-15-.3-2.8-1.5-12.2-2.5-21-1.1-8.8-2.2-18-2.5-20.5-.3-2.5-.8-5.2-1-6-.2-.8-.7-4.2-1-7.5-.3-3.3-.8-6.9-1-8-.2-1.1-.7-4.3-1-7-.3-2.8-.8-5.7-1-6.5-.2-.8-.6-3.8-1-6.5-.3-2.8-1.2-8.8-2-13.5-.7-4.7-1.6-10.3-1.9-12.5-.3-2.2-.8-5.2-1.1-6.8-1-5.3-1.5-8.3-3-17.7-1.3-7.8-8-46.9-10.1-58.5-.3-1.7-1.4-8-2.4-14-1-6.1-2.5-14.8-3.4-19.5-.8-4.7-1.7-10.3-2.1-12.5-.3-2.2-2.1-13.2-4-24.6-3.3-19.4-3.9-23.6-5.1-31.9-.2-1.9-.9-6.2-1.5-9.5s-1.2-6.9-1.4-8c-1-7.6-2.6-18.5-2.9-20.1-.2-1-.7-4.2-1-6.9-.4-2.8-.8-6.1-1.1-7.5-.2-1.4-.7-4.3-1-6.5-.2-2.2-.7-5.6-1-7.5-.4-3.1-.8-6.5-2-16.5-.2-1.7-.6-5.5-1-8.5-.3-3-.8-6.6-1-8-.2-1.4-.7-5.9-1-10-.4-4.1-.9-8.9-1.1-10.5-1.8-15-2.5-61.4-1.1-79 1.2-15.9 5-42.9 8.3-58.5 10.8-51.1 43.3-125.1 78.7-178.8 7.1-10.9 11.3-24.1 8.6-26.7-1.8-1.6-4.8-2.4-7.4-1.8zM1554 768.8c0 1.1 6.5 7.1 19.1 17.9 11.9 10.1 27 26.1 36.9 39.2 1.4 1.8 3 3.8 3.6 4.4 4.5 5 23.4 32.7 34.8 51 9.3 14.9 27.7 47.2 37.5 65.7 12.6 23.9 43.9 87.2 52.6 106.5 1.2 2.7 4.4 9.5 7 15 2.6 5.5 8.9 19.2 14 30.5s10.8 23.9 12.8 28c1.9 4.1 4.7 10.2 6.2 13.5 6.1 13.5 29 63.5 32.5 71 2.1 4.4 5.9 12.5 8.5 18 2.6 5.5 6.3 13.4 8.2 17.5 4 8.5 17.9 36.5 21.2 42.5 4.5 8.1 10.6 16.4 12.8 17.4 2.1 1 2.6.7 4.3-2.2 7-11.4 8.2-41.6 3.5-85.7-.9-7.4-1.9-16-2.5-19-.5-3-1.2-7.5-1.5-10-.3-2.5-1-6.5-1.5-9s-1.2-6.3-1.6-8.5c-.4-2.2-.8-4.5-.9-5-.2-.6-.5-2.6-.9-4.5-.5-3.1-1.4-7.7-3.2-16-2.9-13.6-10.1-40.7-14.4-54.5-1.8-5.5-3.5-11.2-4-12.6-1.3-4.4-9.7-26-13.5-34.9-2-4.7-4.1-9.8-4.8-11.4-2.4-6-22.9-46.2-24.3-47.7-.8-.8-1.4-1.8-1.4-2.1 0-1-10.8-18.6-18.1-29.5-21.6-32.2-45.6-60.3-76.5-89.4-4.9-4.6-28.1-24.2-33.4-28.2-27.7-21-47.7-33.9-78-50.4-21.9-11.9-35-18.5-35-17.5zM2313.9 1030.9c-2.4 1.5-7.1 5.7-10.5 9.2-13.6 14.2-26.6 33.8-59.6 89.4-6.5 11-12.2 20.7-12.8 21.5-1 1.7-6.4 10.9-9 15.5-1.5 2.6-8.1 13.8-11 18.5-.8 1.3-11.5 20-14.6 25.5-.6 1.1-3.5 6-6.4 11-2.8 4.9-6.2 10.8-7.5 13-1.2 2.2-3.1 5.6-4.2 7.5-42.9 75.5-73.8 132.7-83.6 155-.8 1.9-2.7 6.1-4.1 9.3-11.8 25.6-31.2 80.2-38.1 106.7-6.8 26.1-9.3 37.1-12.5 56-.6 3-1.2 6.4-1.4 7.5-.3 1.8-.8 5.6-2.1 19-1.9 19.2-2.4 47-.8 48.6 2.5 2.5 11.9-22.4 31.7-84.6 4.2-13.2 8.3-25.6 9.1-27.5.8-1.9 3.6-9.8 6.4-17.6 4.1-11.8 15-39.9 18.1-46.9.5-1.1 2.1-4.9 3.6-8.5 1.4-3.6 4.2-9.8 6-13.8 1.9-4.1 3.4-7.5 3.4-7.8 0-.8 8.5-18.5 18.1-37.7 15.3-30.7 24.9-47.2 45.8-78.7 5.3-8 10.1-15.3 10.6-16.2.6-1 3.6-5.9 6.9-11 13.8-21.7 17.4-27.6 27.9-45.3 15.6-26.4 33.4-58.1 47.8-85 6.4-12.2 26.9-53.1 29.9-60 1.2-2.8 3.6-7.9 5.2-11.5 6.9-15.1 15.4-37.5 17.4-46.1 1.6-6.6 1.6-13 0-15.4-2.1-3.2-4.2-3.1-9.7.4zM2509.8 1191.7c-4 1-.9 10 4.9 14.5 3.5 2.7 3.7 2.7 4.9.9 3.6-5 2.3-12-2.5-14.6-3-1.5-4.2-1.6-7.3-.8zM2478.3 1212.1c-11 1.3-16.2 5.7-16.4 13.8 0 2.5-.4 5.4-.8 6.5-.7 1.9-.7 1.9-9.1-8.2-6.4-7.7-21.3 3.2-67.6 49.3-37.6 37.4-58.4 61.2-77.7 89-4.2 6-8.1 11.5-8.6 12.1-.5.7-5 7.9-9.9 16-14 23.3-26.5 48.5-36.5 73.9-5.7 14.3-11.2 29.9-15.7 44.5-6.3 20.6-7.9 25.4-12.6 39.5-4.4 13.5-10.8 31.5-12.3 35-.5 1.1-2.5 6.5-4.6 12-2 5.5-4.1 10.9-4.5 12-.5 1.1-3.7 8.7-7 17-3.4 8.2-7.2 17.2-8.5 20-5.2 11.6-6.5 14.5-11 25-7.5 17.6-14.2 35.7-17 45.7-3 11-2.9 10.3-1 12.2 5 4.9 19-6.1 40-31.5 14.5-17.5 43.6-61.2 62.7-93.9 4.3-7.4 8.3-14.2 8.8-15 .6-.8 1.3-2.2 1.7-3 .4-.8 2.8-5.1 5.3-9.5s6.5-11.8 8.9-16.5c2.4-4.7 4.7-9 5.2-9.5.9-1.3 16.8-33.1 21.6-43.5 11-23.6 11.8-25.7 33.8-82 4.8-12.4 9.1-22.9 9.6-23.4.5-.6.9-1.6.9-2.2 0-.7 1.3-4.1 2.9-7.6 1.6-3.5 4.3-9.7 6.1-13.8 5.3-12.3 5.9-13.6 17.5-37.5 6.2-12.7 13.5-27 16.4-31.9 2.8-4.9 5.1-9.1 5.1-9.3 0-.2 3-4.9 6.7-10.6 10.8-16.4 19.3-26.5 25.2-29.6 4.9-2.7 3.7 4.2-3.7 21.9-12.2 29.3-17.2 43.8-17.7 51.7-.5 8.9 2.9 6.4 11.7-8.6 8.2-14.2 24.4-36 36.4-49.1 10.2-11.2 21.3-25 27.7-34.4 6.8-10.1 8.4-14.2 7.8-20.8-.1-2.3-4.1-4.8-8.3-5.4-1.8-.3-3.7-.6-4.3-.8-.5-.1-3.8.1-7.2.5zM2727.5 1782.6c-11.2 2.6-22.9 9.2-32.4 18.3-2.6 2.4-24.5 17.1-25.6 17.1-.3 0-1.8.8-3.3 1.8-3.3 2.3-12.7 7.9-20.2 12-3 1.6-10.2 5.6-16 8.7-5.8 3.2-33.7 17.4-62 31.6-51.1 25.7-59.1 29.8-66.2 34.5-2.1 1.3-4 2.4-4.3 2.4-.3 0-5.2 3.1-10.8 6.9-23 15.4-30.3 26.5-22.2 34.1 1.9 1.8 3.2 2.1 7.7 1.7 6.1-.5 17.7-3.4 19.6-4.9.6-.6 1.2-.8 1.2-.5 0 .5 11.7-4.1 24-9.4 6.2-2.7 42.6-21 51-25.6 3-1.7 9.1-5 13.5-7.3 23.5-12.7 59.8-34.8 89.5-54.7 24.9-16.6 27.3-18.3 41.1-29 24.6-19.1 35.9-32.8 30.6-37.1-2.2-1.8-8.8-2.1-15.2-.6zM2756.9 1981.7c-4.6 1.3-9.7 3-11.4 3.8-1.6.7-7.3 3.2-12.5 5.5-11 4.9-18 8.8-18 10.1 0 1 .7.9 14.8-2.7 20.9-5.3 44.1-16.9 37.3-18.7-1-.2-5.5.7-10.2 2zM2694.6 1989.2c-.9 1.2-1.6 3.1-1.6 4.1 0 6.6-5.7 9.2-24.5 11.2-10.8 1.1-25.9 3.2-33 4.5-2.7.6-6.6 1.2-8.5 1.5-7.5 1-20.6 4-28.1 6.5-16.1 5.2-24.3 11.7-27.7 22-2.6 7.4-2.7 10.9-.8 13.5 1.4 1.9 2 1.8 20.3-4.2 15.3-5.1 42.2-14.3 62.3-21.4 1.9-.6 4-1.5 4.5-1.9.6-.4 2.1-1.1 3.5-1.5 9-2.6 34.2-16.7 38.6-21.6 2.9-3.2 1.8-12.1-1.6-13.9-1.5-.8-2.2-.5-3.4 1.2zM3373.7 2824.6c-.1.1-6 .4-13.2.8-19.2.9-21.5 1.2-45.5 5.1-22.2 3.6-50.6 13.1-71.5 23.8-58.8 30.3-90.2 85.3-89.9 157.7.1 10.5 1.1 27.2 1.9 30 .3.8.7 3.1.9 5 2.4 19.2 12.4 42.8 25.3 60 22.7 30.2 47.8 50.1 87.8 69.5 17 8.3 25.5 11.7 50.5 20.3 66.2 22.7 95.4 35.1 118.7 50.5 5.5 3.7 12.2 9 14.8 11.9 8.9 9.8 13.5 23.3 13 38-.9 26.1-15.7 45-43.5 55.7-8.7 3.4-25.8 7.7-34.5 8.7-3.3.3-6.8.8-7.7 1-3.9.7-24.1 1.7-35.3 1.7-21 .1-40-1.6-60.5-5.3-5.8-1.1-12.3-2.2-14.4-2.6-2.2-.3-5-1-6.3-1.5-1.3-.5-2.3-.7-2.3-.5 0 .2-2-.2-4.5-1-2.5-.7-4.5-1-4.5-.7 0 .3-.6.1-1.2-.4-.7-.6-2.9-1.3-4.8-1.7-9.6-1.8-40.6-12.2-54.4-18.3-5.5-2.4-10.2-4-10.6-3.6-.4.5-4.8 11.4-9.8 24.3-23 59.2-30.2 77.6-31.1 79.1-.5.9-1.3 3.2-1.6 5.1l-.7 3.5 12.9 5c29.6 11.7 69.7 21.4 114.8 27.8 7.7 1.1 10 1.4 15 2 2.8.3 6.8.8 9 1 30.3 3.7 89.3 3.7 114.5 0 1.4-.2 4.5-.7 7-1 4-.5 21.3-3.5 29.4-5 1.6-.4 3.3-.8 3.6-1 .4-.2 2.2-.7 4.1-1 7.7-1.3 25.3-7 37.3-11.9 25.4-10.5 48.9-26.2 64.3-42.7 2.6-2.9 5.5-5.9 6.3-6.8 6.7-7 17.7-23.6 23.5-35.7 14-28.8 19.6-57.7 18.9-95.9-.2-9.4-.5-18.5-.8-20.3-.3-1.8-.8-5.2-1.1-7.5-1.9-13.1-7.4-30.1-13.7-42.2-7-13.5-26.7-36.9-42.3-50.2-17.1-14.7-44.2-30.9-70.5-42.3-4.1-1.8-8.8-3.8-10.5-4.5-1.6-.7-6.8-2.7-11.5-4.4-46.3-16.6-58.9-21.2-74-27.3-35.1-14.1-60-27.9-72.6-40.3-10.8-10.7-15.4-21.8-15.4-37.6 0-19.3 8.9-34.1 26.9-44.8 15.5-9.1 39.5-14.4 66.1-14.4 8.1-.1 34.6 1.2 38 1.7 1.4.3 5.2.7 8.5 1.1 3.3.3 7.1.7 8.5.9 1.4.2 4.5.7 7 1 4.1.6 12.7 2 17.5 3 1.1.2 5.8 1.2 10.5 2.1 11.8 2.4 21.7 5.1 34 9.2 11.4 3.8 12.5 4.3 27.9 11.5 5.7 2.7 10.5 4.8 10.6 4.6.2-.2 5.1-13.1 11-28.8 5.8-15.7 11-29.4 11.5-30.5.5-1.1 3.9-9.9 7.5-19.5s7.7-20.4 9.1-23.9c1.4-3.5 2.3-7 2-7.8-1-2.6-25.2-12.9-46.1-19.6-16.4-5.3-54.6-13.1-74.5-15.2-3-.4-6.8-.8-8.5-1-2.9-.4-11-1.2-19-2-11.4-1.1-60.9-2.6-61.8-1.9zM719.4 2833.8c-.8.7-1.9 3.2-2.6 5.5-.6 2.3-1.4 4.4-1.8 4.7-.3.3-.6.9-.7 1.5-.1.5-4.7 12.7-10.3 27-5.6 14.3-10.7 27.6-11.5 29.5-.7 1.9-6.5 17-12.9 33.5s-13.5 34.7-15.8 40.5c-2.2 5.8-4.6 11.8-5.3 13.5-.7 1.6-3.8 9.7-6.9 18-3.2 8.2-6.2 15.9-6.7 17-.4 1.1-3.6 9.2-6.9 18-3.4 8.8-6.5 16.9-7 18-.5 1.1-1.8 4.2-2.8 7-1 2.7-2.2 5.9-2.7 7-.4 1.1-.9 2.4-1 3-.2.5-1.6 4.4-3.3 8.5-1.7 4.1-4.4 11.1-6.2 15.5-1.7 4.4-3.5 8.9-4 10-1.3 3-42.1 108.3-43.7 113-.8 2.2-2 5.3-2.8 7-.7 1.6-3.1 7.7-5.3 13.5-5.8 15.2-25.9 67-27.3 70.5-.7 1.6-1.3 3.4-1.5 4-.4 1.4-22.2 57.5-23.3 60-1 2.2-2.2 5.4-2.7 7-.2.5-3 8-6.4 16.5-3.4 8.5-7.5 18.9-9 23-1.6 4.1-5.8 14.9-9.3 24l-6.4 16.5 66 .3c36.4.1 66.4-.1 66.8-.5.7-.7 11.7-29.3 32.5-84.3 4.1-10.7 7.8-20.4 8.3-21.5 1.4-3.2 3.7-9.3 7.2-18.8l3.2-8.7 106.5.2 106.4.3 5.4 13.5c3.1 7.4 6.1 15.1 6.8 17 .7 1.9 6.6 16.5 13.1 32.5 6.5 15.9 12.8 31.7 14.1 35 1.2 3.3 4.9 12.5 8.2 20.5l5.9 14.5 70.8.3c56.5.2 70.6 0 70.2-1-.3-.7-3.3-8.5-6.7-17.3-3.4-8.8-6.6-16.9-7-18-.5-1.1-2.9-7.2-5.4-13.5-2.4-6.3-7.8-20.1-11.9-30.5-13.3-34-17.2-44-17.2-44.5-.1-.3-1.1-2.7-2.3-5.4-1.2-2.7-2.2-5.1-2.2-5.5 0-.6-14.4-38-16.1-41.6-.5-1.1-10.6-27-22.4-57.5-11.9-30.5-23.4-60.2-25.7-66-2.3-5.8-6.5-16.8-9.5-24.5-3-7.7-5.8-14.9-6.3-16-.9-1.9-2.8-6.8-15.1-38.8-2.7-7.1-5.5-14.3-6.3-16-.7-1.8-1.9-4.8-2.6-6.7-.7-1.9-2-5.3-3-7.5s-2.5-6.3-3.5-9c-.9-2.8-2.2-6.4-3-8-.7-1.7-4.7-11.8-8.9-22.5-13.2-34.1-22.5-58-29.6-76-3.7-9.6-9.6-24.7-13-33.5-3.4-8.8-9.1-23.2-12.6-32.1-3.5-8.9-6.4-16.5-6.4-17s-.6-2-1.3-3.4c-.7-1.4-2.3-5.4-3.6-9-1.3-3.6-2.7-7-3.1-7.5-.4-.6-1-2.1-1.3-3.5l-.6-2.5h-48.7c-38.7 0-49 .2-50 1.3zm52.3 178.2c1.8 8.5 3.4 16.4 3.7 17.5.2 1.1 2 9.6 4 19 2 9.3 4.1 18.8 4.6 21 .5 2.2 2.1 9.3 3.5 15.8 1.4 6.4 3.2 13.4 4 15.5 1.8 4.6 14.4 38.9 26.4 71.7 5.1 13.7 9.9 26.6 10.6 28.5 2.5 6.1 9.5 25.2 9.5 25.9 0 .3-32.2.6-71.5.6s-71.5-.2-71.5-.6c0-.4 2.3-6.9 5.1-14.5 2.8-7.7 5.4-15 5.9-16.4.4-1.4 2.3-6.8 4.3-12 6.2-16.6 18.8-51.1 22.7-62 2.1-5.8 4.9-13.7 6.4-17.5 1.4-3.9 5.1-18.7 8.2-33 3-14.3 7.3-34.3 9.5-44.5 2.3-10.2 4.5-21 5.1-24 1.2-6.7 1.2-6.8 4-6.6 2 .1 2.4 1.4 5.5 15.6zM1114.8 2838.2c-.2.7-.4 142.4-.4 314.8l.1 313.5 217 .3 217 .2v-117h-150.2c-119.5 0-150.3-.3-150.4-1.3-.1-.6-.2-116-.2-256.2l-.2-255-66.1-.3c-52.4-.2-66.3 0-66.6 1zM1423.1 2839.7c1.4 3.7 3.9 9.4 5 11.5.5 1 .9 2.3.9 2.8 0 .6.9 3 1.9 5.3 1 2.3 4.2 10 7.1 17.2 2.8 7.1 5.6 13.9 6.1 15 .8 1.8 19.8 49.1 28.6 71 4.1 10.5 5.3 13.4 8.2 19.6 1.2 2.5 2.1 5.3 2.1 6.1 0 .8.4 1.8.8 2.3.4.6 1.8 3.7 3.1 7s2.9 7.3 3.6 9c.7 1.6 7.5 18.3 15 37 7.6 18.7 17.1 42.3 21.2 52.5 4.1 10.2 13.1 32.4 19.9 49.5 6.9 17 12.9 31.9 13.4 33 .5 1.1 1.9 4.5 3.1 7.5 1.2 3 2.7 6.8 3.4 8.5.8 1.6 2.2 5.2 3.3 8 3.1 8.2 31.2 77.8 32.6 81 .8 1.6 6 14.5 11.6 28.5s10.9 27.1 11.7 29c1.7 4.1 2.1 5 6.1 15 7.4 18.4 28.5 70.8 29.7 73.5.7 1.6 4.8 11.8 9.1 22.5l7.8 19.5h95.5l20.2-50.5c11.1-27.8 21-52.3 22-54.5.9-2.2 8-19.8 15.7-39 7.7-19.3 24-60 36.2-90.5 12.2-30.5 22.7-56.9 23.5-58.5 2-4.5 31.3-77.7 35.2-87.8 1.8-4.8 3.7-9.5 4.2-10.5.5-.9 2.1-4.9 3.6-8.7 1.6-3.9 3.4-8.4 4.1-10 .7-1.7 13.4-33.4 28.2-70.5 36.8-92 38.1-95.2 39.2-97.5 1.6-3.6 21.3-53 21.8-54.8.4-1.6-3.4-1.7-69.6-1.7h-70l-4.2 11.7c-2.4 6.5-5.3 14.5-6.5 17.8-2.4 6.3-17.8 48.9-26.5 73.5-2.8 8-5.5 15.4-6 16.5-2.6 6.5-4.5 11.6-9.4 25.4-3.1 8.5-5.6 15.8-5.6 16.3s-.9 2.7-1.9 5.1c-1 2.3-3 7.6-4.4 11.7-1.4 4.2-3 8.7-3.6 10-.6 1.4-5.8 15.8-11.7 32-14.8 41.4-27.2 75.6-29.4 81.5-1 2.7-5.8 15.8-10.5 29s-9.2 25.6-10 27.6c-1.2 3-3.3 12.8-5.9 27.4-.3 1.6-.8 4-1 5.1-.2 1.2-.7 3.7-1 5.5-.4 2.7-10.2 56.3-12 65.4-.2 1.1-.6 3.7-1 5.7-.7 3.7-1.9 4.5-4.2 3-.7-.4-2.1-6.6-3.3-13.7-1.2-7.2-2.3-14-2.5-15.1-.2-1.2-.7-3.9-1-6-.4-2.2-1.4-8-2.2-12.9-.9-5-1.7-10.1-1.9-11.5-.2-1.4-.6-3.9-.9-5.5-1.5-9.1-3.7-21.3-4.1-23.5-.2-1.4-1.1-6.3-1.9-11-1-5.7-4.8-17.4-11.9-36-5.8-15.1-14.6-38.5-19.7-52-5-13.5-9.5-25.4-10-26.5-.9-2-3.4-8.6-11-29-6.4-17-12-31.8-13-34-.4-1.1-1.8-4.7-3-8s-2.6-7.1-3.1-8.4c-.6-1.3-3.7-9.6-7-18.5-3.3-8.8-6.4-17-6.9-18.1-.5-1.1-2.3-5.8-4-10.5-4-10.7-47-124.3-48.5-128.3-.7-1.6-5.3-1.7-78.1-1.7H1422l1.1 2.7zM2069.8 2838.2c-.4 1.1-.3 625.9.1 628 0 .5 92.3.8 205 .8h205l-.2-58.3-.2-58.2-138.2-.3c-109.6-.2-138.3-.5-138.4-1.5-.4-8.8 0-139.9.4-140.4.3-.3 56-.6 123.8-.7l123.1-.1v-54c-.1-29.7-.1-55.9-.1-58.3l-.1-4.2h-247l-.1-2.3v-132.5l.1-2.2h272.5l-.1-57.7c-.1-31.8-.2-58.1-.3-58.6-.1-.4-91.2-.7-202.5-.7-161 0-202.5.3-202.8 1.2zM2566.1 3056.2c.1 197.8.4 229.3 2.3 241.3.3 1.9.9 5.2 1.2 7.2 1.8 12.4 7.5 35.4 10.3 41.8.5 1.1 1.6 3.8 2.4 6 2.3 6.1 8.5 18.9 12.3 25.3 20.8 34.9 52.3 60.8 94.4 77.4 9.4 3.8 28.8 10.1 34.3 11.2.7.2 2.3.6 3.7.9 1.4.4 3.6.9 5 1.1 1.4.2 4.6.9 7.2 1.5 11.6 2.7 32.4 5.4 52.3 6.8 19.4 1.4 64.5.7 75.5-1.1 1.4-.3 4.5-.7 7-1 10.9-1.4 14.3-2 28-5.1 70-15.9 117.1-53.1 144.2-114 4-8.9 10.8-29.3 12.3-36.5.2-.8 1-4.4 1.8-8 .9-3.6 2.2-11.2 3.1-17 1.4-9.7 1.9-14.9 3.1-30 .3-3.9.8-393 .5-424.3v-2.7h-125.9l-.1 205.2c-.1 112.9-.3 207.3-.5 209.8s-.7 7-1 10c-6.1 54.5-30.8 84.8-77.5 94.8-13.1 2.8-21 3.6-38.5 3.6-24.9 0-39.8-2.2-60.2-9-12.7-4.1-29.5-15-37.1-23.9-7.2-8.2-8-9.4-12-17.4-5.5-10.7-9.1-21.9-11.8-36.6-.4-2.2-.8-4.6-1-5.4-.5-2.6-1.6-16.4-1.9-24.1-.2-4.1-.4-97.4-.4-207.3l-.1-199.7h-133l.1 219.2zM3831.3 2853.7c-4.1 1.6 3.7 6.5 23 14.4 2.8 1.2 6.6 2.8 8.4 3.6 4.3 1.8 22.2 8.3 23.1 8.3.6 0-1.9-1.7-8-5.5-30.3-18.6-40.6-23.2-46.5-20.8z"/></svg>