<?xml version="1.0" standalone="no"?>
<!DOCTYPE svg PUBLIC "-//W3C//DTD SVG 20010904//EN"
 "http://www.w3.org/TR/2001/REC-SVG-20010904/DTD/svg10.dtd">
<svg version="1.0" xmlns="http://www.w3.org/2000/svg"
 width="1024.000000pt" height="1024.000000pt" viewBox="0 0 1024.000000 1024.000000"
 preserveAspectRatio="xMidYMid meet">
<metadata>
Created by potrace 1.14, written by Peter Selinger 2001-2017
</metadata>
<g transform="translate(0.000000,1024.000000) scale(0.100000,-0.100000)"
fill="#000000" stroke="none">
<path d="M2433 10208 c-11 -13 -38 -59 -59 -103 -36 -74 -39 -86 -38 -160 1
-44 13 -137 28 -206 15 -75 26 -157 25 -200 0 -86 -13 -70 -23 31 -12 114 -28
184 -54 235 -32 66 -70 115 -88 115 -17 0 -17 -3 1 -64 10 -33 15 -88 14 -170
-1 -94 -3 -111 -10 -76 -4 25 -8 85 -8 133 -1 97 -18 151 -50 162 -56 18 -91
-31 -91 -127 0 -56 7 -79 66 -208 36 -80 72 -160 80 -179 l15 -34 -52 42 c-83
66 -99 56 -59 -39 16 -37 32 -87 35 -111 l5 -44 -15 53 c-29 101 -62 142 -117
142 -16 0 -38 -10 -49 -21 -17 -17 -20 -30 -16 -65 3 -30 0 -47 -9 -55 -22
-18 -17 -51 21 -130 30 -65 65 -190 65 -237 0 -9 -13 5 -29 30 -49 76 -93 96
-131 58 -27 -27 -25 -53 9 -135 16 -39 34 -106 41 -150 19 -134 38 -193 117
-365 107 -237 168 -345 200 -357 25 -10 24 3 -8 63 -64 120 -132 370 -128 473
1 26 3 29 6 11 18 -111 39 -194 61 -244 l26 -60 12 90 c11 96 42 224 54 224 4
0 10 -44 13 -97 7 -109 39 -292 45 -253 3 26 60 264 69 290 3 10 10 3 18 -20
13 -39 27 -42 36 -8 9 39 28 -94 39 -278 10 -171 20 -250 43 -336 11 -46 12
-42 13 75 1 119 2 127 57 304 31 101 61 208 66 240 6 31 13 58 15 60 2 2 6
-25 8 -59 3 -35 26 -139 51 -233 26 -93 50 -200 55 -237 8 -65 8 -67 -27 -124
l-36 -57 -7 73 c-4 40 -15 108 -23 152 -8 44 -15 116 -15 160 0 59 -3 79 -12
76 -16 -5 -44 -88 -58 -170 -15 -97 -12 -308 6 -388 15 -66 15 -70 -7 -112
-12 -24 -23 -44 -24 -46 -2 -2 -32 19 -66 47 -58 47 -121 77 -139 66 -4 -2 12
-24 35 -48 27 -28 54 -74 76 -127 l35 -83 -43 -126 c-96 -283 -131 -504 -140
-883 l-6 -268 171 0 c209 0 260 -10 315 -59 123 -110 94 -303 -55 -365 -29
-13 -79 -16 -233 -16 l-195 0 2 -252 3 -253 205 -5 c222 -5 237 -9 292 -67 77
-81 77 -215 0 -296 -55 -58 -70 -62 -292 -67 l-205 -5 -3 -253 -2 -252 186 0
c111 0 202 -5 225 -11 177 -54 203 -301 40 -397 -45 -27 -49 -27 -249 -30
l-204 -3 5 -667 c4 -693 8 -752 53 -964 l15 -73 -28 -25 c-54 -49 -542 -427
-838 -651 -322 -242 -607 -450 -855 -624 -187 -130 -199 -141 -95 -85 369 200
981 598 1668 1088 104 73 190 132 191 130 2 -1 19 -51 40 -111 179 -525 545
-995 1021 -1312 769 -511 1765 -576 2590 -171 275 135 483 284 696 496 147
146 235 252 333 400 302 452 446 948 446 1531 0 99 3 139 12 139 6 0 102 -47
212 -104 111 -57 238 -117 283 -135 116 -44 246 -65 363 -57 117 7 234 35 238
56 4 21 -62 104 -102 130 -21 13 -25 20 -14 20 23 0 160 -72 199 -104 86 -73
78 10 -13 132 l-40 54 94 -51 c84 -45 102 -51 154 -51 60 0 86 11 97 41 9 28
-29 75 -84 103 l-53 26 41 0 c90 0 196 -29 308 -85 135 -67 180 -72 227 -25
27 28 30 35 24 73 -8 49 -30 83 -77 116 l-34 23 30 -6 c17 -4 57 -9 90 -12 57
-6 62 -5 93 24 26 25 32 38 32 72 0 79 -86 128 -265 151 -145 18 -145 32 0 24
183 -10 265 24 265 108 0 77 -64 127 -164 127 -38 0 -89 11 -153 33 l-95 32
99 6 c104 7 130 15 176 57 22 21 27 34 27 75 0 97 -36 120 -189 119 -59 -1
-131 -8 -161 -16 -30 -8 -56 -13 -57 -12 -1 1 25 15 59 30 43 20 83 51 139
108 85 86 93 107 58 152 -18 23 -28 26 -79 26 -70 0 -125 -17 -242 -76 -49
-24 -88 -41 -88 -38 0 3 13 16 29 30 30 25 71 116 71 156 0 18 -4 17 -39 -15
-40 -36 -125 -71 -163 -65 -19 3 -17 6 18 30 38 26 95 108 109 155 6 23 6 23
-83 17 -59 -5 -107 -2 -143 6 l-54 13 40 17 c22 10 48 27 59 38 18 21 18 22
-5 31 -13 5 -41 16 -63 25 -21 9 -53 16 -70 16 l-31 0 33 21 c25 17 43 20 77
16 25 -2 45 -3 45 0 0 9 -106 53 -127 53 -37 0 -26 15 28 39 51 24 74 55 62
87 -5 13 -15 15 -56 10 l-49 -7 28 25 c30 27 23 33 -20 16 -34 -13 -33 -5 2
14 l27 15 -45 0 c-25 1 -79 -8 -120 -19 -77 -20 -128 -24 -168 -14 -21 6 -20
8 16 24 42 19 82 56 82 76 0 15 -92 38 -122 29 -22 -6 -22 -5 -3 7 11 7 40 15
65 18 l45 5 -49 24 -48 24 30 12 c40 17 47 32 20 40 -13 4 -33 17 -46 28 l-22
21 -57 -28 -57 -28 26 34 c13 18 47 45 74 60 l49 28 -35 0 c-19 0 -62 -9 -95
-19 -33 -10 -80 -22 -105 -26 l-44 -7 32 36 c18 20 32 46 32 57 0 20 -4 21
-46 14 -25 -3 -75 -3 -111 1 l-66 7 69 21 c38 13 78 27 89 33 19 11 19 12 -8
22 -16 6 -36 11 -45 11 -15 1 -14 3 3 18 37 31 68 83 57 94 -7 7 -16 6 -30 -1
-20 -11 -20 -10 -5 20 8 17 13 33 10 36 -3 3 -34 -2 -69 -11 -69 -17 -180 -22
-124 -6 32 10 59 32 88 72 l19 27 -78 0 c-84 -1 -150 8 -159 22 -3 5 2 9 10 9
20 0 86 58 86 76 0 10 -13 14 -42 14 -24 0 -97 11 -163 25 -66 14 -150 25
-188 25 l-69 0 26 30 c30 37 49 94 44 135 -3 30 -3 30 -65 29 -50 -1 -76 -8
-130 -35 -92 -46 -92 -46 -57 -8 50 55 87 109 75 109 -7 0 23 38 65 85 l78 85
73 0 73 0 0 81 0 80 186 217 c356 415 670 817 849 1087 511 771 651 1410 370
1692 -60 60 -146 106 -254 135 -112 31 -378 31 -543 0 -246 -46 -496 -137
-848 -306 -29 -13 -87 -87 -130 -166 -17 -30 -28 -44 -25 -32 14 51 55 130 90
176 42 55 41 82 -3 71 -44 -10 -101 -55 -162 -126 -84 -98 -109 -137 -199
-318 -45 -90 -84 -161 -87 -158 -13 12 134 355 182 427 41 60 28 75 -37 43
-57 -27 -108 -72 -135 -119 -32 -54 -40 -57 -18 -6 9 20 18 46 21 57 7 33 -76
-63 -108 -125 -36 -68 -28 -33 19 80 20 46 56 113 80 149 34 49 42 69 35 80
-27 43 -94 4 -155 -90 -17 -27 -33 -49 -34 -49 -7 0 17 54 57 126 44 79 43
103 -2 89 -29 -9 -160 -144 -247 -252 -63 -80 -90 -107 -60 -60 70 106 102
177 81 177 -28 0 -189 -212 -260 -344 -18 -34 -33 -56 -33 -51 1 6 19 44 41
85 100 182 118 221 124 262 7 44 -7 98 -25 98 -5 0 -11 -12 -11 -27 -1 -21 -2
-23 -6 -8 -19 76 -78 54 -105 -40 l-11 -40 -9 41 c-11 52 -31 70 -89 78 -79
11 -108 -34 -109 -169 0 -79 -14 -166 -47 -298 -23 -91 -25 -110 -13 -117 10
-6 6 -10 -16 -15 -79 -17 -81 -20 -109 -209 -10 -60 -28 -151 -41 -203 -13
-51 -35 -135 -48 -185 -45 -179 -44 -222 5 -126 23 46 97 128 144 161 16 12
25 15 19 7 -6 -8 -14 -27 -18 -42 -4 -18 -13 -28 -24 -28 -27 0 -57 -37 -87
-103 -33 -76 -66 -117 -140 -175 l-60 -47 36 45 c76 94 92 158 63 252 -12 42
-25 63 -41 71 -31 14 -68 -12 -83 -60 -20 -63 -77 -158 -122 -205 -24 -23
-100 -82 -171 -130 -120 -82 -129 -86 -158 -76 -16 6 -55 8 -85 6 -53 -5 -55
-4 -48 16 5 12 9 93 9 181 1 88 4 170 9 182 9 27 0 44 -19 37 -19 -8 -83 -103
-101 -150 l-15 -39 4 47 c3 33 21 77 61 149 31 56 56 106 56 111 0 5 -14 1
-30 -7 l-31 -16 7 28 7 28 -34 -26 c-33 -25 -112 -69 -124 -69 -4 0 2 12 13
28 23 31 48 109 39 119 -4 3 -31 -4 -62 -15 l-55 -21 50 60 c27 33 57 74 66
91 14 27 33 138 23 138 -2 0 -29 -7 -59 -15 -66 -18 -69 -18 -50 -2 24 20 79
105 86 133 l7 26 -54 -7 c-30 -4 -73 -18 -96 -31 l-42 -24 24 42 c38 67 35 74
-35 70 -53 -3 -63 -7 -87 -35 -14 -18 -24 -25 -21 -17 3 8 13 39 22 67 10 29
22 55 27 58 18 12 8 25 -18 25 -33 -1 -59 -19 -85 -57 -39 -61 0 86 51 188 46
92 40 108 -16 48 -45 -48 -48 -50 -57 -30 -7 17 -4 26 18 46 14 13 30 35 35
48 8 21 21 25 123 41 153 24 405 31 553 17 232 -23 570 -106 752 -187 l52 -23
7 34 c11 60 6 66 -104 107 -334 126 -721 183 -1072 159 -143 -10 -363 -41
-405 -57 -13 -5 -16 -1 -13 22 3 27 1 29 -32 26 -19 -2 -58 -16 -86 -31 l-52
-28 14 33 c8 18 14 47 14 65 0 26 -3 30 -17 24 -10 -4 -47 -19 -83 -32 -36
-14 -72 -31 -81 -39 -24 -22 -28 -17 -18 23 8 37 1 90 -22 161 l-11 32 -43
-31 c-23 -17 -48 -41 -55 -54 -21 -40 -30 -19 -30 72 l0 85 50 49 c28 27 50
54 50 60 0 15 -53 4 -102 -21 -37 -19 -52 -14 -25 9 25 20 52 90 39 103 -7 7
-16 8 -24 2 -7 -6 -26 -16 -43 -23 l-30 -13 27 29 c15 15 30 40 33 56 l7 27
-33 -31 c-18 -16 -62 -49 -98 -73 -36 -23 -93 -65 -127 -93 l-61 -51 -6 105
c-4 69 -2 113 5 126 l11 21 -32 -21 c-63 -39 -118 -92 -135 -128 -10 -20 -19
-35 -21 -33 -2 2 7 46 21 98 29 108 27 164 -8 257 -17 46 -23 54 -28 38 -4
-11 -13 -20 -20 -20 -7 0 -22 -25 -32 -55 -10 -30 -23 -66 -28 -80 -4 -14 -9
-21 -9 -16 -1 5 -8 3 -16 -4 -13 -11 -14 -10 -9 4 12 31 -19 16 -87 -45 l-68
-60 -3 48 -3 47 -68 -127 c-38 -70 -71 -127 -74 -127 -3 0 -2 82 2 183 3 100
7 218 7 262 1 84 -17 164 -33 148 -6 -6 -23 -61 -40 -124 -16 -63 -31 -118
-34 -124 -11 -25 10 99 31 183 13 51 24 103 24 117 0 65 -93 89 -143 37 -15
-15 -30 -43 -33 -62 -4 -19 -14 -48 -22 -65 -9 -16 -23 -64 -32 -105 l-17 -75
-6 68 c-7 71 -51 169 -82 181 -25 9 -64 -12 -85 -46 -11 -18 -20 -28 -20 -22
0 21 38 120 64 164 30 52 33 86 10 118 -21 31 -83 31 -111 0z m6310 -827 c139
-37 244 -108 301 -205 49 -84 71 -180 70 -311 -3 -393 -250 -933 -717 -1561
-175 -236 -571 -721 -751 -919 l-45 -50 -1 76 c0 105 -18 316 -35 424 l-14 89
51 66 c460 589 668 993 618 1200 -24 101 -122 169 -242 170 -60 0 -68 2 -68
19 0 62 -35 67 -93 12 -52 -49 -121 -103 -212 -166 l-70 -48 35 39 c20 21 81
86 136 144 55 58 120 132 145 165 75 98 110 175 74 161 -11 -4 -15 2 -15 24 0
22 -5 30 -18 30 -22 0 -46 -25 -100 -107 -37 -54 -156 -172 -197 -196 -32 -17
58 118 152 231 29 35 53 70 53 78 0 25 -47 15 -95 -21 -55 -42 -47 -22 19 52
51 57 57 80 22 89 -67 16 -237 -110 -348 -259 -32 -43 -58 -76 -58 -73 0 13
112 253 133 285 14 20 28 51 32 69 6 30 5 32 -19 32 -55 0 -141 -102 -276
-324 -67 -112 -155 -236 -166 -236 -6 0 0 12 36 65 38 56 63 107 114 233 49
120 140 290 193 359 18 24 33 51 33 62 0 13 28 31 109 69 287 135 548 217 801
252 107 15 324 5 413 -19z m-6566 -203 c-3 -8 -6 -5 -6 6 -1 11 2 17 5 13 3
-3 4 -12 1 -19z m-113 -157 c7 -42 11 -78 9 -81 -7 -8 -23 25 -23 50 0 21 -7
56 -35 175 -3 11 4 0 15 -24 12 -25 27 -79 34 -120z m4263 -32 c-8 -19 -22
-43 -31 -54 -9 -11 -4 6 11 37 29 60 44 74 20 17z m-4247 -89 c0 -5 -4 -10
-10 -10 -5 0 -10 5 -10 10 0 6 5 10 10 10 6 0 10 -4 10 -10z m38 -260 l0 -55
-9 40 c-4 22 -8 65 -7 95 l0 55 9 -40 c4 -22 8 -65 7 -95z m5958 -331 c95 -46
134 -127 116 -241 -36 -214 -196 -500 -531 -948 l-116 -154 -13 49 c-47 176
-76 264 -84 259 -6 -4 -5 3 2 16 8 16 9 30 1 52 -11 32 -7 54 5 24 9 -23 27
-20 55 10 13 14 92 77 174 140 83 62 170 130 195 150 25 20 64 45 87 55 48 20
78 59 68 88 -9 28 -61 43 -105 31 -19 -6 -36 -10 -36 -10 -1 0 29 30 68 68 85
81 130 145 126 175 -4 32 -39 33 -76 2 -18 -15 -33 -21 -37 -15 -12 19 -50 10
-122 -30 -40 -22 -73 -37 -73 -34 0 10 128 87 208 125 63 30 82 44 82 59 0 11
-8 23 -17 26 -10 3 -26 10 -35 15 -27 14 -62 11 -125 -12 -64 -24 -94 -43
-168 -104 -75 -63 -118 -85 -55 -29 119 106 173 160 202 206 l31 48 66 0 c45
0 78 -6 107 -21z m-5078 -346 c-21 -72 -6 -721 18 -803 l8 -25 7 25 c4 14 8
41 8 60 2 53 17 19 34 -77 13 -79 13 -82 -6 -87 -18 -4 -19 -10 -13 -81 8 -89
47 -251 71 -292 9 -15 14 -20 11 -10 -15 47 -46 255 -46 301 l1 51 39 -105
c22 -58 45 -133 51 -167 11 -64 24 -81 32 -40 2 12 5 0 7 -28 l2 -50 15 73 c9
40 19 70 23 65 17 -19 110 -350 110 -390 0 -3 -33 25 -72 62 -40 37 -99 80
-131 97 l-59 29 42 -43 c61 -62 110 -140 170 -274 85 -189 157 -333 164 -327
3 4 6 41 6 84 0 86 -33 209 -76 288 -19 34 -24 59 -24 111 0 36 3 70 7 73 3 4
26 -46 50 -110 23 -65 52 -141 63 -168 43 -108 62 -253 37 -277 -8 -7 -12 -21
-9 -31 4 -17 3 -18 -17 -5 -18 11 -23 11 -31 -2 -13 -21 -12 -47 5 -113 19
-71 19 -67 -4 -67 -26 0 -35 -31 -22 -75 11 -42 -1 -145 -25 -204 -14 -35 -19
-40 -39 -35 -27 7 -45 -18 -45 -63 0 -15 -12 -71 -25 -123 -46 -172 -65 -281
-65 -364 0 -44 -7 -103 -16 -131 -21 -70 -29 -209 -15 -275 13 -61 53 -130 76
-130 8 0 19 17 25 41 13 48 78 123 130 149 39 20 102 34 230 51 184 24 260 54
429 169 131 91 161 100 320 100 53 1 116 5 141 10 51 10 67 1 51 -27 -9 -19
-5 -21 77 -33 48 -7 107 -19 132 -27 71 -24 228 -116 307 -181 l72 -59 -67
-65 c-132 -128 -625 -574 -977 -885 -88 -77 -177 -148 -199 -157 -21 -9 -68
-43 -105 -76 -39 -34 -89 -67 -117 -77 -39 -15 -53 -26 -67 -56 -17 -36 -84
-89 -131 -103 -28 -8 -157 -98 -215 -149 -25 -23 -59 -47 -76 -54 -28 -12
-134 -81 -240 -156 -27 -19 -78 -44 -113 -56 -35 -12 -102 -41 -149 -65 -47
-24 -105 -46 -130 -50 -28 -4 -57 -17 -77 -34 -17 -15 -47 -35 -67 -43 l-37
-15 -6 30 c-3 17 -6 298 -6 624 l0 594 149 0 c179 0 230 13 301 77 160 144
128 394 -63 495 -38 21 -59 23 -214 26 l-173 4 0 168 0 168 163 4 c154 3 165
4 219 31 171 84 224 296 112 449 -71 98 -155 128 -361 128 l-133 0 0 164 0
164 158 4 c155 4 160 4 225 36 110 55 170 151 169 272 0 82 -24 140 -81 203
-71 76 -118 91 -310 95 l-163 4 5 236 c7 297 27 432 104 700 20 67 38 122 42
122 3 0 22 -28 41 -62 33 -58 232 -278 251 -278 5 0 0 18 -11 40 -11 21 -20
45 -20 52 0 8 -9 31 -20 53 -11 22 -20 47 -20 56 0 31 -79 230 -110 275 -33
49 -37 71 -17 97 11 16 15 13 37 -23 42 -68 49 -51 28 68 -11 66 -11 70 15
113 l27 44 0 -35 c1 -30 4 -25 24 37 13 40 34 89 46 110 23 39 131 193 136
193 1 0 -2 -17 -8 -37z m3259 -77 c-31 -94 -31 -94 -63 -93 -46 1 -66 -21
-118 -127 -25 -50 -57 -104 -71 -121 l-26 -30 25 52 c14 28 29 71 32 95 6 36
22 59 105 151 55 60 107 122 116 138 32 53 32 30 0 -65z m184 47 c-5 -10 -37
-58 -70 -108 -34 -49 -61 -97 -61 -107 0 -14 -4 -14 -25 -5 -39 19 -42 55 -6
91 30 29 31 30 31 8 0 -45 24 -26 84 66 26 39 50 72 52 72 3 0 0 -8 -5 -17z
m174 -142 c-14 -29 -41 -75 -59 -104 -18 -29 -41 -67 -51 -86 l-17 -34 57 32
c31 18 59 30 62 27 3 -3 -2 -17 -11 -31 -9 -14 -14 -25 -12 -25 3 0 38 25 78
55 40 30 77 55 83 55 5 0 -19 -29 -54 -64 l-63 -64 13 -36 c20 -54 2 -60 -58
-19 -43 28 -58 33 -83 28 -39 -9 -146 -89 -230 -173 -63 -62 -197 -172 -174
-142 6 8 35 44 63 80 29 36 62 82 73 104 11 21 67 86 125 145 58 58 126 133
151 166 51 67 124 147 130 141 2 -2 -8 -27 -23 -55z m-3431 -486 c32 -149 32
-169 2 -83 -13 37 -39 92 -58 123 l-34 56 20 80 21 80 12 -68 c6 -37 23 -122
37 -188z m3570 49 c-42 -76 -91 -158 -111 -181 -19 -24 -31 -43 -26 -43 5 0
44 29 88 65 78 63 100 74 74 37 -39 -54 -78 -89 -114 -100 -38 -11 -121 -68
-257 -177 l-63 -50 62 75 c34 41 89 106 122 145 33 38 76 100 95 138 34 64
197 257 204 238 1 -4 -32 -70 -74 -147z m-3385 -1 c-26 -61 -49 -164 -49 -225
0 -48 0 -48 -33 -48 -18 0 -38 -5 -45 -12 -9 -9 -12 -7 -12 9 0 26 37 148 57
188 16 32 91 135 98 135 2 0 -5 -21 -16 -47z m297 -76 c-9 -57 -16 -109 -16
-115 0 -6 -10 -16 -21 -23 -28 -14 -69 -19 -69 -7 0 13 50 110 71 137 25 32
25 55 0 48 -19 -5 -19 -4 -3 31 l17 35 6 -29 5 -29 8 33 c16 67 17 21 2 -81z
m3732 -50 c-15 -12 -14 -21 13 -117 69 -244 99 -468 99 -732 l0 -176 -167 -4
c-159 -3 -171 -5 -219 -30 -52 -27 -112 -86 -137 -135 -13 -25 -44 -52 -86
-78 -9 -5 -6 4 7 22 20 28 48 121 39 130 -8 7 -62 -18 -84 -39 l-23 -21 0 22
c0 12 7 36 16 52 15 30 15 31 -6 24 -18 -6 -20 -3 -16 22 7 35 48 70 101 85
59 17 62 25 14 38 -61 17 -183 7 -240 -18 -32 -14 -50 -17 -57 -10 -11 11 -94
-21 -124 -49 -17 -15 -18 -15 -18 1 0 18 20 68 46 119 l15 27 -48 0 c-26 0
-66 -5 -88 -10 -22 -5 -40 -8 -42 -7 -1 2 9 27 24 57 19 39 26 72 28 124 3
105 51 185 159 267 18 13 19 13 7 -8 -20 -39 5 -26 76 38 37 33 100 82 138
108 111 75 336 199 457 252 61 27 113 51 116 54 3 3 8 5 11 5 3 0 -1 -6 -11
-13z m-488 -10 c0 -39 -64 -81 -114 -75 -42 5 -34 21 30 55 64 35 84 40 84 20z
m-3301 -492 c19 -158 28 -348 21 -415 l-7 -65 -1 53 c-1 29 -13 128 -27 220
-24 154 -25 203 -9 281 8 36 11 24 23 -74z m141 -426 c-17 -40 -18 -52 -8 -68
10 -17 9 -25 -11 -51 -14 -20 -32 -73 -47 -137 -13 -58 -27 -109 -30 -112 -12
-11 4 152 21 214 8 33 32 114 53 180 37 119 37 120 40 71 2 -33 -4 -65 -18
-97z m110 -256 c-18 -36 -38 -67 -46 -70 -8 -3 -11 -10 -7 -16 3 -6 1 -7 -5
-3 -18 11 -15 28 28 143 56 148 54 146 58 74 3 -56 -1 -73 -28 -128z m3540 70
c-1 -5 -27 -37 -59 -73 -52 -57 -61 -63 -75 -51 -16 14 -94 12 -173 -5 -47 -9
-42 11 16 67 35 33 62 50 93 57 52 12 198 15 198 5z m-3274 -61 c-8 -16 -22
-34 -30 -41 -26 -21 -20 18 6 46 29 32 42 29 24 -5z m-369 -98 c-2 -3 -14 -6
-25 -9 -20 -3 -20 -2 -5 33 24 57 28 60 31 18 2 -21 1 -40 -1 -42z m-140 -6
c-2 -13 -4 -3 -4 22 0 25 2 35 4 23 2 -13 2 -33 0 -45z m-58 -225 c1 -60 -12
-75 -29 -33 -11 27 -7 100 8 125 9 15 20 -33 21 -92z m105 -130 c-20 -84 -52
-148 -146 -293 -30 -47 -14 -34 118 97 85 84 154 150 154 148 0 -3 -25 -42
-56 -87 -64 -93 -94 -150 -133 -252 l-28 -73 101 104 c55 58 103 109 104 114
2 5 8 9 12 9 5 0 -6 -26 -24 -57 -18 -32 -50 -88 -70 -125 -20 -37 -52 -88
-71 -113 l-35 -46 32 17 c18 9 79 48 136 86 56 38 102 65 102 61 0 -17 -117
-163 -154 -192 -21 -17 -33 -31 -25 -31 40 0 190 59 270 106 50 30 94 54 97
54 14 0 -107 -114 -168 -159 -50 -38 -218 -131 -234 -131 -2 0 -1 11 2 25 5
30 -6 32 -57 5 -22 -11 -57 -22 -78 -26 -56 -9 -67 9 -60 94 9 94 30 156 78
235 39 65 45 84 24 69 -37 -26 -100 -141 -134 -243 -27 -82 -42 -104 -66 -95
-16 6 -17 16 -13 89 10 146 60 263 188 438 30 41 71 103 90 137 37 66 55 79
44 35z m316 -753 c-17 -32 -129 -148 -163 -169 -36 -22 -248 -67 -271 -58 -9
4 -16 15 -16 26 0 28 81 52 188 57 89 4 136 21 153 57 9 17 105 106 117 107 1
0 -2 -9 -8 -20z m-130 -37 c0 -9 -10 -27 -22 -40 -16 -18 -32 -23 -69 -23 -48
0 -82 21 -58 36 6 4 16 0 21 -10 19 -34 98 -8 98 34 0 9 3 20 6 23 10 10 24
-2 24 -20z m1620 -551 c0 -8 -203 -170 -664 -529 -158 -124 -268 -203 -281
-203 -12 0 -40 12 -61 26 -33 23 -43 25 -67 16 -21 -8 -34 -8 -46 0 -27 16
-64 2 -84 -32 -13 -21 -26 -30 -43 -30 -14 0 -34 -5 -45 -10 -10 -6 -19 -9
-19 -7 0 3 96 90 212 193 227 202 567 510 763 692 l120 112 108 -110 c59 -60
107 -113 107 -118z m74 -53 c4 6 22 -7 41 -27 32 -34 34 -35 35 -14 0 12 4 22
10 22 16 0 60 -23 60 -32 0 -4 14 -8 30 -8 36 0 50 -13 138 -132 139 -187 296
-312 488 -389 53 -21 143 -69 202 -106 l107 -68 -52 -5 c-29 -3 -58 -11 -64
-17 -14 -14 -14 -14 81 -38 61 -15 174 -72 230 -116 l25 -19 -30 10 c-16 6
-34 15 -40 20 -24 20 -178 81 -198 78 -16 -2 0 -15 64 -50 47 -25 124 -71 170
-101 160 -104 235 -134 409 -162 52 -9 118 -21 145 -28 l50 -12 -70 -5 c-38
-3 -63 -8 -55 -11 8 -4 54 -18 103 -33 l87 -27 0 -192 c0 -106 -7 -248 -15
-317 -13 -116 -50 -318 -59 -328 -2 -2 -13 1 -24 7 -12 6 -34 11 -51 11 -20 0
-47 13 -77 35 -25 19 -54 35 -64 35 -10 0 -42 23 -71 50 -30 28 -65 53 -79 57
-14 3 -45 25 -70 48 -25 24 -67 56 -94 72 -35 20 -53 38 -61 62 -19 58 -80 81
-108 41 -13 -18 -15 -17 -52 31 -21 27 -46 54 -57 60 -11 6 -26 25 -33 43 -15
36 -81 100 -114 111 -13 4 -25 21 -33 48 -9 30 -33 62 -83 112 -39 39 -88 91
-109 117 -31 38 -46 48 -89 59 -29 6 -61 18 -72 25 -11 8 -27 14 -36 14 -9 0
-22 7 -29 15 -7 8 -20 15 -29 15 -9 0 -37 18 -61 41 -36 32 -50 39 -72 35 -23
-5 -28 -2 -28 14 0 11 -17 39 -39 63 -21 23 -45 56 -54 72 -8 17 -24 39 -36
49 -12 11 -21 29 -21 42 0 38 -18 74 -43 83 -13 5 -39 25 -59 45 -20 20 -44
36 -55 36 -10 0 -25 12 -34 28 -11 20 -34 33 -82 50 -80 27 -101 20 -117 -37
-7 -27 -21 -46 -43 -60 -17 -11 -40 -26 -49 -33 -14 -10 -21 -9 -40 9 -13 12
-36 25 -53 29 -16 4 -41 15 -54 26 -13 10 -36 18 -51 18 -15 0 -49 9 -74 21
l-47 21 -35 -24 c-20 -13 -38 -36 -42 -53 -5 -18 -16 -31 -28 -33 -10 -2 -28
-12 -39 -21 -20 -18 -102 -48 -109 -40 -2 2 190 156 426 341 417 327 431 337
453 322 15 -10 25 -11 29 -5z m-130 -525 c33 -11 50 -24 57 -41 5 -13 24 -30
42 -38 19 -8 41 -25 50 -39 9 -13 26 -27 37 -31 12 -4 26 -19 31 -33 16 -43
80 -140 127 -192 23 -26 42 -54 42 -64 0 -26 38 -58 61 -51 15 5 28 -3 52 -28
18 -20 44 -38 59 -42 15 -4 32 -13 39 -21 6 -8 19 -14 28 -14 9 0 34 -9 56
-20 22 -11 49 -20 62 -20 24 0 48 -22 94 -84 16 -21 46 -51 66 -66 47 -35 76
-74 92 -123 9 -25 23 -42 44 -53 35 -18 97 -73 97 -86 0 -4 -131 -8 -292 -8
l-292 0 -28 27 c-32 30 -36 53 -10 53 26 1 55 29 87 87 33 58 30 73 -9 48 -21
-14 -29 -15 -41 -5 -8 7 -15 20 -15 30 0 9 -9 25 -20 35 -11 10 -20 25 -20 34
0 9 -11 -4 -24 -29 -37 -73 -55 -66 -95 37 -93 239 -253 507 -373 626 -64 63
-82 99 -61 120 8 9 1 10 57 -9z m-479 -24 c17 -11 40 -20 52 -20 25 0 117 -45
156 -77 36 -29 80 -30 106 -2 l20 22 28 -31 c43 -46 109 -133 167 -219 52 -78
186 -332 186 -352 0 -16 -51 -13 -69 3 -20 18 -102 47 -113 40 -4 -3 -8 -11
-8 -19 0 -26 -30 -25 -44 3 -14 28 -81 72 -109 72 -10 0 -19 17 -27 50 -7 28
-15 50 -20 50 -4 0 -20 10 -35 22 -16 12 -38 22 -49 23 -26 0 -29 11 -14 52
10 26 21 36 60 49 26 8 51 13 56 10 4 -3 21 3 36 13 18 12 24 21 16 26 -8 5
-7 12 5 25 15 16 14 18 -12 25 -54 16 -127 14 -145 -2 -11 -9 -26 -13 -41 -9
-13 3 -32 0 -43 -8 -33 -22 -74 -28 -80 -12 -3 9 -14 18 -25 21 -14 5 -19 16
-20 43 -1 21 -3 29 -6 17 -8 -31 -44 -65 -70 -65 -15 0 -37 -14 -58 -37 -19
-21 -36 -35 -39 -32 -3 2 0 22 5 44 24 93 25 85 -13 68 -22 -10 -39 -28 -49
-52 -10 -22 -30 -46 -52 -59 -39 -22 -55 -15 -37 17 5 11 10 30 10 43 0 13 7
33 15 44 37 49 -7 56 -52 8 -12 -13 -24 -24 -27 -24 -13 0 -36 13 -36 21 0 13
77 59 99 59 11 0 22 4 25 9 3 5 18 12 33 16 14 3 38 15 51 26 14 10 33 19 43
19 19 0 52 40 47 58 -3 9 29 41 42 42 3 0 19 -9 35 -20z m-540 -132 c28 13 69
2 78 -21 7 -18 -83 -108 -109 -109 -10 0 -34 6 -53 13 -31 13 -34 13 -48 -8
-9 -13 -21 -23 -28 -23 -7 0 -20 -11 -29 -25 -10 -15 -26 -25 -40 -25 -13 0
-30 -10 -38 -22 -17 -25 -48 -19 -48 10 0 10 -6 26 -13 36 -11 16 -9 22 14 47
15 16 36 29 48 29 26 0 71 20 71 32 0 5 9 6 20 3 31 -10 57 3 80 40 19 31 23
33 46 23 18 -8 31 -8 49 0z m-531 -320 c-3 -5 -11 -5 -17 -2 -7 4 -8 3 -4 -2
5 -5 25 -9 45 -10 49 -3 52 -4 22 -14 -24 -8 -24 -8 7 -9 25 -1 30 2 26 17 -3
12 1 19 10 19 9 0 14 -8 12 -19 -2 -10 2 -18 10 -18 9 0 12 6 9 15 -8 21 13
19 25 -2 10 -17 10 -17 11 -1 0 12 7 17 23 16 12 0 29 1 37 3 9 3 14 -2 14
-13 -1 -10 1 -17 5 -16 3 0 14 0 24 -1 35 -2 -9 -31 -47 -31 -20 0 -36 -4 -36
-10 0 -5 -11 -10 -25 -10 -27 0 -32 -9 -13 -28 7 -7 8 -12 2 -12 -17 0 -12
-28 6 -45 16 -14 17 -14 15 8 -2 14 2 24 10 24 7 0 11 -6 8 -12 -3 -9 6 -12
26 -10 17 1 28 -1 25 -6 -3 -5 -17 -10 -32 -10 -24 -2 -24 -2 -5 -6 23 -4 23
-5 -8 -43 -31 -38 -55 -52 -114 -65 -16 -4 -53 -29 -82 -56 -29 -28 -68 -56
-86 -64 -19 -8 -39 -21 -46 -29 -7 -8 -26 -18 -42 -21 -25 -6 -46 -27 -74 -74
-5 -8 7 -3 26 11 19 15 48 30 64 34 17 4 39 13 50 20 11 8 32 14 47 14 37 0
95 28 141 67 20 18 43 33 50 33 8 0 22 9 32 20 10 11 24 20 32 20 7 0 35 23
62 52 43 46 49 56 45 88 -2 19 -2 29 2 23 8 -18 27 -16 20 2 -3 8 -1 15 4 15
16 0 12 -30 -4 -36 -8 -3 -13 -11 -10 -18 3 -7 -8 -46 -24 -87 -16 -41 -46
-125 -66 -186 l-38 -113 -356 0 c-212 0 -351 4 -343 9 8 5 52 22 99 37 76 26
92 36 146 90 53 54 142 164 132 164 -2 0 -30 -16 -62 -35 -33 -20 -70 -38 -84
-42 -14 -3 -34 -11 -45 -17 -11 -6 -34 -15 -51 -22 l-31 -11 50 69 c63 86 177
206 177 186 0 -11 12 -15 48 -14 28 0 46 -4 45 -10 -1 -6 4 -11 12 -11 7 0 11
5 9 11 -3 7 12 11 41 10 32 0 49 4 55 15 8 14 9 13 10 -4 1 -20 1 -20 15 -1 8
11 15 14 15 8 0 -7 10 -12 23 -12 18 0 19 2 7 10 -13 8 -13 10 2 10 9 0 19 -8
21 -17 4 -14 5 -12 6 5 1 15 -5 22 -17 22 -26 0 -23 30 2 31 20 1 20 1 1 7
l-20 5 20 8 c17 7 16 8 -7 8 -27 1 -31 -4 -31 -41 0 -10 -6 -18 -13 -18 -7 0
-11 8 -9 20 2 13 -2 20 -11 20 -8 0 -12 -4 -9 -10 3 -5 -2 -10 -12 -10 -11 0
-25 -6 -32 -12 -11 -10 -13 -10 -7 0 5 7 1 12 -9 12 -9 0 -13 -4 -10 -10 3 -5
1 -10 -4 -10 -6 0 -11 6 -11 14 0 9 12 16 31 18 21 2 34 10 39 24 6 14 4 21
-5 21 -8 0 -14 -3 -13 -6 3 -26 -3 -33 -17 -21 -8 7 -12 17 -8 24 3 6 0 5 -8
-2 -12 -11 -12 -14 1 -22 11 -7 6 -10 -20 -10 -26 0 -31 3 -20 10 13 8 12 10
-2 10 -10 0 -18 -4 -18 -10 0 -5 -12 -9 -27 -9 -24 2 -25 2 -5 6 12 2 22 9 22
14 0 5 11 9 23 9 14 0 24 6 24 15 0 8 -7 15 -14 15 -8 0 -11 -4 -8 -10 3 -5
-2 -10 -12 -10 -16 0 -16 1 -1 16 9 9 28 17 43 17 16 0 24 4 22 11 -3 7 5 12
18 12 13 0 21 -4 19 -8z m283 -10 c1 -13 -5 -18 -20 -17 -18 1 -19 2 -4 6 13
3 15 8 8 17 -8 9 -7 13 2 13 7 0 14 -9 14 -19z m110 7 c0 -8 -4 -12 -9 -9 -4
3 -8 9 -8 15 0 5 4 9 8 9 5 0 9 -7 9 -15z m549 -3 c-2 -4 30 -8 72 -10 42 -1
79 -7 82 -12 4 -6 12 -10 17 -8 6 2 10 -1 10 -6 -1 -6 -22 -11 -46 -12 -29 -1
-47 -7 -53 -18 -5 -10 -22 -16 -41 -16 -24 0 -28 3 -17 10 12 8 9 10 -13 10
-16 0 -26 4 -22 10 3 6 0 10 -8 10 -22 0 -16 -30 7 -31 20 -1 20 -1 1 -6 -11
-3 -23 -10 -27 -17 -6 -8 -8 -7 -8 2 0 6 -9 12 -19 12 -14 0 -18 -5 -14 -20 3
-12 0 -20 -6 -20 -7 0 -9 5 -6 10 3 6 -3 10 -13 10 -32 0 -35 28 -4 33 15 2
-2 4 -38 4 -53 0 -58 -1 -30 -7 34 -7 33 -7 -15 -10 -27 -1 -42 -4 -32 -7 18
-5 18 -5 0 -19 -10 -7 -29 -14 -43 -14 -20 0 -22 -2 -10 -10 13 -9 13 -10 0
-10 -13 0 -13 -1 0 -10 8 -5 25 -7 37 -4 13 4 31 3 40 -1 17 -7 16 -8 -2 -15
-19 -8 -19 -9 3 -9 20 -1 28 14 22 44 -1 5 7 2 18 -8 23 -21 32 -22 32 -1 0 8
5 12 10 9 6 -4 7 -11 4 -17 -4 -6 -1 -8 7 -6 8 3 13 11 11 17 -1 7 2 10 8 6 6
-3 8 -10 5 -15 -3 -4 15 -6 39 -5 60 4 52 -15 -26 -60 -33 -20 -71 -49 -85
-65 -33 -40 -73 -60 -118 -60 -19 0 -63 -8 -96 -17 -52 -14 -64 -22 -77 -50
-10 -22 -27 -36 -49 -44 -34 -11 -54 -39 -67 -91 -5 -23 -12 -28 -36 -28 -17
0 -30 2 -30 4 0 14 69 198 111 296 l50 116 37 -1 c24 -1 36 -5 34 -14 -1 -7 2
-10 8 -6 5 3 11 16 11 28 1 16 3 17 6 5 2 -10 10 -15 19 -11 9 3 13 0 11 -8
-2 -8 -2 -11 0 -6 3 4 13 7 24 7 18 0 23 10 20 38 -1 7 11 12 31 13 18 0 27 3
21 6 -9 3 -10 10 -3 24 8 15 7 19 -5 19 -8 0 -15 -4 -15 -10 0 -5 -12 -10 -27
-11 -16 0 -22 -3 -15 -6 16 -6 -3 -33 -25 -33 -22 0 -46 27 -30 33 7 3 5 6 -5
6 -10 1 -18 -3 -18 -9 0 -5 -4 -10 -8 -10 -5 0 -9 7 -9 15 0 9 10 15 26 16 25
1 25 2 -4 9 l-30 8 28 1 c29 1 38 25 12 35 -9 3 -15 0 -15 -9 0 -8 -5 -15 -10
-15 -7 0 -7 6 0 19 5 11 19 19 30 18 17 -1 20 -8 20 -44 0 -24 5 -43 11 -43 5
0 7 5 4 10 -4 6 -3 10 2 9 26 -5 50 3 50 16 0 9 -9 15 -21 15 -17 0 -18 -2 -6
-10 12 -8 11 -10 -7 -10 -23 0 -27 18 -8 32 6 5 5 8 -3 8 -7 0 -11 4 -7 9 3 5
29 8 58 6 28 -1 60 1 70 6 9 6 17 6 17 1 0 -5 24 -8 52 -8 42 1 53 -3 56 -17
2 -10 -3 -17 -12 -17 -9 0 -15 3 -13 8 1 4 -1 8 -5 10 -5 1 -8 -1 -7 -5 0 -5
-10 -11 -23 -15 -14 -4 0 -6 35 -6 35 1 53 4 45 9 -7 5 -9 9 -5 9 4 0 3 9 -3
20 -7 14 -7 20 0 20 5 0 10 -4 10 -10 0 -5 3 -9 8 -9 19 3 25 -2 12 -11 -13
-8 -12 -10 3 -10 15 0 22 18 18 43 -1 5 3 6 9 2 6 -3 8 -10 6 -13z m-568 -34
c-2 -13 -11 -24 -20 -26 -21 -4 -24 18 -6 36 19 19 30 14 26 -10z m-161 -44
c-3 -3 -12 -4 -19 -1 -8 3 -5 6 6 6 11 1 17 -2 13 -5z m129 -20 c-13 -9 -14
-13 -4 -17 7 -3 4 -6 -8 -6 -12 -1 -21 5 -21 14 0 8 9 15 19 15 12 0 16 4 12
12 -5 7 -3 8 6 3 10 -6 9 -11 -4 -21z m-469 -9 c0 -8 -4 -15 -9 -15 -4 0 -8 4
-8 9 0 5 -8 12 -17 14 -12 3 -9 5 8 6 17 1 26 -4 26 -14z m335 8 c-18 -2 -30
-9 -27 -14 4 -5 0 -9 -8 -9 -7 0 -14 7 -14 15 0 11 11 15 41 13 37 -1 38 -2 8
-5z m591 0 c-10 -3 -10 -10 -1 -26 11 -21 10 -21 -8 -7 -46 36 -47 40 -12 39
18 0 27 -3 21 -6z m150 0 c-7 -2 -19 -2 -25 0 -7 3 -2 5 12 5 14 0 19 -2 13
-5z m33 -2 c-4 -5 -3 -11 1 -14 5 -2 3 -2 -4 -1 -7 2 -19 -3 -27 -11 -19 -19
-27 -19 -20 0 4 8 12 15 20 15 8 0 14 5 14 10 0 6 5 10 11 10 5 0 8 -4 5 -9z
m-972 -26 c-4 -8 -10 -12 -15 -9 -11 6 -2 24 11 24 5 0 7 -7 4 -15z m213 9
c-3 -3 -12 -4 -19 -1 -8 3 -5 6 6 6 11 1 17 -2 13 -5z m303 -9 c0 -8 -4 -15
-8 -15 -5 0 -9 7 -9 15 0 8 4 15 9 15 4 0 8 -7 8 -15z m27 0 c0 -8 -4 -15 -9
-15 -4 0 -8 7 -8 15 0 8 4 15 8 15 5 0 9 -7 9 -15z m370 9 c-3 -3 -12 -4 -19
-1 -8 3 -5 6 6 6 11 1 17 -2 13 -5z m-1087 -24 c0 -5 -2 -10 -4 -10 -3 0 -8 5
-11 10 -3 6 -1 10 4 10 6 0 11 -4 11 -10z m30 0 c0 -5 -2 -10 -4 -10 -3 0 -8
5 -11 10 -3 6 -1 10 4 10 6 0 11 -4 11 -10z m110 6 c0 -9 -30 -14 -35 -6 -4 6
3 10 14 10 12 0 21 -2 21 -4z m930 -2 c0 -8 -19 -13 -24 -6 -3 5 1 9 9 9 8 0
15 -2 15 -3z m70 -4 c0 -5 -4 -10 -10 -10 -5 0 -10 5 -10 10 0 6 5 10 10 10 6
0 10 -4 10 -10z m375 -60 c48 -7 65 -14 87 -39 16 -17 28 -42 28 -54 0 -36 33
-63 92 -77 29 -7 59 -18 67 -24 18 -14 -36 -25 -136 -25 -68 -1 -74 -3 -102
-33 -17 -18 -31 -36 -31 -41 0 -14 -65 -47 -95 -47 -17 0 -40 -7 -52 -15 -18
-13 -58 -15 -241 -13 l-220 3 22 55 c20 49 27 57 67 72 24 9 58 17 74 18 48 1
110 35 146 80 19 23 52 53 74 66 22 13 56 39 75 59 28 29 40 35 60 30 14 -3
52 -10 85 -15z m-1952 -211 c-21 -34 -58 -83 -81 -110 l-44 -49 -101 0 -102 0
64 30 c35 17 82 45 104 63 36 28 187 127 194 127 2 0 -14 -27 -34 -61z m-442
-293 c-7 -8 -40 -17 -74 -21 -34 -4 -78 -16 -97 -26 -19 -11 -40 -19 -45 -19
-6 0 -26 -11 -45 -25 -38 -28 -90 -34 -90 -10 0 8 10 20 23 26 12 7 44 29 71
50 l49 39 110 0 c93 0 108 -2 98 -14z m544 4 c-3 -5 -24 -14 -46 -20 -23 -6
-61 -29 -86 -52 l-44 -42 32 62 33 62 59 0 c35 0 56 -4 52 -10z m633 -2 c-3
-7 -18 -14 -34 -16 -62 -6 -75 -13 -90 -47 -8 -19 -14 -47 -14 -63 0 -22 -12
-41 -50 -76 -43 -40 -55 -46 -92 -46 -60 0 -109 -28 -133 -77 -27 -55 -42 -71
-87 -94 -29 -15 -45 -34 -66 -75 -25 -52 -32 -58 -107 -93 -47 -23 -96 -55
-119 -79 -37 -39 -38 -42 -26 -72 12 -28 10 -34 -14 -68 l-26 -37 47 -40 c114
-96 108 -87 89 -123 -9 -17 -16 -38 -16 -46 0 -19 49 -41 112 -50 26 -4 58
-16 72 -27 36 -28 125 -54 139 -40 6 6 29 11 51 11 23 0 62 10 88 22 38 18 47
28 47 48 1 42 -51 90 -96 90 -10 0 -23 12 -30 26 -11 23 -9 29 15 51 33 30 30
50 -11 84 l-30 25 60 62 c53 54 66 62 98 62 20 0 45 5 56 10 24 13 24 18 0
-145 -11 -71 -27 -204 -36 -295 -9 -91 -18 -175 -21 -187 l-4 -23 -404 0 -404
0 -44 63 c-24 34 -54 78 -66 98 l-22 36 29 114 c16 63 38 146 49 184 11 39 25
91 33 117 l13 47 47 -6 c45 -5 50 -3 81 30 18 19 48 42 66 52 18 9 35 22 38
30 4 8 28 30 55 50 27 19 49 38 49 42 0 5 -36 8 -79 8 -67 0 -84 4 -110 23
-16 12 -35 22 -41 22 -14 0 -15 -4 39 117 44 98 52 110 92 133 25 14 78 59
119 101 l75 76 308 2 c243 1 308 -2 305 -11z m995 -9 c-3 -11 -17 -25 -32 -30
-14 -6 -33 -16 -41 -24 -8 -7 -26 -16 -40 -20 -14 -4 -34 -15 -45 -25 -11 -10
-37 -21 -58 -24 -62 -11 -82 -25 -105 -69 -22 -44 -33 -92 -37 -164 -2 -30
-13 -57 -39 -92 -36 -49 -44 -79 -27 -97 6 -5 6 -27 -1 -57 -12 -57 3 -126 33
-153 10 -9 28 -41 39 -70 22 -61 64 -133 88 -151 14 -12 14 -13 -5 -13 -11 0
-28 -9 -38 -20 -10 -11 -37 -31 -61 -45 -41 -24 -43 -24 -87 -8 -44 16 -46 16
-123 -12 -53 -19 -90 -40 -114 -65 -71 -72 -99 -87 -178 -93 -41 -3 -80 -11
-88 -17 -12 -11 -37 -19 -113 -37 l-24 -6 7 74 c23 243 87 639 117 724 24 70
35 81 94 90 25 3 45 10 45 14 0 4 18 16 40 26 54 24 66 40 99 131 22 62 36 84
62 102 45 31 116 106 124 131 6 21 12 21 260 21 251 0 253 0 248 -21z m1691
-14 c32 -41 49 -44 78 -10 24 28 48 19 48 -20 0 -12 9 -30 20 -40 11 -10 26
-31 34 -46 l14 -28 -31 6 c-17 4 -47 21 -66 40 -40 39 -80 43 -118 13 -33 -26
-46 -25 -97 5 -25 14 -50 23 -60 19 -8 -3 -29 -1 -46 5 -26 9 -36 7 -66 -14
-25 -17 -44 -23 -63 -19 -18 4 -33 0 -43 -10 -14 -14 -17 -12 -29 15 -10 26
-16 30 -39 25 -29 -5 -64 23 -89 72 l-12 22 269 0 270 0 26 -35z m-3690 -172
c-9 -21 -18 -43 -20 -49 -3 -6 -36 -21 -75 -33 -38 -13 -82 -33 -96 -45 -17
-13 -43 -21 -68 -22 -22 -1 -67 -8 -100 -17 -76 -20 -115 -21 -115 -3 0 18 71
46 119 46 20 0 60 11 87 25 27 14 58 25 70 25 11 0 35 11 54 25 18 13 54 32
79 42 25 9 50 23 54 30 18 29 26 11 11 -24z m3293 -23 c21 -22 44 -40 53 -40
9 0 27 -12 41 -26 21 -23 30 -25 67 -20 39 5 47 3 73 -23 16 -16 29 -36 29
-43 0 -21 46 -61 83 -73 24 -8 33 -17 38 -42 9 -48 24 -60 79 -67 35 -5 53
-13 60 -26 6 -11 18 -20 26 -20 9 0 14 -6 12 -12 -3 -7 -27 -16 -54 -19 -28
-4 -69 -18 -91 -32 -36 -23 -45 -25 -72 -14 -26 10 -37 8 -76 -11 -35 -17 -51
-20 -65 -12 -10 5 -41 10 -68 10 -45 0 -51 2 -62 29 -6 16 -9 39 -6 50 3 12 9
31 12 42 4 13 2 19 -3 16 -6 -4 -27 -2 -48 4 -36 10 -37 12 -32 46 6 33 5 34
-12 19 -22 -20 -41 -21 -41 -2 0 24 -28 45 -51 39 -15 -4 -29 3 -49 25 -15 17
-30 35 -32 39 -1 5 -16 19 -33 32 -22 16 -33 37 -42 74 -7 31 -8 56 -3 61 9 9
43 13 158 20 29 2 56 6 59 10 10 9 11 9 50 -34z m855 -100 c18 -17 44 -34 58
-37 14 -3 41 -20 61 -36 29 -24 34 -35 31 -59 -4 -27 -6 -28 -26 -15 -31 21
-85 31 -100 18 -9 -8 -17 4 -35 52 -27 73 -35 107 -28 107 3 0 21 -14 39 -30z
m-4217 -43 c-14 -33 -17 -36 -41 -27 -14 6 -39 10 -55 10 -32 0 -37 11 -14 30
17 14 119 39 123 30 1 -4 -4 -23 -13 -43z m-481 -95 c2 -4 7 -23 11 -42 6 -35
6 -35 -97 -109 -329 -237 -1061 -737 -1148 -786 -35 -19 20 24 305 237 307
230 715 545 840 649 72 60 80 65 89 51z m298 -477 c-5 -29 -5 -29 -21 3 -10
19 -9 22 7 22 15 0 18 -5 14 -25z m973 -527 c45 -12 45 -12 45 -57 0 -31 -6
-51 -20 -66 -18 -20 -19 -23 -5 -35 21 -18 21 -120 0 -120 -19 0 -20 -38 -1
-59 11 -13 13 -37 8 -114 l-7 -98 -93 58 c-192 119 -454 339 -553 464 l-31 39
306 0 c207 0 320 -4 351 -12z m184 -82 c9 -10 8 -15 -4 -20 -10 -4 -15 1 -15
14 0 24 4 25 19 6z m1 -137 c0 -5 -7 -9 -15 -9 -8 0 -15 7 -15 15 0 9 6 12 15
9 8 -4 15 -10 15 -15z m22 -259 c15 -26 34 -44 56 -51 40 -13 41 -25 2 -34
-33 -7 -38 -19 -15 -32 18 -10 57 -83 44 -83 -5 0 -40 14 -79 31 l-70 32 0 99
c0 95 1 98 20 88 11 -6 30 -28 42 -50z m512 -249 c4 -5 0 -11 -6 -14 -10 -3
-10 -7 0 -20 11 -13 10 -18 -11 -32 -23 -15 -28 -15 -62 -1 -21 9 -46 16 -57
16 -12 0 -17 4 -12 12 5 8 0 9 -14 6 -14 -4 -22 -2 -22 7 0 7 -6 16 -12 18 -7
3 -3 6 10 6 12 1 22 -4 22 -11 0 -9 3 -9 11 -1 12 12 57 -2 71 -22 4 -6 8 -2
8 9 0 11 3 17 6 13 4 -3 13 0 21 8 16 17 39 19 47 6z m46 -10 c0 12 2 12 9 0
5 -8 18 -12 31 -8 14 3 20 1 17 -6 -2 -7 -17 -11 -33 -10 -25 2 -26 1 -9 -6
18 -9 17 -10 -7 -10 -15 -1 -30 -5 -33 -11 -3 -5 -11 -10 -17 -10 -6 0 -3 9 8
21 10 11 14 20 9 19 -21 -5 -25 1 -13 14 9 10 17 11 26 4 8 -7 12 -6 12 3z"/>
<path d="M2833 7618 c-4 -7 -9 -95 -11 -196 -5 -268 16 -351 138 -542 52 -80
95 -128 107 -117 3 4 -8 30 -25 57 -41 66 -57 125 -81 296 -11 78 -35 195 -54
260 -19 66 -38 147 -42 182 -7 63 -17 82 -32 60z"/>
<path d="M3898 3143 c7 -3 16 -2 19 1 4 3 -2 6 -13 5 -11 0 -14 -3 -6 -6z"/>
<path d="M3938 3143 c7 -3 16 -2 19 1 4 3 -2 6 -13 5 -11 0 -14 -3 -6 -6z"/>
<path d="M4043 3143 c9 -2 23 -2 30 0 6 3 -1 5 -18 5 -16 0 -22 -2 -12 -5z"/>
<path d="M3888 3123 c6 -2 18 -2 25 0 6 3 1 5 -13 5 -14 0 -19 -2 -12 -5z"/>
<path d="M3978 3013 c7 -3 16 -2 19 1 4 3 -2 6 -13 5 -11 0 -14 -3 -6 -6z"/>
<path d="M4855 3170 c-16 -7 -17 -9 -3 -9 9 -1 20 4 23 9 7 11 7 11 -20 0z"/>
<path d="M4918 3163 c6 -2 18 -2 25 0 6 3 1 5 -13 5 -14 0 -19 -2 -12 -5z"/>
<path d="M4548 3143 c7 -3 16 -2 19 1 4 3 -2 6 -13 5 -11 0 -14 -3 -6 -6z"/>
<path d="M4846 3135 c4 -8 10 -15 16 -15 5 0 7 4 4 9 -4 5 0 12 6 14 7 3 3 6
-9 6 -16 1 -21 -3 -17 -14z"/>
<path d="M4468 3083 c7 -3 16 -2 19 1 4 3 -2 6 -13 5 -11 0 -14 -3 -6 -6z"/>
<path d="M4743 3013 c9 -2 23 -2 30 0 6 3 -1 5 -18 5 -16 0 -22 -2 -12 -5z"/>
<path d="M4384 273 c-13 -20 -13 -25 -2 -16 8 7 17 11 19 8 3 -2 5 5 6 15 2
26 -1 25 -23 -7z"/>
<path d="M4308 263 c6 -2 18 -2 25 0 6 3 1 5 -13 5 -14 0 -19 -2 -12 -5z"/>
<path d="M2055 8211 c-3 -6 12 -69 35 -140 56 -179 118 -260 275 -358 50 -31
139 -73 156 -73 20 0 -6 31 -49 59 -96 62 -258 257 -332 401 -51 100 -73 129
-85 111z"/>
</g>
</svg>
